<?xml version="1.0" encoding="UTF-8" standalone="no"?>
<!-- Created with Inkscape (http://www.inkscape.org/) -->

<svg
   width="1280"
   height="1280"
   viewBox="0 0 338.66666 338.66668"
   version="1.1"
   id="svg5"
   shape-rendering="crispEdges"
   inkscape:version="1.1 (c68e22c387, 2021-05-23)"
   sodipodi:docname="FacialRidgesB_south.svg"
   inkscape:export-filename="C:\Users\Maxim\OneDrive\Desktop\Modding\RimWorld\Madness Pawns\Madness Pawns\Textures\Things\Pawn\Humanlike\HeadAttachments\FacialRidges\FacialRidgesB_south.png"
   inkscape:export-xdpi="19.200001"
   inkscape:export-ydpi="19.200001"
   xmlns:inkscape="http://www.inkscape.org/namespaces/inkscape"
   xmlns:sodipodi="http://sodipodi.sourceforge.net/DTD/sodipodi-0.dtd"
   xmlns:xlink="http://www.w3.org/1999/xlink"
   xmlns="http://www.w3.org/2000/svg"
   xmlns:svg="http://www.w3.org/2000/svg">
  <sodipodi:namedview
     id="namedview7"
     pagecolor="#ffffff"
     bordercolor="#111111"
     borderopacity="1"
     inkscape:pageshadow="0"
     inkscape:pageopacity="0"
     inkscape:pagecheckerboard="true"
     inkscape:document-units="px"
     showgrid="false"
     units="px"
     showguides="true"
     inkscape:zoom="0.99999999"
     inkscape:cx="615.50001"
     inkscape:cy="658.50001"
     inkscape:window-width="1920"
     inkscape:window-height="1017"
     inkscape:window-x="-8"
     inkscape:window-y="-8"
     inkscape:window-maximized="1"
     inkscape:current-layer="layer1"
     inkscape:guide-bbox="true"
     inkscape:snap-object-midpoints="false"
     inkscape:snap-global="true"
     inkscape:snap-bbox="true"
     inkscape:bbox-nodes="false"
     inkscape:snap-smooth-nodes="true"
     inkscape:snap-bbox-midpoints="true"
     inkscape:snap-to-guides="true"
     inkscape:object-nodes="true"
     inkscape:snap-nodes="false"
     inkscape:snap-page="true">
    <inkscape:grid
       type="xygrid"
       id="grid23"
       visible="true"
       enabled="true"
       dotted="false" />
    <sodipodi:guide
       position="169.33333,165.56612"
       orientation="1,0"
       id="guide96" />
    <sodipodi:guide
       position="169.33333,165.56612"
       orientation="0,-1"
       id="guide98" />
    <sodipodi:guide
       position="165.59156,183.87051"
       orientation="1,0"
       id="guide3406" />
  </sodipodi:namedview>
  <defs
     id="defs2">
    <inkscape:path-effect
       effect="mirror_symmetry"
       start_point="169.33333,174.95406"
       end_point="169.33333,218.61031"
       center_point="169.33333,196.78218"
       id="path-effect1257"
       is_visible="true"
       lpeversion="1.1"
       mode="free"
       discard_orig_path="false"
       fuse_paths="false"
       oposite_fuse="false"
       split_items="false"
       split_open="false" />
    <linearGradient
       inkscape:collect="always"
       id="linearGradient133751">
      <stop
         style="stop-color:#f2f2f2;stop-opacity:1"
         offset="0"
         id="stop133747" />
      <stop
         style="stop-color:#f2f2f2;stop-opacity:1"
         offset="0.80000001"
         id="stop246521" />
      <stop
         style="stop-color:#b3b3b3;stop-opacity:1"
         offset="1"
         id="stop133749" />
    </linearGradient>
    <radialGradient
       inkscape:collect="always"
       xlink:href="#linearGradient133751"
       id="radialGradient246293"
       gradientUnits="userSpaceOnUse"
       gradientTransform="matrix(-0.98685122,0,4.4420411e-6,-1.3702958,357.30059,439.34568)"
       cx="172.19751"
       cy="194.29756"
       fx="172.19751"
       fy="194.29756"
       r="54.159453" />
    <inkscape:path-effect
       effect="mirror_symmetry"
       start_point="169.33333,162.26983"
       end_point="169.33333,183.93127"
       center_point="169.33333,173.10055"
       id="path-effect2786"
       is_visible="true"
       lpeversion="1.1"
       mode="free"
       discard_orig_path="false"
       fuse_paths="false"
       oposite_fuse="false"
       split_items="false"
       split_open="false" />
    <inkscape:path-effect
       effect="mirror_symmetry"
       start_point="164.56532,168.80302"
       end_point="164.56532,177.53426"
       center_point="164.56532,173.16864"
       id="path-effect1193"
       is_visible="true"
       lpeversion="1.1"
       mode="free"
       discard_orig_path="false"
       fuse_paths="false"
       oposite_fuse="false"
       split_items="false"
       split_open="false" />
  </defs>
  <g
     inkscape:groupmode="layer"
     id="layer2"
     inkscape:label="Head"
     style="display:inline">
    <ellipse
       style="mix-blend-mode:luminosity;fill:url(#radialGradient246293);fill-opacity:1;stroke:#000000;stroke-width:9.81062;stroke-miterlimit:4;stroke-dasharray:none;stroke-opacity:1"
       id="path584"
       cx="169.33333"
       cy="173.1015"
       rx="49.254143"
       ry="63.578056"
       inkscape:export-filename="C:\Program Files (x86)\Steam\steamapps\common\RimWorld\Mods\Madness Pawns\Textures\Things\Pawn\Humanlike\Heads\Male\Male_Narrow_Normal_south.png"
       inkscape:export-xdpi="9.6000004"
       inkscape:export-ydpi="9.6000004" />
  </g>
  <g
     inkscape:groupmode="layer"
     id="layer3"
     inkscape:label="Face_M"
     style="display:none"
     sodipodi:insensitive="true">
    <path
       style="display:inline;fill:none;stroke:#000000;stroke-width:3.96875;stroke-linecap:round;stroke-linejoin:miter;stroke-miterlimit:4;stroke-dasharray:none;stroke-opacity:1"
       d="m 169.33333,140.36099 c 0,65.48103 0,65.48103 0,65.48103"
       id="path1875" />
    <path
       style="display:inline;fill:none;stroke:#000000;stroke-width:3.96875;stroke-linecap:round;stroke-linejoin:miter;stroke-miterlimit:4;stroke-dasharray:none;stroke-opacity:1"
       d="m 144.63762,173.1015 c 24.16654,0 24.16654,0 49.39141,0"
       id="path2880"
       sodipodi:nodetypes="cc"
       inkscape:export-filename="C:\Users\Maxim\OneDrive\Desktop\Modding\RimWorld\Madness Pawns\Textures\Things\Pawn\Humanlike\Heads\Male\Male_Narrow_Normal_south.png"
       inkscape:export-xdpi="9.6000004"
       inkscape:export-ydpi="9.6000004" />
  </g>
  <g
     inkscape:groupmode="layer"
     id="layer4"
     inkscape:label="Face_F"
     style="display:none">
    <path
       style="display:inline;fill:#000000;stroke:none;stroke-width:0.264583px;stroke-linecap:butt;stroke-linejoin:miter;stroke-opacity:1"
       d="m 136.82639,167.77323 -3.83646,-2.38124 c 0,0 6.14022,25.52562 34.13125,14.05775 -3.82152,-14.26212 -11.70044,-19.98448 -20.40668,-19.98448 -7.20585,0 -9.88811,6.62076 -9.88811,8.30797 z m 65.01388,0 3.83646,-2.38124 c 0,0 -6.14022,25.52562 -34.13125,14.05775 3.82152,-14.26212 11.70044,-19.98448 20.40668,-19.98448 7.20585,0 9.88811,6.62076 9.88811,8.30797 z"
       id="path2267"
       sodipodi:nodetypes="cccsc"
       inkscape:path-effect="#path-effect2786"
       inkscape:original-d="m 136.82639,167.77323 -3.83646,-2.38124 c 0,0 6.14022,25.52562 34.13125,14.05775 -3.82152,-14.26212 -11.70044,-19.98448 -20.40668,-19.98448 -7.20585,0 -9.88811,6.62076 -9.88811,8.30797 z"
       transform="translate(9.9999989e-6,1.1483186)" />
    <path
       style="display:inline;fill:#ffffff;stroke:#808080;stroke-width:0;stroke-linecap:round;stroke-linejoin:round;stroke-miterlimit:4;stroke-dasharray:none"
       id="path1191"
       inkscape:path-effect="#path-effect1193"
       sodipodi:type="arc"
       sodipodi:cx="150.74635"
       sodipodi:cy="174.6219"
       sodipodi:rx="2.778125"
       sodipodi:ry="5.6885414"
       transform="translate(4.76801,0.61250417)"
       d="m 153.52448,174.6219 c 0,3.1417 -1.24381,5.68854 -2.77813,5.68854 -1.53431,0 -2.77812,-2.54684 -2.77812,-5.68854 0,-3.14169 1.24381,-5.68854 2.77812,-5.68854 1.53432,0 2.77813,2.54685 2.77813,5.68854 z m 22.08168,0 c 0,3.1417 1.24381,5.68854 2.77813,5.68854 1.53431,0 2.77812,-2.54684 2.77812,-5.68854 0,-3.14169 -1.24381,-5.68854 -2.77812,-5.68854 -1.53432,0 -2.77813,2.54685 -2.77813,5.68854 z" />
  </g>
  <g
     inkscape:groupmode="layer"
     id="layer1"
     inkscape:label="Ridges"
     style="opacity:1">
    <path
       style="opacity:0.3;fill:#000000;stroke:#000000;stroke-width:0;stroke-linecap:butt;stroke-linejoin:miter;stroke-miterlimit:4;stroke-dasharray:none;stroke-opacity:1"
       d="m 169.33333,133.88003 c -1.73494,0 -2.29368,2.39112 -2.29368,2.9639 -2.73427,1.24973 -13.59844,4.56358 -13.59844,6.42933 0,0.27041 0.8618,0.46481 2.12636,0.61562 0.26885,1.08773 2.79363,1.38504 3.38173,0.24434 3.50349,0.26091 6.8341,0.33372 6.8341,0.68788 0,1.29154 -20.947,5.62343 -20.947,7.71946 0,0.44684 1.36187,0.74831 3.38791,0.96608 0.29903,1.0937 2.60247,1.30474 3.1284,0.2322 6.13508,0.41379 14.23885,0.42111 14.23885,1.05732 0,1.87147 -27.91468,5.16264 -27.91468,8.91008 0,0.41403 1.97051,0.73919 4.41962,0.99388 0.41004,1.15249 2.27792,1.3007 2.8616,0.26722 7.43827,0.51061 17.90371,0.61845 17.90371,0.61845 0,0 2.6358,1.05907 6.47152,1.05907 m 0,-32.76483 c 1.73494,0 2.29368,2.39112 2.29368,2.9639 2.73427,1.24973 13.59844,4.56358 13.59844,6.42933 0,0.27041 -0.8618,0.46481 -2.12636,0.61562 -0.26885,1.08773 -2.79363,1.38504 -3.38173,0.24434 -3.50349,0.26091 -6.8341,0.33372 -6.8341,0.68788 0,1.29154 20.947,5.62343 20.947,7.71946 0,0.44684 -1.36187,0.74831 -3.38791,0.96608 -0.29903,1.0937 -2.60247,1.30474 -3.1284,0.2322 -6.13508,0.41379 -14.23885,0.42111 -14.23885,1.05732 0,1.87147 27.91468,5.16264 27.91468,8.91008 0,0.41403 -1.97051,0.73919 -4.41962,0.99388 -0.41004,1.15249 -2.27792,1.3007 -2.8616,0.26722 -7.43827,0.51061 -17.90371,0.61845 -17.90371,0.61845 0,0 -2.6358,1.05907 -6.47152,1.05907"
       id="path953"
       sodipodi:nodetypes="ccscccscccscccc"
       inkscape:path-effect="#path-effect1257"
       inkscape:original-d="m 169.33333,133.88003 c -1.73494,0 -2.29368,2.39112 -2.29368,2.9639 -2.73427,1.24973 -13.59844,4.56358 -13.59844,6.42933 0,0.27041 0.8618,0.46481 2.12636,0.61562 0.26885,1.08773 2.79363,1.38504 3.38173,0.24434 3.50349,0.26091 6.8341,0.33372 6.8341,0.68788 0,1.29154 -20.947,5.62343 -20.947,7.71946 0,0.44684 1.36187,0.74831 3.38791,0.96608 0.29903,1.0937 2.60247,1.30474 3.1284,0.2322 6.13508,0.41379 14.23885,0.42111 14.23885,1.05732 0,1.87147 -27.91468,5.16264 -27.91468,8.91008 0,0.41403 1.97051,0.73919 4.41962,0.99388 0.41004,1.15249 2.27792,1.3007 2.8616,0.26722 7.43827,0.51061 17.90371,0.61845 17.90371,0.61845 0,0 2.6358,1.05907 6.47152,1.05907"
       transform="matrix(1.406332,0,0,1.406332,-68.805559,-74.775529)" />
  </g>
</svg>
