<?xml version="1.0" encoding="UTF-8" standalone="no"?>
<!-- Created with Inkscape (http://www.inkscape.org/) -->

<svg
   width="1280"
   height="1280"
   viewBox="0 0 338.66666 338.66668"
   version="1.1"
   id="svg5"
   shape-rendering="crispEdges"
   inkscape:version="1.1 (c68e22c387, 2021-05-23)"
   sodipodi:docname="FacialRidgesB_east.svg"
   inkscape:export-filename="C:\Users\Maxim\OneDrive\Desktop\Modding\RimWorld\Madness Pawns\Madness Pawns\Textures\Things\Pawn\Humanlike\HeadAttachments\FacialRidges\FacialRidgesB_east.png"
   inkscape:export-xdpi="19.200001"
   inkscape:export-ydpi="19.200001"
   xmlns:inkscape="http://www.inkscape.org/namespaces/inkscape"
   xmlns:sodipodi="http://sodipodi.sourceforge.net/DTD/sodipodi-0.dtd"
   xmlns:xlink="http://www.w3.org/1999/xlink"
   xmlns="http://www.w3.org/2000/svg"
   xmlns:svg="http://www.w3.org/2000/svg">
  <sodipodi:namedview
     id="namedview7"
     pagecolor="#ffffff"
     bordercolor="#111111"
     borderopacity="1"
     inkscape:pageshadow="0"
     inkscape:pageopacity="0"
     inkscape:pagecheckerboard="true"
     inkscape:document-units="px"
     showgrid="false"
     units="px"
     showguides="true"
     inkscape:zoom="2.8284271"
     inkscape:cx="711.5262"
     inkscape:cy="522.72869"
     inkscape:window-width="1920"
     inkscape:window-height="1017"
     inkscape:window-x="-8"
     inkscape:window-y="-8"
     inkscape:window-maximized="1"
     inkscape:current-layer="layer1"
     inkscape:guide-bbox="true"
     inkscape:snap-object-midpoints="true"
     inkscape:snap-midpoints="false"
     inkscape:object-paths="false">
    <inkscape:grid
       type="xygrid"
       id="grid23"
       visible="true"
       enabled="true"
       dotted="false" />
    <sodipodi:guide
       position="169.33333,165.56612"
       orientation="1,0"
       id="guide96" />
    <sodipodi:guide
       position="169.33333,169.35973"
       orientation="0,-1"
       id="guide116813" />
    <sodipodi:guide
       position="169.33333,169.33334"
       orientation="1,0"
       id="guide116815" />
  </sodipodi:namedview>
  <defs
     id="defs2">
    <linearGradient
       inkscape:collect="always"
       id="linearGradient133751">
      <stop
         style="stop-color:#f2f2f2;stop-opacity:1"
         offset="0"
         id="stop133747" />
      <stop
         style="stop-color:#f2f2f2;stop-opacity:1"
         offset="0.76650232"
         id="stop246521" />
      <stop
         style="stop-color:#b3b3b3;stop-opacity:1"
         offset="1"
         id="stop133749" />
    </linearGradient>
    <radialGradient
       inkscape:collect="always"
       xlink:href="#linearGradient133751"
       id="radialGradient246293"
       gradientUnits="userSpaceOnUse"
       gradientTransform="matrix(-1.0552926,0,5.3720846e-6,-1.4548685,418.50255,484.05163)"
       cx="208.53574"
       cy="214.82936"
       fx="208.53574"
       fy="214.82936"
       r="54.159453" />
    <inkscape:path-effect
       effect="mirror_symmetry"
       start_point="169.33333,174.95406"
       end_point="169.33333,218.61031"
       center_point="169.33333,196.78218"
       id="path-effect1257"
       is_visible="true"
       lpeversion="1.1"
       mode="free"
       discard_orig_path="false"
       fuse_paths="false"
       oposite_fuse="false"
       split_items="false"
       split_open="false" />
  </defs>
  <g
     inkscape:groupmode="layer"
     id="layer3"
     inkscape:label="Face"
     style="display:none"
     sodipodi:insensitive="true">
    <g
       inkscape:groupmode="layer"
       id="layer2"
       inkscape:label="Head"
       style="display:inline">
      <ellipse
         style="mix-blend-mode:luminosity;fill:url(#radialGradient246293);fill-opacity:1;stroke:#000000;stroke-width:9.81062;stroke-miterlimit:4;stroke-dasharray:none;stroke-opacity:1"
         id="path584"
         cx="169.33333"
         cy="169.33333"
         rx="49.254143"
         ry="63.578056"
         inkscape:export-filename="C:\Users\Maxim\OneDrive\Desktop\Back.png"
         inkscape:export-xdpi="9.6000004"
         inkscape:export-ydpi="9.6000004" />
    </g>
    <path
       style="display:inline;fill:none;stroke:#000000;stroke-width:3.96875;stroke-linecap:round;stroke-linejoin:miter;stroke-miterlimit:4;stroke-dasharray:none;stroke-opacity:1"
       d="m 195.81481,136.96208 c 8.02558,21.43473 7.84902,43.27037 0,65.48103"
       id="path1875"
       sodipodi:nodetypes="cc"
       inkscape:export-filename="C:\Users\Maxim\OneDrive\Desktop\Back.png"
       inkscape:export-xdpi="9.6000004"
       inkscape:export-ydpi="9.6000004" />
    <path
       style="display:inline;fill:none;stroke:#000000;stroke-width:3.61878;stroke-linecap:round;stroke-linejoin:miter;stroke-miterlimit:4;stroke-dasharray:none;stroke-opacity:1"
       d="m 178.25921,169.30694 c 13.67535,0 26.95818,0 41.06466,0"
       id="path2880"
       sodipodi:nodetypes="cc"
       inkscape:export-filename="C:\Users\Maxim\OneDrive\Desktop\Back.png"
       inkscape:export-xdpi="9.6000004"
       inkscape:export-ydpi="9.6000004" />
  </g>
  <g
     inkscape:groupmode="layer"
     id="layer1"
     inkscape:label="Ridges">
    <path
       style="opacity:0.25;fill:#000000;stroke:#000000;stroke-width:0;stroke-linecap:butt;stroke-linejoin:miter;stroke-miterlimit:4;stroke-dasharray:none;stroke-opacity:1"
       d="m 169.33333,166.64486 c -3.83572,0 -6.47152,-1.05907 -6.47152,-1.05907 0,0 -10.2736,-0.0887 -17.71187,-0.59927 -0.63165,0.97017 -2.69766,0.72442 -3.05344,-0.2864 -2.44911,-0.25469 -4.41962,-0.57985 -4.41962,-0.99388 0,-3.74744 25.82569,-7.03861 25.82569,-8.91008 0,-0.63621 -8.33398,-0.60516 -14.46906,-1.01895 -0.70321,1.055 -2.62742,0.73418 -2.89819,-0.27057 -2.02604,-0.21777 -3.38791,-0.51924 -3.38791,-0.96608 0,-2.09603 17.34997,-6.42792 17.34997,-7.71946 0,-0.35416 -3.56081,-0.46534 -7.0643,-0.72625 -0.52758,1.05152 -2.61149,0.87253 -2.92132,-0.20597 -1.26456,-0.15081 -2.12636,-0.34521 -2.12636,-0.61562 0,-1.86575 8.47948,-5.1796 11.21375,-6.42933 0,-0.57278 -0.49932,-2.9639 1.23562,-2.9639 1.73494,0 3.35174,2.39112 3.35174,2.9639 1.14221,0.52206 4.07242,1.40432 7.09746,2.39075 l 3.99145,4.86015 c -3.50349,0.26091 -7.29451,0.37209 -7.29451,0.72625 0,0.53575 4.15729,1.59465 9.02287,2.80011 l 1.00801,6.49541 c -3.67668,0.14943 -6.62569,0.30621 -6.62569,0.67954 0,0.68207 3.98539,1.55273 9.05115,2.56532 l 0.76977,8.13486 c -2.94195,0.0682 -5.00218,0.0894 -5.00218,0.0894 0,0 -2.6358,1.05907 -6.47152,1.05907"
       id="path953"
       sodipodi:nodetypes="ccccscccscccscccccsccscccc"
       transform="matrix(1.2190641,0,0,1.2190641,-5.10536,-42.838082)" />
  </g>
</svg>
