<?xml version="1.0" encoding="UTF-8" standalone="no"?>
<!-- Created with Inkscape (http://www.inkscape.org/) -->

<svg
   width="1280"
   height="1280"
   viewBox="0 0 338.66666 338.66668"
   version="1.1"
   id="svg5"
   inkscape:version="1.1 (c68e22c387, 2021-05-23)"
   sodipodi:docname="FlakJacketSpikecore_Male_south.svg"
   inkscape:export-filename="C:\Program Files (x86)\Steam\steamapps\common\RimWorld\Mods\Madness Pawns\Textures\Things\Pawn\Humanlike\ApparelStyles\FlakJacketSpikecore\FlakJacketSpikecore_Male_south.png"
   inkscape:export-xdpi="19.200001"
   inkscape:export-ydpi="19.200001"
   xmlns:inkscape="http://www.inkscape.org/namespaces/inkscape"
   xmlns:sodipodi="http://sodipodi.sourceforge.net/DTD/sodipodi-0.dtd"
   xmlns:xlink="http://www.w3.org/1999/xlink"
   xmlns="http://www.w3.org/2000/svg"
   xmlns:svg="http://www.w3.org/2000/svg">
  <sodipodi:namedview
     id="namedview7"
     pagecolor="#ffffff"
     bordercolor="#111111"
     borderopacity="1"
     inkscape:pageshadow="0"
     inkscape:pageopacity="0"
     inkscape:pagecheckerboard="1"
     inkscape:document-units="px"
     showgrid="false"
     showguides="false"
     units="px"
     inkscape:snap-bbox="true"
     inkscape:snap-object-midpoints="true"
     inkscape:bbox-paths="false"
     inkscape:bbox-nodes="true"
     inkscape:snap-bbox-midpoints="true"
     inkscape:snap-page="true"
     inkscape:zoom="1"
     inkscape:cx="528"
     inkscape:cy="854.5"
     inkscape:window-width="1920"
     inkscape:window-height="1017"
     inkscape:window-x="-8"
     inkscape:window-y="-8"
     inkscape:window-maximized="1"
     inkscape:current-layer="layer2"
     inkscape:guide-bbox="true"
     inkscape:snap-global="true"
     inkscape:object-paths="true">
    <sodipodi:guide
       position="169.33332,169.33335"
       orientation="0,-1"
       id="guide989" />
    <sodipodi:guide
       position="169.33332,169.33336"
       orientation="1,0"
       id="guide991" />
  </sodipodi:namedview>
  <defs
     id="defs2">
    <linearGradient
       inkscape:collect="always"
       id="linearGradient9327">
      <stop
         style="stop-color:#808080;stop-opacity:1"
         offset="0"
         id="stop9323" />
      <stop
         style="stop-color:#cccccc;stop-opacity:1"
         offset="1"
         id="stop9325" />
    </linearGradient>
    <linearGradient
       inkscape:collect="always"
       id="linearGradient13972">
      <stop
         style="stop-color:#f9f9f9;stop-opacity:1"
         offset="0"
         id="stop13968" />
      <stop
         style="stop-color:#f9f9f9;stop-opacity:1"
         offset="0.69015801"
         id="stop14232" />
      <stop
         style="stop-color:#999999;stop-opacity:1"
         offset="1"
         id="stop13970" />
    </linearGradient>
    <inkscape:path-effect
       effect="mirror_symmetry"
       start_point="169.33334,134.72832"
       end_point="169.33334,199.99426"
       center_point="169.33334,167.36129"
       id="path-effect10722"
       is_visible="true"
       lpeversion="1.1"
       mode="free"
       discard_orig_path="false"
       fuse_paths="false"
       oposite_fuse="false"
       split_items="false"
       split_open="false" />
    <inkscape:path-effect
       center_point="169.33332,270.79507"
       end_point="169.33332,333.00279"
       start_point="169.33332,208.58736"
       effect="mirror_symmetry"
       id="path-effect9268"
       is_visible="true"
       lpeversion="1.1"
       mode="free"
       discard_orig_path="false"
       fuse_paths="false"
       oposite_fuse="false"
       split_items="false"
       split_open="false" />
    <inkscape:path-effect
       effect="mirror_symmetry"
       start_point="169.33332,171.70605"
       end_point="169.33332,277.67007"
       center_point="169.33332,224.68806"
       id="path-effect8111"
       is_visible="true"
       lpeversion="1.1"
       mode="free"
       discard_orig_path="false"
       fuse_paths="false"
       oposite_fuse="false"
       split_items="false"
       split_open="false" />
    <inkscape:path-effect
       effect="mirror_symmetry"
       start_point="169.33332,203.95637"
       end_point="169.33332,217.82111"
       center_point="169.33332,210.88047"
       id="path-effect8071"
       is_visible="true"
       lpeversion="1.1"
       mode="free"
       discard_orig_path="false"
       fuse_paths="false"
       oposite_fuse="false"
       split_items="false"
       split_open="false" />
    <inkscape:path-effect
       effect="mirror_symmetry"
       start_point="169.33332,114.57288"
       end_point="169.33332,224.09375"
       center_point="169.33332,169.33332"
       id="path-effect6599"
       is_visible="true"
       lpeversion="1.1"
       mode="free"
       discard_orig_path="false"
       fuse_paths="false"
       oposite_fuse="false"
       split_items="false"
       split_open="false" />
    <inkscape:path-effect
       effect="mirror_symmetry"
       start_point="169.33332,175.12886"
       end_point="169.33332,335.49433"
       center_point="169.33332,255.31159"
       id="path-effect1513"
       is_visible="true"
       lpeversion="1.1"
       mode="free"
       discard_orig_path="false"
       fuse_paths="false"
       oposite_fuse="false"
       split_items="false"
       split_open="false" />
    <inkscape:path-effect
       effect="mirror_symmetry"
       start_point="169.33334,-76.979179"
       end_point="169.33334,320.68027"
       center_point="169.33334,121.85055"
       id="path-effect1476"
       is_visible="true"
       lpeversion="1.1"
       mode="free"
       discard_orig_path="false"
       fuse_paths="false"
       oposite_fuse="false"
       split_items="false"
       split_open="false" />
    <inkscape:path-effect
       effect="mirror_symmetry"
       start_point="640.00001,475.3086"
       end_point="640.00001,1047.4492"
       center_point="640.00001,761.37891"
       id="path-effect1473"
       is_visible="true"
       lpeversion="1.1"
       mode="free"
       discard_orig_path="false"
       fuse_paths="false"
       oposite_fuse="false"
       split_items="false"
       split_open="false" />
    <radialGradient
       inkscape:collect="always"
       xlink:href="#linearGradient13972"
       id="radialGradient13974"
       cx="180.4458"
       cy="231.08717"
       fx="180.4458"
       fy="231.08717"
       r="59.805181"
       gradientTransform="matrix(1,0,0,3.0964546,0,-482.77231)"
       gradientUnits="userSpaceOnUse" />
    <linearGradient
       inkscape:collect="always"
       xlink:href="#linearGradient9327"
       id="linearGradient9329"
       x1="104.31838"
       y1="192.8502"
       x2="135.76424"
       y2="192.8502"
       gradientUnits="userSpaceOnUse" />
    <linearGradient
       inkscape:collect="always"
       xlink:href="#linearGradient9327"
       id="linearGradient15525"
       gradientUnits="userSpaceOnUse"
       x1="104.31838"
       y1="192.8502"
       x2="135.76424"
       y2="192.8502"
       gradientTransform="matrix(-1,0,0,1,338.66672,9.9999989e-8)" />
  </defs>
  <g
     inkscape:label="Reference"
     inkscape:groupmode="layer"
     id="layer1"
     style="display:none"
     sodipodi:insensitive="true">
    <path
       id="rect883"
       style="display:inline;fill:#ff0000;fill-opacity:1;stroke:#0000ff;stroke-width:30;stroke-linecap:round;stroke-linejoin:round;stroke-miterlimit:4;stroke-dasharray:none"
       d="m 584.91602,445.38281 c -63.18591,0 -96.14521,46.13859 -97.94727,139.54492 l -8.22266,426.19137 c -0.61253,31.7497 19.1831,55.2657 50.66993,55.2657 H 640 750.58398 c 31.48683,0 51.28246,-23.516 50.66993,-55.2657 L 793.03125,584.92773 C 791.22919,491.5214 758.26989,445.38281 695.08398,445.38281 H 640 Z"
       transform="scale(0.26458334)" />
  </g>
  <g
     inkscape:groupmode="layer"
     id="layer2"
     inkscape:label="Body"
     style="display:inline">
    <path
       style="fill:url(#radialGradient13974);fill-opacity:1;stroke:#000000;stroke-width:1.32292;stroke-linecap:butt;stroke-linejoin:miter;stroke-miterlimit:4;stroke-dasharray:none;stroke-opacity:1"
       d="m 169.33336,199.60124 c -12.89008,-18.93758 -26.8963,-26.89572 -55.15947,-32.92174 -0.25605,36.91767 8.94055,87.0654 -3.89057,118.48148 14.61695,-0.92804 26.18563,0.82757 36.57865,11.86735 0,0 14.53844,-12.4698 22.47135,-12.4698 m -4e-5,-84.95729 c 12.89008,-18.93758 26.8963,-26.89572 55.15947,-32.92174 0.25605,36.91767 -8.94055,87.0654 3.89057,118.48148 -14.61695,-0.92804 -26.18563,0.82757 -36.57865,11.86735 0,0 -14.53844,-12.4698 -22.47135,-12.4698"
       id="path1511"
       inkscape:path-effect="#path-effect1513"
       inkscape:original-d="m 169.33336,199.60124 c -12.89008,-18.93758 -26.8963,-26.89572 -55.15947,-32.92174 -0.25605,36.91767 8.94055,87.0654 -3.89057,118.48148 14.61695,-0.92804 26.18563,0.82757 36.57865,11.86735 0,0 14.53844,-12.4698 22.47135,-12.4698"
       sodipodi:nodetypes="ccccc"
       transform="translate(0,-2.6192414)" />
    <path
       style="fill:#f9f9f9;stroke:#000000;stroke-width:1.32292;stroke-linecap:butt;stroke-linejoin:miter;stroke-miterlimit:4;stroke-dasharray:none;stroke-opacity:1"
       d="m 169.33332,89.618303 c -44.60593,0 -45.66657,21.864857 -57.37435,31.803717 l 11.36119,-1.29224 c -27.809558,16.82256 -17.61363,41.60705 -17.61363,41.60705 46.57498,12.18432 51.70766,37.12566 63.62679,39.238 m 2e-5,-18.14962 c -10.92859,-6.61187 -27.30856,-27.93213 -27.81324,-38.69098 0,0 2.93456,-15.58097 27.81322,-16.28508 m 4e-5,-38.230847 c 44.60593,0 45.66657,21.864857 57.37435,31.803717 l -11.36119,-1.29224 c 27.80956,16.82256 17.61363,41.60705 17.61363,41.60705 -46.57498,12.18432 -51.70766,37.12566 -63.62679,39.238 m -2e-5,-18.14962 c 10.92859,-6.61187 27.30856,-27.93213 27.81324,-38.69098 0,0 -2.93456,-15.58097 -27.81322,-16.28508"
       id="path923"
       sodipodi:nodetypes="cccccccc"
       inkscape:original-d="m 169.33332,89.618303 c -44.60593,0 -45.66657,21.864857 -57.37435,31.803717 l 11.36119,-1.29224 c -27.809558,16.82256 -17.61363,41.60705 -17.61363,41.60705 46.57498,12.18432 51.70766,37.12566 63.62679,39.238 m 2e-5,-18.14962 c -10.92859,-6.61187 -27.30856,-27.93213 -27.81324,-38.69098 0,0 2.93456,-15.58097 27.81322,-16.28508"
       inkscape:path-effect="#path-effect1476"
       transform="translate(0,-2.6192414)" />
    <path
       style="fill:none;stroke:#000000;stroke-width:7.9375;stroke-linecap:round;stroke-linejoin:round;stroke-miterlimit:4;stroke-dasharray:none;stroke-opacity:1"
       d="m 114.17389,168.73748 c -1.00218,48.52356 8.92441,83.58283 -3.89057,116.42351 1.25786,-0.96165 22.10329,-4.53266 36.57865,11.86734 l 22.47135,-12.46981 m 55.15943,-115.82104 c 1.00218,48.52356 -8.92441,83.58283 3.89057,116.42351 -1.25786,-0.96165 -22.10329,-4.53266 -36.57865,11.86734 l -22.47135,-12.46981"
       id="path8682"
       sodipodi:nodetypes="cccc"
       inkscape:path-effect="#path-effect9268"
       inkscape:original-d="m 114.17389,168.73748 c -1.00218,48.52356 8.92441,83.58283 -3.89057,116.42351 1.25786,-0.96165 22.10329,-4.53266 36.57865,11.86734 l 22.47135,-12.46981"
       transform="translate(0,-2.6192414)" />
    <path
       style="fill:url(#linearGradient9329);fill-opacity:1;stroke:#000000;stroke-width:2.64583;stroke-linecap:butt;stroke-linejoin:miter;stroke-miterlimit:4;stroke-dasharray:none;stroke-opacity:1"
       d="m 169.33336,196.982 -4e-5,28.08588 c 0,-1e-5 -23.94591,-14.9887 -61.11874,-14.9887 l -0.25909,-48.7633 z"
       id="path9205"
       sodipodi:nodetypes="ccccc" />
    <path
       style="display:inline;fill:url(#linearGradient15525);fill-opacity:1;stroke:#000000;stroke-width:2.64583;stroke-linecap:butt;stroke-linejoin:miter;stroke-miterlimit:4;stroke-dasharray:none;stroke-opacity:1"
       d="m 169.33336,196.982 4e-5,28.08588 c 0,-1e-5 23.94591,-14.9887 61.11874,-14.9887 l 0.25909,-48.7633 z"
       id="path9205-3"
       sodipodi:nodetypes="ccccc" />
    <path
       style="fill:none;stroke:#000000;stroke-width:7.9375;stroke-linecap:butt;stroke-linejoin:miter;stroke-miterlimit:4;stroke-dasharray:none;stroke-opacity:1"
       d="m 169.33332,89.618303 c -38.45326,0 -54.41051,19.033177 -57.37435,31.803717 h 7.1497 c -10.39282,9.14794 -13.16807,29.06477 -13.40214,42.5131 43.20216,16.06212 39.50285,18.8869 58.99664,34.15243 m 4.63015,-108.469247 c 38.45326,0 54.41051,19.033177 57.37435,31.803717 h -7.1497 c 10.39282,9.14794 13.16807,29.06477 13.40214,42.5131 -43.20216,16.06212 -39.50285,18.8869 -58.99664,34.15243"
       id="path7474"
       sodipodi:nodetypes="ccccc"
       inkscape:path-effect="#path-effect8111"
       inkscape:original-d="m 169.33332,89.618303 c -38.45326,0 -54.41051,19.033177 -57.37435,31.803717 h 7.1497 c -10.39282,9.14794 -13.16807,29.06477 -13.40214,42.5131 43.20216,16.06212 39.50285,18.8869 58.99664,34.15243"
       transform="translate(0,-2.6192414)" />
    <path
       style="display:inline;fill:none;stroke:#000000;stroke-width:7.9375;stroke-linecap:butt;stroke-linejoin:round;stroke-miterlimit:4;stroke-dasharray:none;stroke-opacity:1"
       d="m 232.96019,161.31588 7.67207,-1.91633 -7.10937,16.74443 v 7.39 l 22.45064,5.70622 -22.26356,8.88671 -0.0935,14.59292 -5.51912,0.18708 -5.76779,7.05497"
       id="path14313-8"
       sodipodi:nodetypes="ccccccccc" />
    <path
       style="fill:#000000;stroke:#000000;stroke-width:0;stroke-linecap:butt;stroke-linejoin:miter;stroke-miterlimit:4;stroke-dasharray:none;stroke-opacity:1"
       d="m 167.08625,194.92786 c 0,0 1.08946,0.68238 2.24707,0.66484 v 7.58042 c -3.5129,0 -7.07759,-1.99184 -7.07759,-1.99184 m 9.32466,-6.25342 c 0,0 -1.08946,0.68238 -2.24707,0.66484 v 7.58042 c 3.5129,0 7.07759,-1.99184 7.07759,-1.99184"
       id="path7979"
       sodipodi:nodetypes="cccc"
       inkscape:path-effect="#path-effect8071"
       inkscape:original-d="m 167.08625,194.92786 c 0,0 1.08946,0.68238 2.24707,0.66484 v 7.58042 c -3.5129,0 -7.07759,-1.99184 -7.07759,-1.99184"
       transform="translate(0,-2.6192414)" />
    <path
       style="display:inline;fill:#cccccc;stroke:#000000;stroke-width:0;stroke-linecap:butt;stroke-linejoin:miter;stroke-miterlimit:4;stroke-dasharray:none;stroke-opacity:1"
       d="m 235.23023,164.69303 -8.09967,17.0976 c -5.3585,-0.80216 -8.70186,-6.10293 -9.16489,-10.38096 z"
       id="path11338-4"
       sodipodi:nodetypes="cccc" />
    <path
       d="m 169.33334,182.82521 c -10.2804,-4.87766 -26.93649,-25.54677 -27.81324,-38.69098 0,0 2.93456,-15.58097 27.81322,-16.28508 m 2e-5,54.97606 c 10.2804,-4.87766 26.93649,-25.54677 27.81324,-38.69098 0,0 -2.93456,-15.58097 -27.81322,-16.28508"
       style="fill:none;stroke:#000000;stroke-width:3.96875;stroke-linecap:round;stroke-linejoin:miter;stroke-miterlimit:4;stroke-dasharray:none;stroke-opacity:1"
       id="path10596"
       inkscape:path-effect="#path-effect10722"
       inkscape:original-d="m 169.33334,182.82521 c -10.2804,-4.87766 -26.93649,-25.54677 -27.81324,-38.69098 0,0 2.93456,-15.58097 27.81322,-16.28508"
       sodipodi:nodetypes="ccc"
       transform="translate(0,-2.6192414)" />
    <path
       style="display:inline;fill:#cccccc;stroke:#000000;stroke-width:0;stroke-linecap:butt;stroke-linejoin:miter;stroke-miterlimit:4;stroke-dasharray:none;stroke-opacity:1"
       d="m 247.8007,189.53598 -23.60545,8.98298 c -4.74336,-3.90905 -3.92601,-10.1481 -0.91246,-13.81763 z"
       id="path11338-2-8"
       sodipodi:nodetypes="cccc" />
    <path
       style="fill:none;stroke:#000000;stroke-width:3.96875;stroke-linecap:butt;stroke-linejoin:miter;stroke-miterlimit:4;stroke-dasharray:none;stroke-opacity:1"
       d="m 169.33332,281.93929 4e-5,-83.5837"
       id="path7733"
       sodipodi:nodetypes="cc" />
    <path
       style="fill:none;stroke:#000000;stroke-width:7.9375;stroke-linecap:butt;stroke-linejoin:round;stroke-miterlimit:4;stroke-dasharray:none;stroke-opacity:1"
       d="m 105.70653,161.31588 -7.672066,-1.91633 7.109366,16.74443 v 7.39 l -22.450635,5.70622 22.263555,8.88671 0.0935,14.59292 5.51912,0.18708 5.76779,7.05497"
       id="path14313"
       sodipodi:nodetypes="ccccccccc" />
    <path
       style="fill:#cccccc;stroke:#000000;stroke-width:0;stroke-linecap:butt;stroke-linejoin:miter;stroke-miterlimit:4;stroke-dasharray:none;stroke-opacity:1"
       d="m 103.43649,164.69303 8.09967,17.0976 c 5.3585,-0.80216 8.70186,-6.10293 9.16489,-10.38096 z"
       id="path11338"
       sodipodi:nodetypes="cccc" />
    <path
       style="display:inline;fill:#cccccc;stroke:#000000;stroke-width:0;stroke-linecap:butt;stroke-linejoin:miter;stroke-miterlimit:4;stroke-dasharray:none;stroke-opacity:1"
       d="m 90.866026,189.53598 23.605444,8.98298 c 4.74336,-3.90905 3.92601,-10.1481 0.91246,-13.81763 z"
       id="path11338-2"
       sodipodi:nodetypes="cccc" />
    <path
       style="display:inline;fill:#cccccc;stroke:#000000;stroke-width:0;stroke-linecap:butt;stroke-linejoin:miter;stroke-miterlimit:4;stroke-dasharray:none;stroke-opacity:1"
       d="m 115.86535,213.55437 14.56642,-7.11271 c 0.002,-0.032 3.84151,-6.28858 -1.04132,-9.92554 -4.88284,-3.63695 -9.90925,1.4494 -9.90925,1.4494 z"
       id="path11338-7"
       sodipodi:nodetypes="cczcc" />
    <path
       style="display:inline;fill:#cccccc;stroke:#000000;stroke-width:0;stroke-linecap:butt;stroke-linejoin:miter;stroke-miterlimit:4;stroke-dasharray:none;stroke-opacity:1"
       d="m 222.80137,213.55437 -14.56642,-7.11271 c -0.002,-0.032 -3.84151,-6.28858 1.04132,-9.92554 4.88284,-3.63695 9.90925,1.4494 9.90925,1.4494 z"
       id="path11338-7-7"
       sodipodi:nodetypes="cczcc" />
  </g>
</svg>
