<?xml version="1.0" encoding="UTF-8" standalone="no"?>
<!-- Created with Inkscape (http://www.inkscape.org/) -->

<svg
   width="1280"
   height="1280"
   viewBox="0 0 338.66666 338.66668"
   version="1.1"
   id="svg5"
   shape-rendering="crispEdges"
   inkscape:version="1.1 (c68e22c387, 2021-05-23)"
   sodipodi:docname="Gunlink_south.svg"
   inkscape:export-filename="C:\Program Files (x86)\Steam\steamapps\common\RimWorld\Mods\Madness Pawns\Textures\Things\Pawn\Humanlike\Apparel\Gunlink\Gunlink_south.png"
   inkscape:export-xdpi="19.200001"
   inkscape:export-ydpi="19.200001"
   xmlns:inkscape="http://www.inkscape.org/namespaces/inkscape"
   xmlns:sodipodi="http://sodipodi.sourceforge.net/DTD/sodipodi-0.dtd"
   xmlns:xlink="http://www.w3.org/1999/xlink"
   xmlns="http://www.w3.org/2000/svg"
   xmlns:svg="http://www.w3.org/2000/svg">
  <sodipodi:namedview
     id="namedview7"
     pagecolor="#ffffff"
     bordercolor="#111111"
     borderopacity="1"
     inkscape:pageshadow="0"
     inkscape:pageopacity="0"
     inkscape:pagecheckerboard="true"
     inkscape:document-units="px"
     showgrid="false"
     units="px"
     showguides="true"
     inkscape:zoom="1.0704508"
     inkscape:cx="605.81956"
     inkscape:cy="597.41188"
     inkscape:window-width="1920"
     inkscape:window-height="1017"
     inkscape:window-x="-8"
     inkscape:window-y="-8"
     inkscape:window-maximized="1"
     inkscape:current-layer="layer3"
     inkscape:guide-bbox="true"
     inkscape:snap-object-midpoints="true"
     inkscape:snap-global="false">
    <inkscape:grid
       type="xygrid"
       id="grid23"
       visible="true"
       enabled="true"
       dotted="false" />
    <sodipodi:guide
       position="169.33333,165.56612"
       orientation="1,0"
       id="guide96" />
    <sodipodi:guide
       position="169.33333,165.56612"
       orientation="0,-1"
       id="guide98" />
  </sodipodi:namedview>
  <defs
     id="defs2">
    <linearGradient
       inkscape:collect="always"
       id="linearGradient133751">
      <stop
         style="stop-color:#f2f2f2;stop-opacity:1"
         offset="0"
         id="stop133747" />
      <stop
         style="stop-color:#f2f2f2;stop-opacity:1"
         offset="0.78231996"
         id="stop246521" />
      <stop
         style="stop-color:#b3b3b3;stop-opacity:1"
         offset="1"
         id="stop133749" />
    </linearGradient>
    <radialGradient
       inkscape:collect="always"
       xlink:href="#linearGradient133751"
       id="radialGradient246293"
       gradientUnits="userSpaceOnUse"
       gradientTransform="matrix(-0.78152819,1.9043265e-6,8.5380687e-8,-1.3364326,322.30169,432.7658)"
       cx="186.87245"
       cy="194.29758"
       fx="186.87245"
       fy="194.29758"
       r="54.159453" />
  </defs>
  <g
     inkscape:groupmode="layer"
     id="layer2"
     inkscape:label="Head"
     style="display:none"
     sodipodi:insensitive="true">
    <ellipse
       style="mix-blend-mode:luminosity;fill:url(#radialGradient246293);fill-opacity:1;stroke:#000000;stroke-width:9.81062;stroke-miterlimit:4;stroke-dasharray:none;stroke-opacity:1"
       id="path584"
       cx="169.33333"
       cy="173.1015"
       rx="49.254143"
       ry="63.578056"
       inkscape:export-filename="C:\Users\Maxim\OneDrive\Desktop\Back.png"
       inkscape:export-xdpi="9.6000004"
       inkscape:export-ydpi="9.6000004" />
    <path
       style="display:inline;fill:none;stroke:#000000;stroke-width:3.96875;stroke-linecap:round;stroke-linejoin:miter;stroke-miterlimit:4;stroke-dasharray:none;stroke-opacity:1"
       d="m 169.33333,140.36099 c 0,65.48103 0,65.48103 0,65.48103"
       id="path1875" />
    <path
       style="fill:none;stroke:#000000;stroke-width:3.96875;stroke-linecap:round;stroke-linejoin:miter;stroke-miterlimit:4;stroke-dasharray:none;stroke-opacity:1"
       d="m 144.63762,173.1015 c 24.16654,0 24.16654,0 49.39141,0"
       id="path2880"
       sodipodi:nodetypes="cc"
       inkscape:export-filename="C:\Users\Maxim\OneDrive\Desktop\Modding\RimWorld\Madness Pawns\Textures\Things\Pawn\Humanlike\Heads\Male\Male_Narrow_Normal_south.png"
       inkscape:export-xdpi="9.6000004"
       inkscape:export-ydpi="9.6000004" />
  </g>
  <g
     inkscape:groupmode="layer"
     id="layer3"
     inkscape:label="Face"
     style="display:inline">
    <path
       id="rect2432"
       style="fill:#666666;stroke:#000000;stroke-width:1.67307;stroke-linecap:round;stroke-linejoin:round"
       d="m 106.49232,167.72375 h 126.0849 c 0,0 1.43988,0.40491 1.43988,5.3768 0,4.97189 -1.43988,5.3768 -1.43988,5.3768 h -126.0849 c 0,0 -1.85671,-0.60452 -1.85671,-5.3768 0,-4.77228 1.85671,-5.3768 1.85671,-5.3768 z"
       sodipodi:nodetypes="cczcczc" />
    <rect
       style="fill:#333333;stroke:#000000;stroke-width:1.69643;stroke-linecap:round;stroke-linejoin:round;stroke-miterlimit:4;stroke-dasharray:none;stroke-opacity:1"
       id="rect5609"
       width="41.70348"
       height="17.157639"
       x="148.62485"
       y="164.52173" />
    <rect
       style="display:inline;fill:#808080;stroke:#000000;stroke-width:1.69643;stroke-linecap:round;stroke-linejoin:round;stroke-miterlimit:4;stroke-dasharray:none;stroke-opacity:1"
       id="rect5609-2"
       width="32.182999"
       height="10.661092"
       x="153.38509"
       y="167.77002" />
    <path
       id="rect1020"
       style="fill:#666666;stroke:#000000;stroke-width:1.69643;stroke-linecap:round;stroke-linejoin:round;stroke-miterlimit:4;stroke-dasharray:none"
       d="m 106.81893,160.26416 h 65.12213 c 0,0 4.44771,2.07446 4.44771,4.55343 0,4.25052 -2.73294,4.45849 -2.73294,8.28297 0,3.82448 2.73294,3.57058 2.73294,8.6093 0,2.00849 -4.44771,4.22711 -4.44771,4.22711 h -65.12213 c 0,0 -2.19705,-2.95944 -2.19705,-12.83641 0,-9.87697 2.19705,-12.8364 2.19705,-12.8364 z"
       sodipodi:nodetypes="ccszscczc" />
    <path
       style="fill:#333333;stroke:#000000;stroke-width:1.5875;stroke-linecap:round;stroke-linejoin:round;stroke-miterlimit:4;stroke-dasharray:none;stroke-opacity:1"
       id="path5636"
       sodipodi:type="arc"
       sodipodi:cx="167.05074"
       sodipodi:cy="173.13414"
       sodipodi:rx="2.4261582"
       sodipodi:ry="2.1106837"
       sodipodi:start="0"
       sodipodi:end="6.2672755"
       sodipodi:arc-type="arc"
       d="m 169.47689,173.13414 a 2.4261582,2.1106837 0 0 1 -2.4165,2.11067 2.4261582,2.1106837 0 0 1 -2.43574,-2.09388 2.4261582,2.1106837 0 0 1 2.39714,-2.12732 2.4261582,2.1106837 0 0 1 2.4548,2.07695"
       sodipodi:open="true" />
    <path
       style="display:inline;fill:#333333;stroke:#000000;stroke-width:1.5875;stroke-linecap:round;stroke-linejoin:round;stroke-miterlimit:4;stroke-dasharray:none;stroke-opacity:1"
       id="path5636-5"
       sodipodi:type="arc"
       sodipodi:cx="198.19461"
       sodipodi:cy="173.10056"
       sodipodi:rx="2.4261582"
       sodipodi:ry="2.1106837"
       sodipodi:start="0"
       sodipodi:end="6.2672755"
       sodipodi:arc-type="arc"
       sodipodi:open="true"
       d="m 200.62077,173.10056 a 2.4261582,2.1106837 0 0 1 -2.41651,2.11066 2.4261582,2.1106837 0 0 1 -2.43573,-2.09387 2.4261582,2.1106837 0 0 1 2.39713,-2.12733 2.4261582,2.1106837 0 0 1 2.4548,2.07696" />
    <rect
       style="fill:#333333;stroke:#000000;stroke-width:1.69643;stroke-linecap:round;stroke-linejoin:round;stroke-miterlimit:4;stroke-dasharray:none;stroke-opacity:1"
       id="rect5888"
       width="45.271996"
       height="4.2267818"
       x="102.69565"
       y="170.92433"
       ry="2.1133909" />
    <path
       id="rect6155"
       style="fill:#4d4d4d;stroke:#000000;stroke-width:1.69643;stroke-linecap:round;stroke-linejoin:round"
       d="m 116.56903,157.09287 h 40.25273 c 1.1712,0 2.11408,2.86716 2.11408,3.88606 v 24.2868 c 0,1.0189 -0.94288,3.8425 -2.11408,3.8425 h -40.25273 c -1.17118,0 -2.11407,-0.82027 -2.11407,-1.83919 v -28.33698 c 0,-1.01892 0.94289,-1.83919 2.11407,-1.83919 z"
       sodipodi:nodetypes="sssssssss" />
    <path
       style="fill:none;stroke:#000000;stroke-width:1.69643;stroke-linecap:butt;stroke-linejoin:miter;stroke-miterlimit:4;stroke-dasharray:none;stroke-opacity:1"
       d="m 118.40783,157.06744 c 0,16.03311 0,16.03311 0,16.03311 l 22.77487,0.001"
       id="path6727" />
    <path
       style="fill:#333333;stroke:#000000;stroke-width:1.5875;stroke-linecap:round;stroke-linejoin:round;stroke-miterlimit:4;stroke-dasharray:none;stroke-opacity:1"
       id="path6830"
       sodipodi:type="arc"
       sodipodi:cx="142.03339"
       sodipodi:cy="173.10056"
       sodipodi:rx="19.078638"
       sodipodi:ry="16.597832"
       sodipodi:start="0"
       sodipodi:end="6.2672679"
       sodipodi:open="true"
       sodipodi:arc-type="arc"
       d="m 161.11202,173.10056 a 19.078638,16.597832 0 0 1 -19.00271,16.5977 19.078638,16.597832 0 0 1 -19.15396,-16.46561 19.078638,16.597832 0 0 1 18.85028,-16.72874 19.078638,16.597832 0 0 1 19.30398,16.33246" />
    <path
       style="display:inline;fill:#ffcc00;stroke:#000000;stroke-width:1.5875;stroke-linecap:round;stroke-linejoin:round;stroke-miterlimit:4;stroke-dasharray:none;stroke-opacity:1"
       id="path6830-0"
       sodipodi:type="arc"
       sodipodi:cx="142.03339"
       sodipodi:cy="173.10056"
       sodipodi:rx="14.947595"
       sodipodi:ry="13.003951"
       sodipodi:start="0"
       sodipodi:end="6.2672679"
       sodipodi:open="true"
       sodipodi:arc-type="arc"
       d="m 156.98098,173.10056 a 14.947595,13.003951 0 0 1 -14.88811,13.00384 14.947595,13.003951 0 0 1 -15.00661,-12.90035 14.947595,13.003951 0 0 1 14.76869,-13.10652 14.947595,13.003951 0 0 1 15.12414,12.79604" />
    <rect
       style="fill:#333333;stroke:#000000;stroke-width:1.69643;stroke-linecap:round;stroke-linejoin:round;stroke-miterlimit:4;stroke-dasharray:none;stroke-opacity:1"
       id="rect7506"
       width="8.8346357"
       height="13.978065"
       x="207.19305"
       y="166.11153"
       ry="0" />
  </g>
</svg>
