<?xml version="1.0" encoding="UTF-8" standalone="no"?>
<!-- Created with Inkscape (http://www.inkscape.org/) -->

<svg
   width="1280"
   height="1280"
   viewBox="0 0 338.66666 338.66668"
   version="1.1"
   id="svg5"
   shape-rendering="crispEdges"
   inkscape:version="1.1 (c68e22c387, 2021-05-23)"
   sodipodi:docname="Gunlink_east.svg"
   inkscape:export-filename="C:\Program Files (x86)\Steam\steamapps\common\RimWorld\Mods\Madness Pawns\Textures\Things\Pawn\Humanlike\Apparel\Gunlink\Gunlink_east.png"
   inkscape:export-xdpi="19.200001"
   inkscape:export-ydpi="19.200001"
   xmlns:inkscape="http://www.inkscape.org/namespaces/inkscape"
   xmlns:sodipodi="http://sodipodi.sourceforge.net/DTD/sodipodi-0.dtd"
   xmlns:xlink="http://www.w3.org/1999/xlink"
   xmlns="http://www.w3.org/2000/svg"
   xmlns:svg="http://www.w3.org/2000/svg">
  <sodipodi:namedview
     id="namedview7"
     pagecolor="#ffffff"
     bordercolor="#111111"
     borderopacity="1"
     inkscape:pageshadow="0"
     inkscape:pageopacity="0"
     inkscape:pagecheckerboard="true"
     inkscape:document-units="px"
     showgrid="false"
     units="px"
     showguides="true"
     inkscape:zoom="1.4142136"
     inkscape:cx="636.04253"
     inkscape:cy="636.74964"
     inkscape:window-width="1920"
     inkscape:window-height="1017"
     inkscape:window-x="-8"
     inkscape:window-y="-8"
     inkscape:window-maximized="1"
     inkscape:current-layer="layer2"
     inkscape:guide-bbox="true"
     inkscape:snap-object-midpoints="true"
     inkscape:snap-bbox="true"
     inkscape:snap-global="false">
    <inkscape:grid
       type="xygrid"
       id="grid23"
       visible="true"
       enabled="true"
       dotted="false" />
    <sodipodi:guide
       position="169.33333,169.35973"
       orientation="1,0"
       id="guide96" />
    <sodipodi:guide
       position="169.33333,169.35973"
       orientation="0,-1"
       id="guide116813" />
  </sodipodi:namedview>
  <defs
     id="defs2">
    <linearGradient
       inkscape:collect="always"
       id="linearGradient133751">
      <stop
         style="stop-color:#f2f2f2;stop-opacity:1"
         offset="0"
         id="stop133747" />
      <stop
         style="stop-color:#f2f2f2;stop-opacity:1"
         offset="0.76650232"
         id="stop246521" />
      <stop
         style="stop-color:#b3b3b3;stop-opacity:1"
         offset="1"
         id="stop133749" />
    </linearGradient>
    <radialGradient
       inkscape:collect="always"
       xlink:href="#linearGradient133751"
       id="radialGradient246293"
       gradientUnits="userSpaceOnUse"
       gradientTransform="matrix(-1.0552926,0,5.3720846e-6,-1.4548685,418.50255,484.05163)"
       cx="208.53574"
       cy="214.82936"
       fx="208.53574"
       fy="214.82936"
       r="54.159453" />
  </defs>
  <g
     inkscape:groupmode="layer"
     id="layer2"
     inkscape:label="Head"
     style="display:none"
     sodipodi:insensitive="true">
    <ellipse
       style="mix-blend-mode:luminosity;fill:url(#radialGradient246293);fill-opacity:1;stroke:#000000;stroke-width:9.81062;stroke-miterlimit:4;stroke-dasharray:none;stroke-opacity:1"
       id="path584"
       cx="169.33333"
       cy="169.33333"
       rx="49.254143"
       ry="63.578056"
       inkscape:export-filename="C:\Users\Maxim\OneDrive\Desktop\Back.png"
       inkscape:export-xdpi="9.6000004"
       inkscape:export-ydpi="9.6000004" />
    <path
       style="display:inline;fill:none;stroke:#000000;stroke-width:3.96875;stroke-linecap:round;stroke-linejoin:miter;stroke-miterlimit:4;stroke-dasharray:none;stroke-opacity:1"
       d="m 195.81481,136.96208 c 8.02558,21.43473 7.84902,43.27037 0,65.48103"
       id="path1875"
       sodipodi:nodetypes="cc" />
    <path
       style="display:inline;fill:none;stroke:#000000;stroke-width:3.61878;stroke-linecap:round;stroke-linejoin:miter;stroke-miterlimit:4;stroke-dasharray:none;stroke-opacity:1"
       d="m 178.25921,169.30694 c 13.67535,0 26.95818,0 41.06466,0"
       id="path2880"
       sodipodi:nodetypes="cc" />
  </g>
  <g
     inkscape:groupmode="layer"
     id="layer3"
     inkscape:label="Face"
     style="display:inline">
    <path
       id="rect2432"
       style="display:inline;fill:#666666;stroke:#000000;stroke-width:1.67341;stroke-linecap:round;stroke-linejoin:round"
       d="m 106.56658,163.93113 h 126.15951 c 0,0 1.44074,0.40483 1.44074,5.37581 0,4.97098 -1.44074,5.37581 -1.44074,5.37581 H 106.56658 c 0,0 -1.85779,-0.60441 -1.85779,-5.37581 0,-4.7714 1.85779,-5.37581 1.85779,-5.37581 z"
       sodipodi:nodetypes="cczcczc" />
    <path
       id="rect1020"
       style="display:inline;fill:#666666;stroke:#000000;stroke-width:1.69678;stroke-linecap:round;stroke-linejoin:round;stroke-miterlimit:4;stroke-dasharray:none"
       d="m 108.11788,156.4729 h 101.45515 c 0,0 6.9292,2.07409 6.9292,4.55261 0,4.24973 -4.25771,4.45765 -4.25771,8.28144 0,3.82379 4.25771,3.56992 4.25771,8.60772 0,2.00812 -6.9292,4.22634 -6.9292,4.22634 H 108.11788 c 0,0 -3.42284,-2.9589 -3.42284,-12.83406 0,-9.87516 3.42284,-12.83405 3.42284,-12.83405 z"
       sodipodi:nodetypes="ccszscczc" />
    <rect
       style="display:inline;fill:#333333;stroke:#000000;stroke-width:1.69678;stroke-linecap:round;stroke-linejoin:round;stroke-miterlimit:4;stroke-dasharray:none;stroke-opacity:1"
       id="rect5888"
       width="94.711349"
       height="3.674861"
       x="103.08469"
       y="167.40669"
       ry="1.8374305" />
    <path
       id="rect6155"
       style="display:inline;fill:#4d4d4d;stroke:#000000;stroke-width:1.69678;stroke-linecap:round;stroke-linejoin:round"
       d="m 150.61252,153.3012 h 44.70604 c 1.17188,0 2.11533,2.86664 2.11533,3.88535 v 24.28234 c 0,1.01871 -0.94345,3.84179 -2.11533,3.84179 h -44.70604 c 0,-4.28815 -0.0591,-2.93902 2.31418,-2.91088 v -26.17212 c -2.50188,-0.58276 -2.31418,2.06497 -2.31418,-2.92648 z"
       sodipodi:nodetypes="csssscccc" />
    <path
       style="display:inline;fill:none;stroke:#000000;stroke-width:1.69678;stroke-linecap:butt;stroke-linejoin:miter;stroke-miterlimit:4;stroke-dasharray:none;stroke-opacity:1"
       d="m 156.8819,153.27577 c 0,16.03017 0,16.03017 0,16.03017 l 22.78834,0.001"
       id="path6727" />
    <path
       id="rect5470"
       style="fill:#333333;stroke:#000000;stroke-width:1.925;stroke-linecap:round;stroke-linejoin:round;stroke-miterlimit:4;stroke-dasharray:none"
       d="m 180.22639,152.65261 c 0,0 -14.05096,0.64866 -14.05096,16.65437 0,16.00571 14.05096,16.65437 14.05096,16.65437 h 23.32923 v -33.30874 z"
       sodipodi:nodetypes="cscccc" />
    <g
       id="g5322"
       transform="matrix(0.96889835,0,0,0.9965418,-3.8021764,-14.804233)">
      <path
         style="display:inline;fill:#333333;stroke:#000000;stroke-width:1.72679;stroke-linecap:round;stroke-linejoin:round;stroke-miterlimit:4;stroke-dasharray:none;stroke-opacity:1"
         id="path6830"
         sodipodi:type="arc"
         sodipodi:cx="213.65527"
         sodipodi:cy="184.75008"
         sodipodi:rx="16.652374"
         sodipodi:ry="16.652374"
         sodipodi:start="0"
         sodipodi:end="6.2672679"
         sodipodi:open="true"
         sodipodi:arc-type="arc"
         d="m 230.30765,184.75008 a 16.652374,16.652374 0 0 1 -16.58611,16.65224 16.652374,16.652374 0 0 1 -16.71811,-16.51971 16.652374,16.652374 0 0 1 16.45305,-16.78372 16.652374,16.652374 0 0 1 16.84906,16.38613" />
      <path
         style="display:inline;fill:#ffcc00;stroke:#000000;stroke-width:1.72679;stroke-linecap:round;stroke-linejoin:round;stroke-miterlimit:4;stroke-dasharray:none;stroke-opacity:1"
         id="path6830-0"
         sodipodi:type="arc"
         sodipodi:cx="213.65527"
         sodipodi:cy="184.75008"
         sodipodi:rx="13.046682"
         sodipodi:ry="13.046682"
         sodipodi:start="0"
         sodipodi:end="6.2672679"
         sodipodi:open="true"
         sodipodi:arc-type="arc"
         d="m 226.70196,184.75008 a 13.046682,13.046682 0 0 1 -12.99477,13.04658 13.046682,13.046682 0 0 1 -13.09819,-12.94275 13.046682,13.046682 0 0 1 12.89053,-13.14959 13.046682,13.046682 0 0 1 13.20077,12.8381" />
    </g>
    <path
       id="rect7506"
       style="display:inline;fill:#333333;stroke:#000000;stroke-width:1.69678;stroke-linecap:round;stroke-linejoin:round"
       d="m 223.46343,162.31919 h 5.70702 c 0,0 1.34046,2.2026 1.34046,6.98775 0,4.78516 -1.34046,6.98774 -1.34046,6.98774 h -5.70702 c 0,0 1.34047,-2.2259 1.34047,-6.98774 0,-4.76184 -1.34047,-6.98775 -1.34047,-6.98775 z"
       sodipodi:nodetypes="cczcczc" />
  </g>
</svg>
