<?xml version="1.0" encoding="UTF-8" standalone="no"?>
<!-- Created with Inkscape (http://www.inkscape.org/) -->

<svg
   width="1280"
   height="1280"
   viewBox="0 0 338.66666 338.66668"
   version="1.1"
   id="svg5"
   inkscape:version="1.1 (c68e22c387, 2021-05-23)"
   sodipodi:docname="JacketSpikecore_Male_south.svg"
   inkscape:export-filename="C:\Program Files (x86)\Steam\steamapps\common\RimWorld\Mods\Madness Pawns\Textures\Things\Pawn\Humanlike\ApperelStyles\JacketSpikecore\JacketSpikecore_Male_south.png"
   inkscape:export-xdpi="19.200001"
   inkscape:export-ydpi="19.200001"
   xmlns:inkscape="http://www.inkscape.org/namespaces/inkscape"
   xmlns:sodipodi="http://sodipodi.sourceforge.net/DTD/sodipodi-0.dtd"
   xmlns:xlink="http://www.w3.org/1999/xlink"
   xmlns="http://www.w3.org/2000/svg"
   xmlns:svg="http://www.w3.org/2000/svg">
  <sodipodi:namedview
     id="namedview7"
     pagecolor="#ffffff"
     bordercolor="#111111"
     borderopacity="1"
     inkscape:pageshadow="0"
     inkscape:pageopacity="0"
     inkscape:pagecheckerboard="1"
     inkscape:document-units="px"
     showgrid="false"
     showguides="true"
     units="px"
     inkscape:snap-bbox="false"
     inkscape:snap-object-midpoints="true"
     inkscape:bbox-paths="false"
     inkscape:bbox-nodes="false"
     inkscape:snap-bbox-midpoints="true"
     inkscape:snap-page="true"
     inkscape:zoom="1.4142136"
     inkscape:cx="685.18645"
     inkscape:cy="657.25574"
     inkscape:window-width="1920"
     inkscape:window-height="1017"
     inkscape:window-x="-8"
     inkscape:window-y="-8"
     inkscape:window-maximized="1"
     inkscape:current-layer="layer1"
     inkscape:guide-bbox="true"
     inkscape:snap-global="true"
     inkscape:object-paths="true">
    <sodipodi:guide
       position="169.33332,169.33335"
       orientation="0,-1"
       id="guide989" />
    <sodipodi:guide
       position="169.33332,169.33336"
       orientation="1,0"
       id="guide991" />
  </sodipodi:namedview>
  <defs
     id="defs2">
    <inkscape:path-effect
       effect="mirror_symmetry"
       start_point="169.33332,108.45586"
       end_point="169.33332,196.9488"
       center_point="169.33332,152.70233"
       id="path-effect4163"
       is_visible="true"
       lpeversion="1.1"
       mode="free"
       discard_orig_path="false"
       fuse_paths="false"
       oposite_fuse="false"
       split_items="false"
       split_open="false" />
    <inkscape:path-effect
       effect="mirror_symmetry"
       start_point="169.33332,116.50441"
       end_point="169.33332,142.89121"
       center_point="169.33332,129.69781"
       id="path-effect3315"
       is_visible="true"
       lpeversion="1.1"
       mode="free"
       discard_orig_path="false"
       fuse_paths="false"
       oposite_fuse="false"
       split_items="false"
       split_open="false" />
    <inkscape:path-effect
       effect="mirror_symmetry"
       start_point="169.33332,142.40666"
       end_point="169.33332,162.01353"
       center_point="169.33332,152.21009"
       id="path-effect3313"
       is_visible="true"
       lpeversion="1.1"
       mode="free"
       discard_orig_path="false"
       fuse_paths="false"
       oposite_fuse="false"
       split_items="false"
       split_open="false" />
    <inkscape:path-effect
       effect="mirror_symmetry"
       start_point="169.33332,162.23998"
       end_point="169.33332,176.42665"
       center_point="169.33332,169.33332"
       id="path-effect3311"
       is_visible="true"
       lpeversion="1.1"
       mode="free"
       discard_orig_path="false"
       fuse_paths="false"
       oposite_fuse="false"
       split_items="false"
       split_open="false" />
    <inkscape:path-effect
       effect="mirror_symmetry"
       start_point="169.33332,121.73502"
       end_point="169.33332,191.15374"
       center_point="169.33332,156.44438"
       id="path-effect3214"
       is_visible="true"
       lpeversion="1.1"
       mode="free"
       discard_orig_path="false"
       fuse_paths="false"
       oposite_fuse="false"
       split_items="false"
       split_open="false" />
    <inkscape:path-effect
       effect="mirror_symmetry"
       start_point="169.33332,115.83315"
       end_point="169.33332,240.17186"
       center_point="169.33332,178.00251"
       id="path-effect2535"
       is_visible="true"
       lpeversion="1.1"
       mode="free"
       discard_orig_path="false"
       fuse_paths="false"
       oposite_fuse="false"
       split_items="false"
       split_open="false" />
    <inkscape:path-effect
       effect="mirror_symmetry"
       start_point="169.85644,115.51028"
       end_point="169.85644,240.69318"
       center_point="169.85644,178.10173"
       id="path-effect2381"
       is_visible="true"
       lpeversion="1.1"
       mode="free"
       discard_orig_path="false"
       fuse_paths="false"
       oposite_fuse="false"
       split_items="false"
       split_open="false" />
    <inkscape:path-effect
       effect="mirror_symmetry"
       start_point="169.33332,137.83455"
       end_point="169.33332,176.52156"
       center_point="169.33332,157.17805"
       id="path-effect1386"
       is_visible="true"
       lpeversion="1.1"
       mode="free"
       discard_orig_path="false"
       fuse_paths="false"
       oposite_fuse="false"
       split_items="false"
       split_open="false" />
    <linearGradient
       inkscape:collect="always"
       id="linearGradient3836-4">
      <stop
         style="stop-color:#f2f2f2;stop-opacity:1"
         offset="0"
         id="stop3832" />
      <stop
         style="stop-color:#f9f9f9;stop-opacity:1"
         offset="0.78469104"
         id="stop4186" />
      <stop
         style="stop-color:#b3b3b3;stop-opacity:1"
         offset="1"
         id="stop3834" />
    </linearGradient>
    <inkscape:path-effect
       effect="mirror_symmetry"
       start_point="640.00001,475.3086"
       end_point="640.00001,1047.4492"
       center_point="640.00001,761.37891"
       id="path-effect1473"
       is_visible="true"
       lpeversion="1.1"
       mode="free"
       discard_orig_path="false"
       fuse_paths="false"
       oposite_fuse="false"
       split_items="false"
       split_open="false" />
    <radialGradient
       inkscape:collect="always"
       xlink:href="#linearGradient3836-4"
       id="radialGradient3954-1-9-6"
       cx="704.68213"
       cy="778.31689"
       fx="704.68213"
       fy="778.31689"
       r="176.26749"
       gradientTransform="matrix(-0.3010367,0,0,-1.3754958,400.27269,1277.6409)"
       gradientUnits="userSpaceOnUse" />
    <linearGradient
       inkscape:collect="always"
       xlink:href="#linearGradient3964"
       id="linearGradient5028"
       gradientUnits="userSpaceOnUse"
       x1="121.82022"
       y1="200.61935"
       x2="94.480545"
       y2="188.88275"
       gradientTransform="rotate(-21.899421,59.673704,184.60178)" />
    <linearGradient
       inkscape:collect="always"
       id="linearGradient3964">
      <stop
         style="stop-color:#cccccc;stop-opacity:1;"
         offset="0"
         id="stop3960" />
      <stop
         style="stop-color:#f9f9f9;stop-opacity:1"
         offset="1"
         id="stop3962" />
    </linearGradient>
    <linearGradient
       inkscape:collect="always"
       xlink:href="#linearGradient3964"
       id="linearGradient3966-5"
       x1="126.2139"
       y1="192.96338"
       x2="102.71026"
       y2="189.83574"
       gradientUnits="userSpaceOnUse"
       gradientTransform="matrix(0.82303596,0.56798927,0.56798927,-0.82303596,-87.432901,240.48234)" />
    <linearGradient
       inkscape:collect="always"
       xlink:href="#linearGradient3964"
       id="linearGradient4959"
       gradientUnits="userSpaceOnUse"
       x1="125.32684"
       y1="194.80545"
       x2="109.34068"
       y2="191.20944"
       gradientTransform="matrix(0.57660715,0.81702154,0.81702154,-0.57660715,-98.83345,144.48657)" />
    <linearGradient
       inkscape:collect="always"
       xlink:href="#linearGradient3964"
       id="linearGradient5196"
       gradientUnits="userSpaceOnUse"
       gradientTransform="matrix(-0.92784002,-0.37297841,-0.37297841,0.92784002,403.21306,40.273921)"
       x1="121.82022"
       y1="200.61935"
       x2="94.480545"
       y2="188.88275" />
    <linearGradient
       inkscape:collect="always"
       xlink:href="#linearGradient3964"
       id="linearGradient5198"
       gradientUnits="userSpaceOnUse"
       gradientTransform="rotate(125.21226,180.0957,187.95088)"
       x1="125.32684"
       y1="194.80545"
       x2="109.34068"
       y2="191.20944" />
    <linearGradient
       inkscape:collect="always"
       xlink:href="#linearGradient3964"
       id="linearGradient5200"
       gradientUnits="userSpaceOnUse"
       gradientTransform="rotate(145.38987,174.85559,188.96748)"
       x1="126.2139"
       y1="192.96338"
       x2="102.71026"
       y2="189.83574" />
  </defs>
  <g
     inkscape:groupmode="layer"
     id="layer2"
     inkscape:label="Body"
     style="display:none"
     sodipodi:insensitive="true">
    <path
       id="rect883"
       style="fill:#ff0000;fill-opacity:1;stroke:#0000ff;stroke-width:30;stroke-linecap:round;stroke-linejoin:round;stroke-miterlimit:4;stroke-dasharray:none"
       d="m 584.91602,445.38281 c -63.18591,0 -96.14521,46.13859 -97.94727,139.54492 l -8.22266,426.19137 c -0.61253,31.7497 19.1831,55.2657 50.66993,55.2657 H 640 750.58398 c 31.48683,0 51.28246,-23.516 50.66993,-55.2657 L 793.03125,584.92773 C 791.22919,491.5214 758.26989,445.38281 695.08398,445.38281 H 640 Z"
       transform="scale(0.26458334)" />
  </g>
  <g
     inkscape:groupmode="layer"
     id="layer1"
     inkscape:label="Shirt">
    <path
       id="rect883-7-6-0"
       style="display:inline;fill:url(#radialGradient3954-1-9-6);fill-opacity:1;stroke:#000000;stroke-width:2.64583;stroke-linecap:round;stroke-linejoin:round;stroke-miterlimit:4;stroke-dasharray:none"
       d="m 169.45588,116.55253 c -15.40571,0 -26.9614,0.21154 -35.23444,8.48458 -8.27304,8.27303 -10.0821,14.46111 -10.32767,25.9725 1.21418,40.3931 0.19436,42.73459 -2.11331,82.42332 l 29.38694,7.33497 c 0.56283,2.26128 0.70711,-26.78702 3.64764,-69.23629 0.50799,-8.51704 -6.73157,-17.28654 -7.74995,-29.95529 1.26071,-7.43637 4.19746,-11.87851 22.26823,-11.87851 m -0.12256,-13.14528 c 15.40571,0 26.9614,0.21154 35.23444,8.48458 8.27304,8.27303 10.0821,14.46111 10.32767,25.9725 -1.21418,40.3931 -0.19436,42.73459 2.11331,82.42332 l -29.38694,7.33497 c -0.56283,2.26128 -0.70711,-26.78702 -3.64764,-69.23629 -0.50799,-8.51704 6.73157,-17.28654 7.74995,-29.95529 -1.26071,-7.43637 -4.19746,-11.87851 -22.26823,-11.87851"
       sodipodi:nodetypes="czcccccc"
       inkscape:path-effect="#path-effect2535"
       inkscape:original-d="m 169.45588,116.55253 c -15.40571,0 -26.9614,0.21154 -35.23444,8.48458 -8.27304,8.27303 -10.0821,14.46111 -10.32767,25.9725 1.21418,40.3931 0.19436,42.73459 -2.11331,82.42332 l 29.38694,7.33497 c 0.56283,2.26128 0.70711,-26.78702 3.64764,-69.23629 0.50799,-8.51704 -6.73157,-17.28654 -7.74995,-29.95529 1.26071,-7.43637 4.19746,-11.87851 22.26823,-11.87851" />
    <path
       id="rect883-7-6-0-6"
       style="display:inline;fill:none;fill-opacity:1;stroke:#000000;stroke-width:7.9375;stroke-linecap:round;stroke-linejoin:round;stroke-miterlimit:4;stroke-dasharray:none"
       d="m 169.85644,115.51028 c -15.40571,0 -27.14848,0.21154 -35.42152,8.48458 -8.27303,8.27303 -10.08209,14.46111 -10.32767,25.9725 1.21418,40.3931 0.19437,44.23129 -2.1133,83.92002 10.12756,1.43563 18.71753,3.87873 26.86204,6.8058 m 21.00045,-125.1829 c 15.40571,0 27.14848,0.21154 35.42152,8.48458 8.27303,8.27303 10.08209,14.46111 10.32767,25.9725 -1.21418,40.3931 -0.19437,44.23129 2.1133,83.92002 -10.12756,1.43563 -18.71753,3.87873 -26.86204,6.8058"
       sodipodi:nodetypes="czccc"
       inkscape:export-filename="C:\Program Files (x86)\Steam\steamapps\common\RimWorld\Mods\Madness Pawns\Textures\Things\Pawn\Humanlike\Apparel\Jacket\rect883-7-6-0-6.png"
       inkscape:export-xdpi="19.200001"
       inkscape:export-ydpi="19.200001"
       inkscape:path-effect="#path-effect2381"
       inkscape:original-d="m 169.85644,115.51028 c -15.40571,0 -27.14848,0.21154 -35.42152,8.48458 -8.27303,8.27303 -10.08209,14.46111 -10.32767,25.9725 1.21418,40.3931 0.19437,44.23129 -2.1133,83.92002 10.12756,1.43563 18.71753,3.87873 26.86204,6.8058" />
    <path
       style="fill:#000000;stroke-width:10;stroke-linecap:round;stroke-linejoin:round;stroke-miterlimit:4;stroke-dasharray:none"
       id="path11673"
       sodipodi:type="arc"
       sodipodi:cx="145.52083"
       sodipodi:cy="184.74532"
       sodipodi:rx="2.6458335"
       sodipodi:ry="2.6458335"
       sodipodi:start="0"
       sodipodi:end="6.2828537"
       sodipodi:open="true"
       sodipodi:arc-type="arc"
       d="m 148.16666,184.74532 a 2.6458335,2.6458335 0 0 1 -2.64561,2.64583 2.6458335,2.6458335 0 0 1 -2.64606,-2.6454 2.6458335,2.6458335 0 0 1 2.64518,-2.64627 2.6458335,2.6458335 0 0 1 2.64649,2.64496" />
    <path
       style="fill:#000000;stroke-width:10;stroke-linecap:round;stroke-linejoin:round;stroke-miterlimit:4;stroke-dasharray:none"
       id="path11673-0"
       sodipodi:type="arc"
       sodipodi:cx="144.59479"
       sodipodi:cy="203.72917"
       sodipodi:rx="2.6458335"
       sodipodi:ry="2.6458335"
       sodipodi:start="0"
       sodipodi:end="6.2828537"
       sodipodi:open="true"
       sodipodi:arc-type="arc"
       d="m 147.24062,203.72917 a 2.6458335,2.6458335 0 0 1 -2.64561,2.64584 2.6458335,2.6458335 0 0 1 -2.64606,-2.6454 2.6458335,2.6458335 0 0 1 2.64518,-2.64627 2.6458335,2.6458335 0 0 1 2.64649,2.64495" />
    <path
       style="fill:#000000;stroke-width:10;stroke-linecap:round;stroke-linejoin:round;stroke-miterlimit:4;stroke-dasharray:none"
       id="path11673-8"
       sodipodi:type="arc"
       sodipodi:cx="143.53647"
       sodipodi:cy="222.38229"
       sodipodi:rx="2.6458335"
       sodipodi:ry="2.6458335"
       sodipodi:start="0"
       sodipodi:end="6.2828537"
       sodipodi:open="true"
       sodipodi:arc-type="arc"
       d="m 146.1823,222.38229 a 2.6458335,2.6458335 0 0 1 -2.64561,2.64584 2.6458335,2.6458335 0 0 1 -2.64605,-2.6454 2.6458335,2.6458335 0 0 1 2.64517,-2.64627 2.6458335,2.6458335 0 0 1 2.64649,2.64496" />
    <path
       style="fill:none;stroke:#000000;stroke-width:1.32292;stroke-linecap:round;stroke-linejoin:miter;stroke-miterlimit:4;stroke-dasharray:none;stroke-opacity:1"
       d="m 188.72069,184.93696 5.54301,-0.38328"
       id="path12627" />
    <path
       style="fill:none;stroke:#000000;stroke-width:1.32292;stroke-linecap:round;stroke-linejoin:miter;stroke-miterlimit:4;stroke-dasharray:none;stroke-opacity:1"
       d="m 190.12028,204.03751 5.52193,-0.61668"
       id="path12627-4" />
    <path
       style="fill:none;stroke:#000000;stroke-width:1.32292;stroke-linecap:round;stroke-linejoin:miter;stroke-miterlimit:4;stroke-dasharray:none;stroke-opacity:1"
       d="m 190.90093,222.53232 5.54813,-0.30006"
       id="path12627-2" />
    <path
       style="display:inline;fill:#cccccc;stroke:#000000;stroke-width:1.85208;stroke-linecap:butt;stroke-linejoin:round;stroke-miterlimit:4;stroke-dasharray:none;stroke-opacity:1"
       d="m 143.38424,117.7739 c 0,0 -4.38443,19.51619 -5.27833,29.44872 -1.1857,13.17477 -0.0856,39.68396 -0.0856,39.68396 0,0 -33.43009,1.55601 -29.08687,-31.61226 5.16524,-39.44584 34.45083,-37.52042 34.45083,-37.52042 z m 51.89816,0 c 0,0 4.38443,19.51619 5.27833,29.44872 1.1857,13.17477 0.0856,39.68396 0.0856,39.68396 0,0 33.43009,1.55601 29.08687,-31.61226 -5.16524,-39.44584 -34.45083,-37.52042 -34.45083,-37.52042 z"
       id="path11426"
       sodipodi:nodetypes="cscscc"
       inkscape:path-effect="#path-effect3214"
       inkscape:original-d="m 143.38424,117.7739 c 0,0 -4.38443,19.51619 -5.27833,29.44872 -1.1857,13.17477 -0.0856,39.68396 -0.0856,39.68396 0,0 -33.43009,1.55601 -29.08687,-31.61226 5.16524,-39.44584 34.45083,-37.52042 34.45083,-37.52042 z"
       transform="translate(0,4.6960549)" />
    <path
       style="display:inline;fill:url(#linearGradient5028);fill-opacity:1;stroke:#000000;stroke-width:0;stroke-linecap:butt;stroke-linejoin:miter;stroke-miterlimit:4;stroke-dasharray:none;stroke-opacity:1"
       d="m 118.92628,161.71082 -26.891365,14.03391 28.784065,0.15276 c 2.88393,-6.1418 2.15403,-9.95163 -1.8927,-14.18667 z"
       id="path3958-0"
       sodipodi:nodetypes="cccc"
       transform="translate(0,4.6960549)" />
    <path
       style="display:inline;fill:url(#linearGradient4959);fill-opacity:1;stroke:#000000;stroke-width:0;stroke-linecap:butt;stroke-linejoin:miter;stroke-miterlimit:4;stroke-dasharray:none;stroke-opacity:1"
       d="m 123.7248,138.19516 -14.96105,-26.38681 24.25382,15.50156 c -0.9133,6.72345 -3.59497,9.52634 -9.29277,10.88525 z"
       id="path3958-2"
       sodipodi:nodetypes="cccc"
       transform="translate(0,4.6960549)" />
    <path
       style="display:inline;fill:url(#linearGradient3966-5);fill-opacity:1;stroke:#000000;stroke-width:0;stroke-linecap:butt;stroke-linejoin:miter;stroke-miterlimit:4;stroke-dasharray:none;stroke-opacity:1"
       d="m 119.29638,157.80971 -23.144495,-19.60687 28.112275,6.18431 c 1.46188,6.62584 -0.0884,10.18171 -4.96778,13.42256 z"
       id="path3958-7"
       sodipodi:nodetypes="cccc"
       transform="translate(0,4.6960549)" />
    <path
       style="display:inline;fill:url(#linearGradient5196);fill-opacity:1;stroke:#000000;stroke-width:0;stroke-linecap:butt;stroke-linejoin:miter;stroke-miterlimit:4;stroke-dasharray:none;stroke-opacity:1"
       d="m 219.74036,166.40688 26.89136,14.03391 -28.78406,0.15276 c -2.88393,-6.1418 -2.15403,-9.95163 1.8927,-14.18667 z"
       id="path3958-0-1"
       sodipodi:nodetypes="cccc" />
    <path
       style="display:inline;fill:url(#linearGradient5198);fill-opacity:1;stroke:#000000;stroke-width:0;stroke-linecap:butt;stroke-linejoin:miter;stroke-miterlimit:4;stroke-dasharray:none;stroke-opacity:1"
       d="m 214.94184,142.89122 14.96105,-26.38681 -24.25382,15.50156 c 0.9133,6.72345 3.59497,9.52634 9.29277,10.88525 z"
       id="path3958-2-2"
       sodipodi:nodetypes="cccc" />
    <path
       style="display:inline;fill:url(#linearGradient5200);fill-opacity:1;stroke:#000000;stroke-width:0;stroke-linecap:butt;stroke-linejoin:miter;stroke-miterlimit:4;stroke-dasharray:none;stroke-opacity:1"
       d="m 219.37026,162.50577 23.14449,-19.60687 -28.11227,6.18431 c -1.46188,6.62584 0.0884,10.18171 4.96778,13.42256 z"
       id="path3958-7-2"
       sodipodi:nodetypes="cccc" />
    <path
       style="fill:none;stroke:#000000;stroke-width:2.64583;stroke-linecap:round;stroke-linejoin:round;stroke-miterlimit:4;stroke-dasharray:none;stroke-opacity:1"
       d="m 150.68884,133.72136 c -4.2554,2.86737 -13.53896,15.31711 -11.00606,20.74968 3.34221,7.1684 11.32512,15.05089 14.31581,24.69635 m 33.97921,-45.44603 c 4.2554,2.86737 13.53896,15.31711 11.00606,20.74968 -3.34221,7.1684 -11.32512,15.05089 -14.31581,24.69635"
       id="path8349"
       sodipodi:nodetypes="csc"
       inkscape:path-effect="#path-effect1386"
       inkscape:original-d="m 150.68884,133.72136 c -4.2554,2.86737 -13.53896,15.31711 -11.00606,20.74968 3.34221,7.1684 11.32512,15.05089 14.31581,24.69635" />
    <path
       style="fill:#000000;stroke:#000000;stroke-width:0;stroke-linecap:butt;stroke-linejoin:miter;stroke-miterlimit:4;stroke-dasharray:none;stroke-opacity:1"
       d="m 143.38427,122.46996 c -6.09366,0.49178 -11.8439,1.99151 -16.97331,5.31346 l -17.64721,-11.27901 9.81827,17.31649 -6.66018,12.54717 -15.769952,-3.46917 13.162652,11.15075 -0.37349,17.56826 -16.906135,8.82288 20.170985,0.10704 8.84047,7.47628 -0.60804,7.95127 c -4.30188,-2.09962 -8.09254,-4.99448 -11.27209,-8.83994 l -37.791913,-1.40316 28.718103,-18.45694 c -0.646386,-3.36922 -0.420824,-6.64156 0.0468,-9.887 l -22.684499,-24.13444 30.401899,4.67722 c 0.40748,-1.53058 1.16744,-2.99067 2.1983,-4.39658 L 97.099039,105.14383 126.5655,119.1287 c 4.69482,-1.78122 10.40474,-3.37789 16.46381,-4.91107 l 0.35495,8.25233 z m 51.8981,0 c 6.09366,0.49178 11.8439,1.99151 16.97331,5.31346 l 17.64721,-11.27901 -9.81827,17.31649 6.66018,12.54717 15.76995,-3.46917 -13.16265,11.15075 0.37349,17.56826 16.90613,8.82288 -20.17098,0.10704 -8.84047,7.47628 0.60804,7.95127 c 4.30188,-2.09962 8.09254,-4.99448 11.27209,-8.83994 l 37.79191,-1.40316 -28.7181,-18.45694 c 0.64639,-3.36922 0.42082,-6.64156 -0.0468,-9.887 l 22.6845,-24.13444 -30.4019,4.67722 c -0.40748,-1.53058 -1.16744,-2.99067 -2.1983,-4.39658 l 12.95589,-28.39071 -29.46646,13.98487 c -4.69482,-1.78122 -10.40474,-3.37789 -16.46381,-4.91107 l -0.35495,8.25233 z"
       id="path3974"
       inkscape:path-effect="#path-effect4163"
       inkscape:original-d="m 143.38427,122.46996 c -6.09366,0.49178 -11.8439,1.99151 -16.97331,5.31346 l -17.64721,-11.27901 9.81827,17.31649 -6.66018,12.54717 -15.769952,-3.46917 13.162652,11.15075 -0.37349,17.56826 -16.906135,8.82288 20.170985,0.10704 8.84047,7.47628 -0.60804,7.95127 c -4.30188,-2.09962 -8.09254,-4.99448 -11.27209,-8.83994 l -37.791913,-1.40316 28.718103,-18.45694 c -0.646386,-3.36922 -0.420824,-6.64156 0.0468,-9.887 l -22.684499,-24.13444 30.401899,4.67722 c 0.40748,-1.53058 1.16744,-2.99067 2.1983,-4.39658 L 97.099039,105.14383 126.5655,119.1287 c 4.69482,-1.78122 10.40474,-3.37789 16.46381,-4.91107 l 0.35495,8.25233 z"
       sodipodi:nodetypes="cccccccccccccccccccccccc" />
  </g>
</svg>
