<?xml version="1.0" encoding="UTF-8" standalone="no"?>
<!-- Created with Inkscape (http://www.inkscape.org/) -->

<svg
   width="1280"
   height="1280"
   viewBox="0 0 338.66666 338.66668"
   version="1.1"
   id="svg5"
   inkscape:version="1.1 (c68e22c387, 2021-05-23)"
   sodipodi:docname="BodyStrap_Male_south.svg"
   inkscape:export-filename="C:\Program Files (x86)\Steam\steamapps\common\RimWorld\Mods\Madness Pawns\Textures\Things\Pawn\Humanlike\Apparel\BodyStrap\BodyStrap_Male_south.png"
   inkscape:export-xdpi="19.200001"
   inkscape:export-ydpi="19.200001"
   xmlns:inkscape="http://www.inkscape.org/namespaces/inkscape"
   xmlns:sodipodi="http://sodipodi.sourceforge.net/DTD/sodipodi-0.dtd"
   xmlns="http://www.w3.org/2000/svg"
   xmlns:svg="http://www.w3.org/2000/svg">
  <sodipodi:namedview
     id="namedview7"
     pagecolor="#ffffff"
     bordercolor="#111111"
     borderopacity="1"
     inkscape:pageshadow="0"
     inkscape:pageopacity="0"
     inkscape:pagecheckerboard="1"
     inkscape:document-units="px"
     showgrid="false"
     showguides="true"
     units="px"
     inkscape:snap-bbox="true"
     inkscape:snap-object-midpoints="true"
     inkscape:bbox-paths="false"
     inkscape:bbox-nodes="true"
     inkscape:snap-bbox-midpoints="true"
     inkscape:snap-page="true"
     inkscape:zoom="0.70710678"
     inkscape:cx="551.54329"
     inkscape:cy="745.99765"
     inkscape:window-width="1920"
     inkscape:window-height="1017"
     inkscape:window-x="-8"
     inkscape:window-y="-8"
     inkscape:window-maximized="1"
     inkscape:current-layer="layer2"
     inkscape:guide-bbox="true"
     inkscape:object-paths="true">
    <sodipodi:guide
       position="169.33332,169.33335"
       orientation="0,-1"
       id="guide989" />
    <sodipodi:guide
       position="169.33332,169.33336"
       orientation="1,0"
       id="guide991" />
  </sodipodi:namedview>
  <defs
     id="defs2">
    <inkscape:path-effect
       effect="mirror_symmetry"
       start_point="169.33332,155.65778"
       end_point="169.33332,196.63328"
       center_point="169.33332,176.14553"
       id="path-effect6317"
       is_visible="true"
       lpeversion="1.1"
       mode="free"
       discard_orig_path="false"
       fuse_paths="false"
       oposite_fuse="false"
       split_items="false"
       split_open="false" />
    <inkscape:path-effect
       effect="mirror_symmetry"
       start_point="169.33332,238.13465"
       end_point="169.33332,258.74641"
       center_point="169.33332,248.44053"
       id="path-effect5508"
       is_visible="true"
       lpeversion="1.1"
       mode="free"
       discard_orig_path="false"
       fuse_paths="false"
       oposite_fuse="false"
       split_items="false"
       split_open="false" />
    <inkscape:path-effect
       effect="mirror_symmetry"
       start_point="169.33332,238.16388"
       end_point="169.33332,257.99528"
       center_point="169.33332,248.07958"
       id="path-effect2337"
       is_visible="true"
       lpeversion="1.1"
       mode="free"
       discard_orig_path="false"
       fuse_paths="false"
       oposite_fuse="false"
       split_items="false"
       split_open="false" />
    <inkscape:path-effect
       effect="mirror_symmetry"
       start_point="169.33332,155.65778"
       end_point="169.33332,196.44311"
       center_point="169.33332,176.05044"
       id="path-effect2281"
       is_visible="true"
       lpeversion="1.1"
       mode="free"
       discard_orig_path="false"
       fuse_paths="false"
       oposite_fuse="false"
       split_items="false"
       split_open="false" />
    <inkscape:path-effect
       effect="mirror_symmetry"
       start_point="169.33332,206.42339"
       end_point="169.33332,231.61339"
       center_point="169.33332,219.01839"
       id="path-effect1598"
       is_visible="true"
       lpeversion="1.1"
       mode="free"
       discard_orig_path="false"
       fuse_paths="false"
       oposite_fuse="false"
       split_items="false"
       split_open="false" />
    <inkscape:path-effect
       effect="mirror_symmetry"
       start_point="169.33332,212.79244"
       end_point="169.33332,227.06925"
       center_point="169.33332,219.93085"
       id="path-effect1466"
       is_visible="true"
       lpeversion="1.1"
       mode="free"
       discard_orig_path="false"
       fuse_paths="false"
       oposite_fuse="false"
       split_items="false"
       split_open="false" />
    <inkscape:path-effect
       effect="mirror_symmetry"
       start_point="640.00001,475.3086"
       end_point="640.00001,1047.4492"
       center_point="640.00001,761.37891"
       id="path-effect1473"
       is_visible="true"
       lpeversion="1.1"
       mode="free"
       discard_orig_path="false"
       fuse_paths="false"
       oposite_fuse="false"
       split_items="false"
       split_open="false" />
  </defs>
  <g
     inkscape:label="Reference"
     inkscape:groupmode="layer"
     id="layer1"
     style="display:none"
     sodipodi:insensitive="true">
    <path
       id="rect883"
       style="display:inline;fill:#ff0000;fill-opacity:1;stroke:#0000ff;stroke-width:30;stroke-linecap:round;stroke-linejoin:round;stroke-miterlimit:4;stroke-dasharray:none"
       d="m 584.91602,445.38281 c -63.18591,0 -96.14521,46.13859 -97.94727,139.54492 l -8.22266,426.19137 c -0.61253,31.7497 19.1831,55.2657 50.66993,55.2657 H 640 750.58398 c 31.48683,0 51.28246,-23.516 50.66993,-55.2657 L 793.03125,584.92773 C 791.22919,491.5214 758.26989,445.38281 695.08398,445.38281 H 640 Z"
       transform="scale(0.26458334)" />
  </g>
  <g
     inkscape:groupmode="layer"
     id="layer2"
     inkscape:label="Body"
     style="display:inline">
    <path
       style="fill:none;stroke:#000000;stroke-width:5.29167;stroke-linecap:butt;stroke-linejoin:miter;stroke-miterlimit:4;stroke-dasharray:none;stroke-opacity:1"
       d="m 165.745,193.83003 c -8.96535,-8.46718 -24.26153,-15.81092 -38.25066,-35.83195 l -0.34226,14.60362 c 4.94456,8.39308 29.22695,22.79211 35.33014,25.38488 z m 7.17664,0 c 8.96535,-8.46718 24.26153,-15.81092 38.25066,-35.83195 l 0.34226,14.60362 c -4.94456,8.39308 -29.22695,22.79211 -35.33014,25.38488 z"
       id="path6235"
       inkscape:path-effect="#path-effect6317"
       inkscape:original-d="m 165.745,193.83003 c -8.96535,-8.46718 -24.26153,-15.81092 -38.25066,-35.83195 l -0.34226,14.60362 c 4.94456,8.39308 29.22695,22.79211 35.33014,25.38488 z"
       sodipodi:nodetypes="ccccc" />
    <path
       style="fill:none;stroke:#000000;stroke-width:5.29167;stroke-linecap:butt;stroke-linejoin:miter;stroke-miterlimit:4;stroke-dasharray:none;stroke-opacity:1"
       d="m 163.92283,237.1858 c -4.71528,1.99035 -11.6622,3.86665 -38.14662,5.66699 l -0.27643,15.89362 c 12.93956,-4.35847 27.74747,-8.54558 39.86322,-18.50702 z m 10.82098,0 c 4.71528,1.99035 11.6622,3.86665 38.14662,5.66699 l 0.27643,15.89362 c -12.93956,-4.35847 -27.74747,-8.54558 -39.86322,-18.50702 z"
       id="path3222"
       sodipodi:nodetypes="ccccc"
       inkscape:path-effect="#path-effect5508"
       inkscape:original-d="m 163.92283,237.1858 c -4.71528,1.99035 -11.6622,3.86665 -38.14662,5.66699 l -0.27643,15.89362 c 12.93956,-4.35847 27.74747,-8.54558 39.86322,-18.50702 z" />
    <path
       style="fill:#e6e6e6;stroke:#000000;stroke-width:3.43958337;stroke-linecap:round;stroke-linejoin:round;stroke-miterlimit:4;stroke-dasharray:none"
       id="path1054"
       sodipodi:type="arc"
       sodipodi:cx="169.33334"
       sodipodi:cy="199.99426"
       sodipodi:rx="13.471956"
       sodipodi:ry="13.135969"
       sodipodi:start="0"
       sodipodi:end="6.2828537"
       sodipodi:open="true"
       sodipodi:arc-type="arc"
       d="m 182.8053,199.99426 a 13.471956,13.135969 0 0 1 -13.47084,13.13597 13.471956,13.135969 0 0 1 -13.47307,-13.13379 13.471956,13.135969 0 0 1 13.4686,-13.13815 13.471956,13.135969 0 0 1 13.47531,13.13162" />
    <path
       style="fill:#000000;stroke:#000000;stroke-width:0;stroke-linecap:round;stroke-linejoin:round;stroke-miterlimit:4;stroke-dasharray:none"
       id="path1256"
       sodipodi:type="arc"
       sodipodi:cx="169.33334"
       sodipodi:cy="199.99426"
       sodipodi:rx="7.1392331"
       sodipodi:ry="7.1392331"
       sodipodi:start="0"
       sodipodi:end="6.2828537"
       sodipodi:open="true"
       sodipodi:arc-type="arc"
       d="m 176.47258,199.99426 a 7.1392331,7.1392331 0 0 1 -7.13864,7.13924 7.1392331,7.1392331 0 0 1 -7.13983,-7.13805 7.1392331,7.1392331 0 0 1 7.13746,-7.14042 7.1392331,7.1392331 0 0 1 7.14101,7.13687" />
    <path
       style="display:inline;fill:#e6e6e6;stroke:#000000;stroke-width:3.43958337;stroke-linecap:round;stroke-linejoin:round;stroke-miterlimit:4;stroke-dasharray:none"
       id="path1054-7"
       sodipodi:type="arc"
       sodipodi:cx="169.33331"
       sodipodi:cy="236.51678"
       sodipodi:rx="10.287504"
       sodipodi:ry="10.030936"
       sodipodi:start="0"
       sodipodi:end="6.2828537"
       sodipodi:open="true"
       sodipodi:arc-type="arc"
       d="m 179.62082,236.51678 a 10.287504,10.030936 0 0 1 -10.28665,10.03094 10.287504,10.030936 0 0 1 -10.28836,-10.02927 10.287504,10.030936 0 0 1 10.28494,-10.0326 10.287504,10.030936 0 0 1 10.29007,10.02761" />
    <path
       style="display:inline;fill:#000000;stroke:#000000;stroke-width:0;stroke-linecap:round;stroke-linejoin:round;stroke-miterlimit:4;stroke-dasharray:none"
       id="path1256-9"
       sodipodi:type="arc"
       sodipodi:cx="169.33331"
       sodipodi:cy="236.51678"
       sodipodi:rx="5.4516873"
       sodipodi:ry="5.4516873"
       sodipodi:start="0"
       sodipodi:end="6.2828537"
       sodipodi:open="true"
       sodipodi:arc-type="arc"
       d="m 174.785,236.51678 a 5.4516873,5.4516873 0 0 1 -5.45124,5.45169 5.4516873,5.4516873 0 0 1 -5.45213,-5.45078 5.4516873,5.4516873 0 0 1 5.45033,-5.45259 5.4516873,5.4516873 0 0 1 5.45304,5.44988" />
    <path
       style="fill:#000000;stroke:#000000;stroke-width:0;stroke-linecap:butt;stroke-linejoin:miter;stroke-opacity:1;stroke-miterlimit:4;stroke-dasharray:none"
       d="m 169.33332,212.79244 -4.81009,0.27194 0.54388,14.00487 h 4.26621 m 0,-14.27681 4.81009,0.27194 -0.54388,14.00487 h -4.26621"
       id="path1431"
       inkscape:path-effect="#path-effect1466"
       inkscape:original-d="m 169.33332,212.79244 -4.81009,0.27194 0.54388,14.00487 h 4.26621" />
    <path
       style="fill:#373e48;stroke:#000000;stroke-width:0;stroke-linecap:butt;stroke-linejoin:miter;stroke-miterlimit:4;stroke-dasharray:none;stroke-opacity:1"
       d="m 169.33332,207.0964 c -1.49914,0 -2.53646,-0.43485 -2.53646,-0.43485 l 0.57304,24.77095 c 0,0 0.95869,-0.36294 1.96342,-0.36294 m 0,-23.97316 c 1.49914,0 2.53646,-0.43485 2.53646,-0.43485 l -0.57304,24.77095 c 0,0 -0.95869,-0.36294 -1.96342,-0.36294"
       id="path1596"
       inkscape:path-effect="#path-effect1598"
       inkscape:original-d="m 169.33332,207.0964 c -1.49914,0 -2.53646,-0.43485 -2.53646,-0.43485 l 0.57304,24.77095 c 0,0 0.95869,-0.36294 1.96342,-0.36294"
       sodipodi:nodetypes="cccc" />
    <path
       style="fill:#373e48;stroke:#000000;stroke-width:0;stroke-linecap:butt;stroke-linejoin:miter;stroke-miterlimit:4;stroke-dasharray:none;stroke-opacity:1"
       d="M 165.745,193.83003 C 151.96441,182.32867 136.91616,173.3739 127.49434,157.99808 l -0.34226,14.60362 c 8.27924,9.90423 21.98964,18.85482 35.33014,25.38488 z m 7.17664,0 c 13.78059,-11.50136 28.82884,-20.45613 38.25066,-35.83195 l 0.34226,14.60362 c -8.27924,9.90423 -21.98964,18.85482 -35.33014,25.38488 z"
       id="path2246"
       inkscape:path-effect="#path-effect2281"
       inkscape:original-d="M 165.745,193.83003 C 151.96441,182.32867 136.91616,173.3739 127.49434,157.99808 l -0.34226,14.60362 c 8.27924,9.90423 21.98964,18.85482 35.33014,25.38488 z"
       sodipodi:nodetypes="ccccc" />
    <path
       style="fill:#373e48;stroke:#000000;stroke-width:0;stroke-linecap:butt;stroke-linejoin:miter;stroke-miterlimit:4;stroke-dasharray:none;stroke-opacity:1"
       d="m 163.92283,237.1858 1.44017,3.05359 c -9.95761,8.34103 -24.86955,13.98645 -39.86322,18.50702 0,0 0.27643,-15.89362 0.4109,-15.90531 13.33686,-0.67581 26.40248,-2.38872 38.01215,-5.6553 z m 10.82098,0 -1.44017,3.05359 c 9.95761,8.34103 24.86955,13.98645 39.86322,18.50702 0,0 -0.27643,-15.89362 -0.4109,-15.90531 -13.33686,-0.67581 -26.40248,-2.38872 -38.01215,-5.6553 z"
       id="path2335"
       inkscape:path-effect="#path-effect2337"
       inkscape:original-d="m 163.92283,237.1858 1.44017,3.05359 c -9.95761,8.34103 -24.86955,13.98645 -39.86322,18.50702 0,0 0.27643,-15.89362 0.4109,-15.90531 13.33686,-0.67581 26.40248,-2.38872 38.01215,-5.6553 z"
       sodipodi:nodetypes="ccccc" />
  </g>
</svg>
