<?xml version="1.0" encoding="UTF-8" standalone="no"?>
<!-- Created with Inkscape (http://www.inkscape.org/) -->

<svg
   width="1280"
   height="1280"
   viewBox="0 0 338.66666 338.66668"
   version="1.1"
   id="svg5"
   shape-rendering="crispEdges"
   inkscape:version="1.1 (c68e22c387, 2021-05-23)"
   sodipodi:docname="ArrayHeadset_south.svg"
   inkscape:export-filename="C:\Users\Maxim\OneDrive\Desktop\Modding\RimWorld\Madness Pawns\Madness Pawns\Textures\Things\Pawn\Humanlike\Apparel\ArrayHeadset\ArrayHeadset_south.png"
   inkscape:export-xdpi="19.200001"
   inkscape:export-ydpi="19.200001"
   xmlns:inkscape="http://www.inkscape.org/namespaces/inkscape"
   xmlns:sodipodi="http://sodipodi.sourceforge.net/DTD/sodipodi-0.dtd"
   xmlns="http://www.w3.org/2000/svg"
   xmlns:svg="http://www.w3.org/2000/svg">
  <sodipodi:namedview
     id="namedview7"
     pagecolor="#ffffff"
     bordercolor="#111111"
     borderopacity="1"
     inkscape:pageshadow="0"
     inkscape:pageopacity="0"
     inkscape:pagecheckerboard="true"
     inkscape:document-units="px"
     showgrid="false"
     units="px"
     showguides="true"
     inkscape:zoom="1"
     inkscape:cx="660"
     inkscape:cy="685.5"
     inkscape:window-width="1920"
     inkscape:window-height="1017"
     inkscape:window-x="-8"
     inkscape:window-y="-8"
     inkscape:window-maximized="1"
     inkscape:current-layer="layer1"
     inkscape:guide-bbox="true"
     inkscape:snap-object-midpoints="false"
     inkscape:snap-global="true"
     inkscape:snap-bbox="true"
     inkscape:snap-bbox-midpoints="true"
     inkscape:snap-to-guides="true">
    <inkscape:grid
       type="xygrid"
       id="grid23"
       visible="true"
       enabled="true"
       dotted="false" />
    <sodipodi:guide
       position="169.33333,165.56612"
       orientation="1,0"
       id="guide96" />
    <sodipodi:guide
       position="169.33333,165.56612"
       orientation="0,-1"
       id="guide98" />
    <sodipodi:guide
       position="128.38906,147.68039"
       orientation="-0.22428358,0.97452392"
       id="guide6513" />
    <sodipodi:guide
       position="169.33335,174.02866"
       orientation="-0.2242834,-0.97452396"
       id="guide6696" />
    <sodipodi:guide
       position="134.87136,176.67552"
       orientation="1,0"
       id="guide7563" />
    <sodipodi:guide
       position="160.53594,173.23594"
       orientation="1,0"
       id="guide7641" />
    <sodipodi:guide
       position="123.04158,178.70589"
       orientation="1,0"
       id="guide20757" />
    <sodipodi:guide
       position="128.38906,183.45185"
       orientation="1,0"
       id="guide21915" />
    <sodipodi:guide
       position="127.40721,178.70589"
       orientation="0,-1"
       id="guide22259" />
    <sodipodi:guide
       position="127.40721,152.42636"
       orientation="0,-1"
       id="guide22261" />
  </sodipodi:namedview>
  <defs
     id="defs2">
    <inkscape:path-effect
       effect="mirror_symmetry"
       start_point="169.33333,194.50579"
       end_point="169.33333,198.78065"
       center_point="169.33333,196.64322"
       id="path-effect60807"
       is_visible="true"
       lpeversion="1.1"
       mode="free"
       discard_orig_path="false"
       fuse_paths="false"
       oposite_fuse="false"
       split_items="false"
       split_open="false" />
    <inkscape:path-effect
       effect="mirror_symmetry"
       start_point="640.00001,403.7129"
       end_point="640.00001,902.76214"
       center_point="640.00001,653.23752"
       id="path-effect57490"
       is_visible="true"
       lpeversion="1.1"
       mode="free"
       discard_orig_path="false"
       fuse_paths="false"
       oposite_fuse="false"
       split_items="false"
       split_open="false" />
    <inkscape:path-effect
       effect="mirror_symmetry"
       start_point="169.33334,155.21482"
       end_point="169.33334,190.98628"
       center_point="169.33334,173.10055"
       id="path-effect54508"
       is_visible="true"
       lpeversion="1.1"
       mode="free"
       discard_orig_path="false"
       fuse_paths="false"
       oposite_fuse="false"
       split_items="false"
       split_open="false" />
    <inkscape:path-effect
       effect="mirror_symmetry"
       start_point="169.33333,152.71258"
       end_point="169.33333,192.21699"
       center_point="169.33333,172.46479"
       id="path-effect49546"
       is_visible="true"
       lpeversion="1.1"
       mode="free"
       discard_orig_path="false"
       fuse_paths="false"
       oposite_fuse="false"
       split_items="false"
       split_open="false" />
    <inkscape:path-effect
       effect="mirror_symmetry"
       start_point="165.73191,151.75477"
       end_point="165.73191,176.69171"
       center_point="165.73191,164.22324"
       id="path-effect39539"
       is_visible="true"
       lpeversion="1.1"
       mode="free"
       discard_orig_path="false"
       fuse_paths="false"
       oposite_fuse="false"
       split_items="false"
       split_open="false" />
    <inkscape:path-effect
       effect="mirror_symmetry"
       start_point="165.73253,152.95658"
       end_point="165.73253,177.91136"
       center_point="165.73253,165.43397"
       id="path-effect39413"
       is_visible="true"
       lpeversion="1.1"
       mode="free"
       discard_orig_path="false"
       fuse_paths="false"
       oposite_fuse="false"
       split_items="false"
       split_open="false" />
    <inkscape:path-effect
       effect="mirror_symmetry"
       start_point="169.33399,153.77344"
       end_point="169.33399,192.42773"
       center_point="169.33399,173.10058"
       id="path-effect26284"
       is_visible="true"
       lpeversion="1.1"
       mode="free"
       discard_orig_path="false"
       fuse_paths="false"
       oposite_fuse="false"
       split_items="false"
       split_open="false" />
    <inkscape:path-effect
       effect="mirror_symmetry"
       start_point="169.33333,155.21482"
       end_point="169.33333,190.98628"
       center_point="169.33333,173.10055"
       id="path-effect24771"
       is_visible="true"
       lpeversion="1.1"
       mode="free"
       discard_orig_path="false"
       fuse_paths="false"
       oposite_fuse="false"
       split_items="false"
       split_open="false" />
    <inkscape:path-effect
       effect="mirror_symmetry"
       start_point="640.00001,403.7129"
       end_point="640.00001,902.76214"
       center_point="640.00001,653.23752"
       id="path-effect20785"
       is_visible="true"
       lpeversion="1.1"
       mode="free"
       discard_orig_path="false"
       fuse_paths="false"
       oposite_fuse="false"
       split_items="false"
       split_open="false" />
    <inkscape:path-effect
       effect="mirror_symmetry"
       start_point="639.99997,404.71366"
       end_point="639.99997,903.7629"
       center_point="639.99997,654.23828"
       id="path-effect20737"
       is_visible="true"
       lpeversion="1.1"
       mode="free"
       discard_orig_path="false"
       fuse_paths="false"
       oposite_fuse="false"
       split_items="false"
       split_open="false" />
    <inkscape:path-effect
       effect="mirror_symmetry"
       start_point="169.33333,231.10836"
       end_point="169.33333,257.24426"
       center_point="169.33333,244.17631"
       id="path-effect8332"
       is_visible="true"
       lpeversion="1.1"
       mode="free"
       discard_orig_path="false"
       fuse_paths="false"
       oposite_fuse="false"
       split_items="false"
       split_open="false" />
    <inkscape:path-effect
       effect="mirror_symmetry"
       start_point="169.33333,84.189908"
       end_point="169.33333,203.36539"
       center_point="169.33333,143.77765"
       id="path-effect5834"
       is_visible="true"
       lpeversion="1.1"
       mode="free"
       discard_orig_path="false"
       fuse_paths="false"
       oposite_fuse="false"
       split_items="false"
       split_open="false" />
    <inkscape:path-effect
       effect="mirror_symmetry"
       start_point="186.3584,173.10055"
       end_point="164.46902,173.10055"
       center_point="175.41371,173.10055"
       id="path-effect3027"
       is_visible="true"
       lpeversion="1.1"
       mode="free"
       discard_orig_path="false"
       fuse_paths="false"
       oposite_fuse="false"
       split_items="false"
       split_open="false" />
    <inkscape:path-effect
       effect="mirror_symmetry"
       start_point="169.33333,153.71791"
       end_point="169.33333,173.10055"
       center_point="169.33333,163.40923"
       id="path-effect3025"
       is_visible="true"
       lpeversion="1.1"
       mode="free"
       discard_orig_path="false"
       fuse_paths="false"
       oposite_fuse="false"
       split_items="false"
       split_open="false" />
    <inkscape:path-effect
       effect="mirror_symmetry"
       start_point="169.33333,84.189908"
       end_point="169.33333,203.36539"
       center_point="169.33333,143.77765"
       id="path-effect903"
       is_visible="true"
       lpeversion="1.1"
       mode="free"
       discard_orig_path="false"
       fuse_paths="false"
       oposite_fuse="false"
       split_items="false"
       split_open="false" />
    <inkscape:path-effect
       effect="mirror_symmetry"
       start_point="169.33333,162.26983"
       end_point="169.33333,183.93127"
       center_point="169.33333,173.10055"
       id="path-effect2786"
       is_visible="true"
       lpeversion="1.1"
       mode="free"
       discard_orig_path="false"
       fuse_paths="false"
       oposite_fuse="false"
       split_items="false"
       split_open="false" />
    <inkscape:path-effect
       effect="mirror_symmetry"
       start_point="164.56532,168.80302"
       end_point="164.56532,177.53426"
       center_point="164.56532,173.16864"
       id="path-effect1193"
       is_visible="true"
       lpeversion="1.1"
       mode="free"
       discard_orig_path="false"
       fuse_paths="false"
       oposite_fuse="false"
       split_items="false"
       split_open="false" />
    <inkscape:path-effect
       effect="mirror_symmetry"
       start_point="169.33333,154.76586"
       end_point="169.33333,191.43524"
       center_point="169.33333,173.10055"
       id="path-effect3324"
       is_visible="true"
       lpeversion="1.1"
       mode="free"
       discard_orig_path="false"
       fuse_paths="false"
       oposite_fuse="false"
       split_items="false"
       split_open="false" />
  </defs>
  <g
     inkscape:groupmode="layer"
     id="layer3"
     inkscape:label="HeadM"
     style="display:none;opacity:1">
    <ellipse
       style="display:inline;mix-blend-mode:normal;fill:#ff0000;fill-opacity:1;stroke:#0000ff;stroke-width:11.2822;stroke-miterlimit:4;stroke-dasharray:none;stroke-opacity:1"
       id="path584"
       cx="169.33333"
       cy="173.09944"
       rx="56.642174"
       ry="73.114799"
       inkscape:export-filename="C:\Program Files (x86)\Steam\steamapps\common\RimWorld\Mods\Madness Pawns\Textures\Things\Pawn\Humanlike\Heads\Male\Male_Narrow_Normal_south.png"
       inkscape:export-xdpi="9.6000004"
       inkscape:export-ydpi="9.6000004" />
    <path
       style="display:inline;mix-blend-mode:normal;fill:none;stroke:#00ff00;stroke-width:4.56407;stroke-linecap:round;stroke-linejoin:miter;stroke-miterlimit:4;stroke-dasharray:none;stroke-opacity:1"
       d="m 169.33333,135.44891 c 0,75.30323 0,75.30323 0,75.30323"
       id="path1875" />
    <path
       style="display:inline;mix-blend-mode:normal;fill:none;stroke:#00ff00;stroke-width:4.56407;stroke-linecap:round;stroke-linejoin:miter;stroke-miterlimit:4;stroke-dasharray:none;stroke-opacity:1"
       d="m 140.93325,173.10053 c 27.79153,0 27.79153,0 56.80016,0"
       id="path2880"
       sodipodi:nodetypes="cc"
       inkscape:export-filename="C:\Users\Maxim\OneDrive\Desktop\Modding\RimWorld\Madness Pawns\Textures\Things\Pawn\Humanlike\Heads\Male\Male_Narrow_Normal_south.png"
       inkscape:export-xdpi="9.6000004"
       inkscape:export-ydpi="9.6000004" />
  </g>
  <g
     inkscape:groupmode="layer"
     id="layer4"
     inkscape:label="HeadF"
     style="display:none">
    <ellipse
       style="display:inline;mix-blend-mode:normal;fill:#ff0000;fill-opacity:1;stroke:#0000ff;stroke-width:11.2822;stroke-miterlimit:4;stroke-dasharray:none;stroke-opacity:1"
       id="path584-9"
       cx="169.33333"
       cy="173.10056"
       rx="56.642292"
       ry="73.114799"
       inkscape:export-filename="C:\Program Files (x86)\Steam\steamapps\common\RimWorld\Mods\Madness Pawns\Textures\Things\Pawn\Humanlike\Heads\Male\Male_Narrow_Normal_south.png"
       inkscape:export-xdpi="9.6000004"
       inkscape:export-ydpi="9.6000004" />
    <path
       style="display:inline;mix-blend-mode:normal;fill:#00ff00;stroke:none;stroke-width:0.264583px;stroke-linecap:butt;stroke-linejoin:miter;stroke-opacity:1"
       d="m 136.82639,167.77323 -3.83646,-2.38124 c 0,0 6.14022,25.52562 34.13125,14.05775 -3.82152,-14.26212 -11.70044,-19.98448 -20.40668,-19.98448 -7.20585,0 -9.88811,6.62076 -9.88811,8.30797 z m 65.01388,0 3.83646,-2.38124 c 0,0 -6.14022,25.52562 -34.13125,14.05775 3.82152,-14.26212 11.70044,-19.98448 20.40668,-19.98448 7.20585,0 9.88811,6.62076 9.88811,8.30797 z"
       id="path2267"
       sodipodi:nodetypes="cccsc"
       inkscape:path-effect="#path-effect2786"
       inkscape:original-d="m 136.82639,167.77323 -3.83646,-2.38124 c 0,0 6.14022,25.52562 34.13125,14.05775 -3.82152,-14.26212 -11.70044,-19.98448 -20.40668,-19.98448 -7.20585,0 -9.88811,6.62076 -9.88811,8.30797 z"
       transform="matrix(1.15,0,0,1.15,-25.400059,-24.245072)" />
    <path
       style="display:inline;mix-blend-mode:normal;fill:#ff00ff;stroke:#808080;stroke-width:0;stroke-linecap:round;stroke-linejoin:round;stroke-miterlimit:4;stroke-dasharray:none"
       id="path1191"
       inkscape:path-effect="#path-effect1193"
       sodipodi:type="arc"
       sodipodi:cx="150.74635"
       sodipodi:cy="174.6219"
       sodipodi:rx="2.778125"
       sodipodi:ry="5.6885414"
       transform="matrix(1.15,0,0,1.15,-19.916851,-24.861259)"
       d="m 153.52448,174.6219 c 0,3.1417 -1.24381,5.68854 -2.77813,5.68854 -1.53431,0 -2.77812,-2.54684 -2.77812,-5.68854 0,-3.14169 1.24381,-5.68854 2.77812,-5.68854 1.53432,0 2.77813,2.54685 2.77813,5.68854 z m 22.08168,0 c 0,3.1417 1.24381,5.68854 2.77813,5.68854 1.53431,0 2.77812,-2.54684 2.77812,-5.68854 0,-3.14169 -1.24381,-5.68854 -2.77812,-5.68854 -1.53432,0 -2.77813,2.54685 -2.77813,5.68854 z" />
  </g>
  <g
     inkscape:groupmode="layer"
     id="layer1"
     inkscape:label="New"
     style="display:inline">
    <path
       id="path2697"
       style="display:inline;opacity:0.501;stroke:#000000;stroke-width:0;stroke-linecap:round;stroke-linejoin:round;fill:#ffcc00"
       d="m 222.12999,173.10056 c 0,19.47343 -23.63787,35.25977 -52.79666,35.25977 -29.15879,0 -52.79666,-15.78634 -52.79666,-35.25977 0,-19.47345 23.63787,-35.25979 52.79666,-35.25979 29.15879,0 52.79666,15.78634 52.79666,35.25979 z"
       sodipodi:nodetypes="sssss" />
    <path
       id="path901-6"
       style="fill:#333333;stroke:#000000;stroke-width:10;stroke-linecap:butt;stroke-linejoin:round;stroke-miterlimit:4;stroke-dasharray:none;stroke-opacity:1"
       d="m 640,403.71289 -126.68212,9.3e-4 -29.69847,51.96189 -45.49749,21.62139 -43.53736,64.44377 25.18293,113.56938 -6.08365,22.09285 -10.34188,67.52987 -28.54161,20.17434 29.38046,48.77262 23.68807,-18.73841 18.73834,21.5668 -12.63293,48.31854 42.06474,20.34122 34.06453,-47.24564 129.89641,3.47495 m 3e-5,-155.37473 -27.70535,6.3763 c -19.67104,59.88788 -57.45903,64.68544 -109.78775,25.2673 l -17.25692,3.97162 -20.21094,-17.9375 v -99.32422 l 20.21094,-17.9375 15.96563,3.67445 c 13,-22.25 99.35588,-37.70123 115.35587,26.54877 L 640,622.25391 m -6e-5,-218.54102 126.68212,9.3e-4 29.69847,51.96189 45.49749,21.62139 43.53736,64.44377 -25.18293,113.56938 6.08365,22.09285 10.34188,67.52987 28.54161,20.17434 -29.38046,48.77262 -23.68807,-18.73841 -18.73834,21.5668 12.63293,48.31854 -42.06474,20.34122 -34.06453,-47.24564 -129.89641,3.47495 m -3e-5,-155.37473 27.70535,6.3763 c 19.67104,59.88788 57.45903,64.68544 109.78775,25.2673 l 17.25692,3.97162 20.21094,-17.9375 v -99.32422 l -20.21094,-17.9375 -15.96563,3.67445 c -13,-22.25 -99.35588,-37.70123 -115.35587,26.54877 l -23.42852,5.39203"
       transform="scale(0.26458334)"
       sodipodi:nodetypes="cccccccccccccccccccccccccc"
       inkscape:path-effect="#path-effect20737"
       inkscape:original-d="m 640,403.71289 -126.68212,9.3e-4 -29.69847,51.96189 -45.49749,21.62139 -43.53736,64.44377 25.18293,113.56938 -6.08365,22.09285 -10.34188,67.52987 -28.54161,20.17434 29.38046,48.77262 23.68807,-18.73841 18.73834,21.5668 -12.63293,48.31854 42.06474,20.34122 34.06453,-47.24564 129.89641,3.47495 m 3e-5,-155.37473 -27.70535,6.3763 c -19.67104,59.88788 -57.45903,64.68544 -109.78775,25.2673 l -17.25692,3.97162 -20.21094,-17.9375 v -99.32422 l 20.21094,-17.9375 15.96563,3.67445 c 13,-22.25 99.35588,-37.70123 115.35587,26.54877 L 640,622.25391" />
    <path
       style="fill:none;stroke:#000000;stroke-width:2.64583;stroke-linecap:round;stroke-linejoin:miter;stroke-miterlimit:4;stroke-dasharray:none;stroke-opacity:1"
       d="m 106.71756,197.09685 8.62871,-4.27486 m 116.60283,4.27486 -8.62871,-4.27486"
       id="path45567"
       sodipodi:nodetypes="cc"
       inkscape:path-effect="#path-effect60807"
       inkscape:original-d="m 106.71756,197.09685 8.62871,-4.27486" />
    <path
       id="path901-6-9"
       style="fill:#666666;stroke:none;stroke-width:9.82174;stroke-linecap:round;stroke-linejoin:round;stroke-miterlimit:4;stroke-dasharray:none;stroke-opacity:1"
       d="m 640,453.60156 -101.35352,0.002 -23.76171,41.57226 -36.40039,17.29883 -34.61524,42.16406 21.16992,87.11914 v -37.18168 l 20.21094,-17.9375 24.50001,5.6386 c 64.90297,-39.53863 84.9321,1.34768 96.99998,22.32422 L 640,622.25391 l 154.75,-35.61524 20.21094,17.9375 v 37.18164 l 21.16992,-87.11914 -34.61524,-42.16406 -36.40039,-17.29883 -23.76171,-41.57226 z m 174.96094,188.15625 -1,4.11524 1,18.3457 z m 0,22.46094 v 39.68164 L 794.75,721.83789 640,686.22266 l -33.25001,7.65239 c -21.65192,34.14492 -52.69662,44.80789 -96.99998,22.32424 l -24.50001,5.6386 -20.21094,-17.9375 v -39.68164 l -0.14453,2.65234 -15.08984,2.77344 -12.86133,26.19531 -0.98828,36.93555 30.79687,57.41992 31.72266,22.53516 18.26172,19.70508 123.26367,20.4375 123.26367,-20.4375 18.26172,-19.70508 31.72266,-22.53516 30.79687,-57.41992 -0.98828,-36.93555 -12.86133,-26.19531 -15.08984,-2.77344 z m -349.92188,0 1,-18.3457 -1,-4.11524 z"
       transform="scale(0.26458334)"
       sodipodi:nodetypes="cccccccccccccccccccccccccccccccccccccccccccccccccccc" />
    <path
       id="path901-6-9-2"
       style="display:inline;fill:none;stroke:#000000;stroke-width:12.2762;stroke-linecap:round;stroke-linejoin:round;stroke-miterlimit:4;stroke-dasharray:none;stroke-opacity:1"
       d="m 640,403.71289 -126.68212,9.3e-4 -29.69847,51.96189 -45.49749,21.62139 -43.26554,52.70156 27.70975,114.0344 -1.42941,26.24471 -18.8629,3.46753 -16.07558,32.74059 -1.23493,41.16722 38.49405,76.76881 39.65002,28.16604 22.82417,24.62951 L 640,902.76172 m 2e-5,-499.04883 126.68212,9.3e-4 29.69847,51.96189 45.49749,21.62139 43.26554,52.70156 -27.70975,114.0344 1.42941,26.24471 18.8629,3.46753 16.07558,32.74059 1.23493,41.16722 -38.49405,76.76881 -39.65002,28.16604 -22.82417,24.62951 -154.06845,25.54425"
       transform="matrix(0.21168354,0,0,0.21168354,33.85587,34.556131)"
       sodipodi:nodetypes="cccccccccccccc"
       inkscape:path-effect="#path-effect57490"
       inkscape:original-d="m 640,403.71289 -126.68212,9.3e-4 -29.69847,51.96189 -45.49749,21.62139 -43.26554,52.70156 27.70975,114.0344 -1.42941,26.24471 -18.8629,3.46753 -16.07558,32.74059 -1.23493,41.16722 38.49405,76.76881 39.65002,28.16604 22.82417,24.62951 L 640,902.76172" />
    <path
       style="fill:none;stroke:#000000;stroke-width:7.9375;stroke-linecap:butt;stroke-linejoin:round;stroke-miterlimit:4;stroke-dasharray:none;stroke-opacity:1"
       d="m 169.33333,106.81595 h -33.51797 l -7.85772,13.74825 -12.03788,5.72066 -11.51926,17.05075 2.07931,10.31071 -5.4062,1.45352 5.5032,25.40117 -2.29583,14.85943 -8.713206,5.96613 10.535536,18.05183 6.77752,-5.31699 2.45347,2.73549 -3.47035,13.60428 15.21072,7.26516 8.61604,-11.83584 2.14096,16.8618 h 31.50164 m 2e-5,-135.87635 h 33.51797 l 7.85772,13.74825 12.03788,5.72066 11.51926,17.05075 -2.07931,10.31071 5.4062,1.45352 -5.5032,25.40117 2.29583,14.85943 8.71321,5.96613 -10.53554,18.05183 -6.77752,-5.31699 -2.45347,2.73549 3.47035,13.60428 -15.21072,7.26516 -8.61604,-11.83584 -2.14096,16.8618 h -31.50164"
       id="path901"
       inkscape:path-effect="#path-effect903"
       inkscape:original-d="m 169.33333,106.81595 h -33.51797 l -7.85772,13.74825 -12.03788,5.72066 -11.51926,17.05075 2.07931,10.31071 -5.4062,1.45352 5.5032,25.40117 -2.29583,14.85943 -8.713206,5.96613 10.535536,18.05183 6.77752,-5.31699 2.45347,2.73549 -3.47035,13.60428 15.21072,7.26516 8.61604,-11.83584 2.14096,16.8618 h 31.50164"
       sodipodi:nodetypes="cccccccccccccccccc" />
    <path
       style="color:#000000;fill:#999999;stroke:#000000;stroke-width:1.05833;stroke-linecap:round;stroke-linejoin:round;stroke-miterlimit:4;stroke-dasharray:none"
       d="m 108.31068,151.96524 c -0.71495,0.14809 -1.17475,0.8474 -1.02734,1.5625 l 4.53111,22.29257 c 0.1518,0.73077 0.87767,1.1914 1.60352,1.01758 l 8.92836,-2.10144 c 0.71109,-0.1701 1.14935,-0.88479 0.97852,-1.5957 -0.1701,-0.71109 -0.88479,-1.14935 -1.5957,-0.97852 l -7.6022,1.78504 -4.25377,-20.95664 c -0.14901,-0.71416 -0.84803,-1.17289 -1.5625,-1.02539 z m 114.84246,0 c 0.71495,0.14809 1.17475,0.8474 1.02734,1.5625 l -4.53111,22.29257 c -0.1518,0.73077 -0.87767,1.1914 -1.60352,1.01758 l -8.92836,-2.10144 c -0.71109,-0.1701 -1.14935,-0.88479 -0.97852,-1.5957 0.1701,-0.71109 0.88479,-1.14935 1.5957,-0.97852 l 7.6022,1.78504 4.25377,-20.95664 c 0.14901,-0.71416 0.84803,-1.17289 1.5625,-1.02539 z"
       id="path30829"
       sodipodi:nodetypes="cccccccccc"
       inkscape:path-effect="#path-effect39539"
       inkscape:original-d="m 108.31068,151.96524 c -0.71495,0.14809 -1.17475,0.8474 -1.02734,1.5625 l 4.53111,22.29257 c 0.1518,0.73077 0.87767,1.1914 1.60352,1.01758 l 8.92836,-2.10144 c 0.71109,-0.1701 1.14935,-0.88479 0.97852,-1.5957 -0.1701,-0.71109 -0.88479,-1.14935 -1.5957,-0.97852 l -7.6022,1.78504 -4.25377,-20.95664 c -0.14901,-0.71416 -0.84803,-1.17289 -1.5625,-1.02539 z"
       transform="matrix(1.0652492,0,0,1.0652492,-7.2124497,-10.300671)" />
    <path
       style="color:#000000;fill:#999999;stroke:#000000;stroke-width:1.05833;stroke-linecap:round;stroke-linejoin:round;stroke-miterlimit:4;stroke-dasharray:none"
       d="m 106.03505,155.08922 c -0.71522,0.14986 -1.17347,0.85123 -1.02344,1.56641 l 4.7531,22.30791 c 0.15209,0.72597 0.87119,1.1851 1.59375,1.01758 l 10.67229,-2.41318 c 0.71125,-0.16577 1.15362,-0.87654 0.98828,-1.58789 -0.16574,-0.7122 -0.87784,-1.15485 -1.58984,-0.98828 l -9.35198,2.10654 -4.47575,-20.9837 c -0.14894,-0.71601 -0.8506,-1.17533 -1.56641,-1.02539 z m 119.39496,0 c 0.71522,0.14986 1.17347,0.85123 1.02344,1.56641 l -4.7531,22.30791 c -0.15209,0.72597 -0.87119,1.1851 -1.59375,1.01758 l -10.67229,-2.41318 c -0.71125,-0.16577 -1.15362,-0.87654 -0.98828,-1.58789 0.16574,-0.7122 0.87784,-1.15485 1.58984,-0.98828 l 9.35198,2.10654 4.47575,-20.9837 c 0.14894,-0.71601 0.8506,-1.17533 1.56641,-1.02539 z"
       id="path30829-4"
       sodipodi:nodetypes="cccccccccc"
       inkscape:path-effect="#path-effect39413"
       inkscape:original-d="m 106.03505,155.08922 c -0.71522,0.14986 -1.17347,0.85123 -1.02344,1.56641 l 4.7531,22.30791 c 0.15209,0.72597 0.87119,1.1851 1.59375,1.01758 l 10.67229,-2.41318 c 0.71125,-0.16577 1.15362,-0.87654 0.98828,-1.58789 -0.16574,-0.7122 -0.87784,-1.15485 -1.58984,-0.98828 l -9.35198,2.10654 -4.47575,-20.9837 c -0.14894,-0.71601 -0.8506,-1.17533 -1.56641,-1.02539 z"
       transform="matrix(1.0652492,0,0,1.0652492,-7.2124497,-10.300671)" />
    <path
       style="fill:#cccccc;stroke:#000000;stroke-width:2.64583;stroke-linecap:butt;stroke-linejoin:round;stroke-miterlimit:4;stroke-dasharray:none;stroke-opacity:1"
       d="m 169.26317,210.47086 c -26.99526,0 -37.37509,4.56411 -37.37509,4.56411 l 7.58899,25.01863 h 29.85626 m 0.0702,-29.58274 c 26.99526,0 37.37509,4.56411 37.37509,4.56411 l -7.58899,25.01863 h -29.85626"
       id="path8132"
       inkscape:path-effect="#path-effect8332"
       inkscape:original-d="m 169.26317,210.47086 c -26.99526,0 -37.37509,4.56411 -37.37509,4.56411 l 7.58899,25.01863 h 29.85626"
       sodipodi:nodetypes="cccc" />
    <path
       style="color:#000000;fill:#333333;stroke-linecap:round;stroke:#000000;stroke-width:3.99999994;stroke-miterlimit:4;stroke-dasharray:none"
       d="m 549.35742,569.31055 c -15.57599,0.3024 -30.76163,5.88392 -41.26367,17.45507 l -24.23438,-5.57812 -1.92773,1.71094 -21.89258,19.42968 v 103.82032 l 23.82031,21.14062 24.70899,-5.6875 c 16.28931,13.32583 38.87455,16.86427 58.88086,12.49414 19.78401,-4.32157 37.47674,-16.75536 43.19531,-35.98633 L 640,691.35352 796.14062,727.28906 819.96094,706.14844 V 602.32812 L 796.14062,581.1875 640,617.12305 610.7793,610.39844 c -5.32869,-21.37024 -24.21435,-35.09631 -44.83594,-39.49219 -5.42721,-1.15691 -11.02513,-1.70366 -16.58594,-1.5957 z m 0.31055,10.01953 c 4.72115,-0.0962 9.5094,0.35978 14.18945,1.35742 18.72022,3.99057 34.74213,16.17494 37.9668,34.76758 l 0.5664,3.27344 37.60938,8.65625 153.35937,-35.29493 16.60157,14.73438 v 94.82812 L 793.35937,716.38672 640,681.0918 l -37.46289,8.62304 -0.67383,3.09961 c -3.56641,16.41742 -18.42549,27.5529 -36.54883,31.51172 -18.12334,3.95882 -38.78123,0.29423 -52.21289,-11.83789 l -1.93359,-1.74609 -24.52735,5.64453 -16.60156,-14.73438 v -94.82812 l 16.60156,-14.73438 25.07813,5.77149 1.96094,-2.49219 c 8.26213,-10.49552 21.82482,-15.75048 35.98828,-16.03906 z"
       id="path54407"
       transform="scale(0.26458334)" />
  </g>
</svg>
