<?xml version="1.0" encoding="UTF-8" standalone="no"?>
<!-- Created with Inkscape (http://www.inkscape.org/) -->

<svg
   width="1280"
   height="1280"
   viewBox="0 0 338.66666 338.66668"
   version="1.1"
   id="svg5"
   inkscape:version="1.1 (c68e22c387, 2021-05-23)"
   sodipodi:docname="BodyStrap_Male_east.svg"
   inkscape:export-filename="C:\Program Files (x86)\Steam\steamapps\common\RimWorld\Mods\Madness Pawns\Textures\Things\Pawn\Humanlike\Apparel\BodyStrap\BodyStrap_Male_east.png"
   inkscape:export-xdpi="19.200001"
   inkscape:export-ydpi="19.200001"
   xmlns:inkscape="http://www.inkscape.org/namespaces/inkscape"
   xmlns:sodipodi="http://sodipodi.sourceforge.net/DTD/sodipodi-0.dtd"
   xmlns="http://www.w3.org/2000/svg"
   xmlns:svg="http://www.w3.org/2000/svg">
  <sodipodi:namedview
     id="namedview7"
     pagecolor="#ffffff"
     bordercolor="#111111"
     borderopacity="1"
     inkscape:pageshadow="0"
     inkscape:pageopacity="0"
     inkscape:pagecheckerboard="1"
     inkscape:document-units="px"
     showgrid="false"
     showguides="false"
     units="px"
     inkscape:snap-bbox="true"
     inkscape:snap-object-midpoints="false"
     inkscape:bbox-paths="false"
     inkscape:bbox-nodes="false"
     inkscape:snap-bbox-midpoints="false"
     inkscape:snap-page="true"
     inkscape:zoom="0.70710678"
     inkscape:cx="538.10826"
     inkscape:cy="748.82608"
     inkscape:window-width="1920"
     inkscape:window-height="1017"
     inkscape:window-x="-8"
     inkscape:window-y="-8"
     inkscape:window-maximized="1"
     inkscape:current-layer="layer2"
     inkscape:guide-bbox="true"
     inkscape:snap-global="true"
     inkscape:snap-to-guides="true"
     inkscape:object-paths="false"
     inkscape:snap-smooth-nodes="true">
    <sodipodi:guide
       position="190.10312,169.33336"
       orientation="1,0"
       id="guide833" />
    <sodipodi:guide
       position="187.81439,145.17596"
       orientation="0,-1"
       id="guide14424" />
    <sodipodi:guide
       position="185.3732,139.86463"
       orientation="0,-1"
       id="guide14426" />
    <sodipodi:guide
       position="186.50406,101.04099"
       orientation="0,-1"
       id="guide21650" />
    <sodipodi:guide
       position="187.63474,97.891403"
       orientation="0,-1"
       id="guide23095" />
  </sodipodi:namedview>
  <defs
     id="defs2">
    <inkscape:path-effect
       effect="mirror_symmetry"
       start_point="169.33332,206.42339"
       end_point="169.33332,231.61339"
       center_point="169.33332,219.01839"
       id="path-effect979"
       is_visible="true"
       lpeversion="1.1"
       mode="free"
       discard_orig_path="false"
       fuse_paths="false"
       oposite_fuse="false"
       split_items="false"
       split_open="false" />
    <inkscape:path-effect
       effect="mirror_symmetry"
       start_point="169.33332,212.79244"
       end_point="169.33332,227.06925"
       center_point="169.33332,219.93085"
       id="path-effect975"
       is_visible="true"
       lpeversion="1.1"
       mode="free"
       discard_orig_path="false"
       fuse_paths="false"
       oposite_fuse="false"
       split_items="false"
       split_open="false" />
    <inkscape:path-effect
       effect="mirror_symmetry"
       start_point="640.00001,475.3086"
       end_point="640.00001,1047.4492"
       center_point="640.00001,761.37891"
       id="path-effect1473"
       is_visible="true"
       lpeversion="1.1"
       mode="free"
       discard_orig_path="false"
       fuse_paths="false"
       oposite_fuse="false"
       split_items="false"
       split_open="false" />
    <inkscape:path-effect
       effect="mirror_symmetry"
       start_point="169.33332,155.65778"
       end_point="169.33332,196.63328"
       center_point="169.33332,176.14553"
       id="path-effect6317"
       is_visible="true"
       lpeversion="1.1"
       mode="free"
       discard_orig_path="false"
       fuse_paths="false"
       oposite_fuse="false"
       split_items="false"
       split_open="false" />
    <inkscape:path-effect
       effect="mirror_symmetry"
       start_point="169.33332,238.13465"
       end_point="169.33332,258.74641"
       center_point="169.33332,248.44053"
       id="path-effect5508"
       is_visible="true"
       lpeversion="1.1"
       mode="free"
       discard_orig_path="false"
       fuse_paths="false"
       oposite_fuse="false"
       split_items="false"
       split_open="false" />
    <inkscape:path-effect
       effect="mirror_symmetry"
       start_point="169.33332,212.79244"
       end_point="169.33332,227.06925"
       center_point="169.33332,219.93085"
       id="path-effect1466"
       is_visible="true"
       lpeversion="1.1"
       mode="free"
       discard_orig_path="false"
       fuse_paths="false"
       oposite_fuse="false"
       split_items="false"
       split_open="false" />
    <inkscape:path-effect
       effect="mirror_symmetry"
       start_point="169.33332,206.42339"
       end_point="169.33332,231.61339"
       center_point="169.33332,219.01839"
       id="path-effect1598"
       is_visible="true"
       lpeversion="1.1"
       mode="free"
       discard_orig_path="false"
       fuse_paths="false"
       oposite_fuse="false"
       split_items="false"
       split_open="false" />
    <inkscape:path-effect
       effect="mirror_symmetry"
       start_point="169.33332,155.65778"
       end_point="169.33332,196.44311"
       center_point="169.33332,176.05044"
       id="path-effect2281"
       is_visible="true"
       lpeversion="1.1"
       mode="free"
       discard_orig_path="false"
       fuse_paths="false"
       oposite_fuse="false"
       split_items="false"
       split_open="false" />
    <inkscape:path-effect
       effect="mirror_symmetry"
       start_point="169.33332,238.16388"
       end_point="169.33332,257.99528"
       center_point="169.33332,248.07958"
       id="path-effect2337"
       is_visible="true"
       lpeversion="1.1"
       mode="free"
       discard_orig_path="false"
       fuse_paths="false"
       oposite_fuse="false"
       split_items="false"
       split_open="false" />
  </defs>
  <g
     inkscape:label="Reference"
     inkscape:groupmode="layer"
     id="layer1"
     style="display:none"
     sodipodi:insensitive="true">
    <path
       id="rect883-0"
       style="display:inline;fill:#ff0000;fill-opacity:1;stroke:#0000ff;stroke-width:7.9375;stroke-linecap:round;stroke-linejoin:round;stroke-miterlimit:4;stroke-dasharray:none"
       d="m 147.83658,117.84087 c -16.71794,0 -25.43842,12.20751 -25.91521,36.92126 l -2.17558,112.76314 c -0.16207,8.40044 5.07553,14.62238 13.40642,14.62238 h 29.25867 29.25868 c 8.33089,0 13.56849,-6.22194 13.40642,-14.62238 L 202.9004,154.76213 c -0.47679,-24.71375 -9.19727,-36.92126 -25.91521,-36.92126 h -14.57431 z" />
  </g>
  <g
     inkscape:groupmode="layer"
     id="layer2"
     inkscape:label="Body"
     style="display:inline">
    <path
       style="display:inline;fill:#373e48;fill-opacity:1;stroke:#000000;stroke-width:5.29167;stroke-linecap:butt;stroke-linejoin:miter;stroke-miterlimit:4;stroke-dasharray:none;stroke-opacity:1"
       d="m 187.81439,193.49071 c -25.16521,-7.03319 -48.25821,-17.59382 -67.43998,-30.61045 l -0.34646,17.95744 c 20.06857,10.71668 42.78218,16.72681 65.34526,17.96434 0.26969,-2.44546 1.12554,-4.16364 2.44118,-5.31133 z"
       id="path1587-7"
       sodipodi:nodetypes="ccccc" />
    <path
       style="display:inline;fill:#373e48;fill-opacity:1;stroke:#000000;stroke-width:5.29167;stroke-linecap:butt;stroke-linejoin:miter;stroke-miterlimit:4;stroke-dasharray:none;stroke-opacity:1"
       d="m 186.50407,237.62568 c -20.38707,3.78253 -42.2872,7.51591 -67.56163,3.2343 l -0.34986,18.13364 c 22.73451,-1.94899 46.79438,-4.10149 69.04217,-18.21835 -0.52805,-0.75478 -0.97409,-1.75696 -1.13068,-3.14959 z"
       id="path7747-6"
       sodipodi:nodetypes="ccccc" />
    <path
       style="display:inline;fill:#373e48;fill-opacity:1;stroke:#000000;stroke-width:5.29167;stroke-linecap:butt;stroke-linejoin:miter;stroke-miterlimit:4;stroke-dasharray:none;stroke-opacity:1"
       d="m 192.32716,193.49071 c 1.49803,1.18086 2.23789,3.02718 2.47892,5.31133 3.5481,-0.52112 6.71643,-1.21678 10.22597,-3.12493 l -0.17207,-8.9752 c -2.78034,3.25433 -7.01079,4.78069 -12.53282,6.7888 z"
       id="path14461-0"
       sodipodi:nodetypes="ccccc" />
    <path
       style="display:inline;fill:#373e48;fill-opacity:1;stroke:#000000;stroke-width:5.29167;stroke-linecap:butt;stroke-linejoin:miter;stroke-miterlimit:4;stroke-dasharray:none;stroke-opacity:1"
       d="m 193.689,237.73806 c 4.11944,0.91583 8.18112,2.35157 12.46537,1.7842 l 0.18756,9.71525 c -5.1251,-2.21365 -9.61001,-5.19553 -13.85755,-8.46224 0.72229,-0.75623 1.00937,-1.86005 1.20462,-3.03721 z"
       id="path26581-8"
       sodipodi:nodetypes="ccccc" />
    <path
       id="path1054-8"
       style="display:inline;fill:#e6e6e6;stroke:#000000;stroke-width:2.64583336;stroke-linecap:round;stroke-linejoin:round;stroke-miterlimit:4;stroke-dasharray:none"
       d="m 190.1039,213.09363 c -4.97867,6.1e-4 -9.01514,-5.93966 -9.01596,-13.26834 -6.7e-4,-7.32869 4.0343,-13.27093 9.01297,-13.27275 4.97867,-0.002 9.0158,5.93746 9.01744,13.26834 1e-5,7.33089 -4.03578,13.27214 -9.01445,13.27275 z"
       sodipodi:nodetypes="ssscs" />
    <path
       id="path1256-2"
       style="display:inline;stroke:#000000;stroke-width:0;stroke-linecap:round;stroke-linejoin:round"
       d="m 190.10354,207.03546 c -2.63836,3.3e-4 -4.77741,-3.22812 -4.77784,-7.21117 -4.5e-4,-3.98306 2.1379,-7.21259 4.77626,-7.21358 2.63836,-9.9e-4 4.77777,3.22694 4.77864,7.21118 0,3.98424 -2.13869,7.21324 -4.77706,7.21357 z"
       sodipodi:nodetypes="ssscs" />
    <path
       id="path1054-7-6"
       style="display:inline;fill:#e6e6e6;stroke:#000000;stroke-width:2.64583336;stroke-linecap:round;stroke-linejoin:round;stroke-miterlimit:4;stroke-dasharray:none"
       d="m 190.1037,246.85347 c -3.80183,4.7e-4 -6.88417,-4.53565 -6.8848,-10.13202 -6.3e-4,-5.59636 3.08068,-10.13398 6.88252,-10.13538 3.80183,-0.001 6.88467,4.53398 6.88593,10.13202 0,5.59804 -3.08182,10.13492 -6.88365,10.13538 z"
       sodipodi:nodetypes="ssscs" />
    <path
       id="path1256-9-8"
       style="display:inline;stroke:#000000;stroke-width:0;stroke-linecap:round;stroke-linejoin:round"
       d="m 190.10343,242.22731 c -2.01472,2.5e-4 -3.64815,-2.46507 -3.64848,-5.50662 -3.4e-4,-3.04156 1.63255,-5.5077 3.64727,-5.50845 2.01471,-7.6e-4 3.64842,2.46415 3.64909,5.50662 0,3.04246 -1.63316,5.5082 -3.64788,5.50845 z"
       sodipodi:nodetypes="ssscs" />
    <path
       style="display:inline;fill:#000000;stroke:#000000;stroke-width:0;stroke-linecap:butt;stroke-linejoin:miter;stroke-miterlimit:4;stroke-dasharray:none;stroke-opacity:1"
       d="m 169.33332,212.79244 -4.81009,0.27194 0.54388,14.00487 h 4.26621 m 0,-14.27681 4.81009,0.27194 -0.54388,14.00487 h -4.26621"
       id="path1431-5"
       inkscape:path-effect="#path-effect975"
       inkscape:original-d="m 169.33332,212.79244 -4.81009,0.27194 0.54388,14.00487 h 4.26621"
       transform="matrix(0.66918324,0,0,1.0102447,76.788109,-2.2200668)" />
    <path
       style="display:inline;fill:#373e48;stroke:#000000;stroke-width:0;stroke-linecap:butt;stroke-linejoin:miter;stroke-miterlimit:4;stroke-dasharray:none;stroke-opacity:1"
       d="m 169.33332,207.0964 c -1.49914,0 -2.53646,-0.43485 -2.53646,-0.43485 l 0.57304,24.77095 c 0,0 0.95869,-0.36294 1.96342,-0.36294 m 0,-23.97316 c 1.49914,0 2.53646,-0.43485 2.53646,-0.43485 l -0.57304,24.77095 c 0,0 -0.95869,-0.36294 -1.96342,-0.36294"
       id="path1596-2"
       inkscape:path-effect="#path-effect979"
       inkscape:original-d="m 169.33332,207.0964 c -1.49914,0 -2.53646,-0.43485 -2.53646,-0.43485 l 0.57304,24.77095 c 0,0 0.95869,-0.36294 1.96342,-0.36294"
       sodipodi:nodetypes="cccc"
       transform="matrix(0.66918324,0,0,1.0102447,76.788109,-2.2200668)" />
    <path
       style="fill:#373e48;fill-opacity:1;stroke:#000000;stroke-width:0;stroke-linecap:butt;stroke-linejoin:miter;stroke-miterlimit:4;stroke-dasharray:none;stroke-opacity:1"
       d="m 187.81439,193.49071 c -25.16521,-7.03319 -48.25821,-17.59382 -67.43998,-30.61045 l -0.34646,17.95744 c 20.06857,10.71668 42.78218,16.72681 65.34526,17.96434 0.26969,-2.44546 1.12554,-4.16364 2.44118,-5.31133 z"
       id="path1587"
       sodipodi:nodetypes="ccccc" />
    <path
       style="fill:#373e48;fill-opacity:1;stroke:#000000;stroke-width:0;stroke-linecap:butt;stroke-linejoin:miter;stroke-miterlimit:4;stroke-dasharray:none;stroke-opacity:1"
       d="m 186.50407,237.62568 c -20.38707,3.78253 -42.2872,7.51591 -67.56163,3.2343 l -0.34986,18.13364 c 22.73451,-1.94899 46.79438,-4.10149 69.04217,-18.21835 -0.52805,-0.75478 -0.97409,-1.75696 -1.13068,-3.14959 z"
       id="path7747"
       sodipodi:nodetypes="ccccc" />
    <path
       style="fill:#373e48;fill-opacity:1;stroke:#000000;stroke-width:0;stroke-linecap:butt;stroke-linejoin:miter;stroke-miterlimit:4;stroke-dasharray:none;stroke-opacity:1"
       d="m 192.32716,193.49071 c 1.49803,1.18086 2.23789,3.02718 2.47892,5.31133 3.5481,-0.52112 6.71643,-1.21678 10.22597,-3.12493 l -0.17207,-8.9752 c -2.78034,3.25433 -7.01079,4.78069 -12.53282,6.7888 z"
       id="path14461"
       sodipodi:nodetypes="ccccc" />
    <path
       style="fill:#373e48;fill-opacity:1;stroke:#000000;stroke-width:0;stroke-linecap:butt;stroke-linejoin:miter;stroke-miterlimit:4;stroke-dasharray:none;stroke-opacity:1"
       d="m 193.689,237.73806 c 4.11944,0.91583 8.18112,2.35157 12.46537,1.7842 l 0.18756,9.71525 c -5.1251,-2.21365 -9.61001,-5.19553 -13.85755,-8.46224 0.72229,-0.75623 1.00937,-1.86005 1.20462,-3.03721 z"
       id="path26581"
       sodipodi:nodetypes="ccccc" />
  </g>
</svg>
