<?xml version="1.0" encoding="UTF-8" standalone="no"?>
<!-- Created with Inkscape (http://www.inkscape.org/) -->

<svg
   width="1280"
   height="1280"
   viewBox="0 0 338.66666 338.66668"
   version="1.1"
   id="svg5"
   inkscape:version="1.1 (c68e22c387, 2021-05-23)"
   sodipodi:docname="FlakJacket_male_east.svg"
   inkscape:export-filename="C:\Program Files (x86)\Steam\steamapps\common\RimWorld\Mods\Madness Pawns\Textures\Things\Pawn\Humanlike\Apparel\FlakJacket\FlakJacket_Male_east.png"
   inkscape:export-xdpi="19.200001"
   inkscape:export-ydpi="19.200001"
   xmlns:inkscape="http://www.inkscape.org/namespaces/inkscape"
   xmlns:sodipodi="http://sodipodi.sourceforge.net/DTD/sodipodi-0.dtd"
   xmlns:xlink="http://www.w3.org/1999/xlink"
   xmlns="http://www.w3.org/2000/svg"
   xmlns:svg="http://www.w3.org/2000/svg">
  <sodipodi:namedview
     id="namedview7"
     pagecolor="#ffffff"
     bordercolor="#111111"
     borderopacity="1"
     inkscape:pageshadow="0"
     inkscape:pageopacity="0"
     inkscape:pagecheckerboard="1"
     inkscape:document-units="px"
     showgrid="false"
     showguides="false"
     units="px"
     inkscape:snap-bbox="true"
     inkscape:snap-object-midpoints="false"
     inkscape:bbox-paths="false"
     inkscape:bbox-nodes="false"
     inkscape:snap-bbox-midpoints="false"
     inkscape:snap-page="true"
     inkscape:zoom="1.4142136"
     inkscape:cx="653.0131"
     inkscape:cy="676.34762"
     inkscape:window-width="1920"
     inkscape:window-height="1017"
     inkscape:window-x="-8"
     inkscape:window-y="-8"
     inkscape:window-maximized="1"
     inkscape:current-layer="layer2"
     inkscape:guide-bbox="true">
    <sodipodi:guide
       position="169.33332,169.33335"
       orientation="0,-1"
       id="guide989" />
    <sodipodi:guide
       position="169.33332,169.33336"
       orientation="1,0"
       id="guide991" />
  </sodipodi:namedview>
  <defs
     id="defs2">
    <linearGradient
       inkscape:collect="always"
       id="linearGradient31297">
      <stop
         style="stop-color:#f9f9f9;stop-opacity:1"
         offset="0"
         id="stop31293" />
      <stop
         style="stop-color:#f9f9f9;stop-opacity:1"
         offset="0.75459075"
         id="stop31365" />
      <stop
         style="stop-color:#999999;stop-opacity:1"
         offset="1"
         id="stop31295" />
    </linearGradient>
    <inkscape:path-effect
       effect="mirror_symmetry"
       start_point="640.00001,475.3086"
       end_point="640.00001,1047.4492"
       center_point="640.00001,761.37891"
       id="path-effect1473"
       is_visible="true"
       lpeversion="1.1"
       mode="free"
       discard_orig_path="false"
       fuse_paths="false"
       oposite_fuse="false"
       split_items="false"
       split_open="false" />
    <inkscape:path-effect
       effect="mirror_symmetry"
       start_point="169.33332,114.57288"
       end_point="169.33332,224.09375"
       center_point="169.33332,169.33332"
       id="path-effect6599"
       is_visible="false"
       lpeversion="1.1"
       mode="free"
       discard_orig_path="false"
       fuse_paths="false"
       oposite_fuse="false"
       split_items="false"
       split_open="false" />
    <radialGradient
       inkscape:collect="always"
       xlink:href="#linearGradient31297"
       id="radialGradient31299"
       cx="150.94487"
       cy="222.77231"
       fx="150.94487"
       fy="222.77231"
       r="47.70188"
       gradientTransform="matrix(-0.95008089,0,0,-5.1927546,316.57971,1384.7595)"
       gradientUnits="userSpaceOnUse" />
  </defs>
  <g
     inkscape:label="Reference"
     inkscape:groupmode="layer"
     id="layer1"
     style="display:none">
    <path
       id="rect883-0"
       style="display:inline;fill:#ff0000;fill-opacity:1;stroke:#0000ff;stroke-width:7.9375;stroke-linecap:round;stroke-linejoin:round;stroke-miterlimit:4;stroke-dasharray:none"
       d="m 147.83658,117.84087 c -16.71794,0 -25.43842,12.20751 -25.91521,36.92126 l -2.17558,112.76314 c -0.16207,8.40044 5.07553,14.62238 13.40642,14.62238 h 29.25867 29.25868 c 8.33089,0 13.56849,-6.22194 13.40642,-14.62238 L 202.9004,154.76213 c -0.47679,-24.71375 -9.19727,-36.92126 -25.91521,-36.92126 h -14.57431 z" />
  </g>
  <g
     inkscape:groupmode="layer"
     id="layer2"
     inkscape:label="Body"
     style="display:inline">
    <path
       style="fill:url(#radialGradient31299);stroke:#000000;stroke-width:0;stroke-linecap:butt;stroke-linejoin:round;stroke-miterlimit:4;stroke-dasharray:none;stroke-opacity:1;fill-opacity:1"
       d="m 205.09611,173.88106 c -2.13131,4.60838 -5.416,7.77503 -9.89209,9.45244 -47.95071,-2.03476 -90.47305,-24.04816 -49.02083,-65.50765 h -12.74981 c -15.36416,7.41111 -17.75231,20.53166 -18.68507,34.29259 2.98258,38.12056 1.92145,83.5421 -2.63789,131.45495 32.77185,3.55885 64.38631,2.87396 95.40376,0 z"
       id="path1333"
       sodipodi:nodetypes="cccccccc" />
    <path
       style="fill:none;stroke:#000000;stroke-width:1.32291668;stroke-linecap:butt;stroke-linejoin:miter;stroke-opacity:1;stroke-miterlimit:4;stroke-dasharray:none"
       d="m 195.20402,183.3335 v 99.80025"
       id="path2779" />
    <path
       id="rect5007"
       style="display:inline;fill:#808080;fill-opacity:0.496753;stroke:#000000;stroke-width:1.32292;stroke-linejoin:round"
       d="m 156.60422,190.51377 -2.19825,73.14639 c -0.65947,6.17182 3.55893,10.61477 7.96613,10.3842 l 19.14735,-1.00171 c 4.4072,-0.23057 7.96613,-3.5529 7.96613,-7.96613 v -75.47634 c -20.02341,1.3954 -14.63594,0.91359 -32.88136,0.91359 z"
       sodipodi:nodetypes="ccssscc" />
    <path
       id="path1333-4"
       style="display:inline;fill:#7e7e7e;fill-opacity:0.498039;stroke:#000000;stroke-width:1.32292;stroke-linecap:butt;stroke-linejoin:round;stroke-miterlimit:4;stroke-dasharray:none;stroke-opacity:1"
       d="m 119.95799,181.5046 c 0.68765,27.7503 -0.38642,58.24962 -3.04426,90.04566 l 11.45178,2.12339 c 4.38117,0.53101 7.84205,-3.55494 7.96592,-7.96645 l 2.33159,-83.03833 c -12.90359,0 -11.45015,-0.4255 -18.70503,-1.16427 z"
       sodipodi:nodetypes="cccscc" />
    <path
       id="path1333-8"
       style="display:inline;fill:#7e7e7e;stroke:#000000;stroke-width:1.32292;stroke-linecap:butt;stroke-linejoin:round;stroke-miterlimit:4;stroke-dasharray:none;stroke-opacity:1;fill-opacity:0.49803922"
       d="m 200.50138,189.60018 v 75.47602 c 0,4.00857 2.93625,7.11673 6.77736,7.82587 l -1.82882,-82.96238 c -1.50246,-0.10178 -3.01735,-0.20493 -4.94854,-0.33951 z" />
    <path
       style="display:inline;fill:none;stroke:#000000;stroke-width:7.9375;stroke-linecap:butt;stroke-linejoin:round;stroke-miterlimit:4;stroke-dasharray:none;stroke-opacity:1"
       d="m 205.71787,180.09861 c -2.13131,4.60838 -6.03776,1.55746 -10.51385,3.23487 -47.95071,-2.03476 -90.47305,-24.04816 -49.02083,-65.50765 h -12.74981 c -15.36416,7.41111 -17.75231,20.53166 -18.68507,34.29259 2.98258,38.12056 1.92145,83.5421 -2.63789,131.45495 32.77185,3.55885 64.38631,2.87396 95.40376,0 z"
       id="path1333-3"
       sodipodi:nodetypes="cccccccc" />
    <path
       style="display:inline;fill:#f9f9f9;stroke:#000000;stroke-width:2.64583336;stroke-linecap:butt;stroke-linejoin:round;stroke-miterlimit:4;stroke-dasharray:none;stroke-opacity:1"
       d="m 195.42385,189.26875 c -38.48923,16.82247 -84.48302,8.79573 -88.14957,-39.12872 1.11787,-37.05606 23.75835,-36.35701 51.69601,-36.3406 -7.77424,27.04511 7.22796,38.34108 7.22796,38.34108 21.75267,11.96491 19.59881,22.70482 29.00578,22.40647 5.16616,0.10632 10.10935,-9.41356 11.83508,-9.41356 l 0.55508,26.11373 z"
       id="path2833-1"
       sodipodi:nodetypes="cccscccc" />
    <path
       style="fill:none;stroke:#000000;stroke-width:7.9375;stroke-linecap:butt;stroke-linejoin:round;stroke-miterlimit:4;stroke-dasharray:none;stroke-opacity:1"
       d="m 207.0391,168.10105 0.55508,23.14611 -12.17034,-1.9784 c -38.48922,16.82247 -84.48301,8.79573 -88.14956,-39.12873 0.64235,-33.78598 24.14755,-36.3406 49.96489,-36.3406"
       id="path2833"
       sodipodi:nodetypes="ccccc" />
    <path
       style="fill:none;stroke:#000000;stroke-width:1.32292;stroke-linecap:butt;stroke-linejoin:miter;stroke-miterlimit:4;stroke-dasharray:none;stroke-opacity:1"
       d="m 195.42384,186.19122 -0.21982,-10.99124"
       id="path19867"
       sodipodi:nodetypes="cc" />
    <path
       style="fill:#000000;stroke:#000000;stroke-width:0;stroke-linecap:butt;stroke-linejoin:miter;stroke-miterlimit:4;stroke-dasharray:none;stroke-opacity:1"
       d="m 203.01527,167.27289 0.0812,1.09498 7.89988,-0.28367 -0.20494,-11.02703 c -2.01192,3.17319 -4.90571,6.69913 -7.77611,10.21572 z"
       id="path29803"
       sodipodi:nodetypes="ccccc" />
    <path
       style="fill:#000000;stroke:#000000;stroke-width:0;stroke-linecap:butt;stroke-linejoin:miter;stroke-miterlimit:4;stroke-dasharray:none;stroke-opacity:1"
       d="m 156.99532,117.74939 v -7.91744 h 6.40023 c -2.58107,2.13352 -3.46608,5.26362 -4.31704,7.91744 z"
       id="path29805"
       sodipodi:nodetypes="ccccc" />
  </g>
</svg>
