<?xml version="1.0" encoding="UTF-8" standalone="no"?>
<!-- Created with Inkscape (http://www.inkscape.org/) -->

<svg
   width="1280"
   height="1280"
   viewBox="0 0 338.66666 338.66668"
   version="1.1"
   id="svg5"
   shape-rendering="crispEdges"
   inkscape:version="1.1 (c68e22c387, 2021-05-23)"
   sodipodi:docname="GasMask_south.svg"
   inkscape:export-filename="C:\Users\Maxim\OneDrive\Desktop\Modding\RimWorld\Madness Pawns\Madness Pawns\Textures\Things\Pawn\Humanlike\Apparel\GasMask\GasMask_south.png"
   inkscape:export-xdpi="19.200001"
   inkscape:export-ydpi="19.200001"
   xmlns:inkscape="http://www.inkscape.org/namespaces/inkscape"
   xmlns:sodipodi="http://sodipodi.sourceforge.net/DTD/sodipodi-0.dtd"
   xmlns="http://www.w3.org/2000/svg"
   xmlns:svg="http://www.w3.org/2000/svg">
  <sodipodi:namedview
     id="namedview7"
     pagecolor="#ffffff"
     bordercolor="#111111"
     borderopacity="1"
     inkscape:pageshadow="0"
     inkscape:pageopacity="0"
     inkscape:pagecheckerboard="true"
     inkscape:document-units="px"
     showgrid="false"
     units="px"
     showguides="true"
     inkscape:zoom="0.5"
     inkscape:cx="461"
     inkscape:cy="791"
     inkscape:window-width="1920"
     inkscape:window-height="1017"
     inkscape:window-x="-8"
     inkscape:window-y="-8"
     inkscape:window-maximized="1"
     inkscape:current-layer="layer1"
     inkscape:guide-bbox="true"
     inkscape:snap-object-midpoints="false"
     inkscape:snap-global="true"
     inkscape:snap-bbox="true"
     inkscape:snap-bbox-midpoints="true"
     inkscape:object-paths="true"
     inkscape:snap-smooth-nodes="true"
     inkscape:snap-nodes="true"
     inkscape:snap-others="false">
    <inkscape:grid
       type="xygrid"
       id="grid23"
       visible="true"
       enabled="true"
       dotted="false" />
    <sodipodi:guide
       position="169.33333,165.56612"
       orientation="1,0"
       id="guide96" />
    <sodipodi:guide
       position="169.33333,165.56612"
       orientation="0,-1"
       id="guide98" />
    <sodipodi:guide
       position="146.30326,183.90092"
       orientation="1,0"
       id="guide3250" />
    <sodipodi:guide
       position="164.01555,238.23911"
       orientation="1,0"
       id="guide7919" />
    <sodipodi:guide
       position="122.36979,195.26251"
       orientation="1,0"
       id="guide22568" />
  </sodipodi:namedview>
  <defs
     id="defs2">
    <inkscape:path-effect
       effect="mirror_symmetry"
       start_point="169.33333,154.76586"
       end_point="169.33333,191.43524"
       center_point="169.33333,173.10055"
       id="path-effect1006"
       is_visible="true"
       lpeversion="1.1"
       mode="free"
       discard_orig_path="false"
       fuse_paths="false"
       oposite_fuse="false"
       split_items="false"
       split_open="false" />
    <inkscape:path-effect
       effect="mirror_symmetry"
       start_point="169.33333,154.76586"
       end_point="169.33333,191.43524"
       center_point="169.33333,173.10055"
       id="path-effect987"
       is_visible="true"
       lpeversion="1.1"
       mode="free"
       discard_orig_path="false"
       fuse_paths="false"
       oposite_fuse="false"
       split_items="false"
       split_open="false" />
    <inkscape:path-effect
       effect="mirror_symmetry"
       start_point="169.33333,152.78122"
       end_point="169.33333,193.41988"
       center_point="169.33333,173.10055"
       id="path-effect20556"
       is_visible="true"
       lpeversion="1.1"
       mode="free"
       discard_orig_path="false"
       fuse_paths="false"
       oposite_fuse="false"
       split_items="false"
       split_open="false" />
    <inkscape:path-effect
       effect="mirror_symmetry"
       start_point="169.33333,178.39673"
       end_point="169.33333,182.73181"
       center_point="169.33333,180.56427"
       id="path-effect19975"
       is_visible="true"
       lpeversion="1.1"
       mode="free"
       discard_orig_path="false"
       fuse_paths="false"
       oposite_fuse="false"
       split_items="false"
       split_open="false" />
    <inkscape:path-effect
       effect="mirror_symmetry"
       start_point="24.613281,1058.373"
       end_point="24.613281,1747.9689"
       center_point="24.613281,1403.171"
       id="path-effect16151"
       is_visible="true"
       lpeversion="1.1"
       mode="free"
       discard_orig_path="false"
       fuse_paths="false"
       oposite_fuse="false"
       split_items="false"
       split_open="false" />
    <inkscape:path-effect
       effect="mirror_symmetry"
       start_point="169.33333,230.12494"
       end_point="169.33333,244.42804"
       center_point="169.33333,237.27649"
       id="path-effect13580"
       is_visible="true"
       lpeversion="1.1"
       mode="free"
       discard_orig_path="false"
       fuse_paths="false"
       oposite_fuse="false"
       split_items="false"
       split_open="false" />
    <inkscape:path-effect
       effect="mirror_symmetry"
       start_point="169.33333,238.72515"
       end_point="169.33333,267.5368"
       center_point="169.33333,253.13098"
       id="path-effect13576"
       is_visible="true"
       lpeversion="1.1"
       mode="free"
       discard_orig_path="false"
       fuse_paths="false"
       oposite_fuse="false"
       split_items="false"
       split_open="false" />
    <inkscape:path-effect
       effect="mirror_symmetry"
       start_point="169.33333,154.76586"
       end_point="169.33333,191.43524"
       center_point="169.33333,173.10055"
       id="path-effect13572"
       is_visible="true"
       lpeversion="1.1"
       mode="free"
       discard_orig_path="false"
       fuse_paths="false"
       oposite_fuse="false"
       split_items="false"
       split_open="false" />
    <inkscape:path-effect
       effect="mirror_symmetry"
       start_point="169.33333,100.61465"
       end_point="169.33333,255.38875"
       center_point="169.33333,178.0017"
       id="path-effect13568"
       is_visible="true"
       lpeversion="1.1"
       mode="free"
       discard_orig_path="false"
       fuse_paths="false"
       oposite_fuse="false"
       split_items="false"
       split_open="false" />
    <inkscape:path-effect
       effect="mirror_symmetry"
       start_point="169.33333,-26.860482"
       end_point="169.33333,132.65278"
       center_point="169.33333,52.896151"
       id="path-effect13564"
       is_visible="true"
       lpeversion="1.1"
       mode="free"
       discard_orig_path="false"
       fuse_paths="false"
       oposite_fuse="false"
       split_items="false"
       split_open="false" />
    <inkscape:path-effect
       effect="mirror_symmetry"
       start_point="169.33333,154.76586"
       end_point="169.33333,191.43524"
       center_point="169.33333,173.10055"
       id="path-effect13560"
       is_visible="true"
       lpeversion="1.1"
       mode="free"
       discard_orig_path="false"
       fuse_paths="false"
       oposite_fuse="false"
       split_items="false"
       split_open="false" />
    <inkscape:path-effect
       center_point="640.00001,679.34083"
       end_point="640.00001,980.78322"
       start_point="640.00001,377.89845"
       effect="mirror_symmetry"
       id="path-effect13556"
       is_visible="true"
       lpeversion="1.1"
       mode="free"
       discard_orig_path="false"
       fuse_paths="false"
       oposite_fuse="false"
       split_items="false"
       split_open="false" />
    <inkscape:path-effect
       effect="mirror_symmetry"
       start_point="169.33333,230.12494"
       end_point="169.33333,244.42804"
       center_point="169.33333,237.27649"
       id="path-effect10707"
       is_visible="true"
       lpeversion="1.1"
       mode="free"
       discard_orig_path="false"
       fuse_paths="false"
       oposite_fuse="false"
       split_items="false"
       split_open="false" />
    <inkscape:path-effect
       effect="mirror_symmetry"
       start_point="169.33333,100.61465"
       end_point="169.33333,255.38875"
       center_point="169.33333,178.0017"
       id="path-effect8509"
       is_visible="true"
       lpeversion="1.1"
       mode="free"
       discard_orig_path="false"
       fuse_paths="false"
       oposite_fuse="false"
       split_items="false"
       split_open="false" />
    <inkscape:path-effect
       effect="mirror_symmetry"
       start_point="169.33333,238.72515"
       end_point="169.33333,267.5368"
       center_point="169.33333,253.13098"
       id="path-effect7179"
       is_visible="true"
       lpeversion="1.1"
       mode="free"
       discard_orig_path="false"
       fuse_paths="false"
       oposite_fuse="false"
       split_items="false"
       split_open="false" />
    <inkscape:path-effect
       effect="mirror_symmetry"
       start_point="169.33333,-26.860482"
       end_point="169.33333,132.65278"
       center_point="169.33333,52.896151"
       id="path-effect3788"
       is_visible="true"
       lpeversion="1.1"
       mode="free"
       discard_orig_path="false"
       fuse_paths="false"
       oposite_fuse="false"
       split_items="false"
       split_open="false" />
    <inkscape:path-effect
       effect="mirror_symmetry"
       start_point="169.33333,154.76586"
       end_point="169.33333,191.43524"
       center_point="169.33333,173.10055"
       id="path-effect3586"
       is_visible="true"
       lpeversion="1.1"
       mode="free"
       discard_orig_path="false"
       fuse_paths="false"
       oposite_fuse="false"
       split_items="false"
       split_open="false" />
    <inkscape:path-effect
       effect="mirror_symmetry"
       start_point="169.33333,154.76586"
       end_point="169.33333,191.43524"
       center_point="169.33333,173.10055"
       id="path-effect3324"
       is_visible="true"
       lpeversion="1.1"
       mode="free"
       discard_orig_path="false"
       fuse_paths="false"
       oposite_fuse="false"
       split_items="false"
       split_open="false" />
    <inkscape:path-effect
       center_point="640.00001,679.34083"
       end_point="640.00001,980.78322"
       start_point="640.00001,377.89845"
       effect="mirror_symmetry"
       id="path-effect3065"
       is_visible="true"
       lpeversion="1.1"
       mode="free"
       discard_orig_path="false"
       fuse_paths="false"
       oposite_fuse="false"
       split_items="false"
       split_open="false" />
    <inkscape:path-effect
       effect="mirror_symmetry"
       start_point="169.33333,-69.142403"
       end_point="169.33333,77.087191"
       center_point="169.33333,3.9723941"
       id="path-effect1220"
       is_visible="true"
       lpeversion="1.1"
       mode="free"
       discard_orig_path="false"
       fuse_paths="false"
       oposite_fuse="false"
       split_items="false"
       split_open="false" />
    <inkscape:path-effect
       effect="mirror_symmetry"
       start_point="169.33333,162.26983"
       end_point="169.33333,183.93127"
       center_point="169.33333,173.10055"
       id="path-effect2786"
       is_visible="true"
       lpeversion="1.1"
       mode="free"
       discard_orig_path="false"
       fuse_paths="false"
       oposite_fuse="false"
       split_items="false"
       split_open="false" />
    <inkscape:path-effect
       effect="mirror_symmetry"
       start_point="164.56532,168.80302"
       end_point="164.56532,177.53426"
       center_point="164.56532,173.16864"
       id="path-effect1193"
       is_visible="true"
       lpeversion="1.1"
       mode="free"
       discard_orig_path="false"
       fuse_paths="false"
       oposite_fuse="false"
       split_items="false"
       split_open="false" />
  </defs>
  <g
     inkscape:groupmode="layer"
     id="layer3"
     inkscape:label="HeadM"
     style="display:none;opacity:1"
     sodipodi:insensitive="true">
    <ellipse
       style="display:inline;mix-blend-mode:normal;fill:#ff0000;fill-opacity:1;stroke:#0000ff;stroke-width:11.2822;stroke-miterlimit:4;stroke-dasharray:none;stroke-opacity:1"
       id="path584"
       cx="169.33333"
       cy="173.09944"
       rx="56.642174"
       ry="73.114799"
       inkscape:export-filename="C:\Program Files (x86)\Steam\steamapps\common\RimWorld\Mods\Madness Pawns\Textures\Things\Pawn\Humanlike\Heads\Male\Male_Narrow_Normal_south.png"
       inkscape:export-xdpi="9.6000004"
       inkscape:export-ydpi="9.6000004" />
    <path
       style="display:inline;mix-blend-mode:normal;fill:none;stroke:#00ff00;stroke-width:4.56407;stroke-linecap:round;stroke-linejoin:miter;stroke-miterlimit:4;stroke-dasharray:none;stroke-opacity:1"
       d="m 169.33333,135.44891 c 0,75.30323 0,75.30323 0,75.30323"
       id="path1875" />
    <path
       style="display:inline;mix-blend-mode:normal;fill:none;stroke:#00ff00;stroke-width:4.56407;stroke-linecap:round;stroke-linejoin:miter;stroke-miterlimit:4;stroke-dasharray:none;stroke-opacity:1"
       d="m 140.93325,173.10053 c 27.79153,0 27.79153,0 56.80016,0"
       id="path2880"
       sodipodi:nodetypes="cc"
       inkscape:export-filename="C:\Users\Maxim\OneDrive\Desktop\Modding\RimWorld\Madness Pawns\Textures\Things\Pawn\Humanlike\Heads\Male\Male_Narrow_Normal_south.png"
       inkscape:export-xdpi="9.6000004"
       inkscape:export-ydpi="9.6000004" />
  </g>
  <g
     inkscape:groupmode="layer"
     id="layer4"
     inkscape:label="HeadF"
     style="display:none"
     sodipodi:insensitive="true">
    <ellipse
       style="display:inline;mix-blend-mode:normal;fill:#ff0000;fill-opacity:1;stroke:#0000ff;stroke-width:11.2822;stroke-miterlimit:4;stroke-dasharray:none;stroke-opacity:1"
       id="path584-9"
       cx="169.33333"
       cy="173.10056"
       rx="56.642292"
       ry="73.114799"
       inkscape:export-filename="C:\Program Files (x86)\Steam\steamapps\common\RimWorld\Mods\Madness Pawns\Textures\Things\Pawn\Humanlike\Heads\Male\Male_Narrow_Normal_south.png"
       inkscape:export-xdpi="9.6000004"
       inkscape:export-ydpi="9.6000004" />
    <path
       style="display:inline;mix-blend-mode:normal;fill:#00ff00;stroke:none;stroke-width:0.264583px;stroke-linecap:butt;stroke-linejoin:miter;stroke-opacity:1"
       d="m 136.82639,167.77323 -3.83646,-2.38124 c 0,0 6.14022,25.52562 34.13125,14.05775 -3.82152,-14.26212 -11.70044,-19.98448 -20.40668,-19.98448 -7.20585,0 -9.88811,6.62076 -9.88811,8.30797 z m 65.01388,0 3.83646,-2.38124 c 0,0 -6.14022,25.52562 -34.13125,14.05775 3.82152,-14.26212 11.70044,-19.98448 20.40668,-19.98448 7.20585,0 9.88811,6.62076 9.88811,8.30797 z"
       id="path2267"
       sodipodi:nodetypes="cccsc"
       inkscape:path-effect="#path-effect2786"
       inkscape:original-d="m 136.82639,167.77323 -3.83646,-2.38124 c 0,0 6.14022,25.52562 34.13125,14.05775 -3.82152,-14.26212 -11.70044,-19.98448 -20.40668,-19.98448 -7.20585,0 -9.88811,6.62076 -9.88811,8.30797 z"
       transform="matrix(1.15,0,0,1.15,-25.400059,-24.245072)" />
    <path
       style="display:inline;mix-blend-mode:normal;fill:#ff00ff;stroke:#808080;stroke-width:0;stroke-linecap:round;stroke-linejoin:round;stroke-miterlimit:4;stroke-dasharray:none"
       id="path1191"
       inkscape:path-effect="#path-effect1193"
       sodipodi:type="arc"
       sodipodi:cx="150.74635"
       sodipodi:cy="174.6219"
       sodipodi:rx="2.778125"
       sodipodi:ry="5.6885414"
       transform="matrix(1.15,0,0,1.15,-19.916851,-24.861259)"
       d="m 153.52448,174.6219 c 0,3.1417 -1.24381,5.68854 -2.77813,5.68854 -1.53431,0 -2.77812,-2.54684 -2.77812,-5.68854 0,-3.14169 1.24381,-5.68854 2.77812,-5.68854 1.53432,0 2.77813,2.54685 2.77813,5.68854 z m 22.08168,0 c 0,3.1417 1.24381,5.68854 2.77813,5.68854 1.53431,0 2.77812,-2.54684 2.77812,-5.68854 0,-3.14169 -1.24381,-5.68854 -2.77812,-5.68854 -1.53432,0 -2.77813,2.54685 -2.77813,5.68854 z" />
  </g>
  <g
     inkscape:groupmode="layer"
     id="layer1"
     inkscape:label="New"
     style="display:inline">
    <path
       id="path584-7"
       style="display:inline;fill:#333333;stroke:#000000;stroke-width:15;stroke-miterlimit:4;stroke-dasharray:none"
       d="m 640,377.89844 c -118.23349,-2e-5 -214.08008,123.7218 -214.08008,276.33984 0,136.46923 82.27371,252.35353 150.09714,324.46199 12.35148,13.13184 31.55538,11.98242 63.98294,11.98242 M 552.95719,584.94141 c 38.2717,-2.3e-4 69.2971,31.02517 69.29688,69.29687 2.3e-4,38.2717 -31.02518,69.29711 -69.29688,69.29688 -38.2717,2.2e-4 -69.2971,-31.02518 -69.29687,-69.29688 -2.2e-4,-38.2717 31.02517,-69.29709 69.29687,-69.29687 z m 87.04283,-207.04297 c 118.23349,-2e-5 214.08008,123.7218 214.08008,276.33984 0,136.46923 -82.27371,252.35353 -150.09714,324.46199 -12.35148,13.13184 -31.55538,11.98242 -63.98294,11.98242 m 87.04281,-405.74128 c -38.2717,-2.3e-4 -69.2971,31.02517 -69.29688,69.29687 -2.3e-4,38.2717 31.02518,69.29711 69.29688,69.29688 38.2717,2.2e-4 69.2971,-31.02518 69.29687,-69.29688 2.2e-4,-38.2717 -31.02517,-69.29709 -69.29687,-69.29687 z"
       transform="scale(0.26458334)"
       sodipodi:nodetypes="csscccccc"
       inkscape:path-effect="#path-effect3065"
       inkscape:original-d="m 640,377.89844 c -118.23349,-2e-5 -214.08008,123.7218 -214.08008,276.33984 0,136.46923 82.27371,252.35353 150.09714,324.46199 12.35148,13.13184 31.55538,11.98242 63.98294,11.98242 M 552.95719,584.94141 c 38.2717,-2.3e-4 69.2971,31.02517 69.29688,69.29687 2.3e-4,38.2717 -31.02518,69.29711 -69.29688,69.29688 -38.2717,2.2e-4 -69.2971,-31.02518 -69.29687,-69.29688 -2.2e-4,-38.2717 31.02517,-69.29709 69.29687,-69.29687 z" />
    <path
       id="path2697"
       style="display:inline;opacity:0.7;stroke:#000000;stroke-width:0;stroke-linecap:round;stroke-linejoin:round"
       d="m 164.63795,173.10055 c 0,10.12597 -8.20872,18.33469 -18.33469,18.33469 -10.12597,0 -18.33469,-8.20872 -18.33469,-18.33469 0,-10.12597 8.20872,-18.33469 18.33469,-18.33469 10.12597,0 18.33469,8.20872 18.33469,18.33469 z m 9.39076,0 c 0,10.12597 8.20872,18.33469 18.33469,18.33469 10.12597,0 18.33469,-8.20872 18.33469,-18.33469 0,-10.12597 -8.20872,-18.33469 -18.33469,-18.33469 -10.12597,0 -18.33469,8.20872 -18.33469,18.33469 z"
       inkscape:path-effect="#path-effect3324"
       inkscape:original-d="m 164.63795,173.10055 c 0,10.12597 -8.20872,18.33469 -18.33469,18.33469 -10.12597,0 -18.33469,-8.20872 -18.33469,-18.33469 0,-10.12597 8.20872,-18.33469 18.33469,-18.33469 10.12597,0 18.33469,8.20872 18.33469,18.33469 z"
       sodipodi:nodetypes="sssss" />
    <path
       id="path2697-0"
       style="display:inline;opacity:0.7;stroke:#000000;stroke-width:0;stroke-linecap:round;stroke-linejoin:round;fill:#ff0000"
       d="m 164.63795,173.10055 c 0,10.12597 -8.20872,18.33469 -18.33469,18.33469 -10.12597,0 -18.33469,-8.20872 -18.33469,-18.33469 0,-10.12597 8.20872,-18.33469 18.33469,-18.33469 10.12597,0 18.33469,8.20872 18.33469,18.33469 z m 9.39076,0 c 0,10.12597 8.20872,18.33469 18.33469,18.33469 10.12597,0 18.33469,-8.20872 18.33469,-18.33469 0,-10.12597 -8.20872,-18.33469 -18.33469,-18.33469 -10.12597,0 -18.33469,8.20872 -18.33469,18.33469 z"
       inkscape:path-effect="#path-effect987"
       inkscape:original-d="m 164.63795,173.10055 c 0,10.12597 -8.20872,18.33469 -18.33469,18.33469 -10.12597,0 -18.33469,-8.20872 -18.33469,-18.33469 0,-10.12597 8.20872,-18.33469 18.33469,-18.33469 10.12597,0 18.33469,8.20872 18.33469,18.33469 z"
       sodipodi:nodetypes="sssss"
       transform="translate(-79.374996,76.930703)" />
    <path
       id="path2697-9"
       style="display:inline;opacity:0.7;stroke:#000000;stroke-width:0;stroke-linecap:round;stroke-linejoin:round;fill:#0000ff"
       d="m 164.63795,173.10055 c 0,10.12597 -8.20872,18.33469 -18.33469,18.33469 -10.12597,0 -18.33469,-8.20872 -18.33469,-18.33469 0,-10.12597 8.20872,-18.33469 18.33469,-18.33469 10.12597,0 18.33469,8.20872 18.33469,18.33469 z m 9.39076,0 c 0,10.12597 8.20872,18.33469 18.33469,18.33469 10.12597,0 18.33469,-8.20872 18.33469,-18.33469 0,-10.12597 -8.20872,-18.33469 -18.33469,-18.33469 -10.12597,0 -18.33469,8.20872 -18.33469,18.33469 z"
       inkscape:path-effect="#path-effect1006"
       inkscape:original-d="m 164.63795,173.10055 c 0,10.12597 -8.20872,18.33469 -18.33469,18.33469 -10.12597,0 -18.33469,-8.20872 -18.33469,-18.33469 0,-10.12597 8.20872,-18.33469 18.33469,-18.33469 10.12597,0 18.33469,8.20872 18.33469,18.33469 z"
       sodipodi:nodetypes="sssss"
       transform="translate(70.333719,77.145759)" />
    <path
       style="fill:#666666;stroke:#1a1a1a;stroke-width:2.64583;stroke-linecap:butt;stroke-linejoin:round;stroke-miterlimit:4;stroke-dasharray:none;stroke-opacity:1"
       d="m 169.33335,99.985634 c -6.64428,0 -15.27609,2.708206 -15.27609,2.708206 -7.754,7.01772 -15.93776,40.6801 -15.93776,53.9953 12.4414,-5.51912 26.61194,2.4614 26.51845,16.41141 -0.0935,13.95001 -15.15418,21.93069 -26.51845,16.41158 2.05798,30.30836 20.40553,72.45822 31.21385,72.60601 m -4e-5,-162.132506 c 6.64428,0 15.27609,2.708206 15.27609,2.708206 7.754,7.01772 15.93776,40.6801 15.93776,53.9953 -12.4414,-5.51912 -26.61194,2.4614 -26.51845,16.41141 0.0935,13.95001 15.15418,21.93069 26.51845,16.41158 -2.05798,30.30836 -20.40553,72.45822 -31.21385,72.60601"
       id="path3640"
       inkscape:path-effect="#path-effect3788"
       inkscape:original-d="m 169.33335,99.985634 c -6.64428,0 -15.27609,2.708206 -15.27609,2.708206 -7.754,7.01772 -15.93776,40.6801 -15.93776,53.9953 12.4414,-5.51912 26.61194,2.4614 26.51845,16.41141 -0.0935,13.95001 -15.15418,21.93069 -26.51845,16.41158 2.05798,30.30836 20.40553,72.45822 31.21385,72.60601"
       sodipodi:nodetypes="ccczcc" />
    <path
       style="fill:none;stroke:#333333;stroke-width:2.64583;stroke-linecap:butt;stroke-linejoin:miter;stroke-miterlimit:4;stroke-dasharray:none;stroke-opacity:1"
       d="m 164.01555,100.42757 c 0,0 -7.77747,32.09022 -7.77747,57.26043 3.9026,0.46302 8.40031,8.67239 8.40031,15.30267 0,6.63028 -5.46795,16.04428 -9.10704,15.95659 0,13.89126 8.53491,70.74453 8.53491,70.74453 m 10.58485,-159.26422 c 0,0 7.77747,32.09022 7.77747,57.26043 -3.9026,0.46302 -8.40031,8.67239 -8.40031,15.30267 0,6.63028 5.46795,16.04428 9.10704,15.95659 0,13.89126 -8.53491,70.74453 -8.53491,70.74453"
       id="path7917"
       sodipodi:nodetypes="cczcc"
       inkscape:path-effect="#path-effect8509"
       inkscape:original-d="m 164.01555,100.42757 c 0,0 -7.77747,32.09022 -7.77747,57.26043 3.9026,0.46302 8.40031,8.67239 8.40031,15.30267 0,6.63028 -5.46795,16.04428 -9.10704,15.95659 0,13.89126 8.53491,70.74453 8.53491,70.74453" />
    <path
       style="fill:none;stroke:#1a1a1a;stroke-width:3.96875004;stroke-linecap:butt;stroke-linejoin:miter;stroke-miterlimit:4;stroke-dasharray:none;stroke-opacity:1"
       d="m 128.9883,179.14508 c -7.25158,3.86286 -17.323,4.94479 -17.323,4.94479 m 98.01306,-4.94479 c 7.25158,3.86286 17.323,4.94479 17.323,4.94479"
       id="path19856"
       inkscape:path-effect="#path-effect19975"
       inkscape:original-d="m 128.9883,179.14508 c -7.25158,3.86286 -17.323,4.94479 -17.323,4.94479"
       sodipodi:nodetypes="cc" />
    <path
       style="color:#000000;fill:#999999;stroke:#222222;stroke-width:1.32291668;stroke-linecap:round;stroke-linejoin:round;stroke-miterlimit:4;stroke-dasharray:none;stroke-opacity:1"
       d="m 146.30273,152.78125 c -11.19839,0 -20.31835,9.11996 -20.31835,20.31836 0,11.19839 9.11996,20.32031 20.31835,20.32031 11.1984,0 20.32032,-9.12192 20.32032,-20.32031 0,-11.1984 -9.12192,-20.31836 -20.32032,-20.31836 z m 0,5.3042 c 8.39207,0 15.08178,6.82053 15.01563,15.01416 -0.0662,8.19363 -6.49127,15.0822 -15.01563,15.01605 -8.52436,-0.0661 -15.01458,-6.82242 -15.01458,-15.01605 0,-8.19363 6.62251,-15.01416 15.01458,-15.01416 z m 46.0612,-5.3042 c 11.19839,0 20.31835,9.11996 20.31835,20.31836 0,11.19839 -9.11996,20.32031 -20.31835,20.32031 -11.1984,0 -20.32032,-9.12192 -20.32032,-20.32031 0,-11.1984 9.12192,-20.31836 20.32032,-20.31836 z m 0,5.3042 c -8.39207,0 -15.08178,6.82053 -15.01563,15.01416 0.0662,8.19363 6.49127,15.0822 15.01563,15.01605 8.52436,-0.0661 15.01458,-6.82242 15.01458,-15.01605 0,-8.19363 -6.62251,-15.01416 -15.01458,-15.01416 z"
       id="path2697-3"
       inkscape:path-effect="#path-effect20556"
       inkscape:original-d="m 146.30273,152.78125 c -11.19839,0 -20.31835,9.11996 -20.31835,20.31836 0,11.19839 9.11996,20.32031 20.31835,20.32031 11.1984,0 20.32032,-9.12192 20.32032,-20.32031 0,-11.1984 -9.12192,-20.31836 -20.32032,-20.31836 z m 0,5.3042 c 8.39207,0 15.08178,6.82053 15.01563,15.01416 -0.0662,8.19363 -6.49127,15.0822 -15.01563,15.01605 -8.52436,-0.0661 -15.01458,-6.82242 -15.01458,-15.01605 0,-8.19363 6.62251,-15.01416 15.01458,-15.01416 z"
       sodipodi:nodetypes="ssssszzzzz" />
    <path
       style="fill:#333333;stroke:#000000;stroke-width:3.96875;stroke-linecap:butt;stroke-linejoin:round;stroke-miterlimit:4;stroke-dasharray:none;stroke-opacity:1"
       d="m 169.33333,243.21528 c -23.2604,0 -28.5973,8.46471 -28.5973,8.46471 v 18.93209 c 1.90657,-6.2379 19.08408,-8.77873 28.5973,-8.77873 m 0,-18.61807 c 23.2604,0 28.5973,8.46471 28.5973,8.46471 v 18.93209 c -1.90657,-6.2379 -19.08408,-8.77873 -28.5973,-8.77873"
       id="path7045"
       inkscape:path-effect="#path-effect7179"
       inkscape:original-d="m 169.33333,243.21528 c -23.2604,0 -28.5973,8.46471 -28.5973,8.46471 v 18.93209 c 1.90657,-6.2379 19.08408,-8.77873 28.5973,-8.77873"
       sodipodi:nodetypes="cccc"
       transform="translate(0,2.998961)" />
    <path
       style="fill:#222222;fill-opacity:1;stroke:#000000;stroke-width:3.96875;stroke-linecap:butt;stroke-linejoin:round;stroke-miterlimit:4;stroke-dasharray:none;stroke-opacity:1"
       d="m 169.33333,264.83231 c -14.97734,0.0823 -28.62388,4.36184 -28.5973,8.80465 0.0266,4.44281 13.59433,8.80465 28.5973,8.80465 m 0,-17.6093 c 14.97734,0.0823 28.62388,4.36184 28.5973,8.80465 -0.0266,4.44281 -13.59433,8.80465 -28.5973,8.80465"
       id="path9884"
       sodipodi:nodetypes="czc"
       inkscape:path-effect="#path-effect10707"
       inkscape:original-d="m 169.33333,264.83231 c -14.97734,0.0823 -28.62388,4.36184 -28.5973,8.80465 0.0266,4.44281 13.59433,8.80465 28.5973,8.80465" />
    <ellipse
       style="opacity:1;fill:#1a1a1a;fill-opacity:1;stroke:#000000;stroke-width:0;stroke-linecap:round;stroke-linejoin:round;stroke-miterlimit:4;stroke-dasharray:none"
       id="path13002"
       cx="169.33333"
       cy="273.63696"
       rx="8.7657232"
       ry="2.2490144" />
    <path
       id="path584-7-4"
       style="display:inline;fill:none;stroke:#000000;stroke-width:40;stroke-linejoin:round;stroke-miterlimit:4;stroke-dasharray:none"
       d="m 24.613279,496.08344 c -125.739699,0 -226.807999,138.71063 -226.807999,291.32867 0,118.8506 60.21003,220.44589 117.319001,291.57839 l -11.141582,10.9699 0.01234,77.634 c 0,28.4244 61.740993,45.6989 120.618264,45.6989 m -2e-5,-717.20986 c 125.739697,0 226.807997,138.71063 226.807997,291.32867 0,118.8506 -60.21003,220.44589 -117.319,291.57839 l 11.14158,10.9699 -0.0123,77.634 c 0,28.4244 -61.74099,45.6989 -120.618261,45.6989"
       transform="matrix(0.26458334,0,0,0.26458334,162.82106,-35.236601)"
       sodipodi:nodetypes="cscccc"
       inkscape:path-effect="#path-effect16151"
       inkscape:original-d="m 24.613279,496.08344 c -125.739699,0 -226.807999,138.71063 -226.807999,291.32867 0,118.8506 60.21003,220.44589 117.319001,291.57839 l -11.141582,10.9699 0.01234,77.634 c 0,28.4244 61.740993,45.6989 120.618264,45.6989" />
  </g>
</svg>
