<?xml version="1.0" encoding="UTF-8" standalone="no"?>
<!-- Created with Inkscape (http://www.inkscape.org/) -->

<svg
   width="1280"
   height="1280"
   viewBox="0 0 338.66666 338.66668"
   version="1.1"
   id="svg5"
   shape-rendering="crispEdges"
   inkscape:version="1.1 (c68e22c387, 2021-05-23)"
   sodipodi:docname="Gunlink_west.svg"
   inkscape:export-filename="D:\Modding\RimWorld\Madness Pawns\Madness Pawns\Textures\Things\Pawn\Humanlike\Apparel\Gunlink\Gunlink_west.png"
   inkscape:export-xdpi="19.200001"
   inkscape:export-ydpi="19.200001"
   xmlns:inkscape="http://www.inkscape.org/namespaces/inkscape"
   xmlns:sodipodi="http://sodipodi.sourceforge.net/DTD/sodipodi-0.dtd"
   xmlns="http://www.w3.org/2000/svg"
   xmlns:svg="http://www.w3.org/2000/svg">
  <sodipodi:namedview
     id="namedview7"
     pagecolor="#ffffff"
     bordercolor="#111111"
     borderopacity="1"
     inkscape:pageshadow="0"
     inkscape:pageopacity="0"
     inkscape:pagecheckerboard="true"
     inkscape:document-units="px"
     showgrid="false"
     units="px"
     showguides="true"
     inkscape:zoom="1"
     inkscape:cx="738.5"
     inkscape:cy="666.5"
     inkscape:window-width="1920"
     inkscape:window-height="1017"
     inkscape:window-x="-8"
     inkscape:window-y="-8"
     inkscape:window-maximized="1"
     inkscape:current-layer="layer2"
     inkscape:guide-bbox="true"
     inkscape:snap-object-midpoints="true"
     inkscape:snap-bbox="true"
     inkscape:snap-global="true">
    <inkscape:grid
       type="xygrid"
       id="grid23"
       visible="true"
       enabled="true"
       dotted="false" />
    <sodipodi:guide
       position="169.33333,169.35973"
       orientation="1,0"
       id="guide96" />
    <sodipodi:guide
       position="169.33333,169.35973"
       orientation="0,-1"
       id="guide116813" />
  </sodipodi:namedview>
  <defs
     id="defs2">
    <inkscape:path-effect
       effect="mirror_symmetry"
       start_point="275.56373,173.8344"
       end_point="251.58587,173.8344"
       center_point="263.5748,173.8344"
       id="path-effect2824"
       is_visible="true"
       lpeversion="1.1"
       mode="free"
       discard_orig_path="false"
       fuse_paths="false"
       oposite_fuse="false"
       split_items="false"
       split_open="false" />
  </defs>
  <g
     inkscape:groupmode="layer"
     id="layer2"
     inkscape:label="HeadM"
     style="display:none"
     sodipodi:insensitive="true">
    <ellipse
       style="display:inline;mix-blend-mode:luminosity;fill:#ff0000;fill-opacity:1;stroke:#0000ff;stroke-width:11.2928;stroke-miterlimit:4;stroke-dasharray:none;stroke-opacity:1"
       id="path584"
       cx="169.33333"
       cy="169.30695"
       rx="56.751221"
       ry="73.109589"
       inkscape:export-filename="C:\Users\Maxim\OneDrive\Desktop\Back.png"
       inkscape:export-xdpi="9.6000004"
       inkscape:export-ydpi="9.6000004" />
    <path
       style="display:inline;mix-blend-mode:normal;fill:none;stroke:#00ff00;stroke-width:4.56838;stroke-linecap:round;stroke-linejoin:miter;stroke-miterlimit:4;stroke-dasharray:none;stroke-opacity:1"
       d="m 199.84552,132.08266 c 9.24723,24.64811 9.04383,49.75743 0,75.29775"
       id="path1875"
       sodipodi:nodetypes="cc"
       inkscape:export-filename="C:\Users\Maxim\OneDrive\Desktop\Back.png"
       inkscape:export-xdpi="9.6000004"
       inkscape:export-ydpi="9.6000004" />
    <path
       style="display:inline;mix-blend-mode:normal;fill:none;stroke:#00ff00;stroke-width:4.16554;stroke-linecap:round;stroke-linejoin:miter;stroke-miterlimit:4;stroke-dasharray:none;stroke-opacity:1"
       d="m 179.61773,169.27627 c 15.75682,0 31.06152,0 47.31523,0"
       id="path2880"
       sodipodi:nodetypes="cc"
       inkscape:export-filename="C:\Users\Maxim\OneDrive\Desktop\Back.png"
       inkscape:export-xdpi="9.6000004"
       inkscape:export-ydpi="9.6000004" />
  </g>
  <g
     inkscape:groupmode="layer"
     id="layer1"
     inkscape:label="HeadF"
     style="display:none"
     sodipodi:insensitive="true">
    <ellipse
       style="display:inline;mix-blend-mode:luminosity;fill:#ff0000;fill-opacity:1;stroke:#0000ff;stroke-width:11.2822;stroke-miterlimit:4;stroke-dasharray:none;stroke-opacity:1"
       id="path584-9"
       cx="169.33333"
       cy="169.30695"
       rx="56.642292"
       ry="73.114799"
       inkscape:export-filename="C:\Users\Maxim\OneDrive\Desktop\Back.png"
       inkscape:export-xdpi="9.6000004"
       inkscape:export-ydpi="9.6000004" />
    <path
       id="path2267"
       style="display:inline;fill:#00ff00;stroke:none;stroke-width:0.30427px;stroke-linecap:butt;stroke-linejoin:miter;stroke-opacity:1"
       d="m 179.69628,156.08183 c -8.28673,0 -11.37152,7.61393 -11.37152,9.55423 l -4.41193,-2.73843 c 0,0 7.06125,29.35481 39.25095,16.16676 -4.39475,-16.40145 -13.45531,-22.98256 -23.4675,-22.98256 z"
       sodipodi:nodetypes="scccs" />
    <ellipse
       style="display:inline;fill:#ff00ff;stroke:#808080;stroke-width:0;stroke-linecap:round;stroke-linejoin:round;stroke-miterlimit:4;stroke-dasharray:none"
       id="path1191"
       cx="194.79512"
       cy="173.42856"
       rx="3.1948452"
       ry="6.5418253" />
    <path
       d="m 226.17775,156.08183 c -7.11081,0 -13.54577,6.58111 -16.66697,22.98256 22.86162,13.18805 27.87662,-16.16678 27.87662,-16.16678 l -3.13341,2.73845 c 0,-1.9403 -2.19087,-9.55423 -8.07624,-9.55423 z"
       style="display:inline;fill:#00ff00;stroke:none;stroke-width:0.256421px;stroke-linecap:butt;stroke-linejoin:miter;stroke-opacity:1"
       id="path2436" />
    <ellipse
       style="display:inline;fill:#ff00ff;stroke:#808080;stroke-width:0;stroke-linecap:round;stroke-linejoin:round;stroke-miterlimit:4;stroke-dasharray:none"
       id="path1191-9"
       cx="219.59142"
       cy="173.42856"
       rx="3.1948452"
       ry="6.5418253" />
  </g>
  <g
     inkscape:groupmode="layer"
     id="layer3"
     inkscape:label="Goggles"
     style="display:inline"
     sodipodi:insensitive="true">
    <path
       id="rect5609"
       style="display:inline;fill:#333333;stroke:#000000;stroke-width:1.69643;stroke-linecap:round;stroke-linejoin:round;stroke-miterlimit:4;stroke-dasharray:none;stroke-opacity:1"
       d="m 272.78561,173.8344 2.84427,-4.58655 v -7.37981 h -33.56746 v 11.96636 m 4.75992,0 v -7.39505 h 24.04711 v 2.8085 l -2.84427,4.58655 m 4.76043,0 2.84427,4.58655 v 7.37981 H 242.06242 V 173.8344 m 4.75992,0 v 7.39505 h 24.04711 v -2.8085 l -2.84427,-4.58655"
       sodipodi:nodetypes="cccccccccc"
       inkscape:path-effect="#path-effect2824"
       inkscape:original-d="m 272.78561,173.8344 2.84427,-4.58655 v -7.37981 h -33.56746 v 11.96636 m 4.75992,0 v -7.39505 h 24.04711 v 2.8085 l -2.84427,4.58655"
       transform="matrix(-0.9993463,0,0,1.1085044,433.57988,-23.389278)"
       inkscape:export-filename="D:\Modding\RimWorld\Madness Pawns\Madness Pawns\Textures\Things\Pawn\Humanlike\Apparel\Gunlink\Gunlink_south.png"
       inkscape:export-xdpi="19.200001"
       inkscape:export-ydpi="19.200001" />
    <path
       id="rect2432"
       style="display:inline;fill:#666666;stroke:#000000;stroke-width:1.77445;stroke-linecap:round;stroke-linejoin:round"
       d="M 229.12554,163.09759 H 106.31466 c 0,0 -1.4025,0.46758 -1.4025,6.20934 0,5.74177 1.4025,6.20935 1.4025,6.20935 h 122.81088 c 0,0 1.80849,-0.69812 1.80849,-6.20935 0,-5.51122 -1.80849,-6.20934 -1.80849,-6.20934 z"
       sodipodi:nodetypes="cczcczc"
       inkscape:export-filename="C:\Program Files (x86)\Steam\steamapps\common\RimWorld\Mods\Madness Pawns\Textures\Things\Pawn\Humanlike\Apparel\Gunlink\rect2432.png"
       inkscape:export-xdpi="19.200001"
       inkscape:export-ydpi="19.200001" />
    <rect
       style="display:inline;fill:#999999;stroke:#000000;stroke-width:1.94933;stroke-linecap:round;stroke-linejoin:round;stroke-miterlimit:4;stroke-dasharray:none"
       id="rect5870"
       width="38.603924"
       height="14.811243"
       x="-200.33513"
       y="161.90132"
       rx="0"
       ry="0"
       inkscape:export-filename="D:\Modding\RimWorld\Madness Pawns\Madness Pawns\Textures\Things\Pawn\Humanlike\Apparel\Gunlink\Gunlink_south.png"
       inkscape:export-xdpi="19.200001"
       inkscape:export-ydpi="19.200001"
       transform="scale(-1,1)" />
    <path
       id="rect1020"
       style="display:inline;fill:#666666;stroke:#000000;stroke-width:1.79923;stroke-linecap:round;stroke-linejoin:round;stroke-miterlimit:4;stroke-dasharray:none"
       d="m 224.21993,154.48291 h -26.27547 c 0,0 -6.74528,2.3957 -6.74528,5.25852 0,4.90867 4.14472,5.14883 4.14472,9.56552 0,4.41668 -4.14472,4.12345 -4.14472,9.94238 0,2.3195 6.74528,4.88166 6.74528,4.88166 h 26.27547 c 0,0 3.33198,-3.41771 3.33198,-14.82404 0,-11.40634 -3.33198,-14.82404 -3.33198,-14.82404 z"
       sodipodi:nodetypes="ccszscczc"
       inkscape:export-filename="C:\Program Files (x86)\Steam\steamapps\common\RimWorld\Mods\Madness Pawns\Textures\Things\Pawn\Humanlike\Apparel\Gunlink\rect2432.png"
       inkscape:export-xdpi="19.200001"
       inkscape:export-ydpi="19.200001" />
    <path
       id="rect6155"
       style="display:inline;fill:#4d4d4d;stroke:#000000;stroke-width:1.79923;stroke-linecap:round;stroke-linejoin:round"
       d="m 225.93015,150.82057 h -17.09347 c -1.14079,0 -2.05919,3.31113 -2.05919,4.48779 v 28.04744 c 0,1.17667 0.9184,4.4375 2.05919,4.4375 h 17.09347 c 0,-4.95307 0.0574,-3.39474 -2.25276,-3.36223 v -30.23025 c 2.43547,-0.67311 2.25276,2.38516 2.25276,-3.38025 z"
       sodipodi:nodetypes="csssscccc"
       inkscape:export-filename="C:\Program Files (x86)\Steam\steamapps\common\RimWorld\Mods\Madness Pawns\Textures\Things\Pawn\Humanlike\Apparel\Gunlink\rect2432.png"
       inkscape:export-xdpi="19.200001"
       inkscape:export-ydpi="19.200001" />
    <path
       style="display:inline;fill:#333333;stroke:#000000;stroke-width:1.5875;stroke-linecap:round;stroke-linejoin:round;stroke-miterlimit:4;stroke-dasharray:none;stroke-opacity:1"
       id="path5636"
       sodipodi:type="arc"
       sodipodi:cx="-201.50534"
       sodipodi:cy="169.30695"
       sodipodi:rx="2.3631587"
       sodipodi:ry="2.4375088"
       sodipodi:start="0"
       sodipodi:end="6.2672755"
       sodipodi:arc-type="arc"
       sodipodi:open="true"
       d="m -199.14218,169.30695 a 2.3631587,2.4375088 0 0 1 -2.35376,2.43749 2.3631587,2.4375088 0 0 1 -2.37248,-2.4181 2.3631587,2.4375088 0 0 1 2.33488,-2.45673 2.3631587,2.4375088 0 0 1 2.39106,2.39856"
       transform="scale(-1,1)"
       inkscape:export-filename="C:\Program Files (x86)\Steam\steamapps\common\RimWorld\Mods\Madness Pawns\Textures\Things\Pawn\Humanlike\Apparel\Gunlink\rect2432.png"
       inkscape:export-xdpi="19.200001"
       inkscape:export-ydpi="19.200001" />
    <rect
       style="display:inline;fill:#333333;stroke:#000000;stroke-width:1.79923;stroke-linecap:round;stroke-linejoin:round;stroke-miterlimit:4;stroke-dasharray:none;stroke-opacity:1"
       id="rect7506"
       width="8.6052284"
       height="16.142473"
       x="-146.32877"
       y="161.2357"
       ry="0"
       transform="scale(-1,1)"
       inkscape:export-filename="C:\Program Files (x86)\Steam\steamapps\common\RimWorld\Mods\Madness Pawns\Textures\Things\Pawn\Humanlike\Apparel\Gunlink\rect2432.png"
       inkscape:export-xdpi="19.200001"
       inkscape:export-ydpi="19.200001" />
    <path
       id="rect5470"
       style="fill:#333333;stroke:#000000;stroke-width:2.04122;stroke-linecap:round;stroke-linejoin:round;stroke-miterlimit:4;stroke-dasharray:none"
       d="m 220.04951,150.07027 c 0,0 -13.67802,0.74924 -13.67802,19.23671 0,18.48747 13.67802,19.23671 13.67802,19.23671 h 22.71 v -38.47342 z"
       sodipodi:nodetypes="cscccc"
       inkscape:export-filename="C:\Program Files (x86)\Steam\steamapps\common\RimWorld\Mods\Madness Pawns\Textures\Things\Pawn\Humanlike\Apparel\Gunlink\rect2432.png"
       inkscape:export-xdpi="19.200001"
       inkscape:export-ydpi="19.200001" />
    <g
       id="g5322"
       transform="matrix(0.94318111,0,0,1.1510608,40.905562,-43.351646)"
       inkscape:export-filename="C:\Program Files (x86)\Steam\steamapps\common\RimWorld\Mods\Madness Pawns\Textures\Things\Pawn\Humanlike\Apparel\Gunlink\rect2432.png"
       inkscape:export-xdpi="19.200001"
       inkscape:export-ydpi="19.200001">
      <path
         style="display:inline;fill:#333333;stroke:#000000;stroke-width:1.72679;stroke-linecap:round;stroke-linejoin:round;stroke-miterlimit:4;stroke-dasharray:none;stroke-opacity:1"
         id="path6830"
         sodipodi:type="arc"
         sodipodi:cx="213.65527"
         sodipodi:cy="184.75008"
         sodipodi:rx="16.652374"
         sodipodi:ry="16.652374"
         sodipodi:start="0"
         sodipodi:end="6.2672679"
         sodipodi:open="true"
         sodipodi:arc-type="arc"
         d="m 230.30765,184.75008 a 16.652374,16.652374 0 0 1 -16.58611,16.65224 16.652374,16.652374 0 0 1 -16.71811,-16.51971 16.652374,16.652374 0 0 1 16.45305,-16.78372 16.652374,16.652374 0 0 1 16.84906,16.38613" />
      <path
         style="display:inline;fill:#ffcc00;stroke:#000000;stroke-width:1.72679;stroke-linecap:round;stroke-linejoin:round;stroke-miterlimit:4;stroke-dasharray:none;stroke-opacity:1"
         id="path6830-0"
         sodipodi:type="arc"
         sodipodi:cx="213.65527"
         sodipodi:cy="184.75008"
         sodipodi:rx="13.046682"
         sodipodi:ry="13.046682"
         sodipodi:start="0"
         sodipodi:end="6.2672679"
         sodipodi:open="true"
         sodipodi:arc-type="arc"
         d="m 226.70196,184.75008 a 13.046682,13.046682 0 0 1 -12.99477,13.04658 13.046682,13.046682 0 0 1 -13.09819,-12.94275 13.046682,13.046682 0 0 1 12.89053,-13.14959 13.046682,13.046682 0 0 1 13.20077,12.8381" />
    </g>
    <path
       style="color:#000000;display:inline;fill:#333333;stroke-width:1.78551;stroke-linecap:round;stroke-linejoin:round;-inkscape-stroke:none"
       d="m 158.12974,178.97014 v -4.579 l 2.84241,-5.08421 -2.84241,-5.08421 v -5.39427 l 4.75732,0.44797 v 4.9463 l 2.84241,5.08421 -2.84241,5.08421 v 5.26754 z"
       id="path9093"
       sodipodi:nodetypes="ccccccccccc"
       inkscape:export-filename="D:\Modding\RimWorld\Madness Pawns\Madness Pawns\Textures\Things\Pawn\Humanlike\Apparel\Gunlink\Gunlink_south.png"
       inkscape:export-xdpi="19.200001"
       inkscape:export-ydpi="19.200001" />
    <path
       style="color:#000000;display:inline;fill:#000000;stroke-width:1.05251;stroke-linecap:round;stroke-linejoin:round;-inkscape-stroke:none"
       d="m 158.97814,156.98357 v 6.97137 l 2.71502,4.8562 c 0.16988,0.30368 0.16988,0.68792 0,0.99159 l -2.71502,4.8562 v 6.37824 l -0.84906,1.87926 c -0.46769,-4e-4 -0.84675,-0.42086 -0.8471,-0.93964 v -7.58416 c -1.6e-4,-0.17515 0.0438,-0.34687 0.12687,-0.49579 l 2.56668,-4.58991 -2.56668,-4.58773 c -0.083,-0.14893 -0.12703,-0.32065 -0.12687,-0.49579 v -8.18164 c 3.5e-4,-0.51878 0.37941,-0.93924 0.8471,-0.93963 z m 4.75665,5.06621 v 1.90516 l 2.71502,4.8562 c 0.16988,0.30368 0.16988,0.68792 0,0.99159 l -2.71502,4.8562 v 1.30986 l -0.8471,2.47674 c -0.46846,8e-4 -0.84871,-0.42 -0.84906,-0.93964 v -3.11326 c 4.3e-4,-0.17536 0.0451,-0.34709 0.12883,-0.49579 l 2.56472,-4.58991 -2.56472,-4.58773 c -0.0838,-0.14871 -0.1284,-0.32044 -0.12883,-0.49579 v -3.11327 c 3.6e-4,-0.51962 0.3806,-0.94042 0.84906,-0.93962 z"
       id="path9095"
       sodipodi:nodetypes="cccccccccccccccccccccccccccccccc"
       inkscape:export-filename="D:\Modding\RimWorld\Madness Pawns\Madness Pawns\Textures\Things\Pawn\Humanlike\Apparel\Gunlink\Gunlink_south.png"
       inkscape:export-xdpi="19.200001"
       inkscape:export-ydpi="19.200001" />
    <path
       style="display:inline;fill:#333333;stroke:#000000;stroke-width:1.5875;stroke-linecap:round;stroke-linejoin:round;stroke-miterlimit:4;stroke-dasharray:none;stroke-opacity:1"
       id="path5636-5"
       sodipodi:type="arc"
       sodipodi:cx="-171.7576"
       sodipodi:cy="169.30695"
       sodipodi:rx="2.4245722"
       sodipodi:ry="2.3397021"
       sodipodi:start="0"
       sodipodi:end="6.2672755"
       sodipodi:arc-type="arc"
       sodipodi:open="true"
       inkscape:export-filename="D:\Modding\RimWorld\Madness Pawns\Madness Pawns\Textures\Things\Pawn\Humanlike\Apparel\Gunlink\Gunlink_south.png"
       inkscape:export-xdpi="19.200001"
       inkscape:export-ydpi="19.200001"
       d="m -169.33303,169.30695 a 2.4245722,2.3397021 0 0 1 -2.41493,2.33968 2.4245722,2.3397021 0 0 1 -2.43413,-2.32107 2.4245722,2.3397021 0 0 1 2.39556,-2.35815 2.4245722,2.3397021 0 0 1 2.4532,2.30231"
       transform="scale(-1,1)" />
    <path
       style="display:inline;fill:#cccccc;stroke:#cccccc;stroke-width:2.50629;stroke-linecap:round;stroke-linejoin:miter;stroke-miterlimit:4;stroke-dasharray:none;stroke-opacity:1"
       d="m 171.87445,169.30694 -10.9023,-1e-5"
       id="path13493"
       sodipodi:nodetypes="cc"
       inkscape:export-filename="D:\Modding\RimWorld\Madness Pawns\Madness Pawns\Textures\Things\Pawn\Humanlike\Apparel\Gunlink\Gunlink_south.png"
       inkscape:export-xdpi="19.200001"
       inkscape:export-ydpi="19.200001" />
  </g>
</svg>
