<?xml version="1.0" encoding="UTF-8" standalone="no"?>
<!-- Created with Inkscape (http://www.inkscape.org/) -->

<svg
   width="1280"
   height="1280"
   viewBox="0 0 338.66666 338.66668"
   version="1.1"
   id="svg5"
   shape-rendering="crispEdges"
   inkscape:version="1.1 (c68e22c387, 2021-05-23)"
   sodipodi:docname="Gunlink_west.svg"
   inkscape:export-filename="D:\Modding\RimWorld\Madness Pawns\Madness Pawns\Textures\Things\Pawn\Humanlike\Apparel\Gunlink\Gunlink_west.png"
   inkscape:export-xdpi="19.200001"
   inkscape:export-ydpi="19.200001"
   xmlns:inkscape="http://www.inkscape.org/namespaces/inkscape"
   xmlns:sodipodi="http://sodipodi.sourceforge.net/DTD/sodipodi-0.dtd"
   xmlns:xlink="http://www.w3.org/1999/xlink"
   xmlns="http://www.w3.org/2000/svg"
   xmlns:svg="http://www.w3.org/2000/svg">
  <sodipodi:namedview
     id="namedview7"
     pagecolor="#ffffff"
     bordercolor="#111111"
     borderopacity="1"
     inkscape:pageshadow="0"
     inkscape:pageopacity="0"
     inkscape:pagecheckerboard="true"
     inkscape:document-units="px"
     showgrid="false"
     units="px"
     showguides="true"
     inkscape:zoom="1"
     inkscape:cx="614"
     inkscape:cy="630.5"
     inkscape:window-width="1920"
     inkscape:window-height="1017"
     inkscape:window-x="-8"
     inkscape:window-y="-8"
     inkscape:window-maximized="1"
     inkscape:current-layer="layer3"
     inkscape:guide-bbox="true"
     inkscape:snap-object-midpoints="true"
     inkscape:snap-bbox="true"
     inkscape:snap-global="false">
    <inkscape:grid
       type="xygrid"
       id="grid23"
       visible="true"
       enabled="true"
       dotted="false" />
    <sodipodi:guide
       position="169.33333,169.35973"
       orientation="1,0"
       id="guide96" />
    <sodipodi:guide
       position="169.33333,169.35973"
       orientation="0,-1"
       id="guide116813" />
  </sodipodi:namedview>
  <defs
     id="defs2">
    <linearGradient
       inkscape:collect="always"
       id="linearGradient133751">
      <stop
         style="stop-color:#f2f2f2;stop-opacity:1"
         offset="0"
         id="stop133747" />
      <stop
         style="stop-color:#f2f2f2;stop-opacity:1"
         offset="0.76650232"
         id="stop246521" />
      <stop
         style="stop-color:#b3b3b3;stop-opacity:1"
         offset="1"
         id="stop133749" />
    </linearGradient>
    <radialGradient
       inkscape:collect="always"
       xlink:href="#linearGradient133751"
       id="radialGradient246293"
       gradientUnits="userSpaceOnUse"
       gradientTransform="matrix(-1.0552926,0,5.3720846e-6,-1.4548685,418.50255,484.05163)"
       cx="208.53574"
       cy="214.82936"
       fx="208.53574"
       fy="214.82936"
       r="54.159453" />
    <radialGradient
       inkscape:collect="always"
       xlink:href="#linearGradient133751"
       id="radialGradient246293-4"
       gradientUnits="userSpaceOnUse"
       gradientTransform="matrix(-1.0552926,0,5.3720846e-6,-1.4548685,418.50255,484.02524)"
       cx="208.53574"
       cy="214.82936"
       fx="208.53574"
       fy="214.82936"
       r="54.159454" />
    <inkscape:path-effect
       effect="mirror_symmetry"
       start_point="275.56373,173.8344"
       end_point="251.58587,173.8344"
       center_point="263.5748,173.8344"
       id="path-effect2824"
       is_visible="true"
       lpeversion="1.1"
       mode="free"
       discard_orig_path="false"
       fuse_paths="false"
       oposite_fuse="false"
       split_items="false"
       split_open="false" />
  </defs>
  <g
     inkscape:groupmode="layer"
     id="layer2"
     inkscape:label="HeadM"
     style="display:none"
     sodipodi:insensitive="true">
    <ellipse
       style="mix-blend-mode:luminosity;fill:url(#radialGradient246293);fill-opacity:1;stroke:#000000;stroke-width:9.81062;stroke-miterlimit:4;stroke-dasharray:none;stroke-opacity:1"
       id="path584"
       cx="169.33333"
       cy="169.33333"
       rx="49.254143"
       ry="63.578056"
       inkscape:export-filename="C:\Users\Maxim\OneDrive\Desktop\Back.png"
       inkscape:export-xdpi="9.6000004"
       inkscape:export-ydpi="9.6000004" />
    <path
       style="display:inline;fill:none;stroke:#000000;stroke-width:3.96875;stroke-linecap:round;stroke-linejoin:miter;stroke-miterlimit:4;stroke-dasharray:none;stroke-opacity:1"
       d="m 195.81481,136.96208 c 8.02558,21.43473 7.84902,43.27037 0,65.48103"
       id="path1875"
       sodipodi:nodetypes="cc" />
    <path
       style="display:inline;fill:none;stroke:#000000;stroke-width:3.61878;stroke-linecap:round;stroke-linejoin:miter;stroke-miterlimit:4;stroke-dasharray:none;stroke-opacity:1"
       d="m 178.25921,169.30694 c 13.67535,0 26.95818,0 41.06466,0"
       id="path2880"
       sodipodi:nodetypes="cc" />
  </g>
  <g
     inkscape:groupmode="layer"
     id="layer1"
     inkscape:label="HeadF"
     sodipodi:insensitive="true"
     style="display:none">
    <ellipse
       style="display:inline;mix-blend-mode:luminosity;fill:url(#radialGradient246293-4);fill-opacity:1;stroke:#000000;stroke-width:9.81062;stroke-miterlimit:4;stroke-dasharray:none;stroke-opacity:1"
       id="path584-5"
       cx="169.33333"
       cy="169.30695"
       rx="49.254143"
       ry="63.578056"
       inkscape:export-filename="C:\Users\Maxim\OneDrive\Desktop\Back.png"
       inkscape:export-xdpi="9.6000004"
       inkscape:export-ydpi="9.6000004" />
    <path
       id="path2267"
       style="display:inline;fill:#000000;stroke:none;stroke-width:0.264583px;stroke-linecap:butt;stroke-linejoin:miter;stroke-opacity:1"
       d="m 178.34459,157.80688 c -7.20585,0 -9.88828,6.6208 -9.88828,8.30802 l -3.83646,-2.38125 c 0,0 6.14022,25.52592 34.13125,14.05805 -3.82152,-14.26212 -11.70027,-19.98482 -20.40651,-19.98482 z"
       sodipodi:nodetypes="scccs" />
    <ellipse
       style="display:inline;fill:#ffffff;stroke:#808080;stroke-width:0;stroke-linecap:round;stroke-linejoin:round;stroke-miterlimit:4;stroke-dasharray:none"
       id="path1191"
       cx="191.47401"
       cy="172.89096"
       rx="2.778125"
       ry="5.6885414" />
    <path
       d="m 218.76324,157.80687 c -6.18331,0 -11.77892,5.72271 -14.49302,19.98483 19.87966,11.46787 24.24054,-14.05806 24.24054,-14.05806 l -2.72471,2.38125 c 0,-1.68721 -1.90511,-8.30802 -7.02281,-8.30802 z"
       style="display:inline;fill:#000000;stroke:none;stroke-width:0.222975px;stroke-linecap:butt;stroke-linejoin:miter;stroke-opacity:1"
       id="path2436" />
    <ellipse
       style="display:inline;fill:#ffffff;stroke:#808080;stroke-width:0;stroke-linecap:round;stroke-linejoin:round;stroke-miterlimit:4;stroke-dasharray:none"
       id="path1191-9"
       cx="213.03598"
       cy="172.89096"
       rx="2.778125"
       ry="5.6885414" />
  </g>
  <g
     inkscape:groupmode="layer"
     id="layer3"
     inkscape:label="Goggles"
     style="display:inline">
    <path
       style="display:inline;fill:#333333;stroke:#000000;stroke-width:1.5875;stroke-linecap:round;stroke-linejoin:round;stroke-miterlimit:4;stroke-dasharray:none;stroke-opacity:1"
       id="path5636-5"
       sodipodi:type="arc"
       sodipodi:cx="-171.70668"
       sodipodi:cy="169.30695"
       sodipodi:rx="2.3632765"
       sodipodi:ry="2.4375088"
       sodipodi:start="0"
       sodipodi:end="6.2672755"
       sodipodi:arc-type="arc"
       sodipodi:open="true"
       d="m -169.3434,169.30695 a 2.3632765,2.4375088 0 0 1 -2.35388,2.43749 2.3632765,2.4375088 0 0 1 -2.3726,-2.4181 2.3632765,2.4375088 0 0 1 2.335,-2.45673 2.3632765,2.4375088 0 0 1 2.39118,2.39856"
       transform="scale(-1,1)"
       inkscape:export-filename="C:\Program Files (x86)\Steam\steamapps\common\RimWorld\Mods\Madness Pawns\Textures\Things\Pawn\Humanlike\Apparel\Gunlink\rect2432.png"
       inkscape:export-xdpi="19.200001"
       inkscape:export-ydpi="19.200001" />
    <path
       id="rect5609-4"
       style="display:inline;fill:#333333;stroke:#000000;stroke-width:1.69643;stroke-linecap:round;stroke-linejoin:round;stroke-miterlimit:4;stroke-dasharray:none;stroke-opacity:1"
       d="m 272.78561,173.8344 2.84427,-4.58655 v -6.84277 h -33.56746 v 11.42932 m 4.75992,0 v -6.85801 h 24.04711 v 2.27146 l -2.84427,4.58655 m 4.76043,0 2.84427,4.58655 v 6.84277 H 242.06242 V 173.8344 m 4.75992,0 v 6.85801 h 24.04711 v -2.27146 l -2.84427,-4.58655"
       sodipodi:nodetypes="cccccccccc"
       inkscape:path-effect="#path-effect2824"
       inkscape:original-d="m 272.78561,173.8344 2.84427,-4.58655 v -6.84277 h -33.56746 v 11.42932 m 4.75992,0 v -6.85801 h 24.04711 v 2.27146 l -2.84427,4.58655"
       transform="matrix(-0.99914829,0,0,1.1542141,432.08104,-31.365724)" />
    <path
       id="rect2432"
       style="display:inline;fill:#666666;stroke:#000000;stroke-width:1.77445;stroke-linecap:round;stroke-linejoin:round"
       d="M 229.12554,163.09759 H 106.31466 c 0,0 -1.4025,0.46758 -1.4025,6.20934 0,5.74177 1.4025,6.20935 1.4025,6.20935 h 122.81088 c 0,0 1.80849,-0.69812 1.80849,-6.20935 0,-5.51122 -1.80849,-6.20934 -1.80849,-6.20934 z"
       sodipodi:nodetypes="cczcczc"
       inkscape:export-filename="C:\Program Files (x86)\Steam\steamapps\common\RimWorld\Mods\Madness Pawns\Textures\Things\Pawn\Humanlike\Apparel\Gunlink\rect2432.png"
       inkscape:export-xdpi="19.200001"
       inkscape:export-ydpi="19.200001" />
    <rect
       style="display:inline;fill:#999999;stroke:#000000;stroke-width:1.98892;stroke-linecap:round;stroke-linejoin:round;stroke-miterlimit:4;stroke-dasharray:none"
       id="rect5870"
       width="38.596275"
       height="15.421991"
       x="-198.88251"
       y="161.5654"
       rx="0"
       ry="0"
       transform="scale(-1,1)" />
    <path
       id="rect1020"
       style="display:inline;fill:#666666;stroke:#000000;stroke-width:1.79923;stroke-linecap:round;stroke-linejoin:round;stroke-miterlimit:4;stroke-dasharray:none"
       d="m 224.21993,154.48291 h -26.27547 c 0,0 -6.74528,2.3957 -6.74528,5.25852 0,4.90867 4.14472,5.14883 4.14472,9.56552 0,4.41668 -4.14472,4.12345 -4.14472,9.94238 0,2.3195 6.74528,4.88166 6.74528,4.88166 h 26.27547 c 0,0 3.33198,-3.41771 3.33198,-14.82404 0,-11.40634 -3.33198,-14.82404 -3.33198,-14.82404 z"
       sodipodi:nodetypes="ccszscczc"
       inkscape:export-filename="C:\Program Files (x86)\Steam\steamapps\common\RimWorld\Mods\Madness Pawns\Textures\Things\Pawn\Humanlike\Apparel\Gunlink\rect2432.png"
       inkscape:export-xdpi="19.200001"
       inkscape:export-ydpi="19.200001" />
    <path
       style="color:#000000;display:inline;fill:#333333;stroke-width:1.82177;stroke-linecap:round;stroke-linejoin:round;-inkscape-stroke:none"
       d="m 156.68547,179.33807 v -4.76782 l 2.84185,-5.29386 -2.84185,-5.29386 v -4.99684 l 4.75638,0.46644 v 4.5304 l 2.84185,5.29386 -2.84185,5.29386 v 5.48475 z"
       id="path9093"
       sodipodi:nodetypes="ccccccccccc" />
    <path
       id="rect6155"
       style="display:inline;fill:#4d4d4d;stroke:#000000;stroke-width:1.79923;stroke-linecap:round;stroke-linejoin:round"
       d="m 225.93015,150.82057 h -17.09347 c -1.14079,0 -2.05919,3.31113 -2.05919,4.48779 v 28.04744 c 0,1.17667 0.9184,4.4375 2.05919,4.4375 h 17.09347 c 0,-4.95307 0.0574,-3.39474 -2.25276,-3.36223 v -30.23025 c 2.43547,-0.67311 2.25276,2.38516 2.25276,-3.38025 z"
       sodipodi:nodetypes="csssscccc"
       inkscape:export-filename="C:\Program Files (x86)\Steam\steamapps\common\RimWorld\Mods\Madness Pawns\Textures\Things\Pawn\Humanlike\Apparel\Gunlink\rect2432.png"
       inkscape:export-xdpi="19.200001"
       inkscape:export-ydpi="19.200001" />
    <path
       style="display:inline;fill:#333333;stroke:#000000;stroke-width:1.5875;stroke-linecap:round;stroke-linejoin:round;stroke-miterlimit:4;stroke-dasharray:none;stroke-opacity:1"
       id="path5636"
       sodipodi:type="arc"
       sodipodi:cx="-201.50534"
       sodipodi:cy="169.30695"
       sodipodi:rx="2.3631587"
       sodipodi:ry="2.4375088"
       sodipodi:start="0"
       sodipodi:end="6.2672755"
       sodipodi:arc-type="arc"
       sodipodi:open="true"
       d="m -199.14218,169.30695 a 2.3631587,2.4375088 0 0 1 -2.35376,2.43749 2.3631587,2.4375088 0 0 1 -2.37248,-2.4181 2.3631587,2.4375088 0 0 1 2.33488,-2.45673 2.3631587,2.4375088 0 0 1 2.39106,2.39856"
       transform="scale(-1,1)"
       inkscape:export-filename="C:\Program Files (x86)\Steam\steamapps\common\RimWorld\Mods\Madness Pawns\Textures\Things\Pawn\Humanlike\Apparel\Gunlink\rect2432.png"
       inkscape:export-xdpi="19.200001"
       inkscape:export-ydpi="19.200001" />
    <rect
       style="display:inline;fill:#333333;stroke:#000000;stroke-width:1.79923;stroke-linecap:round;stroke-linejoin:round;stroke-miterlimit:4;stroke-dasharray:none;stroke-opacity:1"
       id="rect7506"
       width="8.6052284"
       height="16.142473"
       x="-146.32877"
       y="161.2357"
       ry="0"
       transform="scale(-1,1)"
       inkscape:export-filename="C:\Program Files (x86)\Steam\steamapps\common\RimWorld\Mods\Madness Pawns\Textures\Things\Pawn\Humanlike\Apparel\Gunlink\rect2432.png"
       inkscape:export-xdpi="19.200001"
       inkscape:export-ydpi="19.200001" />
    <path
       id="rect5470"
       style="fill:#333333;stroke:#000000;stroke-width:2.04122;stroke-linecap:round;stroke-linejoin:round;stroke-miterlimit:4;stroke-dasharray:none"
       d="m 220.04951,150.07027 c 0,0 -13.67802,0.74924 -13.67802,19.23671 0,18.48747 13.67802,19.23671 13.67802,19.23671 h 22.71 v -38.47342 z"
       sodipodi:nodetypes="cscccc"
       inkscape:export-filename="C:\Program Files (x86)\Steam\steamapps\common\RimWorld\Mods\Madness Pawns\Textures\Things\Pawn\Humanlike\Apparel\Gunlink\rect2432.png"
       inkscape:export-xdpi="19.200001"
       inkscape:export-ydpi="19.200001" />
    <g
       id="g5322"
       transform="matrix(0.94318111,0,0,1.1510608,40.905562,-43.351646)"
       inkscape:export-filename="C:\Program Files (x86)\Steam\steamapps\common\RimWorld\Mods\Madness Pawns\Textures\Things\Pawn\Humanlike\Apparel\Gunlink\rect2432.png"
       inkscape:export-xdpi="19.200001"
       inkscape:export-ydpi="19.200001">
      <path
         style="display:inline;fill:#333333;stroke:#000000;stroke-width:1.72679;stroke-linecap:round;stroke-linejoin:round;stroke-miterlimit:4;stroke-dasharray:none;stroke-opacity:1"
         id="path6830"
         sodipodi:type="arc"
         sodipodi:cx="213.65527"
         sodipodi:cy="184.75008"
         sodipodi:rx="16.652374"
         sodipodi:ry="16.652374"
         sodipodi:start="0"
         sodipodi:end="6.2672679"
         sodipodi:open="true"
         sodipodi:arc-type="arc"
         d="m 230.30765,184.75008 a 16.652374,16.652374 0 0 1 -16.58611,16.65224 16.652374,16.652374 0 0 1 -16.71811,-16.51971 16.652374,16.652374 0 0 1 16.45305,-16.78372 16.652374,16.652374 0 0 1 16.84906,16.38613" />
      <path
         style="display:inline;fill:#ffcc00;stroke:#000000;stroke-width:1.72679;stroke-linecap:round;stroke-linejoin:round;stroke-miterlimit:4;stroke-dasharray:none;stroke-opacity:1"
         id="path6830-0"
         sodipodi:type="arc"
         sodipodi:cx="213.65527"
         sodipodi:cy="184.75008"
         sodipodi:rx="13.046682"
         sodipodi:ry="13.046682"
         sodipodi:start="0"
         sodipodi:end="6.2672679"
         sodipodi:open="true"
         sodipodi:arc-type="arc"
         d="m 226.70196,184.75008 a 13.046682,13.046682 0 0 1 -12.99477,13.04658 13.046682,13.046682 0 0 1 -13.09819,-12.94275 13.046682,13.046682 0 0 1 12.89053,-13.14959 13.046682,13.046682 0 0 1 13.20077,12.8381" />
    </g>
    <path
       style="color:#000000;display:inline;fill:#000000;stroke-width:1.07389;stroke-linecap:round;stroke-linejoin:round;-inkscape-stroke:none"
       d="m 157.5337,157.06473 v 6.63898 l 2.71449,5.05645 c 0.16984,0.3162 0.16984,0.71628 0,1.03248 l -2.71449,5.05645 v 6.64124 l -0.84888,1.95675 c -0.46761,-4.1e-4 -0.84658,-0.43821 -0.84693,-0.97838 v -7.8969 c -1.6e-4,-0.18237 0.0438,-0.36116 0.12684,-0.51623 l 2.56617,-4.77918 -2.56617,-4.77691 c -0.083,-0.15507 -0.127,-0.33387 -0.12684,-0.51623 v -7.89915 c 3.5e-4,-0.54018 0.37932,-0.97797 0.84693,-0.97839 z m 4.75572,5.27511 v 1.36387 l 2.71447,5.05645 c 0.16985,0.3162 0.16985,0.71628 0,1.03248 l -2.71447,5.05645 v 1.36386 l -0.84694,1.95902 c -0.46836,8.3e-4 -0.84854,-0.43732 -0.84889,-0.97838 v -2.62179 c 4.3e-4,-0.18258 0.0451,-0.3614 0.1288,-0.51623 l 2.56422,-4.77918 -2.56422,-4.77691 c -0.0837,-0.15484 -0.12837,-0.33365 -0.1288,-0.51623 v -2.62179 c 3.6e-4,-0.54105 0.38053,-0.9792 0.84889,-0.97837 z"
       id="path9095"
       sodipodi:nodetypes="cccccccccccccccccccccccccccccccc" />
    <path
       style="display:inline;fill:#333333;stroke:#000000;stroke-width:1.5875;stroke-linecap:round;stroke-linejoin:round;stroke-miterlimit:4;stroke-dasharray:none;stroke-opacity:1"
       id="path5636-5-7"
       sodipodi:type="arc"
       sodipodi:cx="-170.31064"
       sodipodi:cy="169.2764"
       sodipodi:rx="2.4240918"
       sodipodi:ry="2.4361808"
       sodipodi:start="0"
       sodipodi:end="6.2672755"
       sodipodi:arc-type="arc"
       sodipodi:open="true"
       d="m -167.88655,169.2764 a 2.4240918,2.4361808 0 0 1 -2.41445,2.43616 2.4240918,2.4361808 0 0 1 -2.43365,-2.41678 2.4240918,2.4361808 0 0 1 2.39509,-2.45539 2.4240918,2.4361808 0 0 1 2.45271,2.39725"
       transform="scale(-1,1)" />
    <path
       style="display:inline;fill:#cccccc;stroke:#cccccc;stroke-width:2.55719;stroke-linecap:round;stroke-linejoin:miter;stroke-miterlimit:4;stroke-dasharray:none;stroke-opacity:1"
       d="m 170.42746,169.2764 -10.90014,-1e-5"
       id="path13493"
       sodipodi:nodetypes="cc" />
  </g>
</svg>
