<?xml version="1.0" encoding="UTF-8" standalone="no"?>
<!-- Created with Inkscape (http://www.inkscape.org/) -->

<svg
   width="1280"
   height="1280"
   viewBox="0 0 338.66666 338.66668"
   version="1.1"
   id="svg5"
   shape-rendering="crispEdges"
   inkscape:version="1.1 (c68e22c387, 2021-05-23)"
   sodipodi:docname="Gunlink_east.svg"
   inkscape:export-filename="D:\Modding\RimWorld\Madness Pawns\Madness Pawns\Textures\Things\Pawn\Humanlike\Apparel\Gunlink\Gunlink_east.png"
   inkscape:export-xdpi="19.200001"
   inkscape:export-ydpi="19.200001"
   xmlns:inkscape="http://www.inkscape.org/namespaces/inkscape"
   xmlns:sodipodi="http://sodipodi.sourceforge.net/DTD/sodipodi-0.dtd"
   xmlns:xlink="http://www.w3.org/1999/xlink"
   xmlns="http://www.w3.org/2000/svg"
   xmlns:svg="http://www.w3.org/2000/svg">
  <sodipodi:namedview
     id="namedview7"
     pagecolor="#ffffff"
     bordercolor="#111111"
     borderopacity="1"
     inkscape:pageshadow="0"
     inkscape:pageopacity="0"
     inkscape:pagecheckerboard="true"
     inkscape:document-units="px"
     showgrid="false"
     units="px"
     showguides="true"
     inkscape:zoom="1.4142136"
     inkscape:cx="636.04253"
     inkscape:cy="636.74964"
     inkscape:window-width="1920"
     inkscape:window-height="1017"
     inkscape:window-x="-8"
     inkscape:window-y="-8"
     inkscape:window-maximized="1"
     inkscape:current-layer="layer2"
     inkscape:guide-bbox="true"
     inkscape:snap-object-midpoints="true"
     inkscape:snap-bbox="true"
     inkscape:snap-global="false">
    <inkscape:grid
       type="xygrid"
       id="grid23"
       visible="true"
       enabled="true"
       dotted="false" />
    <sodipodi:guide
       position="169.33333,169.35973"
       orientation="1,0"
       id="guide96" />
    <sodipodi:guide
       position="169.33333,169.35973"
       orientation="0,-1"
       id="guide116813" />
  </sodipodi:namedview>
  <defs
     id="defs2">
    <linearGradient
       inkscape:collect="always"
       id="linearGradient133751">
      <stop
         style="stop-color:#f2f2f2;stop-opacity:1"
         offset="0"
         id="stop133747" />
      <stop
         style="stop-color:#f2f2f2;stop-opacity:1"
         offset="0.76650232"
         id="stop246521" />
      <stop
         style="stop-color:#b3b3b3;stop-opacity:1"
         offset="1"
         id="stop133749" />
    </linearGradient>
    <radialGradient
       inkscape:collect="always"
       xlink:href="#linearGradient133751"
       id="radialGradient246293"
       gradientUnits="userSpaceOnUse"
       gradientTransform="matrix(-1.0552926,0,5.3720846e-6,-1.4548685,418.50255,484.05163)"
       cx="208.53574"
       cy="214.82936"
       fx="208.53574"
       fy="214.82936"
       r="54.159453" />
  </defs>
  <g
     inkscape:groupmode="layer"
     id="layer2"
     inkscape:label="Head"
     style="display:none"
     sodipodi:insensitive="true">
    <ellipse
       style="mix-blend-mode:luminosity;fill:url(#radialGradient246293);fill-opacity:1;stroke:#000000;stroke-width:9.81062;stroke-miterlimit:4;stroke-dasharray:none;stroke-opacity:1"
       id="path584"
       cx="169.33333"
       cy="169.33333"
       rx="49.254143"
       ry="63.578056"
       inkscape:export-filename="C:\Users\Maxim\OneDrive\Desktop\Back.png"
       inkscape:export-xdpi="9.6000004"
       inkscape:export-ydpi="9.6000004" />
    <path
       style="display:inline;fill:none;stroke:#000000;stroke-width:3.96875;stroke-linecap:round;stroke-linejoin:miter;stroke-miterlimit:4;stroke-dasharray:none;stroke-opacity:1"
       d="m 195.81481,136.96208 c 8.02558,21.43473 7.84902,43.27037 0,65.48103"
       id="path1875"
       sodipodi:nodetypes="cc" />
    <path
       style="display:inline;fill:none;stroke:#000000;stroke-width:3.61878;stroke-linecap:round;stroke-linejoin:miter;stroke-miterlimit:4;stroke-dasharray:none;stroke-opacity:1"
       d="m 178.25921,169.30694 c 13.67535,0 26.95818,0 41.06466,0"
       id="path2880"
       sodipodi:nodetypes="cc" />
  </g>
  <g
     inkscape:groupmode="layer"
     id="layer3"
     inkscape:label="Face"
     style="display:inline">
    <path
       id="rect2432"
       style="display:inline;fill:#666666;stroke:#000000;stroke-width:1.77881;stroke-linecap:round;stroke-linejoin:round"
       d="m 106.62033,163.22737 h 126.05024 c 0,0 1.43949,0.45783 1.43949,6.07956 0,5.62174 -1.43949,6.07957 -1.43949,6.07957 H 106.62033 c 0,0 -1.85618,-0.68354 -1.85618,-6.07957 0,-5.39602 1.85618,-6.07956 1.85618,-6.07956 z"
       sodipodi:nodetypes="cczcczc" />
    <path
       id="rect1020"
       style="display:inline;fill:#666666;stroke:#000000;stroke-width:1.80365;stroke-linecap:round;stroke-linejoin:round;stroke-miterlimit:4;stroke-dasharray:none"
       d="m 108.17028,154.79278 h 101.36728 c 0,0 6.9232,2.34561 6.9232,5.1486 0,4.80606 -4.25402,5.0412 -4.25402,9.36557 0,4.32436 4.25402,4.03726 4.25402,9.73456 0,2.271 -6.9232,4.77961 -6.9232,4.77961 H 108.17028 c 0,0 -3.41987,-3.34625 -3.41987,-14.51417 0,-11.16793 3.41987,-14.51417 3.41987,-14.51417 z"
       sodipodi:nodetypes="ccszscczc" />
    <rect
       style="display:inline;fill:#333333;stroke:#000000;stroke-width:1.80365;stroke-linecap:round;stroke-linejoin:round;stroke-miterlimit:4;stroke-dasharray:none;stroke-opacity:1"
       id="rect5888"
       width="94.629318"
       height="4.1559391"
       x="103.14145"
       y="167.15793"
       ry="2.0779696" />
    <path
       id="rect6155"
       style="display:inline;fill:#4d4d4d;stroke:#000000;stroke-width:1.80365;stroke-linecap:round;stroke-linejoin:round"
       d="m 150.62812,151.20587 h 44.66732 c 1.17086,0 2.11349,3.24192 2.11349,4.39399 v 27.46115 c 0,1.15207 -0.94263,4.34472 -2.11349,4.34472 h -44.66732 c 0,-4.84951 -0.059,-3.32376 2.31217,-3.29194 v -29.59833 c -2.49971,-0.65905 -2.31217,2.3353 -2.31217,-3.30959 z"
       sodipodi:nodetypes="csssscccc" />
    <path
       style="display:inline;fill:none;stroke:#000000;stroke-width:1.80365;stroke-linecap:butt;stroke-linejoin:miter;stroke-miterlimit:4;stroke-dasharray:none;stroke-opacity:1"
       d="m 156.89207,151.17711 c 0,18.12869 0,18.12869 0,18.12869 l 22.7686,0.001"
       id="path6727" />
    <path
       id="rect5470"
       style="fill:#333333;stroke:#000000;stroke-width:2.04624;stroke-linecap:round;stroke-linejoin:round;stroke-miterlimit:4;stroke-dasharray:none"
       d="m 180.21634,150.47238 c 0,0 -14.03879,0.73357 -14.03879,18.8346 0,18.10103 14.03879,18.8346 14.03879,18.8346 h 23.30902 v -37.6692 z"
       sodipodi:nodetypes="cscccc" />
    <g
       id="g5322"
       transform="matrix(0.96805915,0,0,1.1269997,-3.6528354,-38.906349)">
      <path
         style="display:inline;fill:#333333;stroke:#000000;stroke-width:1.72679;stroke-linecap:round;stroke-linejoin:round;stroke-miterlimit:4;stroke-dasharray:none;stroke-opacity:1"
         id="path6830"
         sodipodi:type="arc"
         sodipodi:cx="213.65527"
         sodipodi:cy="184.75008"
         sodipodi:rx="16.652374"
         sodipodi:ry="16.652374"
         sodipodi:start="0"
         sodipodi:end="6.2672679"
         sodipodi:open="true"
         sodipodi:arc-type="arc"
         d="m 230.30765,184.75008 a 16.652374,16.652374 0 0 1 -16.58611,16.65224 16.652374,16.652374 0 0 1 -16.71811,-16.51971 16.652374,16.652374 0 0 1 16.45305,-16.78372 16.652374,16.652374 0 0 1 16.84906,16.38613" />
      <path
         style="display:inline;fill:#ffcc00;stroke:#000000;stroke-width:1.72679;stroke-linecap:round;stroke-linejoin:round;stroke-miterlimit:4;stroke-dasharray:none;stroke-opacity:1"
         id="path6830-0"
         sodipodi:type="arc"
         sodipodi:cx="213.65527"
         sodipodi:cy="184.75008"
         sodipodi:rx="13.046682"
         sodipodi:ry="13.046682"
         sodipodi:start="0"
         sodipodi:end="6.2672679"
         sodipodi:open="true"
         sodipodi:arc-type="arc"
         d="m 226.70196,184.75008 a 13.046682,13.046682 0 0 1 -12.99477,13.04658 13.046682,13.046682 0 0 1 -13.09819,-12.94275 13.046682,13.046682 0 0 1 12.89053,-13.14959 13.046682,13.046682 0 0 1 13.20077,12.8381" />
    </g>
    <path
       id="rect7506"
       style="display:inline;fill:#333333;stroke:#000000;stroke-width:1.80365;stroke-linecap:round;stroke-linejoin:round"
       d="m 223.41593,161.40441 h 5.70208 c 0,0 1.33929,2.49095 1.33929,7.90252 0,5.41159 -1.33929,7.90251 -1.33929,7.90251 h -5.70208 c 0,0 1.33931,-2.51729 1.33931,-7.90251 0,-5.38521 -1.33931,-7.90252 -1.33931,-7.90252 z"
       sodipodi:nodetypes="cczcczc" />
  </g>
</svg>
