<?xml version="1.0" encoding="UTF-8" standalone="no"?>
<!-- Created with Inkscape (http://www.inkscape.org/) -->

<svg
   width="1280"
   height="1280"
   viewBox="0 0 338.66666 338.66668"
   version="1.1"
   id="svg5"
   inkscape:version="1.1 (c68e22c387, 2021-05-23)"
   sodipodi:docname="MechlordSuit_Male_south.svg"
   inkscape:export-filename="D:\Modding\RimWorld\Madness Pawns\Madness Pawns\Textures\Things\Pawn\Humanlike\Apparel\MechlordSuit\MechlordSuit_Male_south.png"
   inkscape:export-xdpi="19.200001"
   inkscape:export-ydpi="19.200001"
   xmlns:inkscape="http://www.inkscape.org/namespaces/inkscape"
   xmlns:sodipodi="http://sodipodi.sourceforge.net/DTD/sodipodi-0.dtd"
   xmlns:xlink="http://www.w3.org/1999/xlink"
   xmlns="http://www.w3.org/2000/svg"
   xmlns:svg="http://www.w3.org/2000/svg">
  <sodipodi:namedview
     id="namedview7"
     pagecolor="#ffffff"
     bordercolor="#111111"
     borderopacity="1"
     inkscape:pageshadow="0"
     inkscape:pageopacity="0"
     inkscape:pagecheckerboard="1"
     inkscape:document-units="px"
     showgrid="false"
     showguides="true"
     units="px"
     inkscape:snap-bbox="true"
     inkscape:snap-object-midpoints="true"
     inkscape:bbox-paths="false"
     inkscape:bbox-nodes="true"
     inkscape:snap-bbox-midpoints="true"
     inkscape:snap-page="false"
     inkscape:zoom="0.70710678"
     inkscape:cx="629.32504"
     inkscape:cy="647.0027"
     inkscape:window-width="1920"
     inkscape:window-height="1017"
     inkscape:window-x="-8"
     inkscape:window-y="-8"
     inkscape:window-maximized="1"
     inkscape:current-layer="layer3"
     inkscape:guide-bbox="true"
     inkscape:snap-smooth-nodes="true"
     inkscape:snap-grids="false"
     inkscape:snap-to-guides="true"
     inkscape:snap-global="true">
    <sodipodi:guide
       position="169.33332,169.33335"
       orientation="0,-1"
       id="guide989" />
    <sodipodi:guide
       position="169.33332,169.33336"
       orientation="1,0"
       id="guide991" />
    <sodipodi:guide
       position="198.59201,56.519022"
       orientation="0,-1"
       id="guide1028" />
    <sodipodi:guide
       position="154.09749,148.47601"
       orientation="0,-1"
       id="guide2584" />
  </sodipodi:namedview>
  <defs
     id="defs2">
    <inkscape:path-effect
       center_point="169.33332,182.51643"
       end_point="169.33332,290.20979"
       start_point="169.33332,74.823076"
       effect="mirror_symmetry"
       id="path-effect16875"
       is_visible="true"
       lpeversion="1.1"
       mode="free"
       discard_orig_path="false"
       fuse_paths="false"
       oposite_fuse="false"
       split_items="false"
       split_open="false" />
    <inkscape:path-effect
       effect="mirror_symmetry"
       start_point="20.206451,99.222381"
       end_point="20.206451,306.67175"
       center_point="20.206451,202.94707"
       id="path-effect15811"
       is_visible="true"
       lpeversion="1.1"
       mode="free"
       discard_orig_path="false"
       fuse_paths="false"
       oposite_fuse="false"
       split_items="false"
       split_open="false" />
    <inkscape:path-effect
       effect="mirror_symmetry"
       start_point="169.33398,114.16315"
       end_point="169.33398,240.06428"
       center_point="169.33398,177.11372"
       id="path-effect15703"
       is_visible="true"
       lpeversion="1.1"
       mode="free"
       discard_orig_path="false"
       fuse_paths="false"
       oposite_fuse="false"
       split_items="false"
       split_open="false" />
    <inkscape:path-effect
       effect="mirror_symmetry"
       start_point="169.33332,284.9923"
       end_point="169.33332,323.34644"
       center_point="169.33332,304.16937"
       id="path-effect15699"
       is_visible="true"
       lpeversion="1.1"
       mode="free"
       discard_orig_path="false"
       fuse_paths="false"
       oposite_fuse="false"
       split_items="false"
       split_open="false" />
    <inkscape:path-effect
       effect="mirror_symmetry"
       start_point="169.33332,38.287829"
       end_point="169.33332,112.43784"
       center_point="169.33332,75.362834"
       id="path-effect15695"
       is_visible="true"
       lpeversion="1.1"
       mode="free"
       discard_orig_path="false"
       fuse_paths="false"
       oposite_fuse="false"
       split_items="false"
       split_open="false" />
    <inkscape:path-effect
       effect="mirror_symmetry"
       start_point="169.33332,38.287829"
       end_point="169.33332,112.43784"
       center_point="169.33332,75.362834"
       id="path-effect15691"
       is_visible="true"
       lpeversion="1.1"
       mode="free"
       discard_orig_path="false"
       fuse_paths="false"
       oposite_fuse="false"
       split_items="false"
       split_open="false" />
    <inkscape:path-effect
       effect="mirror_symmetry"
       start_point="169.33332,-78.070035"
       end_point="169.33332,81.250163"
       center_point="169.33332,1.590064"
       id="path-effect15687"
       is_visible="true"
       lpeversion="1.1"
       mode="free"
       discard_orig_path="false"
       fuse_paths="false"
       oposite_fuse="false"
       split_items="false"
       split_open="false" />
    <inkscape:path-effect
       effect="mirror_symmetry"
       start_point="169.33332,83.213395"
       end_point="169.33332,206.40186"
       center_point="169.33332,144.80763"
       id="path-effect15683"
       is_visible="true"
       lpeversion="1.1"
       mode="free"
       discard_orig_path="false"
       fuse_paths="false"
       oposite_fuse="false"
       split_items="false"
       split_open="false" />
    <inkscape:path-effect
       effect="mirror_symmetry"
       start_point="169.33332,197.86648"
       end_point="169.33332,279.10902"
       center_point="169.33332,238.48775"
       id="path-effect15679"
       is_visible="true"
       lpeversion="1.1"
       mode="free"
       discard_orig_path="false"
       fuse_paths="false"
       oposite_fuse="false"
       split_items="false"
       split_open="false" />
    <inkscape:path-effect
       effect="mirror_symmetry"
       start_point="169.33332,284.9923"
       end_point="169.33332,323.34644"
       center_point="169.33332,304.16937"
       id="path-effect15675"
       is_visible="true"
       lpeversion="1.1"
       mode="free"
       discard_orig_path="false"
       fuse_paths="false"
       oposite_fuse="false"
       split_items="false"
       split_open="false" />
    <inkscape:path-effect
       effect="mirror_symmetry"
       start_point="169.33332,288.1165"
       end_point="169.33332,341.56528"
       center_point="169.33332,314.84089"
       id="path-effect15671"
       is_visible="true"
       lpeversion="1.1"
       mode="free"
       discard_orig_path="false"
       fuse_paths="false"
       oposite_fuse="false"
       split_items="false"
       split_open="false" />
    <inkscape:path-effect
       effect="mirror_symmetry"
       start_point="169.33398,114.16315"
       end_point="169.33398,240.06428"
       center_point="169.33398,177.11372"
       id="path-effect13969"
       is_visible="true"
       lpeversion="1.1"
       mode="free"
       discard_orig_path="false"
       fuse_paths="false"
       oposite_fuse="false"
       split_items="false"
       split_open="false" />
    <inkscape:path-effect
       effect="mirror_symmetry"
       start_point="169.33332,-78.070035"
       end_point="169.33332,81.250163"
       center_point="169.33332,1.590064"
       id="path-effect13328"
       is_visible="true"
       lpeversion="1.1"
       mode="free"
       discard_orig_path="false"
       fuse_paths="false"
       oposite_fuse="false"
       split_items="false"
       split_open="false" />
    <inkscape:path-effect
       effect="mirror_symmetry"
       start_point="169.33332,38.287829"
       end_point="169.33332,112.43784"
       center_point="169.33332,75.362834"
       id="path-effect12669"
       is_visible="true"
       lpeversion="1.1"
       mode="free"
       discard_orig_path="false"
       fuse_paths="false"
       oposite_fuse="false"
       split_items="false"
       split_open="false" />
    <inkscape:path-effect
       effect="mirror_symmetry"
       start_point="169.33332,38.287829"
       end_point="169.33332,112.43784"
       center_point="169.33332,75.362834"
       id="path-effect12309"
       is_visible="true"
       lpeversion="1.1"
       mode="free"
       discard_orig_path="false"
       fuse_paths="false"
       oposite_fuse="false"
       split_items="false"
       split_open="false" />
    <inkscape:path-effect
       effect="mirror_symmetry"
       start_point="169.33332,284.9923"
       end_point="169.33332,323.34644"
       center_point="169.33332,304.16937"
       id="path-effect11225"
       is_visible="true"
       lpeversion="1.1"
       mode="free"
       discard_orig_path="false"
       fuse_paths="false"
       oposite_fuse="false"
       split_items="false"
       split_open="false" />
    <inkscape:path-effect
       effect="mirror_symmetry"
       start_point="169.33332,38.287829"
       end_point="169.33332,112.43784"
       center_point="169.33332,75.362834"
       id="path-effect10519"
       is_visible="true"
       lpeversion="1.1"
       mode="free"
       discard_orig_path="false"
       fuse_paths="false"
       oposite_fuse="false"
       split_items="false"
       split_open="false" />
    <inkscape:path-effect
       effect="mirror_symmetry"
       start_point="169.33332,83.213395"
       end_point="169.33332,206.40186"
       center_point="169.33332,144.80763"
       id="path-effect8555"
       is_visible="true"
       lpeversion="1.1"
       mode="free"
       discard_orig_path="false"
       fuse_paths="false"
       oposite_fuse="false"
       split_items="false"
       split_open="false" />
    <inkscape:path-effect
       effect="mirror_symmetry"
       start_point="169.33332,-78.070035"
       end_point="169.33332,81.250163"
       center_point="169.33332,1.590064"
       id="path-effect7018"
       is_visible="true"
       lpeversion="1.1"
       mode="free"
       discard_orig_path="false"
       fuse_paths="false"
       oposite_fuse="false"
       split_items="false"
       split_open="false" />
    <inkscape:path-effect
       effect="mirror_symmetry"
       start_point="169.33332,197.86648"
       end_point="169.33332,279.10902"
       center_point="169.33332,238.48775"
       id="path-effect4227"
       is_visible="true"
       lpeversion="1.1"
       mode="free"
       discard_orig_path="false"
       fuse_paths="false"
       oposite_fuse="false"
       split_items="false"
       split_open="false" />
    <inkscape:path-effect
       effect="mirror_symmetry"
       start_point="169.33332,284.9923"
       end_point="169.33332,323.34644"
       center_point="169.33332,304.16937"
       id="path-effect3215"
       is_visible="true"
       lpeversion="1.1"
       mode="free"
       discard_orig_path="false"
       fuse_paths="false"
       oposite_fuse="false"
       split_items="false"
       split_open="false" />
    <inkscape:path-effect
       effect="mirror_symmetry"
       start_point="169.33332,288.1165"
       end_point="169.33332,341.56528"
       center_point="169.33332,314.84089"
       id="path-effect1157"
       is_visible="true"
       lpeversion="1.1"
       mode="free"
       discard_orig_path="false"
       fuse_paths="false"
       oposite_fuse="false"
       split_items="false"
       split_open="false" />
    <inkscape:path-effect
       effect="mirror_symmetry"
       start_point="640.00001,475.3086"
       end_point="640.00001,1047.4492"
       center_point="640.00001,761.37891"
       id="path-effect1473"
       is_visible="true"
       lpeversion="1.1"
       mode="free"
       discard_orig_path="false"
       fuse_paths="false"
       oposite_fuse="false"
       split_items="false"
       split_open="false" />
    <radialGradient
       inkscape:collect="always"
       xlink:href="#linearGradient5366"
       id="radialGradient5368"
       cx="698.43848"
       cy="790.43689"
       fx="698.43848"
       fy="790.43689"
       r="176.26752"
       gradientTransform="matrix(-1.2107569,0,0,-4.6471834,1544.0777,4429.9128)"
       gradientUnits="userSpaceOnUse" />
    <linearGradient
       inkscape:collect="always"
       id="linearGradient5366">
      <stop
         style="stop-color:#333333;stop-opacity:1"
         offset="0"
         id="stop5362" />
      <stop
         style="stop-color:#333333;stop-opacity:1"
         offset="0.75812137"
         id="stop5916" />
      <stop
         style="stop-color:#1a1a1a;stop-opacity:1"
         offset="1"
         id="stop5364" />
    </linearGradient>
    <inkscape:path-effect
       effect="mirror_symmetry"
       start_point="640.00001,445.38282"
       end_point="640.00001,1066.3848"
       center_point="640.00001,755.88382"
       id="path-effect1068"
       is_visible="true"
       lpeversion="1.1"
       mode="free"
       discard_orig_path="false"
       fuse_paths="false"
       oposite_fuse="false"
       split_items="false"
       split_open="false" />
    <inkscape:path-effect
       effect="mirror_symmetry"
       start_point="169.33332,77.865805"
       end_point="169.33332,240.12233"
       center_point="169.33332,158.99407"
       id="path-effect9051"
       is_visible="true"
       lpeversion="1.1"
       mode="free"
       discard_orig_path="false"
       fuse_paths="false"
       oposite_fuse="false"
       split_items="false"
       split_open="false" />
    <inkscape:path-effect
       effect="mirror_symmetry"
       start_point="169.33332,113.22591"
       end_point="169.33332,205.45008"
       center_point="169.33332,159.338"
       id="path-effect9421"
       is_visible="true"
       lpeversion="1.1"
       mode="free"
       discard_orig_path="false"
       fuse_paths="false"
       oposite_fuse="false"
       split_items="false"
       split_open="false" />
    <inkscape:path-effect
       effect="mirror_symmetry"
       start_point="169.33332,176.90686"
       end_point="169.33332,215.10392"
       center_point="169.33332,196.00539"
       id="path-effect9520"
       is_visible="true"
       lpeversion="1.1"
       mode="free"
       discard_orig_path="false"
       fuse_paths="false"
       oposite_fuse="false"
       split_items="false"
       split_open="false" />
    <inkscape:path-effect
       effect="mirror_symmetry"
       start_point="169.33332,229.97892"
       end_point="169.33332,308.78104"
       center_point="169.33332,269.37998"
       id="path-effect3096"
       is_visible="true"
       lpeversion="1.1"
       mode="free"
       discard_orig_path="false"
       fuse_paths="false"
       oposite_fuse="false"
       split_items="false"
       split_open="false" />
    <inkscape:path-effect
       effect="mirror_symmetry"
       start_point="169.33332,235.46059"
       end_point="169.33332,280.45647"
       center_point="169.33332,257.95853"
       id="path-effect4121"
       is_visible="true"
       lpeversion="1.1"
       mode="free"
       discard_orig_path="false"
       fuse_paths="false"
       oposite_fuse="false"
       split_items="false"
       split_open="false" />
    <inkscape:path-effect
       effect="mirror_symmetry"
       start_point="169.33332,115.77261"
       end_point="169.33332,195.8005"
       center_point="169.33332,155.78655"
       id="path-effect12664"
       is_visible="true"
       lpeversion="1.1"
       mode="free"
       discard_orig_path="false"
       fuse_paths="false"
       oposite_fuse="false"
       split_items="false"
       split_open="false" />
    <inkscape:path-effect
       effect="mirror_symmetry"
       start_point="169.33332,115.77261"
       end_point="169.33332,195.8005"
       center_point="169.33332,155.78655"
       id="path-effect13903"
       is_visible="true"
       lpeversion="1.1"
       mode="free"
       discard_orig_path="false"
       fuse_paths="false"
       oposite_fuse="false"
       split_items="false"
       split_open="false" />
    <inkscape:path-effect
       effect="mirror_symmetry"
       start_point="169.33334,184.02044"
       end_point="169.33334,215.96807"
       center_point="169.33334,199.99426"
       id="path-effect11442"
       is_visible="true"
       lpeversion="1.1"
       mode="free"
       discard_orig_path="false"
       fuse_paths="false"
       oposite_fuse="false"
       split_items="false"
       split_open="false" />
    <inkscape:path-effect
       effect="mirror_symmetry"
       start_point="169.33332,176.90686"
       end_point="169.33332,215.10392"
       center_point="169.33332,196.00539"
       id="path-effect11098"
       is_visible="true"
       lpeversion="1.1"
       mode="free"
       discard_orig_path="false"
       fuse_paths="false"
       oposite_fuse="false"
       split_items="false"
       split_open="false" />
    <inkscape:path-effect
       effect="mirror_symmetry"
       start_point="169.33332,77.865805"
       end_point="169.33332,240.12233"
       center_point="169.33332,158.99407"
       id="path-effect971"
       is_visible="true"
       lpeversion="1.1"
       mode="free"
       discard_orig_path="false"
       fuse_paths="false"
       oposite_fuse="false"
       split_items="false"
       split_open="false" />
  </defs>
  <g
     inkscape:label="Reference"
     inkscape:groupmode="layer"
     id="layer1"
     style="display:none"
     sodipodi:insensitive="true">
    <path
       id="rect883"
       style="display:inline;fill:#ff0000;fill-opacity:1;stroke:#0000ff;stroke-width:30;stroke-linecap:round;stroke-linejoin:round;stroke-miterlimit:4;stroke-dasharray:none"
       d="m 584.91602,445.38281 c -63.18591,0 -96.14521,46.13859 -97.94727,139.54492 l -8.22266,426.19137 c -0.61253,31.7497 19.1831,55.2657 50.66993,55.2657 H 640 750.58398 c 31.48683,0 51.28246,-23.516 50.66993,-55.2657 L 793.03125,584.92773 C 791.22919,491.5214 758.26989,445.38281 695.08398,445.38281 H 640 Z"
       transform="scale(0.26458334)" />
  </g>
  <g
     inkscape:groupmode="layer"
     id="layer2"
     inkscape:label="ArmorBase"
     style="display:inline">
    <path
       id="rect883-9"
       style="display:inline;fill:#333333;fill-opacity:1;stroke:#000000;stroke-width:7.9375;stroke-linecap:round;stroke-linejoin:round;stroke-miterlimit:4;stroke-dasharray:none"
       d="m 154.75903,117.84087 c -16.71793,0 -25.43842,12.20751 -25.91521,36.92126 l -2.17558,112.76314 c -0.16207,8.40044 5.07553,14.62238 13.40642,14.62238 h 29.25868 29.25868 c 8.33089,0 13.56848,-6.22194 13.40642,-14.62238 l -2.17558,-112.76314 c -0.4768,-24.71375 -9.19728,-36.92126 -25.91522,-36.92126 h -14.5743 z" />
  </g>
  <g
     inkscape:groupmode="layer"
     id="layer3"
     inkscape:label="ArmorFrills">
    <path
       style="display:inline;fill:#f9f9f9;stroke:#000000;stroke-width:5.29167;stroke-linecap:butt;stroke-linejoin:round;stroke-miterlimit:4;stroke-dasharray:none;stroke-opacity:1"
       d="m 169.33332,228.70088 c -12.51844,0 -23.9818,12.42556 -23.9818,22.57096 0,10.01146 5.21926,20.85525 8.55052,25.81814 0,0 2.38711,5.05767 15.43128,5.05767 m 0,-53.44677 c 12.51844,0 23.9818,12.42556 23.9818,22.57096 0,10.01146 -5.21926,20.85525 -8.55052,25.81814 0,0 -2.38711,5.05767 -15.43128,5.05767"
       id="path1122"
       inkscape:path-effect="#path-effect1157"
       inkscape:original-d="m 169.33332,228.70088 c -12.51844,0 -23.9818,12.42556 -23.9818,22.57096 0,10.01146 5.21926,20.85525 8.55052,25.81814 0,0 2.38711,5.05767 15.43128,5.05767"
       sodipodi:nodetypes="cscc"
       transform="translate(-2.3e-6,2.4742494)" />
    <path
       style="display:inline;opacity:0.25;fill:#000000"
       d="m 169.33332,242.29784 c -9.27089,0 -19.76675,13.30375 -19.76675,26.24213 5.27124,11.56352 12.34357,13.52118 19.76675,13.60768 m 0,-39.84981 c 9.27089,0 19.76675,13.30375 19.76675,26.24213 -5.27124,11.56352 -12.34357,13.52118 -19.76675,13.60768"
       id="path2750"
       sodipodi:nodetypes="ccc"
       inkscape:path-effect="#path-effect3215"
       inkscape:original-d="m 169.33332,242.29784 c -9.27089,0 -19.76675,13.30375 -19.76675,26.24213 5.27124,11.56352 12.34357,13.52118 19.76675,13.60768"
       transform="translate(-2.3e-6,2.4742494)" />
    <path
       style="display:inline;fill:#cccccc;stroke:#000000;stroke-width:3.96875;stroke-linecap:butt;stroke-linejoin:round;stroke-miterlimit:4;stroke-dasharray:none;stroke-opacity:1"
       d="M 138.06427,283.96666 V 239.80587 L 118.7012,212.43955 c -2.85982,-4.75467 -11.75609,-0.70064 -9.99631,4.23396 l 24.20412,65.47414 z m 62.5381,0 v -44.16079 l 19.36307,-27.36632 c 2.85982,-4.75467 11.75609,-0.70064 9.99631,4.23396 l -24.20412,65.47414 z"
       id="path4159"
       inkscape:path-effect="#path-effect4227"
       inkscape:original-d="M 138.06427,283.96666 V 239.80587 L 118.7012,212.43955 c -2.85982,-4.75467 -11.75609,-0.70064 -9.99631,4.23396 l 24.20412,65.47414 z"
       sodipodi:nodetypes="cccccc" />
    <path
       style="display:inline;fill:#f9f9f9;stroke:#000000;stroke-width:3.96875;stroke-linecap:butt;stroke-linejoin:round;stroke-miterlimit:4;stroke-dasharray:none;stroke-opacity:1"
       d="m 136.46918,77.172759 -5.0872,122.419311 c 0,0 -24.04713,-5.31928 -22.3088,-30.25875 l 11.28295,-81.927324 z m 65.72828,0 5.0872,122.419311 c 0,0 24.04713,-5.31928 22.3088,-30.25875 L 218.31051,87.405996 Z"
       id="path8089"
       sodipodi:nodetypes="ccccc"
       inkscape:path-effect="#path-effect8555"
       inkscape:original-d="m 136.46918,77.172759 -5.0872,122.419311 c 0,0 -24.04713,-5.31928 -22.3088,-30.25875 l 11.28295,-81.927324 z" />
    <path
       style="display:inline;fill:#f9f9f9;stroke:#000000;stroke-width:3.96875;stroke-linecap:butt;stroke-linejoin:round;stroke-miterlimit:4;stroke-dasharray:none;stroke-opacity:1"
       d="m 169.33332,218.44151 c -20.74942,0 -26.15809,17.10524 -26.15809,19.14047 0,0 -21.2633,-20.02271 -21.2633,-58.16192 v -20.88772 c 0,-5.97522 1.38984,-40.46651 47.42139,-40.46651 m 0,100.37568 c 20.74942,0 26.15809,17.10524 26.15809,19.14047 0,0 21.2633,-20.02271 21.2633,-58.16192 v -20.88772 c 0,-5.97522 -1.38984,-40.46651 -47.42139,-40.46651"
       id="path4853"
       sodipodi:nodetypes="ccccc"
       inkscape:path-effect="#path-effect7018"
       inkscape:original-d="m 169.33332,218.44151 c -20.74942,0 -26.15809,17.10524 -26.15809,19.14047 0,0 -21.2633,-20.02271 -21.2633,-58.16192 v -20.88772 c 0,-5.97522 1.38984,-40.46651 47.42139,-40.46651" />
    <path
       style="display:inline;fill:#b3b3b3;stroke:#000000;stroke-width:1.32292;stroke-linecap:round;stroke-linejoin:round;stroke-miterlimit:4;stroke-dasharray:none;stroke-opacity:1"
       d="m 169.33332,115.44308 c -28.18615,0 -46.06905,18.84216 -46.06905,42.06027 v 21.77325 h 25.27697 l 20.79208,17.61646 m 0,-81.44998 c 28.18615,0 46.06905,18.84216 46.06905,42.06027 V 179.2766 H 190.1254 l -20.79208,17.61646"
       id="path10286"
       inkscape:path-effect="#path-effect10519"
       inkscape:original-d="m 169.33332,115.44308 c -28.18615,0 -46.06905,18.84216 -46.06905,42.06027 v 21.77325 h 25.27697 l 20.79208,17.61646"
       sodipodi:nodetypes="ccccc" />
    <path
       style="display:inline;fill:#333333;stroke:#000000;stroke-width:1.32292;stroke-linecap:round;stroke-linejoin:round;stroke-miterlimit:4;stroke-dasharray:none;stroke-opacity:1"
       d="m 169.33332,116.48836 c -28.18615,0 -46.06905,19.02941 -46.06905,42.24752 v 20.54072 h 25.27697 l 20.79208,16.91492 m 0,-79.70316 c 28.18615,0 46.06905,19.02941 46.06905,42.24752 V 179.2766 H 190.1254 l -20.79208,16.91492"
       id="path10286-3"
       inkscape:path-effect="#path-effect12669"
       inkscape:original-d="m 169.33332,116.48836 c -28.18615,0 -46.06905,19.02941 -46.06905,42.24752 v 20.54072 h 25.27697 l 20.79208,16.91492"
       sodipodi:nodetypes="ccccc"
       transform="matrix(0.75469319,0,0,0.75469319,41.538613,31.212199)" />
    <path
       style="display:inline;opacity:0.25;fill:#000000"
       d="m 169.3333,265.69413 c -25.55704,0 -32.11121,11.49445 -26.15809,34.11633 0.52917,-7.47448 12.4659,-19.14047 26.15809,-19.14047 m 4e-5,-14.97586 c 25.55704,0 32.11121,11.49445 26.15809,34.11633 -0.52917,-7.47448 -12.4659,-19.14047 -26.15809,-19.14047"
       id="path2750-7"
       sodipodi:nodetypes="ccc"
       inkscape:path-effect="#path-effect11225"
       inkscape:original-d="m 169.3333,265.69413 c -25.55704,0 -32.11121,11.49445 -26.15809,34.11633 0.52917,-7.47448 12.4659,-19.14047 26.15809,-19.14047"
       transform="translate(1.74e-5,-62.228481)" />
    <path
       style="color:#000000;display:inline;fill:#000000;stroke-linecap:round;stroke-linejoin:round;-inkscape-stroke:none"
       d="m 169.33398,111.00209 c -23.67659,0 -37.82852,12.89067 -44.38008,22.95168 -6.55156,10.06102 -6.87891,20.72523 -6.8789,23.91797 v 20.88672 c 0,39.12257 21.2538,59.92419 21.2538,59.92419 1.06356,1.00214 3.92879,1.61375 4.93086,0.55013 1.00162,-1.06409 0.9509,-2.73871 -0.11328,-3.74023 0,0 -19.58779,-18.91686 -19.58779,-56.07263 V 158.5332 c 0,-2.78246 0.3683,-12.35283 6.01953,-21.03125 5.65124,-8.67841 17.1947,-21.20884 38.75586,-21.20884 m 0,-5.29102 c 23.67659,0 37.82852,12.89067 44.38008,22.95168 6.55156,10.06102 6.87891,20.72523 6.8789,23.91797 v 20.88672 c 0,39.12257 -21.2538,59.92419 -21.2538,59.92419 -1.06356,1.00214 -3.92879,1.61375 -4.93086,0.55013 -1.00162,-1.06409 -0.9509,-2.73871 0.11328,-3.74023 0,0 19.58779,-18.91686 19.58779,-56.07263 V 158.5332 c 0,-2.78246 -0.3683,-12.35283 -6.01953,-21.03125 -5.65124,-8.67841 -17.1947,-21.20884 -38.75586,-21.20884"
       id="path4853-0"
       sodipodi:nodetypes="cscscccsssc"
       inkscape:path-effect="#path-effect13969"
       inkscape:original-d="m 169.33398,111.00209 c -23.67659,0 -37.82852,12.89067 -44.38008,22.95168 -6.55156,10.06102 -6.87891,20.72523 -6.8789,23.91797 v 20.88672 c 0,39.12257 21.2538,59.92419 21.2538,59.92419 1.06356,1.00214 3.92879,1.61375 4.93086,0.55013 1.00162,-1.06409 0.9509,-2.73871 -0.11328,-3.74023 0,0 -19.58779,-18.91686 -19.58779,-56.07263 V 158.5332 c 0,-2.78246 0.3683,-12.35283 6.01953,-21.03125 5.65124,-8.67841 17.1947,-21.20884 38.75586,-21.20884"
       transform="translate(-6.623e-4,0.46310045)" />
    <path
       style="color:#000000;fill:#000000;stroke-linecap:round;stroke-linejoin:round;-inkscape-stroke:none"
       d="m 169.33132,284.3303 c -5.9219,0 -9.04847,-1.12453 -10.57812,-1.9746 -0.629,-0.34976 -1.34125,-0.52192 -2.06055,-0.49805 l -20.52347,-1.57968 -2.88109,-1.99299 -22.12669,-59.07125 c -0.93267,-3.51609 4.0788,-6.29124 6.66003,-2.31517 l 8.2099,11.48549 5.42694,-1.82657 0.10547,-5.52148 c 0.0116,-0.59 -0.1085,-1.17516 -0.35156,-1.71289 -2.89441,-6.40115 -5.54529,-14.3748 -6.94336,-23.90235 -0.15593,-1.06269 -0.73587,-2.01682 -1.60742,-2.64453 -5.28468,-3.80346 -10.41701,-9.84888 -9.63086,-21.47656 l 9.97687,-80.284345 11.28613,-6.206718 -1.96619,44.957033 4.67785,1.86236 c -0.0319,-0.37167 16.7588,-14.94381 32.32812,-12.53197 v -7.28269 c -14.74303,-0.0935 -21.25932,3.60451 -28.98281,7.98959 l 1.33919,-40.913165 c 0.0829,-2.008017 -1.34808,-3.761149 -3.33203,-4.082032 -0.95911,-0.154929 -1.94173,0.04729 -2.76172,0.56836 l -18.67772,9.643758 c -0.98517,0.62539 -1.64523,1.65262 -1.80468,2.80859 l -10.16068,84.172809 c -0.0121,0.0882 -0.0212,0.1768 -0.0273,0.26562 -0.9344,13.40566 5.20621,22.21318 11.57032,27.33985 0.40965,2.33026 1.28744,5.1999 2.535,9.20597 -4.52451,-4.5285 -18.18574,0.6966 -15.07161,12.53933 l 20.60137,57.84951 c 2.27893,3.97767 6.49549,9.19108 13.93954,9.18349 l 14.68331,0.0969 c 2.94518,1.36222 10.05901,3.78581 16.14791,3.78581 z m 0.004,0 c 5.9219,0 9.04847,-1.12453 10.57812,-1.9746 0.629,-0.34976 1.34125,-0.52192 2.06055,-0.49805 l 20.52347,-1.57968 2.88109,-1.99299 22.12669,-59.07125 c 0.93267,-3.51609 -4.0788,-6.29124 -6.66003,-2.31517 l -8.2099,11.48549 -5.42694,-1.82657 -0.10547,-5.52148 c -0.0116,-0.59 0.1085,-1.17516 0.35156,-1.71289 2.89441,-6.40115 5.54529,-14.3748 6.94336,-23.90235 0.15593,-1.06269 0.73587,-2.01682 1.60742,-2.64453 5.28468,-3.80346 10.41701,-9.84888 9.63086,-21.47656 l -9.97687,-80.284345 -11.28613,-6.206718 1.96619,44.957033 -4.67785,1.86236 c 0.0319,-0.37167 -16.7588,-14.94381 -32.32812,-12.53197 v -7.28269 c 14.74303,-0.0935 21.25932,3.60451 28.98281,7.98959 l -1.33919,-40.913165 c -0.0829,-2.008017 1.34808,-3.761149 3.33203,-4.082032 0.95911,-0.154929 1.94173,0.04729 2.76172,0.56836 l 18.67772,9.643758 c 0.98517,0.62539 1.64523,1.65262 1.80468,2.80859 l 10.16068,84.172809 c 0.0121,0.0882 0.0212,0.1768 0.0273,0.26562 0.9344,13.40566 -5.20621,22.21318 -11.57032,27.33985 -0.40965,2.33026 -1.28744,5.1999 -2.535,9.20597 4.52451,-4.5285 18.18574,0.6966 15.07161,12.53933 l -20.60137,57.84951 c -2.27893,3.97767 -6.49549,9.19108 -13.93954,9.18349 l -14.68331,0.0969 c -2.94518,1.36222 -10.05901,3.78581 -16.14791,3.78581 z"
       id="rect883-9-5"
       sodipodi:nodetypes="cccccccccccscccccccccccccccccccccccc"
       inkscape:path-effect="#path-effect16875"
       inkscape:original-d="m 169.33132,284.3303 c -5.9219,0 -9.04847,-1.12453 -10.57812,-1.9746 -0.629,-0.34976 -1.34125,-0.52192 -2.06055,-0.49805 l -20.52347,-1.57968 -2.88109,-1.99299 -22.12669,-59.07125 c -0.93267,-3.51609 4.0788,-6.29124 6.66003,-2.31517 l 8.2099,11.48549 5.42694,-1.82657 0.10547,-5.52148 c 0.0116,-0.59 -0.1085,-1.17516 -0.35156,-1.71289 -2.89441,-6.40115 -5.54529,-14.3748 -6.94336,-23.90235 -0.15593,-1.06269 -0.73587,-2.01682 -1.60742,-2.64453 -5.28468,-3.80346 -10.41701,-9.84888 -9.63086,-21.47656 l 9.97687,-80.284345 11.28613,-6.206718 -1.96619,44.957033 4.67785,1.86236 c -0.0319,-0.37167 16.7588,-14.94381 32.32812,-12.53197 v -7.28269 c -14.74303,-0.0935 -21.25932,3.60451 -28.98281,7.98959 l 1.33919,-40.913165 c 0.0829,-2.008017 -1.34808,-3.761149 -3.33203,-4.082032 -0.95911,-0.154929 -1.94173,0.04729 -2.76172,0.56836 l -18.67772,9.643758 c -0.98517,0.62539 -1.64523,1.65262 -1.80468,2.80859 l -10.16068,84.172809 c -0.0121,0.0882 -0.0212,0.1768 -0.0273,0.26562 -0.9344,13.40566 5.20621,22.21318 11.57032,27.33985 0.40965,2.33026 1.28744,5.1999 2.535,9.20597 -4.52451,-4.5285 -18.18574,0.6966 -15.07161,12.53933 l 20.60137,57.84951 c 2.27893,3.97767 6.49549,9.19108 13.93954,9.18349 l 14.68331,0.0969 c 2.94518,1.36222 10.05901,3.78581 16.14791,3.78581 z"
       transform="translate(-2.3e-6,-2.3398193)" />
  </g>
  <g
     inkscape:groupmode="layer"
     id="layer4"
     inkscape:label="Sample"
     style="display:none"
     sodipodi:insensitive="true">
    <path
       id="rect883-2"
       style="display:inline;fill:url(#radialGradient5368);fill-opacity:1;stroke:#000000;stroke-width:30;stroke-linecap:round;stroke-linejoin:round;stroke-miterlimit:4;stroke-dasharray:none"
       d="m 640,445.38281 h -55.08398 c -63.18588,0 -96.14523,46.13859 -97.94727,139.54492 l -8.22266,426.19137 c -0.61254,31.7498 19.1831,55.2657 50.66993,55.2657 H 640 m 2e-5,-621.00199 H 695.084 c 63.18588,0 96.14523,46.13859 97.94727,139.54492 l 8.22266,426.19137 c 0.61254,31.7498 -19.1831,55.2657 -50.66993,55.2657 H 640.00002"
       transform="matrix(0.26458334,0,0,0.26458334,160.36994,0)"
       sodipodi:nodetypes="csccsc"
       inkscape:path-effect="#path-effect1068"
       inkscape:original-d="m 640,445.38281 h -55.08398 c -63.18588,0 -96.14523,46.13859 -97.94727,139.54492 l -8.22266,426.19137 c -0.61254,31.7498 19.1831,55.2657 50.66993,55.2657 H 640" />
    <path
       style="display:inline;fill:#333333;stroke:#000000;stroke-width:7.9375;stroke-linecap:butt;stroke-linejoin:miter;stroke-miterlimit:4;stroke-dasharray:none;stroke-opacity:1"
       d="m 169.33332,113.22591 c -42.98819,0 -43.50276,16.21432 -43.50276,16.21432 -3.25704,8.09921 -7.92687,10.89458 -11.67406,12.3994 l -9.63852,47.44608 38.12946,25.81821 h 17.25282 c 0,0 2.08284,-6.45856 9.43306,-6.45856 m 0,-95.41945 c 42.98819,0 43.50276,16.21432 43.50276,16.21432 3.25704,8.09921 7.92687,10.89458 11.67406,12.3994 l 9.63852,47.44608 -38.12946,25.81821 h -17.25282 c 0,0 -2.08284,-6.45856 -9.43306,-6.45856"
       id="path969-5"
       inkscape:path-effect="#path-effect9051"
       inkscape:original-d="m 169.33332,113.22591 c -42.98819,0 -43.50276,16.21432 -43.50276,16.21432 -3.25704,8.09921 -7.92687,10.89458 -11.67406,12.3994 l -9.63852,47.44608 38.12946,25.81821 h 17.25282 c 0,0 2.08284,-6.45856 9.43306,-6.45856"
       sodipodi:nodetypes="ccccccc"
       transform="translate(160.36995)" />
    <path
       style="display:inline;fill:#f9f9f9;stroke:#000000;stroke-width:2.64583;stroke-linecap:butt;stroke-linejoin:miter;stroke-miterlimit:4;stroke-dasharray:none;stroke-opacity:1"
       d="m 169.33332,128.35531 -48.45634,51.94039 2.04921,22.46232 -18.40821,-13.47231 9.63852,-47.44608 11.67406,-12.3994 c 17.46389,-19.23198 29.53266,-13.2867 43.50276,-16.21432 m 0,15.1294 48.45634,51.94039 -2.04921,22.46232 18.40821,-13.47231 -9.63852,-47.44608 -11.67406,-12.3994 c -17.46389,-19.23198 -29.53266,-13.2867 -43.50276,-16.21432"
       id="path8617"
       sodipodi:nodetypes="ccccccc"
       inkscape:path-effect="#path-effect9421"
       inkscape:original-d="m 169.33332,128.35531 -48.45634,51.94039 2.04921,22.46232 -18.40821,-13.47231 9.63852,-47.44608 11.67406,-12.3994 c 17.46389,-19.23198 29.53266,-13.2867 43.50276,-16.21432"
       transform="translate(160.36995)" />
    <path
       style="display:inline;fill:#f9f9f9;stroke:#000000;stroke-width:2.64583;stroke-linecap:butt;stroke-linejoin:miter;stroke-miterlimit:4;stroke-dasharray:none;stroke-opacity:1"
       d="m 169.33332,185.07919 c -17.99993,0 -27.90398,-8.17233 -27.90398,-8.17233 h -7.30702 l -5.96099,6.24943 1.24989,23.26709 13.23622,8.68054 h 17.25282 l 9.43306,-6.45856 m 0,-23.56617 c 17.99993,0 27.90398,-8.17233 27.90398,-8.17233 h 7.30702 l 5.96099,6.24943 -1.24989,23.26709 -13.23622,8.68054 h -17.25282 l -9.43306,-6.45856"
       id="path9485"
       inkscape:path-effect="#path-effect9520"
       inkscape:original-d="m 169.33332,185.07919 c -17.99993,0 -27.90398,-8.17233 -27.90398,-8.17233 h -7.30702 l -5.96099,6.24943 1.24989,23.26709 13.23622,8.68054 h 17.25282 l 9.43306,-6.45856"
       sodipodi:nodetypes="cccccccc"
       transform="translate(160.36995)" />
    <path
       style="display:inline;fill:#f9f9f9;stroke:#000000;stroke-width:7.9375;stroke-linecap:butt;stroke-linejoin:miter;stroke-miterlimit:4;stroke-dasharray:none;stroke-opacity:1"
       d="m 169.33332,235.74279 c -6.97309,0 -9.43306,-5.76387 -9.43306,-5.76387 h -10.72417 l 11.19383,55.95922 h 8.9634 m 0,-50.19535 c 6.97309,0 9.43306,-5.76387 9.43306,-5.76387 h 10.72417 l -11.19383,55.95922 h -8.9634"
       id="path3094"
       inkscape:path-effect="#path-effect3096"
       inkscape:original-d="m 169.33332,235.74279 c -6.97309,0 -9.43306,-5.76387 -9.43306,-5.76387 h -10.72417 l 11.19383,55.95922 h 8.9634"
       sodipodi:nodetypes="ccccc"
       transform="translate(160.36995)" />
    <path
       style="display:inline;fill:#cccccc;stroke:#000000;stroke-width:7.9375;stroke-linecap:butt;stroke-linejoin:miter;stroke-miterlimit:4;stroke-dasharray:none;stroke-opacity:1"
       d="m 136.22502,236.26983 9.34657,46.24928 -21.55982,-5.46142 -3.01066,-53.6753 z m 66.2166,0 -9.34657,46.24928 21.55982,-5.46142 3.01066,-53.6753 z"
       id="path4086"
       inkscape:path-effect="#path-effect4121"
       inkscape:original-d="m 136.22502,236.26983 9.34657,46.24928 -21.55982,-5.46142 -3.01066,-53.6753 z"
       sodipodi:nodetypes="ccccc"
       transform="translate(160.36995)" />
    <path
       style="display:inline;fill:#cccccc;stroke:#000000;stroke-width:1.32292;stroke-linecap:square;stroke-linejoin:round;stroke-miterlimit:4;stroke-dasharray:none;stroke-opacity:1"
       d="m 169.33332,125.88266 c -27.89571,0 -36.15244,15.98958 -36.15244,27.78638 0,11.7968 11.73132,27.11198 36.15244,27.11198 m 0,-54.89836 c 27.89571,0 36.15244,15.98958 36.15244,27.78638 0,11.7968 -11.73132,27.11198 -36.15244,27.11198"
       id="path12629"
       inkscape:path-effect="#path-effect12664"
       inkscape:original-d="m 169.33332,125.88266 c -27.89571,0 -36.15244,15.98958 -36.15244,27.78638 0,11.7968 11.73132,27.11198 36.15244,27.11198"
       sodipodi:nodetypes="czc"
       transform="translate(160.36994,-1.93947)" />
    <path
       style="display:inline;fill:#333333;stroke:#000000;stroke-width:1.32292;stroke-linecap:square;stroke-linejoin:round;stroke-miterlimit:4;stroke-dasharray:none;stroke-opacity:1"
       d="m 169.33332,125.88266 c -20.22146,0 -31.56261,13.60182 -31.56261,25.39242 0,11.7906 13.79101,22.20905 31.56261,22.20905 m 0,-47.60147 c 20.22146,0 31.56261,13.60182 31.56261,25.39242 0,11.7906 -13.79101,22.20905 -31.56261,22.20905"
       id="path12629-0"
       inkscape:path-effect="#path-effect13903"
       inkscape:original-d="m 169.33332,125.88266 c -20.22146,0 -31.56261,13.60182 -31.56261,25.39242 0,11.7906 13.79101,22.20905 31.56261,22.20905"
       sodipodi:nodetypes="czc"
       transform="translate(160.36994,-1.93947)" />
    <path
       style="display:inline;fill:#cccccc;stroke:#000000;stroke-width:0;stroke-linecap:butt;stroke-linejoin:miter;stroke-miterlimit:4;stroke-dasharray:none;stroke-opacity:1"
       d="m 142.64744,215.10392 -1.14973,-24.31039 -13.33638,-7.63724 1.24989,23.26709 m 66.60802,8.68054 1.14973,-24.31039 13.33638,-7.63724 -1.24989,23.26709"
       id="path10957"
       sodipodi:nodetypes="cccc"
       inkscape:path-effect="#path-effect11442"
       inkscape:original-d="m 142.64744,215.10392 -1.14973,-24.31039 -13.33638,-7.63724 1.24989,23.26709"
       transform="translate(160.36995)" />
    <path
       style="display:inline;fill:none;stroke:#000000;stroke-width:2.64583;stroke-linecap:butt;stroke-linejoin:miter;stroke-miterlimit:4;stroke-dasharray:none;stroke-opacity:1"
       d="m 169.33332,185.07919 c -17.99993,0 -27.90398,-8.17233 -27.90398,-8.17233 h -7.30702 l -5.96099,6.24943 1.53833,25.47843 12.94778,6.4692 h 17.25282 l 9.43306,-6.45856 m 0,-23.56617 c 17.99993,0 27.90398,-8.17233 27.90398,-8.17233 h 7.30702 l 5.96099,6.24943 -1.53833,25.47843 -12.94778,6.4692 h -17.25282 l -9.43306,-6.45856"
       id="path9485-9"
       inkscape:path-effect="#path-effect11098"
       inkscape:original-d="m 169.33332,185.07919 c -17.99993,0 -27.90398,-8.17233 -27.90398,-8.17233 h -7.30702 l -5.96099,6.24943 1.53833,25.47843 12.94778,6.4692 h 17.25282 l 9.43306,-6.45856"
       sodipodi:nodetypes="cccccccc"
       transform="translate(160.36995)" />
    <path
       style="display:inline;fill:none;stroke:#000000;stroke-width:7.9375;stroke-linecap:butt;stroke-linejoin:miter;stroke-miterlimit:4;stroke-dasharray:none;stroke-opacity:1"
       d="m 169.33332,113.22591 c -42.98819,0 -43.50276,16.21432 -43.50276,16.21432 -3.25704,8.09921 -7.92687,10.89458 -11.67406,12.3994 l -9.63852,47.44608 38.12946,25.81821 h 17.25282 c 0,0 2.08284,-6.45856 9.43306,-6.45856 m 0,-95.41945 c 42.98819,0 43.50276,16.21432 43.50276,16.21432 3.25704,8.09921 7.92687,10.89458 11.67406,12.3994 l 9.63852,47.44608 -38.12946,25.81821 h -17.25282 c 0,0 -2.08284,-6.45856 -9.43306,-6.45856"
       id="path969"
       sodipodi:nodetypes="ccccccc"
       inkscape:original-d="m 169.33332,113.22591 c -42.98819,0 -43.50276,16.21432 -43.50276,16.21432 -3.25704,8.09921 -7.92687,10.89458 -11.67406,12.3994 l -9.63852,47.44608 38.12946,25.81821 h 17.25282 c 0,0 2.08284,-6.45856 9.43306,-6.45856"
       inkscape:path-effect="#path-effect971"
       transform="translate(160.36995)" />
  </g>
</svg>
