<?xml version="1.0" encoding="UTF-8" standalone="no"?>
<!-- Created with Inkscape (http://www.inkscape.org/) -->

<svg
   width="1280"
   height="1280"
   viewBox="0 0 338.66666 338.66668"
   version="1.1"
   id="svg5"
   inkscape:version="1.1 (c68e22c387, 2021-05-23)"
   sodipodi:docname="ShirtRuffle_Male_south.svg"
   inkscape:export-filename="C:\Program Files (x86)\Steam\steamapps\common\RimWorld\Mods\Madness Pawns\Textures\Things\Pawn\Humanlike\Apparel\ShirtRuffle\ShirtRuffle_Male_south.png"
   inkscape:export-xdpi="19.200001"
   inkscape:export-ydpi="19.200001"
   xmlns:inkscape="http://www.inkscape.org/namespaces/inkscape"
   xmlns:sodipodi="http://sodipodi.sourceforge.net/DTD/sodipodi-0.dtd"
   xmlns:xlink="http://www.w3.org/1999/xlink"
   xmlns="http://www.w3.org/2000/svg"
   xmlns:svg="http://www.w3.org/2000/svg">
  <sodipodi:namedview
     id="namedview7"
     pagecolor="#ffffff"
     bordercolor="#111111"
     borderopacity="1"
     inkscape:pageshadow="0"
     inkscape:pageopacity="0"
     inkscape:pagecheckerboard="1"
     inkscape:document-units="px"
     showgrid="false"
     showguides="true"
     units="px"
     inkscape:snap-bbox="false"
     inkscape:snap-object-midpoints="true"
     inkscape:bbox-paths="false"
     inkscape:bbox-nodes="false"
     inkscape:snap-bbox-midpoints="true"
     inkscape:snap-page="true"
     inkscape:zoom="1.7787299"
     inkscape:cx="656.36722"
     inkscape:cy="972.8852"
     inkscape:window-width="1920"
     inkscape:window-height="1017"
     inkscape:window-x="-8"
     inkscape:window-y="-8"
     inkscape:window-maximized="1"
     inkscape:current-layer="layer1"
     inkscape:guide-bbox="true"
     inkscape:object-paths="false"
     inkscape:snap-smooth-nodes="true">
    <sodipodi:guide
       position="169.33332,169.33335"
       orientation="0,-1"
       id="guide989" />
    <sodipodi:guide
       position="169.33332,169.33336"
       orientation="1,0"
       id="guide991" />
  </sodipodi:namedview>
  <defs
     id="defs2">
    <linearGradient
       inkscape:collect="always"
       id="linearGradient1016">
      <stop
         style="stop-color:#f2f2f2;stop-opacity:1"
         offset="0"
         id="stop1010" />
      <stop
         style="stop-color:#f9f9f9;stop-opacity:1"
         offset="0.78469104"
         id="stop1012" />
      <stop
         style="stop-color:#b3b3b3;stop-opacity:1"
         offset="1"
         id="stop1014" />
    </linearGradient>
    <linearGradient
       inkscape:collect="always"
       id="linearGradient12935">
      <stop
         style="stop-color:#666666;stop-opacity:1"
         offset="0"
         id="stop12931" />
      <stop
         style="stop-color:#f9f9f9;stop-opacity:1"
         offset="1"
         id="stop12933" />
    </linearGradient>
    <inkscape:path-effect
       effect="mirror_symmetry"
       start_point="169.33334,146.99177"
       end_point="169.33334,280.15097"
       center_point="169.33334,213.57137"
       id="path-effect11708"
       is_visible="true"
       lpeversion="1.1"
       mode="free"
       discard_orig_path="false"
       fuse_paths="false"
       oposite_fuse="false"
       split_items="false"
       split_open="false" />
    <inkscape:path-effect
       effect="mirror_symmetry"
       start_point="169.33334,200.36418"
       end_point="169.33334,228.47764"
       center_point="169.33334,214.42091"
       id="path-effect9570"
       is_visible="true"
       lpeversion="1.1"
       mode="free"
       discard_orig_path="false"
       fuse_paths="false"
       oposite_fuse="false"
       split_items="false"
       split_open="false" />
    <inkscape:path-effect
       effect="mirror_symmetry"
       start_point="169.33332,136.20946"
       end_point="169.33332,169.86739"
       center_point="169.33332,153.03842"
       id="path-effect9069"
       is_visible="true"
       lpeversion="1.1"
       mode="free"
       discard_orig_path="false"
       fuse_paths="false"
       oposite_fuse="false"
       split_items="false"
       split_open="false" />
    <inkscape:path-effect
       effect="mirror_symmetry"
       start_point="169.33332,119.49622"
       end_point="169.33332,159.35865"
       center_point="169.33332,139.42744"
       id="path-effect2640"
       is_visible="true"
       lpeversion="1.1"
       mode="free"
       discard_orig_path="false"
       fuse_paths="false"
       oposite_fuse="false"
       split_items="false"
       split_open="false" />
    <inkscape:path-effect
       effect="mirror_symmetry"
       start_point="169.33332,119.56717"
       end_point="169.33332,168.78259"
       center_point="169.33332,144.17488"
       id="path-effect2469"
       is_visible="true"
       lpeversion="1.1"
       mode="free"
       discard_orig_path="false"
       fuse_paths="false"
       oposite_fuse="false"
       split_items="false"
       split_open="false" />
    <linearGradient
       inkscape:collect="always"
       id="linearGradient3836-4">
      <stop
         style="stop-color:#f2f2f2;stop-opacity:1"
         offset="0"
         id="stop3832" />
      <stop
         style="stop-color:#f9f9f9;stop-opacity:1"
         offset="0.78469104"
         id="stop4186" />
      <stop
         style="stop-color:#b3b3b3;stop-opacity:1"
         offset="1"
         id="stop3834" />
    </linearGradient>
    <inkscape:path-effect
       effect="mirror_symmetry"
       start_point="640.00001,475.3086"
       end_point="640.00001,1047.4492"
       center_point="640.00001,761.37891"
       id="path-effect1473"
       is_visible="true"
       lpeversion="1.1"
       mode="free"
       discard_orig_path="false"
       fuse_paths="false"
       oposite_fuse="false"
       split_items="false"
       split_open="false" />
    <radialGradient
       inkscape:collect="always"
       xlink:href="#linearGradient3836-4"
       id="radialGradient3954"
       cx="704.68213"
       cy="778.31689"
       fx="704.68213"
       fy="778.31689"
       r="176.26749"
       gradientTransform="matrix(-1.0314036,0,0,-5.2110663,1431.4939,4853.1705)"
       gradientUnits="userSpaceOnUse" />
    <radialGradient
       inkscape:collect="always"
       xlink:href="#linearGradient1016"
       id="radialGradient3954-1-9-6"
       cx="704.68213"
       cy="778.31689"
       fx="704.68213"
       fy="778.31689"
       r="176.26749"
       gradientTransform="matrix(-1.0314036,0,0,-5.2110667,1431.238,4852.0908)"
       gradientUnits="userSpaceOnUse" />
    <radialGradient
       inkscape:collect="always"
       xlink:href="#linearGradient12935"
       id="radialGradient12937"
       cx="169.36853"
       cy="194.90286"
       fx="169.36853"
       fy="194.90286"
       r="23.328806"
       gradientTransform="matrix(0.74751674,0,0,0.59448582,42.753826,86.606217)"
       gradientUnits="userSpaceOnUse" />
  </defs>
  <g
     inkscape:groupmode="layer"
     id="layer2"
     inkscape:label="Body"
     style="display:none"
     sodipodi:insensitive="true">
    <path
       id="rect883"
       style="fill:url(#radialGradient3954);fill-opacity:1;stroke:#000000;stroke-width:30;stroke-linecap:round;stroke-linejoin:round;stroke-miterlimit:4;stroke-dasharray:none"
       d="m 584.91602,445.38281 c -63.18591,0 -96.14521,46.13859 -97.94727,139.54492 l -8.22266,426.19137 c -0.61253,31.7497 19.1831,55.2657 50.66993,55.2657 H 640 750.58398 c 31.48683,0 51.28246,-23.516 50.66993,-55.2657 L 793.03125,584.92773 C 791.22919,491.5214 758.26989,445.38281 695.08398,445.38281 H 640 Z"
       transform="scale(0.26458334)" />
  </g>
  <g
     inkscape:groupmode="layer"
     id="layer1"
     inkscape:label="Shirt"
     style="display:inline">
    <g
       id="g1924"
       transform="translate(99.988697,-21.601419)">
      <path
         id="rect883-7-6-0"
         style="display:inline;fill:url(#radialGradient3954-1-9-6);fill-opacity:1;stroke:#000000;stroke-width:0;stroke-linecap:round;stroke-linejoin:round;stroke-miterlimit:4;stroke-dasharray:none"
         d="m 640.41992,453.30664 c -50.89695,0.0703 -90.69661,7.0343 -131.58398,30.64063 -14.33065,23.118 -22.05317,56.28948 -22.89453,99.90039 l -8.22266,481.45704 h 161.25391 c 55.19036,0.8268 78.53118,0 163.30859,0 l -9.50586,-481.45704 c -0.83611,-43.33754 -8.63334,-76.36678 -22.96875,-99.4668 -44.75178,-25.83746 -79.42825,-31.17014 -129.38672,-31.07422 z m -0.41999,25.10077 c 43.5397,0.34655 89.38466,37.94683 89.38466,67.13918 -0.85852,71.91625 -87.04283,98.89091 -89.38459,98.89091 -2.34176,0 -88.52625,-24.53734 -89.38477,-96.45359 -3.79821,-34.61837 42.22343,-74.40362 89.3847,-69.5765 z"
         transform="matrix(0.26458334,0,0,0.26458334,-99.988697,21.601419)"
         sodipodi:nodetypes="cccccccccccscc" />
      <path
         id="rect883-7"
         style="display:inline;fill:none;fill-opacity:1;stroke:#000000;stroke-width:7.9375;stroke-linecap:round;stroke-linejoin:round;stroke-miterlimit:4;stroke-dasharray:none"
         d="m 54.498256,139.15649 c -16.71794,0 -25.43842,12.2075 -25.91521,36.92126 l -2.17558,127.38552 h 42.6651 c 14.60245,0.21877 20.77828,0 43.208974,0 l -2.51515,-127.38552 c -0.47679,-24.71376 -9.40158,-36.92126 -26.119524,-36.92126 h -14.5743 z"
         sodipodi:nodetypes="scccccscs" />
    </g>
    <path
       style="fill:none;stroke:#666666;stroke-width:1.05296;stroke-linecap:butt;stroke-linejoin:miter;stroke-miterlimit:4;stroke-dasharray:none;stroke-opacity:1"
       d="M 169.33332,170.50736 V 277.90707"
       id="path3514"
       sodipodi:nodetypes="cc" />
    <path
       style="fill:url(#radialGradient12937);stroke:#666666;stroke-width:1.32292;stroke-linecap:butt;stroke-linejoin:round;stroke-miterlimit:4;stroke-dasharray:none;stroke-opacity:1;fill-opacity:1"
       d="m 169.33334,200.94808 -18.5024,-0.5839 c 0,0 0.17004,9.86763 -1.93372,14.13111 -1.86513,3.77985 -1.65721,6.56552 -2.23124,9.89177 0,0 4.5188,-0.3974 7.12562,-0.3974 2.60683,0 4.71508,2.57031 6.43911,2.76835 1.72404,0.19804 3.79512,-1.18367 5.56685,-1.58738 1.77174,-0.40371 3.53576,-0.4145 3.53576,-0.4145 m 2e-5,-23.80805 18.5024,-0.5839 c 0,0 -0.17004,9.86763 1.93372,14.13111 1.86513,3.77985 1.65721,6.56552 2.23124,9.89177 0,0 -4.5188,-0.3974 -7.12562,-0.3974 -2.60683,0 -4.71508,2.57031 -6.43911,2.76835 -1.72404,0.19804 -3.79512,-1.18367 -5.56685,-1.58738 -1.77174,-0.40371 -3.53576,-0.4145 -3.53576,-0.4145"
       id="path9568"
       inkscape:path-effect="#path-effect9570"
       inkscape:original-d="m 169.33334,200.94808 -18.5024,-0.5839 c 0,0 0.17004,9.86763 -1.93372,14.13111 -1.86513,3.77985 -1.65721,6.56552 -2.23124,9.89177 0,0 4.5188,-0.3974 7.12562,-0.3974 2.60683,0 4.71508,2.57031 6.43911,2.76835 1.72404,0.19804 3.79512,-1.18367 5.56685,-1.58738 1.77174,-0.40371 3.53576,-0.4145 3.53576,-0.4145"
       sodipodi:nodetypes="ccsczzzc" />
    <path
       style="fill:#f9f9f9;stroke:#666666;stroke-width:1.32292;stroke-linecap:butt;stroke-linejoin:miter;stroke-miterlimit:4;stroke-dasharray:none;stroke-opacity:1"
       d="m 169.33332,173.07587 -17.66225,-1.78853 c -2.4693,9.6601 -7.18914,18.41999 -7.15231,29.08255 0,0 -0.58628,5.89014 24.81456,5.89014 m 0,-33.18416 17.66225,-1.78853 c 2.4693,9.6601 7.18914,18.41999 7.15231,29.08255 0,0 0.58628,5.89014 -24.81456,5.89014"
       id="path9067"
       inkscape:path-effect="#path-effect9069"
       inkscape:original-d="m 169.33332,173.07587 -17.66225,-1.78853 c -2.4693,9.6601 -7.18914,18.41999 -7.15231,29.08255 0,0 -0.58628,5.89014 24.81456,5.89014"
       sodipodi:nodetypes="cccc" />
    <path
       style="display:inline;fill:#f9f9f9;stroke:#666666;stroke-width:1.05833;stroke-linecap:butt;stroke-linejoin:miter;stroke-miterlimit:4;stroke-dasharray:none;stroke-opacity:1"
       d="m 169.33332,124.22566 c 17.31608,0.4489 29.10065,6.01954 30.33551,19.97621 -1.05181,17.93716 -6.27883,27.92176 -30.33551,35.59998 l -5.14473,-6.90651 c 17.78721,-5.78855 28.47197,-14.81133 28.79442,-28.5528 0,-5.12098 -5.3133,-17.7639 -23.64969,-17.7639"
       id="path2638-5"
       sodipodi:nodetypes="cccccc" />
    <path
       style="fill:#f9f9f9;stroke:#666666;stroke-width:1.05833;stroke-linecap:butt;stroke-linejoin:miter;stroke-miterlimit:4;stroke-dasharray:none;stroke-opacity:1"
       d="m 169.33332,119.46315 c -18.2757,0.47378 -30.25764,7.38689 -31.07178,19.13477 0,22.45995 11.4327,31.49792 35.48938,39.17614 l 0.72713,-9.64122 c -17.78721,-5.78855 -28.47197,-14.81133 -28.79442,-28.5528 0,-5.12098 5.3133,-17.76391 23.64969,-17.76391"
       id="path2638"
       sodipodi:nodetypes="cccccc"
       transform="translate(0,4.7625)" />
    <path
       style="display:inline;fill:#f9f9f9;stroke:#666666;stroke-width:1.32292;stroke-linejoin:round;stroke-miterlimit:4;stroke-dasharray:none"
       id="path1895-1"
       sodipodi:type="arc"
       sodipodi:cx="169.33331"
       sodipodi:cy="175.82092"
       sodipodi:rx="2.7450521"
       sodipodi:ry="2.7450521"
       sodipodi:start="0"
       sodipodi:end="6.2828537"
       sodipodi:open="true"
       sodipodi:arc-type="arc"
       d="m 172.07837,175.82092 a 2.7450521,2.7450521 0 0 1 -2.74483,2.74505 2.7450521,2.7450521 0 0 1 -2.74528,-2.74459 2.7450521,2.7450521 0 0 1 2.74437,-2.74551 2.7450521,2.7450521 0 0 1 2.74573,2.74414" />
    <path
       style="display:inline;fill:#f9f9f9;stroke:#666666;stroke-width:1.32292;stroke-linejoin:round;stroke-miterlimit:4;stroke-dasharray:none"
       id="path1895-1-7"
       sodipodi:type="arc"
       sodipodi:cx="176.61171"
       sodipodi:cy="249.03445"
       sodipodi:rx="2.7450521"
       sodipodi:ry="2.7450521"
       sodipodi:start="0"
       sodipodi:end="6.2828537"
       sodipodi:open="true"
       sodipodi:arc-type="arc"
       d="m 179.35676,249.03445 a 2.7450521,2.7450521 0 0 1 -2.74482,2.74506 2.7450521,2.7450521 0 0 1 -2.74528,-2.7446 2.7450521,2.7450521 0 0 1 2.74437,-2.74551 2.7450521,2.7450521 0 0 1 2.74573,2.74414" />
    <path
       style="opacity:0.495957;fill:none;stroke:#000000;stroke-width:1.32292;stroke-linecap:butt;stroke-linejoin:miter;stroke-miterlimit:4;stroke-dasharray:none;stroke-opacity:1"
       d="m 131.08575,163.91741 c 0,0 5.36269,-2.70865 5.36269,62.65827 0,65.36692 -0.64166,51.83327 -0.64166,51.83327 m 71.77415,-114.49154 c 0,0 -5.36269,-2.70865 -5.36269,62.65827 0,65.36692 0.64166,51.83327 0.64166,51.83327"
       id="path11706"
       inkscape:path-effect="#path-effect11708"
       inkscape:original-d="m 131.08575,163.91741 c 0,0 5.36269,-2.70865 5.36269,62.65827 0,65.36692 -0.64166,51.83327 -0.64166,51.83327"
       sodipodi:nodetypes="czc" />
  </g>
</svg>
