<?xml version="1.0" encoding="UTF-8" standalone="no"?>
<!-- Created with Inkscape (http://www.inkscape.org/) -->

<svg
   width="1280"
   height="1280"
   viewBox="0 0 338.66666 338.66668"
   version="1.1"
   id="svg5"
   inkscape:version="1.1 (c68e22c387, 2021-05-23)"
   sodipodi:docname="TribalA_Male_east.svg"
   inkscape:export-filename="C:\Users\Maxim\OneDrive\Desktop\Modding\RimWorld\Madness Pawns\Madness Pawns\Textures\Things\Pawn\Humanlike\Apparel\TribalA\TribalA_Male_east.png"
   inkscape:export-xdpi="19.200001"
   inkscape:export-ydpi="19.200001"
   xmlns:inkscape="http://www.inkscape.org/namespaces/inkscape"
   xmlns:sodipodi="http://sodipodi.sourceforge.net/DTD/sodipodi-0.dtd"
   xmlns:xlink="http://www.w3.org/1999/xlink"
   xmlns="http://www.w3.org/2000/svg"
   xmlns:svg="http://www.w3.org/2000/svg">
  <sodipodi:namedview
     id="namedview7"
     pagecolor="#ffffff"
     bordercolor="#111111"
     borderopacity="1"
     inkscape:pageshadow="0"
     inkscape:pageopacity="0"
     inkscape:pagecheckerboard="1"
     inkscape:document-units="px"
     showgrid="false"
     showguides="false"
     units="px"
     inkscape:snap-bbox="true"
     inkscape:snap-object-midpoints="false"
     inkscape:bbox-paths="false"
     inkscape:bbox-nodes="false"
     inkscape:snap-bbox-midpoints="false"
     inkscape:snap-page="true"
     inkscape:zoom="0.70710678"
     inkscape:cx="399.51533"
     inkscape:cy="762.96821"
     inkscape:window-width="1920"
     inkscape:window-height="1017"
     inkscape:window-x="-8"
     inkscape:window-y="-8"
     inkscape:window-maximized="1"
     inkscape:current-layer="layer2"
     inkscape:guide-bbox="true">
    <sodipodi:guide
       position="169.33332,169.33335"
       orientation="0,-1"
       id="guide989" />
    <sodipodi:guide
       position="169.33332,169.33336"
       orientation="1,0"
       id="guide991" />
  </sodipodi:namedview>
  <defs
     id="defs2">
    <linearGradient
       inkscape:collect="always"
       id="linearGradient18607">
      <stop
         style="stop-color:#f9f9f9;stop-opacity:1"
         offset="0"
         id="stop18603" />
      <stop
         style="stop-color:#f9f9f9;stop-opacity:1"
         offset="0.80000001"
         id="stop18803" />
      <stop
         style="stop-color:#b3b3b3;stop-opacity:1"
         offset="1"
         id="stop18605" />
    </linearGradient>
    <inkscape:path-effect
       effect="mirror_symmetry"
       start_point="640.00001,475.3086"
       end_point="640.00001,1047.4492"
       center_point="640.00001,761.37891"
       id="path-effect1473"
       is_visible="true"
       lpeversion="1.1"
       mode="free"
       discard_orig_path="false"
       fuse_paths="false"
       oposite_fuse="false"
       split_items="false"
       split_open="false" />
    <radialGradient
       inkscape:collect="always"
       xlink:href="#linearGradient18607"
       id="radialGradient18609"
       cx="138.33376"
       cy="204.13071"
       fx="138.33376"
       fy="204.13071"
       r="50.515436"
       gradientTransform="matrix(-1.1235864,0,1.3299541e-8,-4.6606614,340.16449,1155.5148)"
       gradientUnits="userSpaceOnUse" />
  </defs>
  <g
     inkscape:label="Reference"
     inkscape:groupmode="layer"
     id="layer1"
     style="display:none"
     sodipodi:insensitive="true">
    <path
       id="rect883-0"
       style="display:inline;fill:#ff0000;fill-opacity:1;stroke:#0000ff;stroke-width:7.9375;stroke-linecap:round;stroke-linejoin:round;stroke-miterlimit:4;stroke-dasharray:none"
       d="m 147.83658,117.84087 c -16.71794,0 -25.43842,12.20751 -25.91521,36.92126 l -2.17558,112.76314 c -0.16207,8.40044 5.07553,14.62238 13.40642,14.62238 h 29.25867 29.25868 c 8.33089,0 13.56849,-6.22194 13.40642,-14.62238 L 202.9004,154.76213 c -0.47679,-24.71375 -9.19727,-36.92126 -25.91521,-36.92126 h -14.57431 z" />
  </g>
  <g
     inkscape:groupmode="layer"
     id="layer2"
     inkscape:label="Body"
     style="display:inline">
    <path
       style="display:inline;fill:url(#radialGradient18609);stroke:#000000;stroke-width:0;stroke-linecap:butt;stroke-linejoin:miter;stroke-miterlimit:4;stroke-dasharray:none;stroke-opacity:1;fill-opacity:1"
       d="m 147.83658,117.84087 c -11.88459,0.88468 -22.67964,4.72323 -25.36775,30.54056 -3.82894,46.42763 9.57446,105.95428 -18.35534,139.62104 l 19.64761,-6.92446 -6.70464,9.34254 c 20.59605,-5.58771 42.97659,-4.56846 65.92121,-5.79452 18.52891,1.70505 23.13146,-8.19278 22.00853,-21.16655 l -18.08056,-14.23363 17.69587,1.81355 -0.60452,-50.99925 c -52.94823,-0.94142 -53.1634,-49.27363 -56.16041,-82.19928 z"
       id="path1169"
       sodipodi:nodetypes="ccccccccccc" />
    <path
       style="display:inline;fill:none;stroke:#999999;stroke-width:1.32292;stroke-linecap:round;stroke-linejoin:miter;stroke-miterlimit:4;stroke-dasharray:none;stroke-opacity:1"
       d="m 131.05161,237.34513 0.96624,4.86079"
       id="path15889-5"
       sodipodi:nodetypes="cc" />
    <path
       style="display:inline;fill:none;stroke:#999999;stroke-width:1.32292;stroke-linecap:round;stroke-linejoin:miter;stroke-miterlimit:4;stroke-dasharray:none;stroke-opacity:1"
       d="m 140.10332,235.63607 1.28273,4.5443"
       id="path15889-8"
       sodipodi:nodetypes="cc" />
    <path
       style="display:inline;fill:none;stroke:#999999;stroke-width:1.32292;stroke-linecap:round;stroke-linejoin:miter;stroke-miterlimit:4;stroke-dasharray:none;stroke-opacity:1"
       d="m 149.34493,232.78762 1.78912,4.79749"
       id="path15889-6"
       sodipodi:nodetypes="cc" />
    <path
       style="display:inline;fill:none;stroke:#999999;stroke-width:1.32292;stroke-linecap:round;stroke-linejoin:miter;stroke-miterlimit:4;stroke-dasharray:none;stroke-opacity:1"
       d="m 146.0396,161.00067 1.66107,5.20721"
       id="path15889-9"
       sodipodi:nodetypes="cc" />
    <path
       style="display:inline;fill:none;stroke:#999999;stroke-width:1.32292;stroke-linecap:round;stroke-linejoin:miter;stroke-miterlimit:4;stroke-dasharray:none;stroke-opacity:1"
       d="m 137.90611,163.5836 2.10071,5.15226"
       id="path15889-4"
       sodipodi:nodetypes="cc" />
    <path
       style="fill:none;stroke:#999999;stroke-width:1.32292;stroke-linecap:round;stroke-linejoin:miter;stroke-miterlimit:4;stroke-dasharray:none;stroke-opacity:1"
       d="m 124.89546,173.15936 c 10.71207,-5.90915 19.77242,-9.7628 28.8379,-11.14381"
       id="path14698"
       sodipodi:nodetypes="cc" />
    <path
       style="display:inline;fill:none;stroke:#999999;stroke-width:1.32292;stroke-linecap:round;stroke-linejoin:miter;stroke-miterlimit:4;stroke-dasharray:none;stroke-opacity:1"
       d="m 121.6798,241.38846 c 16.96837,-2.67233 65.53208,-10.3086 68.1315,-42.46878"
       id="path14698-7"
       sodipodi:nodetypes="cc" />
    <path
       style="display:inline;fill:none;stroke:#999999;stroke-width:1.32292;stroke-linecap:round;stroke-linejoin:miter;stroke-miterlimit:4;stroke-dasharray:none;stroke-opacity:1"
       d="m 166.62549,225.63486 2.7386,4.6709"
       id="path15889-7"
       sodipodi:nodetypes="cc" />
    <path
       style="display:inline;fill:none;stroke:#999999;stroke-width:1.32292;stroke-linecap:round;stroke-linejoin:miter;stroke-miterlimit:4;stroke-dasharray:none;stroke-opacity:1"
       d="m 173.39844,221.26725 3.1184,4.41771"
       id="path15889-87"
       sodipodi:nodetypes="cc" />
    <path
       style="display:inline;fill:none;stroke:#999999;stroke-width:1.32292;stroke-linecap:round;stroke-linejoin:miter;stroke-miterlimit:4;stroke-dasharray:none;stroke-opacity:1"
       d="m 179.34852,215.76027 3.56149,4.2278"
       id="path15889-59"
       sodipodi:nodetypes="cc" />
    <path
       style="display:inline;fill:none;stroke:#999999;stroke-width:1.32292;stroke-linecap:round;stroke-linejoin:miter;stroke-miterlimit:4;stroke-dasharray:none;stroke-opacity:1"
       d="m 183.77943,210.00009 4.32107,3.34162"
       id="path15889-88"
       sodipodi:nodetypes="cc" />
    <path
       style="display:inline;fill:none;stroke:#999999;stroke-width:1.32292;stroke-linecap:round;stroke-linejoin:miter;stroke-miterlimit:4;stroke-dasharray:none;stroke-opacity:1"
       d="m 186.43798,203.16383 4.82746,1.94905"
       id="path15889-47"
       sodipodi:nodetypes="cc" />
    <path
       style="display:inline;fill:none;stroke:#999999;stroke-width:1.32292;stroke-linecap:round;stroke-linejoin:miter;stroke-miterlimit:4;stroke-dasharray:none;stroke-opacity:1"
       d="m 158.52324,229.30619 2.23222,4.6709"
       id="path15889-2"
       sodipodi:nodetypes="cc" />
    <path
       style="display:inline;fill:none;stroke:#000000;stroke-width:2.64583336;stroke-linecap:butt;stroke-linejoin:miter;stroke-miterlimit:4;stroke-dasharray:none;stroke-opacity:1"
       d="m 147.83658,117.84087 c -11.88459,0.88468 -22.67964,4.72323 -25.36775,30.54056 -3.82894,46.42763 9.57446,105.95428 -18.35534,139.62104 l 19.64761,-6.92446 -6.70464,9.34254 c 20.59605,-5.58771 42.97659,-4.56846 65.92121,-5.79452 18.52891,1.70505 23.13146,-8.19278 22.00853,-21.16655 l -18.08056,-14.23363 17.69587,1.81355 -0.60452,-50.99925 c -52.94823,-0.94142 -53.1634,-49.27363 -56.16041,-82.19928 z"
       id="path1169-6"
       sodipodi:nodetypes="ccccccccccc" />
    <path
       style="fill:#000000;stroke:#000000;stroke-width:0;stroke-linecap:butt;stroke-linejoin:miter;stroke-miterlimit:4;stroke-dasharray:none;stroke-opacity:1"
       d="m 148.89874,113.99278 c -11.27892,-0.20335 -29.4554,4.33535 -30.82253,37.19141 -0.61118,33.64355 -1.53047,70.86314 -2.54691,104.4969 -0.54356,12.65075 -9.15177,28.20621 -15.702378,35.2074 8.463438,-0.95877 13.727218,-3.63646 19.125858,-6.17512 l -6.04873,9.47995 c 19.04454,-7.83652 46.69062,-7.95253 70.22296,-6.99606 24.05296,0.26401 26.95129,-12.00889 25.78936,-24.20087 l -11.74289,-9.64998 11.62395,0.88044 -1.14619,-55.5297 -7.91309,-0.0121 0.90261,49.14803 -20.64577,-1.62201 24.00066,19.30097 c -0.31364,10.89666 -3.43703,16.44944 -22.49799,16.44944 -21.93827,0.24772 -48.79798,0.27164 -58.37165,5.09729 l 6.25833,-11.06569 c -4.64139,1.86763 -9.11686,3.79747 -15.35874,5.06491 2.60476,-4.72179 7.47219,-8.50112 9.68768,-25.19786 l 2.12242,-104.40117 c 1.73011,-25.13953 11.42609,-29.1212 23.50846,-29.84114 z"
       id="path6033"
       sodipodi:nodetypes="ccccccccccccccccccccccc" />
    <path
       style="fill:none;stroke:#999999;stroke-width:1.32292;stroke-linecap:round;stroke-linejoin:miter;stroke-miterlimit:4;stroke-dasharray:none;stroke-opacity:1"
       d="m 128.98012,167.91443 2.48541,4.98739"
       id="path15889"
       sodipodi:nodetypes="cc" />
  </g>
</svg>
