<?xml version="1.0" encoding="UTF-8" standalone="no"?>
<!-- Created with Inkscape (http://www.inkscape.org/) -->

<svg
   width="1280"
   height="1280"
   viewBox="0 0 338.66666 338.66668"
   version="1.1"
   id="svg5"
   shape-rendering="crispEdges"
   inkscape:version="1.3 (0e150ed6c4, 2023-07-21)"
   sodipodi:docname="Female_Average_Normal_south.svg"
   inkscape:export-filename="..\..\..\..\..\..\..\..\..\..\Program Files (x86)\Steam\steamapps\common\RimWorld\Mods\Madness Pawns\1.5\Textures\Things\Pawn\Humanlike\Heads\Grunt\Female\Grunt_Female_southm.png"
   inkscape:export-xdpi="19.200001"
   inkscape:export-ydpi="19.200001"
   xmlns:inkscape="http://www.inkscape.org/namespaces/inkscape"
   xmlns:sodipodi="http://sodipodi.sourceforge.net/DTD/sodipodi-0.dtd"
   xmlns:xlink="http://www.w3.org/1999/xlink"
   xmlns="http://www.w3.org/2000/svg"
   xmlns:svg="http://www.w3.org/2000/svg">
  <sodipodi:namedview
     id="namedview7"
     pagecolor="#ffffff"
     bordercolor="#111111"
     borderopacity="1"
     inkscape:pageshadow="0"
     inkscape:pageopacity="0"
     inkscape:pagecheckerboard="true"
     inkscape:document-units="px"
     showgrid="false"
     units="px"
     showguides="true"
     inkscape:zoom="0.5"
     inkscape:cx="561"
     inkscape:cy="689"
     inkscape:window-width="1920"
     inkscape:window-height="1017"
     inkscape:window-x="-8"
     inkscape:window-y="-8"
     inkscape:window-maximized="1"
     inkscape:current-layer="layer5"
     inkscape:guide-bbox="true"
     inkscape:snap-object-midpoints="false"
     inkscape:snap-global="true"
     inkscape:snap-bbox="false"
     inkscape:snap-to-guides="true"
     inkscape:showpageshadow="0"
     inkscape:deskcolor="#d1d1d1">
    <inkscape:grid
       type="xygrid"
       id="grid23"
       visible="false"
       enabled="true"
       dotted="false"
       originx="0"
       originy="0"
       spacingy="1"
       spacingx="1"
       units="px" />
    <sodipodi:guide
       position="169.33333,165.56612"
       orientation="1,0"
       id="guide96"
       inkscape:locked="false" />
    <sodipodi:guide
       position="169.33333,165.56612"
       orientation="0,-1"
       id="guide98"
       inkscape:locked="false" />
  </sodipodi:namedview>
  <defs
     id="defs2">
    <inkscape:path-effect
       center_point="169.33333,22.024421"
       end_point="169.33333,85.602467"
       start_point="169.33333,-41.553625"
       effect="mirror_symmetry"
       id="path-effect1"
       is_visible="true"
       lpeversion="1.2"
       lpesatellites=""
       mode="free"
       discard_orig_path="false"
       fuse_paths="false"
       oposite_fuse="false"
       split_items="false"
       split_open="false"
       link_styles="false" />
    <inkscape:path-effect
       effect="mirror_symmetry"
       start_point="169.33333,162.26983"
       end_point="169.33333,183.93127"
       center_point="169.33333,173.10055"
       id="path-effect2786"
       is_visible="true"
       lpeversion="1.1"
       mode="free"
       discard_orig_path="false"
       fuse_paths="false"
       oposite_fuse="false"
       split_items="false"
       split_open="false" />
    <inkscape:path-effect
       effect="mirror_symmetry"
       start_point="164.56532,168.80302"
       end_point="164.56532,177.53426"
       center_point="164.56532,173.16864"
       id="path-effect1193"
       is_visible="true"
       lpeversion="1.1"
       mode="free"
       discard_orig_path="false"
       fuse_paths="false"
       oposite_fuse="false"
       split_items="false"
       split_open="false" />
    <inkscape:path-effect
       effect="mirror_symmetry"
       start_point="169.33333,158.22084"
       end_point="169.33333,181.63647"
       center_point="169.33333,169.92865"
       id="path-effect1126"
       is_visible="true"
       lpeversion="1.1"
       mode="free"
       discard_orig_path="false"
       fuse_paths="false"
       oposite_fuse="false"
       split_items="false"
       split_open="false" />
    <linearGradient
       inkscape:collect="always"
       id="linearGradient133751">
      <stop
         style="stop-color:#f2f2f2;stop-opacity:1"
         offset="0"
         id="stop133747" />
      <stop
         style="stop-color:#f2f2f2;stop-opacity:1"
         offset="0.80000001"
         id="stop246521" />
      <stop
         style="stop-color:#b3b3b3;stop-opacity:1"
         offset="1"
         id="stop133749" />
    </linearGradient>
    <radialGradient
       inkscape:collect="always"
       xlink:href="#linearGradient133751"
       id="radialGradient246293"
       gradientUnits="userSpaceOnUse"
       gradientTransform="matrix(-0.98685122,0,4.4420411e-6,-1.3702958,357.30059,439.34568)"
       cx="172.19751"
       cy="194.29756"
       fx="172.19751"
       fy="194.29756"
       r="54.159453" />
    <inkscape:path-effect
       effect="mirror_symmetry"
       start_point="169.33333,161.31401"
       end_point="169.33333,218.46401"
       center_point="169.33333,189.88901"
       id="path-effect943"
       is_visible="true"
       lpeversion="1.1"
       mode="free"
       discard_orig_path="false"
       fuse_paths="false"
       oposite_fuse="false"
       split_items="false"
       split_open="false" />
    <inkscape:path-effect
       effect="mirror_symmetry"
       start_point="164.56532,168.80302"
       end_point="164.56532,177.53426"
       center_point="164.56532,173.16864"
       id="path-effect1193-6"
       is_visible="true"
       lpeversion="1.1"
       mode="free"
       discard_orig_path="false"
       fuse_paths="false"
       oposite_fuse="false"
       split_items="false"
       split_open="false"
       lpesatellites=""
       link_styles="false" />
  </defs>
  <g
     inkscape:groupmode="layer"
     id="layer3"
     inkscape:label="Face"
     style="display:inline">
    <g
       inkscape:groupmode="layer"
       id="layer5"
       inkscape:label="Mask"
       style="display:inline">
      <rect
         style="display:inline;fill:#ff0000;fill-rule:evenodd;stroke-width:0.264583;stroke-linecap:round;stroke-miterlimit:11.8"
         id="rect1"
         width="338.66669"
         height="338.66669"
         x="0"
         y="0"
         ry="0.15011059" />
      <path
         style="display:inline;fill:#000000;stroke:#808080;stroke-width:0;stroke-linecap:round;stroke-linejoin:round;stroke-miterlimit:4;stroke-dasharray:none"
         id="path1191-1"
         inkscape:path-effect="#path-effect1193-6"
         sodipodi:type="arc"
         sodipodi:cx="150.74635"
         sodipodi:cy="174.6219"
         sodipodi:rx="2.778125"
         sodipodi:ry="5.6885414"
         d="m 153.52448,174.6219 c 0,3.1417 -1.24381,5.68854 -2.77813,5.68854 -1.53431,0 -2.77812,-2.54684 -2.77812,-5.68854 0,-3.14169 1.24381,-5.68854 2.77812,-5.68854 1.53432,0 2.77813,2.54685 2.77813,5.68854 z m 22.08168,0 c 0,3.1417 1.24381,5.68854 2.77813,5.68854 1.53431,0 2.77812,-2.54684 2.77812,-5.68854 0,-3.14169 -1.24381,-5.68854 -2.77812,-5.68854 -1.53432,0 -2.77813,2.54685 -2.77813,5.68854 z"
         transform="translate(4.7680051,0.96089502)" />
    </g>
    <g
       inkscape:groupmode="layer"
       id="layer2"
       inkscape:label="Head"
       style="display:none">
      <path
         id="path584"
         style="mix-blend-mode:luminosity;fill:url(#radialGradient246293);stroke:#000000;stroke-width:9.81062"
         d="m 169.33333,236.67956 c -27.20231,0 -49.25414,-28.46487 -49.25414,-63.57806 0,-35.11319 22.05183,-63.57805 49.25414,-63.57805 m 0,127.15611 c 27.20231,0 49.25414,-28.46487 49.25414,-63.57806 0,-35.11319 -22.05183,-63.57805 -49.25414,-63.57805"
         sodipodi:nodetypes="csc"
         inkscape:path-effect="#path-effect1"
         inkscape:original-d="m 169.33333,236.67956 c -27.20231,0 -49.25414,-28.46487 -49.25414,-63.57806 0,-35.11319 22.05183,-63.57805 49.25414,-63.57805" />
    </g>
    <g
       inkscape:groupmode="layer"
       id="layer1"
       inkscape:label="Eyes"
       style="display:none">
      <path
         style="fill:#000000;stroke:none;stroke-width:0.264583px;stroke-linecap:butt;stroke-linejoin:miter;stroke-opacity:1"
         d="m 136.82639,167.77323 -3.83646,-2.38124 c 0,0 6.14022,25.52562 34.13125,14.05775 -3.82152,-14.26212 -11.70044,-19.98448 -20.40668,-19.98448 -7.20585,0 -9.88811,6.62076 -9.88811,8.30797 z m 65.01388,0 3.83646,-2.38124 c 0,0 -6.14022,25.52562 -34.13125,14.05775 3.82152,-14.26212 11.70044,-19.98448 20.40668,-19.98448 7.20585,0 9.88811,6.62076 9.88811,8.30797 z"
         id="path2267"
         sodipodi:nodetypes="cccsc"
         inkscape:path-effect="#path-effect2786"
         inkscape:original-d="m 136.82639,167.77323 -3.83646,-2.38124 c 0,0 6.14022,25.52562 34.13125,14.05775 -3.82152,-14.26212 -11.70044,-19.98448 -20.40668,-19.98448 -7.20585,0 -9.88811,6.62076 -9.88811,8.30797 z"
         transform="translate(0,1.4967094)" />
      <path
         style="fill:#ffffff;stroke:#808080;stroke-width:0;stroke-linecap:round;stroke-linejoin:round;stroke-miterlimit:4;stroke-dasharray:none"
         id="path1191"
         inkscape:path-effect="#path-effect1193"
         sodipodi:type="arc"
         sodipodi:cx="150.74635"
         sodipodi:cy="174.6219"
         sodipodi:rx="2.778125"
         sodipodi:ry="5.6885414"
         d="m 153.52448,174.6219 c 0,3.1417 -1.24381,5.68854 -2.77813,5.68854 -1.53431,0 -2.77812,-2.54684 -2.77812,-5.68854 0,-3.14169 1.24381,-5.68854 2.77812,-5.68854 1.53432,0 2.77813,2.54685 2.77813,5.68854 z m 22.08168,0 c 0,3.1417 1.24381,5.68854 2.77813,5.68854 1.53431,0 2.77812,-2.54684 2.77812,-5.68854 0,-3.14169 -1.24381,-5.68854 -2.77812,-5.68854 -1.53432,0 -2.77813,2.54685 -2.77813,5.68854 z"
         transform="translate(4.7680051,0.96089502)" />
    </g>
    <g
       inkscape:groupmode="layer"
       id="layer4"
       inkscape:label="Ridges"
       style="display:none">
      <path
         style="opacity:0.25;fill:#000000;stroke:#000000;stroke-width:0;stroke-linecap:butt;stroke-linejoin:miter;stroke-miterlimit:4;stroke-dasharray:none;stroke-opacity:1"
         d="m 169.33333,165.9599 c -5.02098,-2.51562 -26.02516,-7.31402 -34.66041,9.98802 0,-1.97192 3.47189,-5.79302 6.00881,-9.6879 3.31134,-5.08384 4.53215,-11.94221 4.36887,-14.58708 -0.39729,-6.43569 -5.6967,-9.21573 -6.27664,-6.11805 -2.38737,12.75179 -9.34169,26.33783 -10.48175,29.88427 -3.83533,11.9307 6.34422,24.27553 17.42789,24.27553 0.85689,0 1.34213,-0.52189 0.75804,-0.97163 -1.84947,-1.42406 -12.04092,-4.12599 -12.04092,-13.80916 0,-3.37737 2.06861,-13.01836 12.47107,-13.01836 9.33749,0 16.07959,7.07152 16.07959,7.07152 6.4116,-3.10417 6.34545,-9.40732 6.34545,-9.40732 m 0,-3.61984 c 5.02098,-2.51562 26.02516,-7.31402 34.66041,9.98802 0,-1.97192 -3.47189,-5.79302 -6.00881,-9.6879 -3.31134,-5.08384 -4.53215,-11.94221 -4.36887,-14.58708 0.39729,-6.43569 5.6967,-9.21573 6.27664,-6.11805 2.38737,12.75179 9.34169,26.33783 10.48175,29.88427 3.83533,11.9307 -6.34422,24.27553 -17.42789,24.27553 -0.85689,0 -1.34213,-0.52189 -0.75804,-0.97163 1.84947,-1.42406 12.04092,-4.12599 12.04092,-13.80916 0,-3.37737 -2.06861,-13.01836 -12.47107,-13.01836 -9.33749,0 -16.07959,7.07152 -16.07959,7.07152 -6.4116,-3.10417 -6.34545,-9.40732 -6.34545,-9.40732"
         id="path941"
         inkscape:path-effect="#path-effect943"
         inkscape:original-d="m 169.33333,165.9599 c -5.02098,-2.51562 -26.02516,-7.31402 -34.66041,9.98802 0,-1.97192 3.47189,-5.79302 6.00881,-9.6879 3.31134,-5.08384 4.53215,-11.94221 4.36887,-14.58708 -0.39729,-6.43569 -5.6967,-9.21573 -6.27664,-6.11805 -2.38737,12.75179 -9.34169,26.33783 -10.48175,29.88427 -3.83533,11.9307 6.34422,24.27553 17.42789,24.27553 0.85689,0 1.34213,-0.52189 0.75804,-0.97163 -1.84947,-1.42406 -12.04092,-4.12599 -12.04092,-13.80916 0,-3.37737 2.06861,-13.01836 12.47107,-13.01836 9.33749,0 16.07959,7.07152 16.07959,7.07152 6.4116,-3.10417 6.34545,-9.40732 6.34545,-9.40732"
         sodipodi:nodetypes="ccsssssssscc"
         transform="translate(0,-13.003609)" />
    </g>
  </g>
</svg>
