<?xml version="1.0" encoding="UTF-8" standalone="no"?>
<!-- Created with Inkscape (http://www.inkscape.org/) -->

<svg
   width="1280"
   height="1280"
   viewBox="0 0 338.66666 338.66668"
   version="1.1"
   id="svg5"
   inkscape:version="1.1 (c68e22c387, 2021-05-23)"
   sodipodi:docname="FurCovered_Male_east.svg"
   inkscape:export-filename="C:\Users\Maxim\OneDrive\Desktop\Modding\RimWorld\Madness Pawns\Madness Pawns\Textures\Things\Pawn\Humanlike\Bodies\FurCovered_Male_east.png"
   inkscape:export-xdpi="19.200001"
   inkscape:export-ydpi="19.200001"
   xmlns:inkscape="http://www.inkscape.org/namespaces/inkscape"
   xmlns:sodipodi="http://sodipodi.sourceforge.net/DTD/sodipodi-0.dtd"
   xmlns:xlink="http://www.w3.org/1999/xlink"
   xmlns="http://www.w3.org/2000/svg"
   xmlns:svg="http://www.w3.org/2000/svg">
  <sodipodi:namedview
     id="namedview7"
     pagecolor="#ffffff"
     bordercolor="#111111"
     borderopacity="1"
     inkscape:pageshadow="0"
     inkscape:pageopacity="0"
     inkscape:pagecheckerboard="1"
     inkscape:document-units="px"
     showgrid="false"
     showguides="false"
     units="px"
     inkscape:snap-bbox="true"
     inkscape:snap-object-midpoints="false"
     inkscape:bbox-paths="false"
     inkscape:bbox-nodes="false"
     inkscape:snap-bbox-midpoints="false"
     inkscape:snap-page="true"
     inkscape:zoom="1"
     inkscape:cx="534.5"
     inkscape:cy="736.5"
     inkscape:window-width="1920"
     inkscape:window-height="1017"
     inkscape:window-x="-8"
     inkscape:window-y="-8"
     inkscape:window-maximized="1"
     inkscape:current-layer="layer3"
     inkscape:guide-bbox="true"
     inkscape:snap-global="false">
    <sodipodi:guide
       position="190.10312,169.33336"
       orientation="1,0"
       id="guide833" />
  </sodipodi:namedview>
  <defs
     id="defs2">
    <inkscape:path-effect
       effect="mirror_symmetry"
       start_point="640.00001,475.3086"
       end_point="640.00001,1047.4492"
       center_point="640.00001,761.37891"
       id="path-effect1473"
       is_visible="true"
       lpeversion="1.1"
       mode="free"
       discard_orig_path="false"
       fuse_paths="false"
       oposite_fuse="false"
       split_items="false"
       split_open="false" />
    <radialGradient
       inkscape:collect="always"
       xlink:href="#linearGradient3836-9"
       id="radialGradient3954-1"
       cx="704.68213"
       cy="778.31689"
       fx="704.68213"
       fy="778.31689"
       r="176.26749"
       gradientTransform="matrix(-0.27289221,0,0,-1.3787613,371.82698,1284.0681)"
       gradientUnits="userSpaceOnUse" />
    <linearGradient
       inkscape:collect="always"
       id="linearGradient3836-9">
      <stop
         style="stop-color:#f2f2f2;stop-opacity:1"
         offset="0"
         id="stop3832-7" />
      <stop
         style="stop-color:#f9f9f9;stop-opacity:1"
         offset="0.78469104"
         id="stop4186-4" />
      <stop
         style="stop-color:#b3b3b3;stop-opacity:1"
         offset="1"
         id="stop3834-8" />
    </linearGradient>
  </defs>
  <g
     inkscape:label="Reference"
     inkscape:groupmode="layer"
     id="layer1"
     style="display:inline"
     sodipodi:insensitive="true">
    <path
       id="rect883-0"
       style="display:inline;fill:url(#radialGradient3954-1);fill-opacity:1;stroke:#000000;stroke-width:7.9375;stroke-linecap:round;stroke-linejoin:round;stroke-miterlimit:4;stroke-dasharray:none"
       d="m 147.83658,117.84087 c -16.71794,0 -25.43842,12.20751 -25.91521,36.92126 l -2.17558,112.76314 c -0.16207,8.40044 5.07553,14.62238 13.40642,14.62238 h 29.25867 29.25868 c 8.33089,0 13.56849,-6.22194 13.40642,-14.62238 L 202.9004,154.76213 c -0.47679,-24.71375 -9.19727,-36.92126 -25.91521,-36.92126 h -14.57431 z" />
  </g>
  <g
     inkscape:groupmode="layer"
     id="layer2"
     inkscape:label="Body"
     style="display:inline"
     sodipodi:insensitive="true" />
  <g
     inkscape:groupmode="layer"
     id="layer3"
     inkscape:label="Fur">
    <path
       style="fill:#000000;fill-opacity:1;stroke:#000000;stroke-width:0;stroke-linecap:butt;stroke-linejoin:miter;stroke-miterlimit:4;stroke-dasharray:none;stroke-opacity:1"
       d="m 133.48229,124.75105 c 0,0 6.99144,0.54299 12.56771,8.59896 -13.22916,-5.42396 -19.18229,-3.04271 -19.18229,-3.04271 z"
       id="path877"
       sodipodi:nodetypes="cccc" />
    <path
       style="fill:#000000;fill-opacity:1;stroke:#000000;stroke-width:0;stroke-linecap:butt;stroke-linejoin:miter;stroke-miterlimit:4;stroke-dasharray:none;stroke-opacity:1"
       d="m 123.95729,155.44271 c 0,0 5.55625,-5.29166 13.49375,-6.35 -12.30313,7.01146 -14.15521,13.75833 -14.15521,13.75833 z"
       id="path879"
       sodipodi:nodetypes="cccc" />
    <path
       style="fill:#000000;fill-opacity:1;stroke:#000000;stroke-width:0;stroke-linecap:butt;stroke-linejoin:miter;stroke-miterlimit:4;stroke-dasharray:none;stroke-opacity:1"
       d="m 140.89063,164.30625 c 0,0 6.10147,12.63808 4.97894,22.46024 6.73519,-7.67064 9.97667,-17.70277 9.97667,-17.70277 0,0 -4.24113,7.82239 -7.88935,10.34809 -0.93544,-6.82873 -7.06626,-15.10556 -7.06626,-15.10556 z"
       id="path881"
       sodipodi:nodetypes="ccccc" />
    <path
       style="fill:#000000;fill-opacity:1;stroke:#000000;stroke-width:0;stroke-linecap:butt;stroke-linejoin:miter;stroke-miterlimit:4;stroke-dasharray:none;stroke-opacity:1"
       d="m 120.38542,229.12917 c 0,0 5.02708,-7.01146 13.22917,-10.18646 -8.99584,8.73125 -11.37709,17.5948 -11.37709,17.5948 z"
       id="path883"
       sodipodi:nodetypes="cccc" />
    <path
       style="fill:#000000;fill-opacity:1;stroke:#000000;stroke-width:0;stroke-linecap:butt;stroke-linejoin:miter;stroke-miterlimit:4;stroke-dasharray:none;stroke-opacity:1"
       d="m 171.75285,246.70644 c 0,0 -8.37462,7.36257 -10.14986,15.82113 -7.62316,-7.72759 -4.75857,-18.25571 -4.75857,-18.25571 0,0 0.59942,8.89674 4.67206,11.71626 4.59478,-7.62315 10.23637,-9.28168 10.23637,-9.28168 z"
       id="path885"
       sodipodi:nodetypes="ccccc" />
    <path
       style="fill:#000000;fill-opacity:1;stroke:#000000;stroke-width:0;stroke-linecap:butt;stroke-linejoin:miter;stroke-miterlimit:4;stroke-dasharray:none;stroke-opacity:1"
       d="m 132.32005,250.70126 c 0,0 -1.37854,8.13861 2.06754,13.88208 0,0 3.07852,-5.16399 10.49282,-10.07204 -5.95232,1.14869 -9.48746,5.21211 -9.48746,5.21211 -2.29739,-2.40181 -3.0729,-9.02215 -3.0729,-9.02215 z"
       id="path887"
       sodipodi:nodetypes="ccccc" />
    <path
       style="fill:#000000;fill-opacity:1;stroke:#000000;stroke-width:0;stroke-linecap:butt;stroke-linejoin:miter;stroke-miterlimit:4;stroke-dasharray:none;stroke-opacity:1"
       d="m 203.99376,236.93438 c 0,0 -4.23335,-6.74687 -12.9646,-8.73125 9.92188,9.39271 11.90626,18.25625 11.90626,18.25625 z"
       id="path889"
       sodipodi:nodetypes="cccc" />
    <path
       style="fill:#000000;fill-opacity:1;stroke:#000000;stroke-width:0;stroke-linecap:butt;stroke-linejoin:miter;stroke-miterlimit:4;stroke-dasharray:none;stroke-opacity:1"
       d="m 204.39063,192.0875 -0.66145,11.24479 c 0,0 -3.57189,-9.39273 -13.75835,-18.91773 11.37708,3.04271 14.4198,7.67294 14.4198,7.67294 z"
       id="path891"
       sodipodi:nodetypes="cccc" />
    <path
       style="fill:#000000;fill-opacity:1;stroke:#000000;stroke-width:0;stroke-linecap:butt;stroke-linejoin:miter;stroke-miterlimit:4;stroke-dasharray:none;stroke-opacity:1"
       d="m 151.88413,195.0456 c 0,0 -2.01809,8.55423 -8.65974,19.68601 11.13178,-2.24507 22.96833,-12.13941 22.96833,-12.13941 0,0 -14.18342,7.75156 -18.11228,7.84511 3.27405,-5.70621 3.80369,-15.39171 3.80369,-15.39171 z"
       id="path893"
       sodipodi:nodetypes="ccccc" />
    <path
       style="fill:#000000;fill-opacity:1;stroke:#000000;stroke-width:0;stroke-linecap:butt;stroke-linejoin:miter;stroke-miterlimit:4;stroke-dasharray:none;stroke-opacity:1"
       d="m 169.40579,178.54608 c 0,0 5.62321,12.23455 4.59422,19.25038 10.28988,-4.2095 11.40919,-19.48562 11.40919,-19.48562 0,0 -3.58631,9.525 -9.19897,12.98614 -0.93545,-6.73519 -6.80444,-12.7509 -6.80444,-12.7509 z"
       id="path895"
       sodipodi:nodetypes="ccccc" />
    <path
       style="fill:#000000;fill-opacity:1;stroke:#000000;stroke-width:0;stroke-linecap:butt;stroke-linejoin:miter;stroke-miterlimit:4;stroke-dasharray:none;stroke-opacity:1"
       d="m 121.97292,183.75313 c 0,0 3.30729,-5.29166 12.30313,-7.80521 -8.33438,6.74688 -11.64167,16.80104 -11.64167,16.80104 z"
       id="path897"
       sodipodi:nodetypes="cccc" />
  </g>
</svg>
