<?xml version="1.0" encoding="UTF-8" standalone="no"?>
<!-- Created with Inkscape (http://www.inkscape.org/) -->

<svg
   width="320"
   height="320"
   viewBox="0 0 84.666665 84.66667"
   version="1.1"
   id="svg5"
   shape-rendering="crispEdges"
   inkscape:version="1.3 (0e150ed6c4, 2023-07-21)"
   sodipodi:docname="RedEyes_Male_east.svg"
   inkscape:export-filename="..\..\Madness Pawns\Textures\Things\Pawn\Humanlike\HeadAttachments\RedEyes\Male\RedEyes_Male_east.png"
   inkscape:export-xdpi="38.400002"
   inkscape:export-ydpi="38.400002"
   xmlns:inkscape="http://www.inkscape.org/namespaces/inkscape"
   xmlns:sodipodi="http://sodipodi.sourceforge.net/DTD/sodipodi-0.dtd"
   xmlns="http://www.w3.org/2000/svg"
   xmlns:svg="http://www.w3.org/2000/svg">
  <sodipodi:namedview
     id="namedview7"
     pagecolor="#ffffff"
     bordercolor="#111111"
     borderopacity="1"
     inkscape:pageshadow="0"
     inkscape:pageopacity="0"
     inkscape:pagecheckerboard="true"
     inkscape:document-units="px"
     showgrid="false"
     units="px"
     showguides="true"
     inkscape:zoom="4"
     inkscape:cx="163.625"
     inkscape:cy="159.875"
     inkscape:window-width="1920"
     inkscape:window-height="1017"
     inkscape:window-x="-8"
     inkscape:window-y="-8"
     inkscape:window-maximized="1"
     inkscape:current-layer="layer1"
     inkscape:guide-bbox="true"
     inkscape:snap-object-midpoints="true"
     inkscape:snap-global="false"
     inkscape:snap-bbox="true"
     inkscape:snap-bbox-midpoints="false"
     width="320px"
     inkscape:snap-page="true"
     borderlayer="true"
     inkscape:bbox-paths="true"
     inkscape:object-nodes="true"
     inkscape:snap-nodes="true"
     inkscape:snap-smooth-nodes="true"
     inkscape:showpageshadow="0"
     inkscape:deskcolor="#d1d1d1">
    <inkscape:grid
       type="xygrid"
       id="grid23"
       visible="false"
       enabled="true"
       dotted="false"
       originx="0"
       originy="0"
       spacingy="1"
       spacingx="1"
       units="px" />
    <sodipodi:guide
       position="42.333334,42.333335"
       orientation="1,0"
       id="guide47299"
       inkscape:locked="false" />
    <sodipodi:guide
       position="42.333334,42.333335"
       orientation="0,-1"
       id="guide47301"
       inkscape:locked="false" />
  </sodipodi:namedview>
  <defs
     id="defs2">
    <inkscape:path-effect
       effect="mirror_symmetry"
       start_point="106.33356,42.333332"
       end_point="100.47965,42.333332"
       center_point="103.40661,42.333332"
       id="path-effect8500"
       is_visible="true"
       lpeversion="1.1"
       mode="free"
       discard_orig_path="false"
       fuse_paths="false"
       oposite_fuse="false"
       split_items="false"
       split_open="false" />
    <inkscape:path-effect
       effect="mirror_symmetry"
       start_point="103.45208,33.029508"
       end_point="103.45208,51.637157"
       center_point="103.45208,42.333332"
       id="path-effect7677"
       is_visible="true"
       lpeversion="1.1"
       mode="free"
       discard_orig_path="false"
       fuse_paths="false"
       oposite_fuse="false"
       split_items="false"
       split_open="false" />
    <inkscape:path-effect
       effect="mirror_symmetry"
       start_point="120.44285,33.029653"
       end_point="120.44285,51.637012"
       center_point="120.44285,42.333332"
       id="path-effect7675"
       is_visible="true"
       lpeversion="1.1"
       mode="free"
       discard_orig_path="false"
       fuse_paths="false"
       oposite_fuse="false"
       split_items="false"
       split_open="false" />
    <inkscape:path-effect
       effect="mirror_symmetry"
       start_point="120.44285,36.671206"
       end_point="120.44285,47.995458"
       center_point="120.44285,42.333332"
       id="path-effect7635"
       is_visible="true"
       lpeversion="1.1"
       mode="free"
       discard_orig_path="false"
       fuse_paths="false"
       oposite_fuse="false"
       split_items="false"
       split_open="false" />
    <inkscape:path-effect
       effect="mirror_symmetry"
       start_point="120.44285,39.668214"
       end_point="120.44285,44.99845"
       center_point="120.44285,42.333332"
       id="path-effect7595"
       is_visible="true"
       lpeversion="1.1"
       mode="free"
       discard_orig_path="false"
       fuse_paths="false"
       oposite_fuse="false"
       split_items="false"
       split_open="false" />
    <marker
       style="overflow:visible"
       id="Arrow1Lstart"
       refX="0.0"
       refY="0.0"
       orient="auto"
       inkscape:stockid="Arrow1Lstart"
       inkscape:isstock="true">
      <path
         transform="scale(0.8) translate(12.5,0)"
         style="fill-rule:evenodd;fill:context-stroke;stroke:context-stroke;stroke-width:1.0pt"
         d="M 0.0,0.0 L 5.0,-5.0 L -12.5,0.0 L 5.0,5.0 L 0.0,0.0 z "
         id="path6839" />
    </marker>
    <inkscape:path-effect
       effect="mirror_symmetry"
       start_point="309.98879,97.701162"
       end_point="309.98879,222.29882"
       center_point="309.98879,159.99999"
       id="path-effect21390"
       is_visible="true"
       lpeversion="1.1"
       mode="free"
       discard_orig_path="false"
       fuse_paths="false"
       oposite_fuse="false"
       split_items="false"
       split_open="false" />
    <inkscape:path-effect
       effect="mirror_symmetry"
       start_point="102.52604,42.333332"
       end_point="90.090628,42.333332"
       center_point="96.308334,42.333332"
       id="path-effect1017"
       is_visible="true"
       lpeversion="1.1"
       mode="free"
       discard_orig_path="false"
       fuse_paths="false"
       oposite_fuse="false"
       split_items="false"
       split_open="false" />
    <inkscape:path-effect
       effect="mirror_symmetry"
       start_point="169.33333,162.26983"
       end_point="169.33333,183.93127"
       center_point="169.33333,173.10055"
       id="path-effect2786"
       is_visible="true"
       lpeversion="1.1"
       mode="free"
       discard_orig_path="false"
       fuse_paths="false"
       oposite_fuse="false"
       split_items="false"
       split_open="false" />
    <inkscape:path-effect
       effect="mirror_symmetry"
       start_point="164.56532,168.80302"
       end_point="164.56532,177.53426"
       center_point="164.56532,173.16864"
       id="path-effect1193"
       is_visible="true"
       lpeversion="1.1"
       mode="free"
       discard_orig_path="false"
       fuse_paths="false"
       oposite_fuse="false"
       split_items="false"
       split_open="false" />
    <inkscape:path-effect
       effect="skeletal"
       id="path-effect6115"
       is_visible="true"
       lpeversion="1"
       pattern="m -2.0295623,7.0328832 c 0,-2.755661 2.23647803,-4.992139 4.992138,-4.992139 2.755661,0 4.992138,2.236478 4.992138,4.992139 0,2.75566 -2.236477,4.9921378 -4.992138,4.9921378 -2.75565997,0 -4.992138,-2.2364778 -4.992138,-4.9921378 z"
       copytype="single_stretched"
       prop_scale="0.1"
       scale_y_rel="false"
       spacing="1.8"
       normal_offset="0"
       tang_offset="0"
       prop_units="false"
       vertical_pattern="false"
       hide_knot="false"
       fuse_tolerance="0" />
    <inkscape:path-effect
       effect="skeletal"
       id="path-effect6870"
       is_visible="true"
       lpeversion="1"
       pattern="m -2.0295623,7.0328822 c 0,-2.75566 2.23647703,-4.992138 4.992138,-4.992138 2.75566,0 4.992138,2.236478 4.992138,4.992138 0,2.755661 -2.236478,4.9921388 -4.992138,4.9921388 -2.75566097,0 -4.992138,-2.2364778 -4.992138,-4.9921388 z"
       copytype="single_stretched"
       prop_scale="0.1"
       scale_y_rel="false"
       spacing="1.8"
       normal_offset="0"
       tang_offset="0"
       prop_units="false"
       vertical_pattern="false"
       hide_knot="false"
       fuse_tolerance="0" />
    <inkscape:path-effect
       effect="skeletal"
       id="path-effect7408"
       is_visible="true"
       lpeversion="1"
       pattern="m 100.25374,51.823355 c 0,2.755661 -2.236477,4.992139 -4.992138,4.992139 -2.755661,0 -4.992138,-2.236478 -4.992138,-4.992139 0,-2.75566 2.236477,-4.992138 4.992138,-4.992138 2.755661,0 4.992138,2.236478 4.992138,4.992138 z"
       copytype="single_stretched"
       prop_scale="0.1"
       scale_y_rel="false"
       spacing="1.8"
       normal_offset="0"
       tang_offset="0"
       prop_units="false"
       vertical_pattern="false"
       hide_knot="false"
       fuse_tolerance="0" />
    <inkscape:path-effect
       effect="skeletal"
       id="path-effect7726"
       is_visible="true"
       lpeversion="1"
       pattern="m 87.559002,94.975382 c 0,2.75566 -2.23648,4.992138 -4.99214,4.992138 -2.755665,0 -4.992143,-2.236478 -4.992143,-4.992138 0,-2.755661 2.236478,-4.992138 4.992143,-4.992138 2.75566,0 4.99214,2.236477 4.99214,4.992138 z"
       copytype="single_stretched"
       prop_scale="0.1"
       scale_y_rel="false"
       spacing="1.8"
       normal_offset="0"
       tang_offset="0"
       prop_units="false"
       vertical_pattern="false"
       hide_knot="false"
       fuse_tolerance="0" />
    <inkscape:path-effect
       effect="skeletal"
       id="path-effect8511"
       is_visible="true"
       lpeversion="1"
       pattern="m -21.901175,56.156991 c 0,-2.75566 2.23648,-4.992138 4.99214,-4.992138 2.75566,0 4.99214,2.236478 4.99214,4.992138 0,2.755661 -2.23648,4.992138 -4.99214,4.992138 -2.75566,0 -4.99214,-2.236477 -4.99214,-4.992138 z"
       copytype="single_stretched"
       prop_scale="0.1"
       scale_y_rel="false"
       spacing="1.8"
       normal_offset="0"
       tang_offset="0"
       prop_units="false"
       vertical_pattern="false"
       hide_knot="false"
       fuse_tolerance="0" />
    <inkscape:path-effect
       effect="skeletal"
       id="path-effect8745"
       is_visible="true"
       lpeversion="1"
       pattern="m 8.6727577,89.955326 c -2.75566,0 -4.992138,-2.23648 -4.992138,-4.992143 0,-2.755665 2.236478,-4.992143 4.992138,-4.992143 2.7556613,0 4.9921383,2.236478 4.9921383,4.992143 0,2.755663 -2.236477,4.992143 -4.9921383,4.992143 z"
       copytype="single_stretched"
       prop_scale="0.1"
       scale_y_rel="false"
       spacing="1.8"
       normal_offset="0"
       tang_offset="0"
       prop_units="false"
       vertical_pattern="false"
       hide_knot="false"
       fuse_tolerance="0" />
    <inkscape:path-effect
       effect="skeletal"
       id="path-effect9265"
       is_visible="true"
       lpeversion="1"
       pattern="m 40.240788,90.285804 c -2.75566,0 -4.992138,-2.23648 -4.992138,-4.992143 0,-2.755665 2.236478,-4.992143 4.992138,-4.992143 2.755661,0 4.992138,2.236478 4.992138,4.992143 0,2.755663 -2.236477,4.992143 -4.992138,4.992143 z"
       copytype="single_stretched"
       prop_scale="0.1"
       scale_y_rel="false"
       spacing="1.8"
       normal_offset="0"
       tang_offset="0"
       prop_units="false"
       vertical_pattern="false"
       hide_knot="false"
       fuse_tolerance="0" />
    <inkscape:path-effect
       effect="skeletal"
       id="path-effect9655"
       is_visible="true"
       lpeversion="1"
       pattern="m 37.647843,-10.176178 c 2.75566,0 4.992138,2.2364802 4.992138,4.9921402 0,2.75567 -2.236478,4.99214 -4.992138,4.99214 -2.755661,0 -4.992138,-2.23647 -4.992138,-4.99214 0,-2.75566 2.236477,-4.9921402 4.992138,-4.9921402 z"
       copytype="single_stretched"
       prop_scale="0.1"
       scale_y_rel="false"
       spacing="1.8"
       normal_offset="0"
       tang_offset="0"
       prop_units="false"
       vertical_pattern="false"
       hide_knot="false"
       fuse_tolerance="0" />
  </defs>
  <g
     inkscape:groupmode="layer"
     id="layer4"
     inkscape:label="HeadF"
     style="display:none;mix-blend-mode:normal"
     sodipodi:insensitive="true">
    <ellipse
       style="display:inline;mix-blend-mode:luminosity;fill:#ff0000;fill-opacity:1;stroke:#0000ff;stroke-width:11.2822;stroke-miterlimit:4;stroke-dasharray:none;stroke-opacity:1"
       id="path584-9"
       cx="29.990955"
       cy="42.358788"
       rx="56.642292"
       ry="73.114799"
       inkscape:export-filename="C:\Users\Maxim\OneDrive\Desktop\Back.png"
       inkscape:export-xdpi="9.6000004"
       inkscape:export-ydpi="9.6000004" />
    <path
       id="path2267"
       style="display:inline;fill:#00ff00;stroke:none;stroke-width:0.30427px;stroke-linecap:butt;stroke-linejoin:miter;stroke-opacity:1"
       d="m 40.353913,29.133681 c -8.286728,0 -11.371518,7.61393 -11.371518,9.55423 l -4.41193,-2.73843 c 0,0 7.06125,29.354808 39.250948,16.166758 -4.39475,-16.401448 -13.45531,-22.982558 -23.4675,-22.982558 z"
       sodipodi:nodetypes="scccs" />
    <ellipse
       style="display:inline;fill:#ff00ff;stroke:#808080;stroke-width:0;stroke-linecap:round;stroke-linejoin:round;stroke-miterlimit:4;stroke-dasharray:none"
       id="path1191"
       cx="53.956039"
       cy="46.4804"
       rx="3.1948452"
       ry="6.5418253" />
    <path
       d="m 86.835386,29.133681 c -7.110813,0 -13.545773,6.58111 -16.666973,22.982558 22.861617,13.18805 27.876622,-16.166778 27.876622,-16.166778 l -3.133415,2.73845 c 0,-1.9403 -2.19087,-9.55423 -8.076234,-9.55423 z"
       style="display:inline;fill:#00ff00;stroke:none;stroke-width:0.256421px;stroke-linecap:butt;stroke-linejoin:miter;stroke-opacity:1"
       id="path2436" />
    <ellipse
       style="display:inline;fill:#ff00ff;stroke:#808080;stroke-width:0;stroke-linecap:round;stroke-linejoin:round;stroke-miterlimit:4;stroke-dasharray:none"
       id="path1191-9"
       cx="80.249046"
       cy="46.4804"
       rx="3.1948452"
       ry="6.5418253" />
  </g>
  <g
     inkscape:groupmode="layer"
     id="layer3"
     inkscape:label="HeadM"
     style="display:none;opacity:1;mix-blend-mode:normal"
     sodipodi:insensitive="true">
    <ellipse
       style="display:inline;mix-blend-mode:luminosity;fill:#ff0000;fill-opacity:1;stroke:#0000ff;stroke-width:11.2928;stroke-miterlimit:4;stroke-dasharray:none;stroke-opacity:1"
       id="path584-0"
       cx="29.990955"
       cy="42.363998"
       rx="56.751221"
       ry="73.109589"
       inkscape:export-filename="C:\Users\Maxim\OneDrive\Desktop\Back.png"
       inkscape:export-xdpi="9.6000004"
       inkscape:export-ydpi="9.6000004" />
    <path
       style="display:inline;mix-blend-mode:normal;fill:none;stroke:#00ff00;stroke-width:4.56838;stroke-linecap:round;stroke-linejoin:miter;stroke-miterlimit:4;stroke-dasharray:none;stroke-opacity:1"
       d="m 60.503149,5.1397225 c 9.24723,24.6481105 9.04383,49.7574305 0,75.2977475"
       id="path1875-7"
       sodipodi:nodetypes="cc"
       inkscape:export-filename="C:\Users\Maxim\OneDrive\Desktop\Back.png"
       inkscape:export-xdpi="9.6000004"
       inkscape:export-ydpi="9.6000004" />
    <path
       style="display:inline;mix-blend-mode:normal;fill:none;stroke:#00ff00;stroke-width:4.16554;stroke-linecap:round;stroke-linejoin:miter;stroke-miterlimit:4;stroke-dasharray:none;stroke-opacity:1"
       d="m 40.275359,42.333333 c 15.75682,0 31.06152,0 47.315227,0"
       id="path2880-1"
       sodipodi:nodetypes="cc"
       inkscape:export-filename="C:\Users\Maxim\OneDrive\Desktop\Back.png"
       inkscape:export-xdpi="9.6000004"
       inkscape:export-ydpi="9.6000004" />
  </g>
  <g
     inkscape:groupmode="layer"
     id="layer1"
     inkscape:label="New"
     style="display:inline">
    <path
       id="path1311"
       style="display:inline;stroke:#000000;stroke-width:0;stroke-linecap:round;stroke-linejoin:round"
       d="m 64.553439,40.243498 c 10e-7,6.867892 -7.153213,12.435418 -15.97715,12.435418 -8.823937,0 -15.97715,-5.567526 -15.97715,-12.435418 0,-5.387832 5.081131,-11.991399 14.275082,-11.991399 8.823936,0 17.679218,5.123508 17.679218,11.991399 z"
       sodipodi:nodetypes="sssss"
       transform="matrix(0.94117782,0,0,1.0018199,1.7079897,2.0557292)" />
    <path
       style="display:inline;mix-blend-mode:normal;fill:#000000;stroke:none;stroke-width:0.264583px;stroke-linecap:butt;stroke-linejoin:miter;stroke-opacity:1"
       d="m 61.918748,42.50516 c -0.220342,0.0049 -0.102501,-3.576047 -2.629253,-7.145415 0,-10e-7 0,-10e-7 -1e-6,-10e-7 -0.63413,-0.903132 -1.424237,-1.759981 -2.372842,-2.549832 -0.730841,-0.608531 -1.500178,-1.130906 -2.266259,-1.574809 0,0 0,0 -1e-6,0 -1.781688,-1.030571 -3.558395,-1.66015 -4.931315,-2.070229 0,0 -10e-7,0 -10e-7,0 -1.863533,-0.552859 -3.038845,-0.722473 -3.032048,-0.855532 0.0068,-0.133059 1.258508,-0.204169 3.197924,0.188075 0,0 0,0 0,0 1.449736,0.291246 3.328291,0.847163 5.239833,1.894571 0,0 10e-7,0 10e-7,10e-7 0.823676,0.450593 1.649082,0.997485 2.43154,1.650741 1.014814,0.847245 1.85474,1.787605 2.515808,2.783123 0,0 0,10e-7 0,10e-7 2.61498,3.967988 2.066956,7.674404 1.846614,7.679306 z"
       id="path6113"
       inkscape:path-effect="#path-effect6115"
       inkscape:original-d="M 61.918748,42.50516 C 61.644115,30.161603 48.520865,28.403019 46.687029,28.309342"
       sodipodi:nodetypes="cc" />
    <path
       style="display:inline;mix-blend-mode:normal;fill:#000000;stroke:none;stroke-width:0.264583px;stroke-linecap:butt;stroke-linejoin:miter;stroke-opacity:1"
       d="m 61.918748,42.50516 c -0.188931,0 0.268242,-4.253228 -2.757235,-8.772603 -1.328868,-2.002378 -3.385553,-3.804229 -6.058791,-5.035247 -0.129626,-0.05994 -0.260148,-0.118571 -0.391566,-0.175886 -4.44445,-1.938343 -9.110701,-2.009663 -12.329819,-1.810714 -3.275126,0.20241 -5.282421,0.622988 -5.312777,0.488591 -0.03036,-0.134398 1.924446,-0.809553 5.249289,-1.197893 3.324843,-0.388339 8.085905,-0.420999 12.789544,1.605877 0.138397,0.05964 0.275888,0.120715 0.412467,0.18323 2.842969,1.30651 5.01122,3.280644 6.378667,5.467696 3.068851,4.94967 2.209152,9.246949 2.020221,9.246949 z"
       id="path6113-8"
       inkscape:path-effect="#path-effect6870"
       inkscape:original-d="m 61.918748,42.50516 c 0,-14.720414 -14.003159,-18.207625 -26.85018,-15.305861"
       sodipodi:nodetypes="cc" />
    <path
       style="display:inline;mix-blend-mode:normal;fill:#000000;stroke:none;stroke-width:0.264583px;stroke-linecap:butt;stroke-linejoin:miter;stroke-opacity:1"
       d="m 30.753431,32.891825 c 0.03891,-0.09966 0.779223,-0.01377 1.778501,0.689281 1.082874,0.761872 2.056247,1.942236 3.056397,3.665538 0,0 10e-7,10e-7 10e-7,10e-7 0.1932,0.321232 0.380495,0.656758 0.559024,1.005749 1.010983,1.976279 1.449424,3.80942 1.561723,5.261776 0.108452,1.402611 -0.08166,2.264834 -0.219384,2.260917 -0.137727,-0.0039 -0.199293,-0.853279 -0.477188,-2.161647 -0.292247,-1.375941 -0.792716,-3.012691 -1.757186,-4.905605 -0.168769,-0.331233 -0.342574,-0.652114 -0.519109,-0.961916 0,0 -10e-7,0 -10e-7,0 -1.030158,-1.741276 -1.698089,-2.771235 -2.615978,-3.664834 -0.786296,-0.76549 -1.41236,-1.07257 -1.3668,-1.18926 z"
       id="path6113-6"
       inkscape:path-effect="#path-effect7408"
       inkscape:original-d="m 37.489693,45.775087 c 0.168295,-5.91697 -4.129338,-11.865423 -6.736257,-12.88326"
       sodipodi:nodetypes="cc"
       transform="rotate(-90,31.049822,35.225469)" />
    <path
       style="display:inline;mix-blend-mode:normal;fill:#000000;stroke:none;stroke-width:0.264583px;stroke-linecap:butt;stroke-linejoin:miter;stroke-opacity:1"
       d="m 40.382436,43.335775 c -0.01152,-0.01296 0.0368,-0.05571 0.05876,-0.0614 0,0 0,0 0,0 0.03738,-0.01652 0.08625,-0.02937 0.151863,-0.041 0,0 0,0 0,0 0.132331,-0.02341 0.304945,-0.03555 0.539531,-0.03638 0.46186,-0.0017 1.077121,0.0419 1.870414,0.161542 1.4843,0.223367 3.509525,0.702916 5.686143,1.687218 1.028199,0.463651 2.087566,1.045368 3.106331,1.769106 1.084078,0.770137 2.017249,1.626562 2.796338,2.54878 0,0 10e-7,10e-7 10e-7,10e-7 3.195168,3.800943 3.019116,7.756819 2.798409,7.778752 -0.220707,0.02193 -0.455649,-3.725685 -3.516811,-7.15732 0,10e-7 -10e-7,0 -10e-7,0 -0.747713,-0.842822 -1.631064,-1.629973 -2.655726,-2.355686 -0.961658,-0.681091 -1.962581,-1.247641 -2.933052,-1.718554 -2.059913,-0.996655 -3.987128,-1.574511 -5.405865,-1.944121 -0.804913,-0.209356 -1.296737,-0.31625 -1.783404,-0.426072 -0.195168,-0.04391 -0.413348,-0.09517 -0.509412,-0.120688 0,0 0,0 0,0 -0.05672,-0.01488 -0.110645,-0.0319 -0.140002,-0.04296 0,0 0,0 0,0 -0.06051,-0.0019 -0.052,-0.02826 -0.06352,-0.04122 z"
       id="path6113-1"
       inkscape:path-effect="#path-effect7726"
       inkscape:original-d="M 57.390229,57.1424 C 56.144527,44.607443 40.562969,43.175302 40.38244,43.335772"
       sodipodi:nodetypes="cc"
       transform="rotate(90,51.742247,53.693139)" />
    <path
       style="display:inline;mix-blend-mode:normal;fill:#000000;stroke:none;stroke-width:0.264583px;stroke-linecap:butt;stroke-linejoin:miter;stroke-opacity:1"
       d="m 55.82039,64.782285 c -0.244055,-0.006 0.269617,-5.415929 -2.609283,-11.306276 -10e-7,0 -10e-7,-10e-7 -10e-7,-10e-7 -0.369516,-0.758794 -0.801454,-1.513677 -1.299275,-2.250361 -1.119342,-1.65642 -2.426669,-3.007997 -3.789293,-4.065259 -1.919567,-1.489194 -3.759087,-2.319229 -5.207224,-2.808357 -0.778385,-0.261773 -1.290189,-0.386808 -1.772523,-0.473735 -0.24911,-0.04385 -0.363928,-0.06081 -0.51834,-0.07052 0,0 0,0 0,0 -0.180979,0.02801 -0.212726,0.01206 -0.242012,-0.001 -0.02928,-0.01311 0.06574,-0.171528 0.218735,-0.185249 0,1e-6 0,0 0,0 0.146189,-0.04375 0.322275,-0.06613 0.567102,-0.06983 0.492742,-0.0087 1.098705,0.05537 1.90488,0.244568 1.54045,0.359894 3.539318,1.125375 5.600684,2.631423 1.472586,1.075878 2.88146,2.487483 4.065371,4.238786 0.526467,0.778776 0.97762,1.579529 1.357195,2.385865 0,0 10e-7,10e-7 10e-7,10e-7 2.931951,6.250673 1.968038,11.736028 1.723983,11.729992 z"
       id="path6113-1-8"
       inkscape:path-effect="#path-effect8511"
       inkscape:original-d="M 55.82039,64.782285 C 56.297743,45.482658 40.696485,43.105045 40.38244,43.806724"
       sodipodi:nodetypes="cc"
       transform="rotate(90,51.742246,53.693139)" />
    <path
       style="display:inline;mix-blend-mode:normal;fill:#000000;stroke:none;stroke-width:0.264583px;stroke-linecap:butt;stroke-linejoin:miter;stroke-opacity:1"
       d="m 44.121659,56.085969 c 0.24926,0.149125 0.491127,0.303362 0.725435,0.461921 0,0 1e-6,0 1e-6,0 1.8848,1.257144 3.121127,2.65254 3.835018,3.935401 0.677216,1.216957 0.772126,2.0844 0.648948,2.123911 -0.123178,0.03951 -0.433028,-0.724371 -1.209526,-1.762548 -0.834463,-1.115676 -2.017165,-2.261262 -3.826132,-3.47053 0,0 0,0 0,0 -0.222676,-0.146578 -0.451484,-0.290328 -0.686413,-0.430698 -3.841504,-2.295301 -7.674488,-2.473421 -7.669193,-2.748936 0.0047,-0.244099 3.915781,-0.660777 8.181862,1.891479 z"
       id="path6113-1-7"
       inkscape:path-effect="#path-effect8745"
       inkscape:original-d="M 49.331061,62.607202 C 48.059798,58.644006 42.373244,54.318115 35.9398,54.19449"
       sodipodi:nodetypes="cc"
       transform="rotate(180,39.931477,54.504534)" />
    <path
       style="display:inline;mix-blend-mode:normal;fill:#000000;stroke:none;stroke-width:0.264583px;stroke-linecap:butt;stroke-linejoin:miter;stroke-opacity:1"
       d="m 58.721349,61.168157 c 0.12207,0.03779 0.241916,0.0773 0.359346,0.118197 0,0 0,0 0,0 1.034856,0.345031 1.881298,0.808461 2.541712,1.334997 1.156174,0.891671 1.337561,1.816818 1.16704,1.883142 -0.15311,0.05955 -0.580064,-0.579046 -1.624949,-1.224459 -0.662258,-0.392027 -1.425045,-0.733919 -2.394695,-1.047399 0,0 0,0 0,0 -0.11123,-0.03423 -0.224115,-0.06815 -0.33824,-0.101435 -1.44123,-0.420363 -2.515913,-0.572342 -3.485761,-0.554285 -0.888278,0.01654 -1.451782,0.165542 -1.505775,0.03878 -0.04824,-0.113256 0.433269,-0.516423 1.420518,-0.732019 1.027159,-0.224313 2.35094,-0.182892 3.860804,0.284482 z"
       id="path6113-1-9"
       inkscape:path-effect="#path-effect9265"
       inkscape:original-d="M 62.789447,64.504493 C 61.939353,62.318889 56.451483,60.333035 53.440036,61.61569"
       sodipodi:nodetypes="cc"
       transform="rotate(-90,33.393475,65.702749)" />
    <path
       style="display:inline;mix-blend-mode:normal;fill:#000000;stroke:none;stroke-width:0.264583px;stroke-linecap:butt;stroke-linejoin:miter;stroke-opacity:1"
       d="m 44.377431,57.573221 c -1.864285,-1.294166 -3.474681,-1.983096 -4.900427,-2.320973 -1.335136,-0.316403 -2.225384,-0.277166 -2.241026,-0.414059 -0.01564,-0.136892 0.884338,-0.428 2.356318,-0.27413 1.5482,0.161837 3.419196,0.811683 5.362546,2.184978 0.204027,0.144178 0.40151,0.29122 0.59219,0.439957 0,0 10e-7,10e-7 10e-7,10e-7 1.277448,0.981523 2.245139,2.025177 2.947801,3.025202 1.176577,1.648662 1.329607,2.94426 1.119528,2.986701 -0.158294,0.03198 -0.549897,-1.078818 -1.74647,-2.50138 -0.754897,-0.882224 -1.697554,-1.796667 -2.922942,-2.719063 0,0 0,0 0,0 -0.184298,-0.136518 -0.373639,-0.272644 -0.567519,-0.407234 z"
       id="path6113-1-73"
       inkscape:path-effect="#path-effect9655"
       inkscape:original-d="M 49.614362,63.200898 C 48.968374,60.00335 42.737488,54.209553 37.235983,54.838189"
       sodipodi:nodetypes="cc"
       transform="rotate(180,38.83182,55.734241)" />
    <path
       id="path1311-6"
       style="display:inline;mix-blend-mode:normal;fill:#d40000;stroke:#000000;stroke-width:0;stroke-linecap:round;stroke-linejoin:round"
       transform="matrix(0.58173176,0,0,0.58173176,20.493753,17.532983)"
       d="m 58.963306,42.631936 c 0,4.877563 -2.61489,8.83161 -8.881633,8.83161 -6.266743,0 -8.881633,-3.954047 -8.881633,-8.83161 0,-4.877564 2.61489,-8.83161 8.881633,-8.83161 6.266743,0 8.881633,3.954046 8.881633,8.83161 z"
       sodipodi:nodetypes="sssss"
       inkscape:original-d="m 58.963306,42.631936 c 0,4.877563 -2.61489,8.83161 -8.881633,8.83161 -6.266743,0 -8.881633,-3.954047 -8.881633,-8.83161 0,-4.877564 2.61489,-8.83161 8.881633,-8.83161 6.266743,0 8.881633,3.954046 8.881633,8.83161 z" />
  </g>
</svg>
