<?xml version="1.0" encoding="UTF-8" standalone="no"?>
<!-- Created with Inkscape (http://www.inkscape.org/) -->

<svg
   width="320"
   height="320"
   viewBox="0 0 84.666665 84.66667"
   version="1.1"
   id="svg5"
   shape-rendering="crispEdges"
   inkscape:version="1.3 (0e150ed6c4, 2023-07-21)"
   sodipodi:docname="RedEyes_Female_south.svg"
   inkscape:export-filename="..\..\Madness Pawns\Textures\Things\Pawn\Humanlike\HeadAttachments\RedEyes\Female\RedEyes_Female_south.png"
   inkscape:export-xdpi="38.400002"
   inkscape:export-ydpi="38.400002"
   xmlns:inkscape="http://www.inkscape.org/namespaces/inkscape"
   xmlns:sodipodi="http://sodipodi.sourceforge.net/DTD/sodipodi-0.dtd"
   xmlns="http://www.w3.org/2000/svg"
   xmlns:svg="http://www.w3.org/2000/svg">
  <sodipodi:namedview
     id="namedview7"
     pagecolor="#ffffff"
     bordercolor="#111111"
     borderopacity="1"
     inkscape:pageshadow="0"
     inkscape:pageopacity="0"
     inkscape:pagecheckerboard="true"
     inkscape:document-units="px"
     showgrid="false"
     units="px"
     showguides="true"
     inkscape:zoom="3.5753087"
     inkscape:cx="175.64917"
     inkscape:cy="171.87327"
     inkscape:window-width="1920"
     inkscape:window-height="1017"
     inkscape:window-x="-8"
     inkscape:window-y="-8"
     inkscape:window-maximized="1"
     inkscape:current-layer="g1"
     inkscape:guide-bbox="true"
     inkscape:snap-object-midpoints="false"
     inkscape:snap-global="true"
     inkscape:snap-bbox="true"
     inkscape:snap-bbox-midpoints="true"
     width="320px"
     inkscape:snap-page="true"
     borderlayer="true"
     inkscape:bbox-paths="true"
     inkscape:object-nodes="true"
     inkscape:snap-nodes="true"
     inkscape:snap-smooth-nodes="true"
     inkscape:showpageshadow="0"
     inkscape:deskcolor="#d1d1d1">
    <inkscape:grid
       type="xygrid"
       id="grid23"
       visible="false"
       enabled="true"
       dotted="false"
       originx="0"
       originy="0"
       spacingy="1"
       spacingx="1"
       units="px" />
    <sodipodi:guide
       position="42.333334,42.333335"
       orientation="1,0"
       id="guide47299"
       inkscape:locked="false" />
    <sodipodi:guide
       position="42.333334,42.333335"
       orientation="0,-1"
       id="guide47301"
       inkscape:locked="false" />
    <sodipodi:guide
       position="67.399865,79.983864"
       orientation="1,0"
       id="guide10528"
       inkscape:locked="false" />
    <sodipodi:guide
       position="86.486434,39.47996"
       orientation="1,0"
       id="guide1"
       inkscape:locked="false" />
    <sodipodi:guide
       position="86.486431,39.479961"
       orientation="0,-1"
       id="guide2"
       inkscape:locked="false" />
  </sodipodi:namedview>
  <defs
     id="defs2">
    <inkscape:path-effect
       effect="mirror_symmetry"
       start_point="67.39978,-19.126407"
       end_point="67.39978,19.126407"
       center_point="67.39978,0"
       id="path-effect1"
       is_visible="false"
       lpeversion="1.2"
       lpesatellites=""
       mode="free"
       discard_orig_path="false"
       fuse_paths="false"
       oposite_fuse="false"
       split_items="false"
       split_open="false"
       link_styles="false" />
    <inkscape:path-effect
       effect="mirror_symmetry"
       start_point="169.33333,162.26983"
       end_point="169.33333,183.93127"
       center_point="169.33333,173.10055"
       id="path-effect12960"
       is_visible="true"
       lpeversion="1.1"
       mode="free"
       discard_orig_path="false"
       fuse_paths="false"
       oposite_fuse="false"
       split_items="false"
       split_open="false" />
    <inkscape:path-effect
       effect="mirror_symmetry"
       start_point="67.399865,23.056335"
       end_point="67.399865,56.709173"
       center_point="67.399865,39.882754"
       id="path-effect10507"
       is_visible="true"
       lpeversion="1.1"
       mode="free"
       discard_orig_path="false"
       fuse_paths="false"
       oposite_fuse="false"
       split_items="false"
       split_open="false" />
    <inkscape:path-effect
       effect="skeletal"
       id="path-effect9655"
       is_visible="true"
       lpeversion="1"
       pattern="m -44.341807,104.73337 c -2.75566,0 -4.992138,-2.23648 -4.992138,-4.992143 0,-2.755665 2.236478,-4.992143 4.992138,-4.992143 2.755661,0 4.992138,2.236478 4.992138,4.992143 0,2.755663 -2.236477,4.992143 -4.992138,4.992143 z"
       copytype="single_stretched"
       prop_scale="0.1"
       scale_y_rel="false"
       spacing="1.8"
       normal_offset="0"
       tang_offset="0"
       prop_units="false"
       vertical_pattern="false"
       hide_knot="false"
       fuse_tolerance="0" />
    <inkscape:path-effect
       effect="skeletal"
       id="path-effect9265"
       is_visible="true"
       lpeversion="1"
       pattern="m -75.547184,55.63877 c 0,-2.75566 2.23648,-4.992138 4.992143,-4.992138 2.755665,0 4.992143,2.236478 4.992143,4.992138 0,2.755661 -2.236478,4.992138 -4.992143,4.992138 -2.755663,0 -4.992143,-2.236477 -4.992143,-4.992138 z"
       copytype="single_stretched"
       prop_scale="0.1"
       scale_y_rel="false"
       spacing="1.8"
       normal_offset="0"
       tang_offset="0"
       prop_units="false"
       vertical_pattern="false"
       hide_knot="false"
       fuse_tolerance="0" />
    <inkscape:path-effect
       effect="skeletal"
       id="path-effect8745"
       is_visible="true"
       lpeversion="1"
       pattern="m -13.167408,2.14245 c 2.75566,0 4.9921381,2.23648 4.9921381,4.992143 0,2.755665 -2.2364781,4.992143 -4.9921381,4.992143 -2.755661,0 -4.992138,-2.236478 -4.992138,-4.992143 0,-2.755663 2.236477,-4.992143 4.992138,-4.992143 z"
       copytype="single_stretched"
       prop_scale="0.1"
       scale_y_rel="false"
       spacing="1.8"
       normal_offset="0"
       tang_offset="0"
       prop_units="false"
       vertical_pattern="false"
       hide_knot="false"
       fuse_tolerance="0" />
    <inkscape:path-effect
       effect="skeletal"
       id="path-effect8511"
       is_visible="true"
       lpeversion="1"
       pattern="m -30.151506,110.42526 c -2.75566,0 -4.992138,-2.23648 -4.992138,-4.99214 0,-2.75566 2.236478,-4.99214 4.992138,-4.99214 2.755661,0 4.992138,2.23648 4.992138,4.99214 0,2.75566 -2.236477,4.99214 -4.992138,4.99214 z"
       copytype="single_stretched"
       prop_scale="0.1"
       scale_y_rel="false"
       spacing="1.8"
       normal_offset="0"
       tang_offset="0"
       prop_units="false"
       vertical_pattern="false"
       hide_knot="false"
       fuse_tolerance="0" />
    <inkscape:path-effect
       effect="skeletal"
       id="path-effect7726"
       is_visible="true"
       lpeversion="1"
       pattern="m 8.6668861,0.965092 c 2.7556599,0 4.9921379,2.23648 4.9921379,4.99214 0,2.755665 -2.236478,4.992143 -4.9921379,4.992143 -2.755661,0 -4.992138,-2.236478 -4.992138,-4.992143 0,-2.75566 2.236477,-4.99214 4.992138,-4.99214 z"
       copytype="single_stretched"
       prop_scale="0.1"
       scale_y_rel="false"
       spacing="1.8"
       normal_offset="0"
       tang_offset="0"
       prop_units="false"
       vertical_pattern="false"
       hide_knot="false"
       fuse_tolerance="0" />
    <inkscape:path-effect
       effect="skeletal"
       id="path-effect7408"
       is_visible="true"
       lpeversion="1"
       pattern="m -69.905668,87.518095 c -2.755661,0 -4.992139,-2.236478 -4.992139,-4.992138 0,-2.755661 2.236478,-4.992138 4.992139,-4.992138 2.75566,0 4.992138,2.236477 4.992138,4.992138 0,2.75566 -2.236478,4.992138 -4.992138,4.992138 z"
       copytype="single_stretched"
       prop_scale="0.1"
       scale_y_rel="false"
       spacing="1.8"
       normal_offset="0"
       tang_offset="0"
       prop_units="false"
       vertical_pattern="false"
       hide_knot="false"
       fuse_tolerance="0" />
    <inkscape:path-effect
       effect="skeletal"
       id="path-effect6870"
       is_visible="true"
       lpeversion="1"
       pattern="m -69.700866,4.8996345 c 0,-2.7556604 2.236477,-4.99213824 4.992138,-4.99213824 2.75566,0 4.992138,2.23647784 4.992138,4.99213824 0,2.7556605 -2.236478,4.9921385 -4.992138,4.9921385 -2.755661,0 -4.992138,-2.236478 -4.992138,-4.9921385 z"
       copytype="single_stretched"
       prop_scale="0.1"
       scale_y_rel="false"
       spacing="1.8"
       normal_offset="0"
       tang_offset="0"
       prop_units="false"
       vertical_pattern="false"
       hide_knot="false"
       fuse_tolerance="0" />
    <inkscape:path-effect
       effect="skeletal"
       id="path-effect6115"
       is_visible="true"
       lpeversion="1"
       pattern="m -69.700866,4.8996346 c 0,-2.7556604 2.236478,-4.99213827 4.992138,-4.99213827 2.755661,0 4.992139,2.23647787 4.992139,4.99213827 0,2.7556603 -2.236478,4.9921382 -4.992139,4.9921382 -2.75566,0 -4.992138,-2.2364779 -4.992138,-4.9921382 z"
       copytype="single_stretched"
       prop_scale="0.1"
       scale_y_rel="false"
       spacing="1.8"
       normal_offset="0"
       tang_offset="0"
       prop_units="false"
       vertical_pattern="false"
       hide_knot="false"
       fuse_tolerance="0" />
    <inkscape:path-effect
       effect="skeletal"
       id="path-effect5838"
       is_visible="true"
       lpeversion="1"
       pattern="M 0,4.9921383 C 0,2.2364779 2.2364779,0 4.9921383,0 c 2.7556603,0 4.9921382,2.2364779 4.9921382,4.9921383 0,2.7556603 -2.2364779,4.9921382 -4.9921382,4.9921382 C 2.2364779,9.9842765 0,7.7477986 0,4.9921383 Z"
       copytype="single_stretched"
       prop_scale="0"
       scale_y_rel="false"
       spacing="0"
       normal_offset="0"
       tang_offset="0"
       prop_units="false"
       vertical_pattern="false"
       hide_knot="false"
       fuse_tolerance="0" />
    <inkscape:path-effect
       effect="skeletal"
       id="path-effect5834"
       is_visible="true"
       lpeversion="1"
       pattern="M 0,4.9921383 C 0,2.2364779 2.2364779,0 4.9921383,0 c 2.7556603,0 4.9921382,2.2364779 4.9921382,4.9921383 0,2.7556603 -2.2364779,4.9921382 -4.9921382,4.9921382 C 2.2364779,9.9842765 0,7.7477986 0,4.9921383 Z"
       copytype="single_stretched"
       prop_scale="1"
       scale_y_rel="false"
       spacing="0"
       normal_offset="0"
       tang_offset="0"
       prop_units="false"
       vertical_pattern="false"
       hide_knot="false"
       fuse_tolerance="0" />
    <inkscape:path-effect
       effect="skeletal"
       id="path-effect5830"
       is_visible="true"
       lpeversion="1"
       pattern="M 0,4.9921383 C 0,2.2364779 2.2364779,0 4.9921383,0 c 2.7556603,0 4.9921382,2.2364779 4.9921382,4.9921383 0,2.7556603 -2.2364779,4.9921382 -4.9921382,4.9921382 C 2.2364779,9.9842765 0,7.7477986 0,4.9921383 Z"
       copytype="single_stretched"
       prop_scale="0.07"
       scale_y_rel="false"
       spacing="0"
       normal_offset="0"
       tang_offset="0"
       prop_units="false"
       vertical_pattern="false"
       hide_knot="false"
       fuse_tolerance="0" />
    <inkscape:path-effect
       effect="rough_hatches"
       id="path-effect5629"
       is_visible="true"
       lpeversion="1"
       direction="320,62.081115 , 30.192873,0"
       dist_rdm="5;1"
       growth="0"
       do_bend="true"
       bender="282.75364,90.418568 , 5,0"
       bottom_edge_variation="9.4000005;1"
       top_edge_variation="9.4000005;1"
       bottom_tgt_variation="0;1"
       top_tgt_variation="0;1"
       scale_bf="1"
       scale_bb="1"
       scale_tf="1"
       scale_tb="1"
       top_smth_variation="0;1"
       bottom_smth_variation="0;1"
       fat_output="true"
       stroke_width_top="1"
       stroke_width_bottom="1"
       front_thickness="1"
       back_thickness="0.25" />
    <inkscape:path-effect
       effect="sketch"
       id="path-effect1906"
       is_visible="true"
       lpeversion="1"
       nbiter_approxstrokes="3"
       strokelength="21"
       strokelength_rdm="0.2;-1004422696"
       strokeoverlap="0.3"
       strokeoverlap_rdm="0.3;1"
       ends_tolerance="0.6;921894327"
       parallel_offset="5.9;1"
       tremble_size="1;1"
       tremble_frequency="0.51"
       nbtangents="0"
       tgt_places_rdmness="0;1"
       tgtscale="9.4"
       tgtlength="11"
       tgtlength_rdm="0.1;1" />
    <inkscape:path-effect
       effect="mirror_symmetry"
       start_point="309.98879,97.701162"
       end_point="309.98879,222.29882"
       center_point="309.98879,159.99999"
       id="path-effect21390"
       is_visible="true"
       lpeversion="1.1"
       mode="free"
       discard_orig_path="false"
       fuse_paths="false"
       oposite_fuse="false"
       split_items="false"
       split_open="false" />
    <inkscape:path-effect
       effect="mirror_symmetry"
       start_point="102.52604,42.333332"
       end_point="90.090628,42.333332"
       center_point="96.308334,42.333332"
       id="path-effect1017"
       is_visible="true"
       lpeversion="1.1"
       mode="free"
       discard_orig_path="false"
       fuse_paths="false"
       oposite_fuse="false"
       split_items="false"
       split_open="false" />
    <inkscape:path-effect
       effect="mirror_symmetry"
       start_point="169.33333,162.26983"
       end_point="169.33333,183.93127"
       center_point="169.33333,173.10055"
       id="path-effect2786"
       is_visible="true"
       lpeversion="1.1"
       mode="free"
       discard_orig_path="false"
       fuse_paths="false"
       oposite_fuse="false"
       split_items="false"
       split_open="false" />
    <inkscape:path-effect
       effect="mirror_symmetry"
       start_point="164.56532,168.80302"
       end_point="164.56532,177.53426"
       center_point="164.56532,173.16864"
       id="path-effect1193"
       is_visible="true"
       lpeversion="1.1"
       mode="free"
       discard_orig_path="false"
       fuse_paths="false"
       oposite_fuse="false"
       split_items="false"
       split_open="false" />
    <inkscape:path-effect
       effect="skeletal"
       id="path-effect7726-6"
       is_visible="true"
       lpeversion="1"
       pattern="m 8.6668861,0.965092 c 2.7556599,0 4.9921379,2.23648 4.9921379,4.99214 0,2.755665 -2.236478,4.992143 -4.9921379,4.992143 -2.755661,0 -4.992138,-2.236478 -4.992138,-4.992143 0,-2.75566 2.236477,-4.99214 4.992138,-4.99214 z"
       copytype="single_stretched"
       prop_scale="0.1"
       scale_y_rel="false"
       spacing="1.8"
       normal_offset="0"
       tang_offset="0"
       prop_units="false"
       vertical_pattern="false"
       hide_knot="false"
       fuse_tolerance="0" />
    <inkscape:path-effect
       effect="skeletal"
       id="path-effect8511-1"
       is_visible="true"
       lpeversion="1"
       pattern="m -30.151506,110.42526 c -2.75566,0 -4.992138,-2.23648 -4.992138,-4.99214 0,-2.75566 2.236478,-4.99214 4.992138,-4.99214 2.755661,0 4.992138,2.23648 4.992138,4.99214 0,2.75566 -2.236477,4.99214 -4.992138,4.99214 z"
       copytype="single_stretched"
       prop_scale="0.1"
       scale_y_rel="false"
       spacing="1.8"
       normal_offset="0"
       tang_offset="0"
       prop_units="false"
       vertical_pattern="false"
       hide_knot="false"
       fuse_tolerance="0" />
    <inkscape:path-effect
       effect="skeletal"
       id="path-effect6115-5"
       is_visible="true"
       lpeversion="1"
       pattern="m -69.700866,4.8996346 c 0,-2.7556604 2.236478,-4.99213827 4.992138,-4.99213827 2.755661,0 4.992139,2.23647787 4.992139,4.99213827 0,2.7556603 -2.236478,4.9921382 -4.992139,4.9921382 -2.75566,0 -4.992138,-2.2364779 -4.992138,-4.9921382 z"
       copytype="single_stretched"
       prop_scale="0.1"
       scale_y_rel="false"
       spacing="1.8"
       normal_offset="0"
       tang_offset="0"
       prop_units="false"
       vertical_pattern="false"
       hide_knot="false"
       fuse_tolerance="0" />
    <inkscape:path-effect
       effect="skeletal"
       id="path-effect6870-4"
       is_visible="true"
       lpeversion="1"
       pattern="m -69.700866,4.8996345 c 0,-2.7556604 2.236477,-4.99213824 4.992138,-4.99213824 2.75566,0 4.992138,2.23647784 4.992138,4.99213824 0,2.7556605 -2.236478,4.9921385 -4.992138,4.9921385 -2.755661,0 -4.992138,-2.236478 -4.992138,-4.9921385 z"
       copytype="single_stretched"
       prop_scale="0.1"
       scale_y_rel="false"
       spacing="1.8"
       normal_offset="0"
       tang_offset="0"
       prop_units="false"
       vertical_pattern="false"
       hide_knot="false"
       fuse_tolerance="0" />
    <inkscape:path-effect
       effect="skeletal"
       id="path-effect8745-0"
       is_visible="true"
       lpeversion="1"
       pattern="m -13.167408,2.14245 c 2.75566,0 4.9921381,2.23648 4.9921381,4.992143 0,2.755665 -2.2364781,4.992143 -4.9921381,4.992143 -2.755661,0 -4.992138,-2.236478 -4.992138,-4.992143 0,-2.755663 2.236477,-4.992143 4.992138,-4.992143 z"
       copytype="single_stretched"
       prop_scale="0.1"
       scale_y_rel="false"
       spacing="1.8"
       normal_offset="0"
       tang_offset="0"
       prop_units="false"
       vertical_pattern="false"
       hide_knot="false"
       fuse_tolerance="0" />
    <inkscape:path-effect
       effect="skeletal"
       id="path-effect9655-1"
       is_visible="true"
       lpeversion="1"
       pattern="m -44.341807,104.73337 c -2.75566,0 -4.992138,-2.23648 -4.992138,-4.992143 0,-2.755665 2.236478,-4.992143 4.992138,-4.992143 2.755661,0 4.992138,2.236478 4.992138,4.992143 0,2.755663 -2.236477,4.992143 -4.992138,4.992143 z"
       copytype="single_stretched"
       prop_scale="0.1"
       scale_y_rel="false"
       spacing="1.8"
       normal_offset="0"
       tang_offset="0"
       prop_units="false"
       vertical_pattern="false"
       hide_knot="false"
       fuse_tolerance="0" />
    <inkscape:path-effect
       effect="skeletal"
       id="path-effect7408-5"
       is_visible="true"
       lpeversion="1"
       pattern="m -69.905668,87.518095 c -2.755661,0 -4.992139,-2.236478 -4.992139,-4.992138 0,-2.755661 2.236478,-4.992138 4.992139,-4.992138 2.75566,0 4.992138,2.236477 4.992138,4.992138 0,2.75566 -2.236478,4.992138 -4.992138,4.992138 z"
       copytype="single_stretched"
       prop_scale="0.1"
       scale_y_rel="false"
       spacing="1.8"
       normal_offset="0"
       tang_offset="0"
       prop_units="false"
       vertical_pattern="false"
       hide_knot="false"
       fuse_tolerance="0" />
    <inkscape:path-effect
       effect="skeletal"
       id="path-effect9265-2"
       is_visible="true"
       lpeversion="1"
       pattern="m -75.547184,55.63877 c 0,-2.75566 2.23648,-4.992138 4.992143,-4.992138 2.755665,0 4.992143,2.236478 4.992143,4.992138 0,2.755661 -2.236478,4.992138 -4.992143,4.992138 -2.755663,0 -4.992143,-2.236477 -4.992143,-4.992138 z"
       copytype="single_stretched"
       prop_scale="0.1"
       scale_y_rel="false"
       spacing="1.8"
       normal_offset="0"
       tang_offset="0"
       prop_units="false"
       vertical_pattern="false"
       hide_knot="false"
       fuse_tolerance="0" />
  </defs>
  <g
     inkscape:groupmode="layer"
     id="layer3"
     inkscape:label="HeadM"
     style="display:none;opacity:1">
    <ellipse
       style="display:inline;mix-blend-mode:normal;fill:#ff0000;fill-opacity:1;stroke:#0000ff;stroke-width:11.2822;stroke-miterlimit:4;stroke-dasharray:none;stroke-opacity:1"
       id="path584"
       cx="67.399834"
       cy="42.333332"
       rx="56.642174"
       ry="73.114799"
       inkscape:export-filename="C:\Program Files (x86)\Steam\steamapps\common\RimWorld\Mods\Madness Pawns\Textures\Things\Pawn\Humanlike\Heads\Male\Male_Narrow_Normal_south.png"
       inkscape:export-xdpi="9.6000004"
       inkscape:export-ydpi="9.6000004" />
    <path
       style="display:inline;mix-blend-mode:normal;fill:none;stroke:#00ff00;stroke-width:4.56407;stroke-linecap:round;stroke-linejoin:miter;stroke-miterlimit:4;stroke-dasharray:none;stroke-opacity:1"
       d="m 67.399865,4.6828033 c 0,75.3032347 0,75.3032347 0,75.3032347"
       id="path1875" />
    <path
       style="display:inline;mix-blend-mode:normal;fill:none;stroke:#00ff00;stroke-width:4.56407;stroke-linecap:round;stroke-linejoin:miter;stroke-miterlimit:4;stroke-dasharray:none;stroke-opacity:1"
       d="m 38.999785,42.334424 c 27.79153,0 27.79153,0 56.800163,0"
       id="path2880"
       sodipodi:nodetypes="cc"
       inkscape:export-filename="C:\Users\Maxim\OneDrive\Desktop\Modding\RimWorld\Madness Pawns\Textures\Things\Pawn\Humanlike\Heads\Male\Male_Narrow_Normal_south.png"
       inkscape:export-xdpi="9.6000004"
       inkscape:export-ydpi="9.6000004" />
  </g>
  <g
     inkscape:groupmode="layer"
     id="layer4"
     inkscape:label="HeadF"
     style="display:none"
     sodipodi:insensitive="true">
    <ellipse
       style="display:inline;mix-blend-mode:normal;fill:#ff0000;fill-opacity:1;stroke:#0000ff;stroke-width:11.2822;stroke-miterlimit:4;stroke-dasharray:none;stroke-opacity:1"
       id="path584-9"
       cx="67.399834"
       cy="42.333332"
       rx="56.642292"
       ry="73.114799"
       inkscape:export-filename="C:\Program Files (x86)\Steam\steamapps\common\RimWorld\Mods\Madness Pawns\Textures\Things\Pawn\Humanlike\Heads\Male\Male_Narrow_Normal_south.png"
       inkscape:export-xdpi="9.6000004"
       inkscape:export-ydpi="9.6000004" />
    <path
       style="display:inline;mix-blend-mode:normal;fill:#00ff00;stroke:none;stroke-width:0.264583px;stroke-linecap:butt;stroke-linejoin:miter;stroke-opacity:1"
       d="m 136.82639,167.77323 -3.83646,-2.38124 c 0,0 6.14022,25.52562 34.13125,14.05775 -3.82152,-14.26212 -11.70044,-19.98448 -20.40668,-19.98448 -7.20585,0 -9.88811,6.62076 -9.88811,8.30797 z m 65.01388,0 3.83646,-2.38124 c 0,0 -6.14022,25.52562 -34.13125,14.05775 3.82152,-14.26212 11.70044,-19.98448 20.40668,-19.98448 7.20585,0 9.88811,6.62076 9.88811,8.30797 z"
       id="path2267"
       sodipodi:nodetypes="cccsc"
       inkscape:path-effect="#path-effect2786"
       inkscape:original-d="m 136.82639,167.77323 -3.83646,-2.38124 c 0,0 6.14022,25.52562 34.13125,14.05775 -3.82152,-14.26212 -11.70044,-19.98448 -20.40668,-19.98448 -7.20585,0 -9.88811,6.62076 -9.88811,8.30797 z"
       transform="matrix(1.15,0,0,1.15,-127.33355,-155.01229)" />
    <path
       style="display:inline;mix-blend-mode:normal;fill:#ff00ff;stroke:#808080;stroke-width:0;stroke-linecap:round;stroke-linejoin:round;stroke-miterlimit:4;stroke-dasharray:none"
       id="path1191"
       inkscape:path-effect="#path-effect1193"
       sodipodi:type="arc"
       sodipodi:cx="150.74635"
       sodipodi:cy="174.6219"
       sodipodi:rx="2.778125"
       sodipodi:ry="5.6885414"
       transform="matrix(1.15,0,0,1.15,-121.85034,-155.62848)"
       d="m 153.52448,174.6219 c 0,3.1417 -1.24381,5.68854 -2.77813,5.68854 -1.53431,0 -2.77812,-2.54684 -2.77812,-5.68854 0,-3.14169 1.24381,-5.68854 2.77812,-5.68854 1.53432,0 2.77813,2.54685 2.77813,5.68854 z m 22.08168,0 c 0,3.1417 1.24381,5.68854 2.77813,5.68854 1.53431,0 2.77812,-2.54684 2.77812,-5.68854 0,-3.14169 -1.24381,-5.68854 -2.77812,-5.68854 -1.53432,0 -2.77813,2.54685 -2.77813,5.68854 z" />
  </g>
  <g
     inkscape:groupmode="layer"
     id="layer1"
     inkscape:label="New"
     style="display:inline">
    <g
       id="g1"
       inkscape:path-effect="#path-effect1">
      <path
         style="display:inline;mix-blend-mode:normal;fill:#000000;stroke:none;stroke-width:0.264583px;stroke-linecap:butt;stroke-linejoin:miter;stroke-opacity:1"
         d="M 5.9717028,49.227886 C 5.8349887,49.245016 5.5487283,47.496138 4.8290932,44.746553 4.1113569,42.004223 2.9125673,38.245568 0.69675227,34.603678 c -0.45623756,-0.749868 -0.93502525,-1.461409 -1.4351125,-2.13661 0,0 -9.8e-7,0 -9.8e-7,0 -2.29055349,-3.071257 -4.71621649,-4.93312 -6.86222359,-5.969662 -2.0416505,-0.986137 -3.4745332,-1.117097 -3.4628272,-1.240142 0.01171,-0.123044 1.5026215,-0.214983 3.7183644,0.653559 2.3132146,0.90675 5.0122803,2.782529 7.39544324,5.96695 -2.9e-7,0 7.6e-7,10e-7 7.6e-7,10e-7 0.52460527,0.696326 1.0242473,1.43254 1.4961974,2.20915 2.2982486,3.781847 3.4210772,7.670633 3.9736841,10.502086 0.553491,2.835983 0.588139,4.621746 0.4514249,4.638876 z"
         id="path6113-4"
         inkscape:path-effect="#path-effect6115-5"
         inkscape:original-d="M 5.9717028,49.227886 C 4.1863869,34.979004 -3.4064376,25.985735 -11.063406,25.257265"
         sodipodi:nodetypes="cc"
         transform="translate(58.336768,1.5409303)" />
      <path
         style="display:inline;mix-blend-mode:normal;fill:#000000;stroke:none;stroke-width:0.264583px;stroke-linecap:butt;stroke-linejoin:miter;stroke-opacity:1"
         d="m 5.9717028,49.227886 c -0.137783,0 -0.1609803,-2.259452 -0.7459296,-5.824601 C 4.6408238,39.838136 3.4126508,34.9376 0.38089938,30.464167 0.24925371,30.26992 0.11536406,30.078205 -0.02075484,29.889018 -1.9861512,27.152053 -4.339294,25.160656 -6.7525702,23.892019 -11.888582,21.179641 -16.216198,21.75915 -16.225663,21.575076 c -0.0095,-0.184073 4.367631,-1.14168 9.8642703,1.546839 2.5755184,1.265439 5.0940124,3.322501 7.15101568,6.18496 0.14140816,0.197147 0.28035022,0.396936 0.41679562,0.599356 3.1538693,4.678825 4.3107497,9.770513 4.7227599,13.399641 0.4149377,3.654915 0.1803073,5.922014 0.042524,5.922014 z"
         id="path6113-8-9"
         inkscape:path-effect="#path-effect6870-4"
         inkscape:original-d="m 5.9717028,49.227886 c 0,-14.720414 -7.5002641,-28.408489 -22.1973578,-27.65281"
         sodipodi:nodetypes="cc"
         transform="translate(58.336768,1.5409303)" />
      <path
         style="display:inline;mix-blend-mode:normal;fill:#000000;stroke:none;stroke-width:0.264583px;stroke-linecap:butt;stroke-linejoin:miter;stroke-opacity:1"
         d="m 50.296665,51.728481 c -0.723497,-1.323356 -1.509106,-2.47302 -2.319668,-3.477724 l 0,0 c -1.109733,-1.37697 -2.096237,-2.311285 -2.920778,-3.015605 l 0,0 c -0.437855,-0.373463 -0.657728,-0.543469 -0.93235,-0.756215 l 0,0 c 0,0 0,0 0,0 -0.10781,-0.08537 -0.190023,-0.151042 -0.250782,-0.200289 l 0,0 0,0 c -0.03549,-0.01297 -0.04922,-0.04582 -0.05909,-0.06185 0,0 0,-1e-6 0,-1e-6 -0.01501,-0.02439 -0.03474,-0.03126 -0.0449,-0.04268 -0.01416,-0.01592 -0.0045,-0.03068 0.03665,-0.04403 0,0 0,0 0,0 0.03108,-0.01009 0.08201,-0.01902 0.114043,-0.005 l 0,0 0,0 c 0.08958,0.0091 0.199406,0.03834 0.347501,0.09244 0,0 0,0 0,0 l 0,0 c 0.292003,0.107111 0.65278,0.286407 1.112955,0.575294 l 0,0 c 0.935593,0.58686 2.084651,1.504113 3.290224,2.873073 l 0,0 c 0.890049,1.011827 1.743703,2.204151 2.499567,3.584742 2.774076,5.066872 2.781426,9.986232 2.50721,10.013483 -0.274215,0.02725 -0.728615,-4.684912 -3.38058,-9.535652 z"
         id="path6113-1-79"
         inkscape:path-effect="#path-effect7726-6"
         inkscape:original-d="M 53.677245,61.264133 C 52.431543,48.729176 43.949629,44.013633 43.7691,44.174103"
         sodipodi:nodetypes="cc"
         transform="rotate(90,50.767836,58.013516)" />
      <path
         style="display:inline;mix-blend-mode:normal;fill:#000000;stroke:none;stroke-width:0.264583px;stroke-linecap:butt;stroke-linejoin:miter;stroke-opacity:1"
         d="m 50.164636,54.717986 c 1.3877,6.785979 0.442003,12.533007 0.1667,12.520966 -0.275303,-0.01204 0.18629,-5.751662 -1.140932,-12.322949 -0.501213,-2.481581 -1.212584,-4.530266 -2.07492,-6.311525 -0.785407,-1.614283 -1.461264,-2.543763 -2.218926,-3.267483 -0.334083,-0.314715 -0.52824,-0.466887 -0.764304,-0.592354 -0.107303,-0.05391 -0.153357,-0.07927 -0.222446,-0.09366 -0.07393,-0.0088 -0.115577,0.0053 -0.140712,-0.0059 -0.02513,-0.01125 -0.01002,-0.130938 0.128815,-0.155408 0.08793,-0.02352 0.196038,-0.0233 0.321818,0.0053 0.281806,0.05901 0.593896,0.20319 0.975909,0.477862 0.88946,0.632154 1.781622,1.632298 2.660373,3.250214 0.980964,1.797931 1.786496,3.941681 2.308625,6.494939 z"
         id="path6113-1-8-9"
         inkscape:path-effect="#path-effect8511-1"
         inkscape:original-d="M 50.331336,67.238952 C 51.178704,47.865322 44.083145,43.943376 43.7691,44.645055"
         sodipodi:nodetypes="cc"
         transform="rotate(90,50.767836,58.013517)" />
      <path
         style="display:inline;mix-blend-mode:normal;fill:#000000;stroke:none;stroke-width:0.264583px;stroke-linecap:butt;stroke-linejoin:miter;stroke-opacity:1"
         d="m 32.576703,38.948409 c 0.03897,0.07603 0.07699,0.152186 0.114072,0.22843 1.051066,2.144722 1.354853,4.190543 1.315088,5.734797 -0.03876,1.505426 -0.366043,2.388412 -0.499491,2.365942 -0.133448,-0.02247 -0.056,-0.924979 -0.195082,-2.342102 -0.143575,-1.462944 -0.532337,-3.313335 -1.516584,-5.319238 -0.03479,-0.07033 -0.07032,-0.140642 -0.106579,-0.21091 -1.048323,-2.031397 -2.396421,-3.439608 -3.572373,-4.378737 -1.140975,-0.911195 -1.988345,-1.318183 -1.937669,-1.446308 0.05068,-0.128125 1.017283,0.05268 2.341387,0.870833 1.358408,0.839345 2.932106,2.301972 4.057231,4.497293 z"
         id="path6113-6-1"
         inkscape:path-effect="#path-effect7408-5"
         inkscape:original-d="M 33.506372,47.277578 C 34.340693,42.322646 31.745128,35.782169 26.178091,33.580285"
         sodipodi:nodetypes="cc"
         transform="rotate(-90,27.105426,32.156178)" />
      <path
         style="display:inline;mix-blend-mode:normal;fill:#000000;stroke:none;stroke-width:0.264583px;stroke-linecap:butt;stroke-linejoin:miter;stroke-opacity:1"
         d="m 59.028134,67.043025 c -0.13895,0.0996 -1.038216,-0.855585 -2.903772,-1.589959 -1.151915,-0.441239 -2.435106,-0.774668 -4.019274,-1.032431 0.002,3.15e-4 -0.156796,-0.02413 -0.154759,-0.02381 -2.307015,-0.35261 -3.886709,-0.465599 -5.423262,-0.34024 -1.364671,0.111336 -2.198387,0.373166 -2.250564,0.245644 -0.05218,-0.127521 0.721053,-0.632459 2.146538,-0.939459 1.539787,-0.331615 3.386711,-0.332952 5.684349,0.04607 0.05294,0.0087 0.105662,0.01759 0.158158,0.02655 1.634564,0.266446 3.018611,0.69572 4.187139,1.262086 2.019686,0.9581 2.755846,2.216246 2.575447,2.345551 z"
         id="path6113-1-9-4"
         inkscape:path-effect="#path-effect9265-2"
         inkscape:original-d="M 59.028134,67.043025 C 56.771985,63.895382 47.953983,62.797564 44.276509,64.302227"
         sodipodi:nodetypes="cc"
         transform="rotate(-90,24.231872,64.668539)" />
      <path
         style="display:inline;mix-blend-mode:normal;fill:#000000;stroke:none;stroke-width:0.264583px;stroke-linecap:butt;stroke-linejoin:miter;stroke-opacity:1"
         d="m 48.123681,59.224828 c -0.03035,-0.02907 -0.06071,-0.05803 -0.09108,-0.08689 -1.37603,-1.305006 -2.677094,-2.311039 -3.905647,-3.119488 -2.043129,-1.332676 -3.577028,-1.765455 -3.547404,-1.934785 0.02962,-0.16933 1.786802,-0.0069 3.976222,1.227866 1.325987,0.741571 2.743,1.756673 4.163527,3.101754 0.03156,0.02982 0.0631,0.05979 0.09461,0.08989 1.385291,1.323275 2.441561,2.652177 3.216724,3.962464 1.422259,2.379914 1.421738,4.204276 1.200145,4.224568 -0.176365,0.01615 -0.483424,-1.668495 -1.911128,-3.772052 -0.824464,-1.202322 -1.854128,-2.408198 -3.195976,-3.693321 z"
         id="path6113-1-7-2"
         inkscape:path-effect="#path-effect8745-0"
         inkscape:original-d="M 53.230785,66.690201 C 52.767049,61.626052 44.96538,54.850948 40.579553,54.083661"
         sodipodi:nodetypes="cc"
         transform="rotate(180,39.901518,54.668248)" />
      <path
         style="display:inline;mix-blend-mode:normal;fill:#000000;stroke:none;stroke-width:0.264583px;stroke-linecap:butt;stroke-linejoin:miter;stroke-opacity:1"
         d="m 41.892268,52.972202 c 0.03711,0.02478 0.07406,0.0496 0.110845,0.07447 2.201379,1.455952 3.703177,2.970241 4.644119,4.459527 0.879429,1.391926 1.066122,2.41807 0.938293,2.466147 -0.127829,0.04808 -0.532165,-0.856264 -1.504902,-2.062174 -1.066793,-1.322511 -2.482522,-2.579701 -4.632436,-4.033615 -0.03578,-0.02366 -0.07168,-0.0473 -0.10769,-0.07093 -2.175008,-1.427215 -3.947562,-2.253792 -5.587271,-2.754274 -1.513294,-0.461898 -2.519345,-0.539039 -2.517928,-0.676815 0.0014,-0.137776 1.041887,-0.309907 2.683645,-0.0053 1.741224,0.32305 3.762709,1.126848 5.973325,2.602977 z"
         id="path6113-1-73-8"
         inkscape:path-effect="#path-effect9655-1"
         inkscape:original-d="m 47.585525,59.972349 c -1.737155,-4.6188 -9.105771,-9.54388 -14.35022,-9.597813"
         sodipodi:nodetypes="cc"
         transform="rotate(180,37.136795,54.935917)" />
      <path
         style="display:inline;mix-blend-mode:normal;fill:#000000;stroke:none;stroke-width:0.328769px;stroke-linecap:butt;stroke-linejoin:miter;stroke-opacity:1"
         d="M 30.016799,37.926925 25.60487,35.188498 c 0.08559,0.284401 6.859083,29.468665 39.250937,16.166413 -4.748602,-17.72204 -12.64935,-22.982152 -23.467682,-22.982152 -8.953954,0 -11.371326,7.457647 -11.371326,9.554166 z m 74.765961,0 4.41193,-2.738427 c -0.0856,0.284401 -6.85908,29.468665 -39.250937,16.166413 4.748602,-17.72204 12.64935,-22.982152 23.467682,-22.982152 8.953955,0 11.371325,7.457647 11.371325,9.554166 z"
         id="path2267-1-7"
         sodipodi:nodetypes="cccsc"
         inkscape:original-d="M 30.016799,37.926925 25.60487,35.188498 c 0.08559,0.284401 6.859083,29.468665 39.250937,16.166413 -4.748602,-17.72204 -12.64935,-22.982152 -23.467682,-22.982152 -8.953954,0 -11.371326,7.457647 -11.371326,9.554166 z" />
      <path
         style="display:inline;mix-blend-mode:normal;fill:#000000;stroke:none;stroke-width:0.30427px;stroke-linecap:butt;stroke-linejoin:miter;stroke-opacity:1"
         d="m 31.150474,38.19819 -4.083163,-2.534366 c 0.07921,0.263208 6.347961,27.272733 36.326054,14.961732 C 58.998617,34.224118 51.686613,29.355977 41.674437,29.355977 c -8.286728,0 -10.523963,6.901921 -10.523963,8.842213 z m 69.194586,0 4.08316,-2.534366 c -0.0792,0.263208 -6.347957,27.272733 -36.32605,14.961732 4.394748,-16.401438 11.706752,-21.269579 21.718928,-21.269579 8.286728,0 10.523962,6.901921 10.523962,8.842213 z"
         id="path2267-1"
         sodipodi:nodetypes="cccsc"
         transform="matrix(1.0805175,0,0,1.0805175,-3.6418336,-3.3468878)"
         inkscape:original-d="m 31.150474,38.19819 -4.083163,-2.534366 c 0.07921,0.263208 6.347961,27.272733 36.326054,14.961732 C 58.998617,34.224118 51.686613,29.355977 41.674437,29.355977 c -8.286728,0 -10.523963,6.901921 -10.523963,8.842213 z" />
      <path
         id="path1"
         style="fill:#d40000;fill-opacity:1;stroke:none;stroke-width:2.32398;stroke-linecap:round;stroke-linejoin:round"
         d="m 54.697136,43.854655 c 0,5.871273 -3.192007,9.123708 -3.192007,9.123708 0,0 -3.192007,-2.942647 -3.192007,-9.123708 0,-6.181061 3.192007,-9.123709 3.192007,-9.123709 0,0 3.192007,3.252436 3.192007,9.123709 z m 25.405288,0 c 0,5.871273 3.192007,9.123708 3.192007,9.123708 0,0 3.192007,-2.942647 3.192007,-9.123708 0,-6.181061 -3.192007,-9.123709 -3.192007,-9.123709 0,0 -3.192007,3.252436 -3.192007,9.123709 z"
         sodipodi:nodetypes="zczcz"
         inkscape:original-d="m 54.697136,43.854655 c 0,5.871273 -3.192007,9.123708 -3.192007,9.123708 0,0 -3.192007,-2.942647 -3.192007,-9.123708 0,-6.181061 3.192007,-9.123709 3.192007,-9.123709 0,0 3.192007,3.252436 3.192007,9.123709 z" />
    </g>
  </g>
</svg>
