<?xml version="1.0" encoding="UTF-8" standalone="no"?>
<!-- Created with Inkscape (http://www.inkscape.org/) -->

<svg
   width="1280"
   height="1280"
   viewBox="0 0 338.66666 338.66668"
   version="1.1"
   id="svg5"
   inkscape:version="1.1 (c68e22c387, 2021-05-23)"
   sodipodi:docname="JacketSpikecore_Male_north.svg"
   inkscape:export-filename="C:\Program Files (x86)\Steam\steamapps\common\RimWorld\Mods\Madness Pawns\Textures\Things\Pawn\Humanlike\ApperelStyles\JacketSpikecore\JacketSpikecore_Male_north.png"
   inkscape:export-xdpi="19.200001"
   inkscape:export-ydpi="19.200001"
   xmlns:inkscape="http://www.inkscape.org/namespaces/inkscape"
   xmlns:sodipodi="http://sodipodi.sourceforge.net/DTD/sodipodi-0.dtd"
   xmlns:xlink="http://www.w3.org/1999/xlink"
   xmlns="http://www.w3.org/2000/svg"
   xmlns:svg="http://www.w3.org/2000/svg">
  <sodipodi:namedview
     id="namedview7"
     pagecolor="#ffffff"
     bordercolor="#111111"
     borderopacity="1"
     inkscape:pageshadow="0"
     inkscape:pageopacity="0"
     inkscape:pagecheckerboard="1"
     inkscape:document-units="px"
     showgrid="false"
     showguides="true"
     units="px"
     inkscape:snap-bbox="false"
     inkscape:snap-object-midpoints="true"
     inkscape:bbox-paths="false"
     inkscape:bbox-nodes="false"
     inkscape:snap-bbox-midpoints="true"
     inkscape:snap-page="true"
     inkscape:zoom="1"
     inkscape:cx="647.5"
     inkscape:cy="687.5"
     inkscape:window-width="1920"
     inkscape:window-height="1017"
     inkscape:window-x="-8"
     inkscape:window-y="-8"
     inkscape:window-maximized="1"
     inkscape:current-layer="layer1"
     inkscape:guide-bbox="true"
     inkscape:snap-smooth-nodes="true">
    <sodipodi:guide
       position="169.33332,169.33335"
       orientation="0,-1"
       id="guide989" />
    <sodipodi:guide
       position="169.33332,169.33336"
       orientation="1,0"
       id="guide991" />
  </sodipodi:namedview>
  <defs
     id="defs2">
    <inkscape:path-effect
       effect="mirror_symmetry"
       start_point="639.99993,459.88229"
       end_point="639.99993,724.23265"
       center_point="639.99993,592.05747"
       id="path-effect5807"
       is_visible="true"
       lpeversion="1.1"
       mode="free"
       discard_orig_path="false"
       fuse_paths="false"
       oposite_fuse="false"
       split_items="false"
       split_open="false" />
    <inkscape:path-effect
       effect="mirror_symmetry"
       start_point="169.33332,71.91862"
       end_point="169.33332,197.31222"
       center_point="169.33332,134.61542"
       id="path-effect3854"
       is_visible="true"
       lpeversion="1.1"
       mode="free"
       discard_orig_path="false"
       fuse_paths="false"
       oposite_fuse="false"
       split_items="false"
       split_open="false" />
    <inkscape:path-effect
       effect="mirror_symmetry"
       start_point="169.33332,94.005201"
       end_point="169.33332,218.30524"
       center_point="169.33332,156.15522"
       id="path-effect3470"
       is_visible="true"
       lpeversion="1.1"
       mode="free"
       discard_orig_path="false"
       fuse_paths="false"
       oposite_fuse="false"
       split_items="false"
       split_open="false" />
    <linearGradient
       inkscape:collect="always"
       id="linearGradient3836-4">
      <stop
         style="stop-color:#b3b3b3;stop-opacity:1"
         offset="0"
         id="stop3832" />
      <stop
         style="stop-color:#b3b3b3;stop-opacity:1"
         offset="0.70000023"
         id="stop4186" />
      <stop
         style="stop-color:#f9f9f9;stop-opacity:1"
         offset="1"
         id="stop3834" />
    </linearGradient>
    <inkscape:path-effect
       effect="mirror_symmetry"
       start_point="640.00001,475.3086"
       end_point="640.00001,1047.4492"
       center_point="640.00001,761.37891"
       id="path-effect1473"
       is_visible="true"
       lpeversion="1.1"
       mode="free"
       discard_orig_path="false"
       fuse_paths="false"
       oposite_fuse="false"
       split_items="false"
       split_open="false" />
    <radialGradient
       inkscape:collect="always"
       xlink:href="#linearGradient3836-4"
       id="radialGradient3954-1-9-6"
       cx="767.14685"
       cy="816.99036"
       fx="767.14685"
       fy="816.99036"
       r="176.26749"
       gradientTransform="matrix(-0.18852942,0,0,-1.3754958,313.96307,1277.6409)"
       gradientUnits="userSpaceOnUse" />
    <inkscape:path-effect
       effect="mirror_symmetry"
       start_point="169.33332,115.83315"
       end_point="169.33332,240.17186"
       center_point="169.33332,178.00251"
       id="path-effect2535"
       is_visible="true"
       lpeversion="1.1"
       mode="free"
       discard_orig_path="false"
       fuse_paths="false"
       oposite_fuse="false"
       split_items="false"
       split_open="false" />
    <inkscape:path-effect
       effect="mirror_symmetry"
       start_point="169.85644,115.51028"
       end_point="169.85644,240.69318"
       center_point="169.85644,178.10173"
       id="path-effect2381"
       is_visible="true"
       lpeversion="1.1"
       mode="free"
       discard_orig_path="false"
       fuse_paths="false"
       oposite_fuse="false"
       split_items="false"
       split_open="false" />
    <inkscape:path-effect
       effect="mirror_symmetry"
       start_point="169.33332,121.73502"
       end_point="169.33332,191.15374"
       center_point="169.33332,156.44438"
       id="path-effect3214"
       is_visible="true"
       lpeversion="1.1"
       mode="free"
       discard_orig_path="false"
       fuse_paths="false"
       oposite_fuse="false"
       split_items="false"
       split_open="false" />
    <linearGradient
       inkscape:collect="always"
       xlink:href="#linearGradient3964"
       id="linearGradient5028"
       gradientUnits="userSpaceOnUse"
       x1="121.82022"
       y1="200.61935"
       x2="94.480545"
       y2="188.88275"
       gradientTransform="rotate(-21.899421,69.223285,185.87697)" />
    <linearGradient
       inkscape:collect="always"
       id="linearGradient3964">
      <stop
         style="stop-color:#cccccc;stop-opacity:1;"
         offset="0"
         id="stop3960" />
      <stop
         style="stop-color:#f9f9f9;stop-opacity:1"
         offset="1"
         id="stop3962" />
    </linearGradient>
    <linearGradient
       inkscape:collect="always"
       xlink:href="#linearGradient3964"
       id="linearGradient4959"
       gradientUnits="userSpaceOnUse"
       x1="125.32684"
       y1="194.80545"
       x2="109.34068"
       y2="191.20944"
       gradientTransform="matrix(0.57660715,0.81702154,0.81702154,-0.57660715,-98.619974,148.14037)" />
    <linearGradient
       inkscape:collect="always"
       xlink:href="#linearGradient3964"
       id="linearGradient3966-5"
       x1="126.2139"
       y1="192.96338"
       x2="102.71026"
       y2="189.83574"
       gradientUnits="userSpaceOnUse"
       gradientTransform="matrix(0.82303596,0.56798927,0.56798927,-0.82303596,-87.219424,244.13614)" />
    <linearGradient
       inkscape:collect="always"
       xlink:href="#linearGradient3964"
       id="linearGradient5196"
       gradientUnits="userSpaceOnUse"
       gradientTransform="matrix(-0.92784002,-0.37297841,-0.37297841,0.92784002,403.42654,39.231671)"
       x1="121.82022"
       y1="200.61935"
       x2="94.480545"
       y2="188.88275" />
    <linearGradient
       inkscape:collect="always"
       xlink:href="#linearGradient3964"
       id="linearGradient5198"
       gradientUnits="userSpaceOnUse"
       gradientTransform="rotate(125.21226,180.4725,187.48506)"
       x1="125.32684"
       y1="194.80545"
       x2="109.34068"
       y2="191.20944" />
    <linearGradient
       inkscape:collect="always"
       xlink:href="#linearGradient3964"
       id="linearGradient5200"
       gradientUnits="userSpaceOnUse"
       gradientTransform="rotate(145.38987,175.12469,188.47962)"
       x1="126.2139"
       y1="192.96338"
       x2="102.71026"
       y2="189.83574" />
    <inkscape:path-effect
       effect="mirror_symmetry"
       start_point="169.33332,137.83455"
       end_point="169.33332,176.52156"
       center_point="169.33332,157.17805"
       id="path-effect1386"
       is_visible="true"
       lpeversion="1.1"
       mode="free"
       discard_orig_path="false"
       fuse_paths="false"
       oposite_fuse="false"
       split_items="false"
       split_open="false" />
    <inkscape:path-effect
       effect="mirror_symmetry"
       start_point="169.33332,108.45586"
       end_point="169.33332,196.9488"
       center_point="169.33332,152.70233"
       id="path-effect4163"
       is_visible="true"
       lpeversion="1.1"
       mode="free"
       discard_orig_path="false"
       fuse_paths="false"
       oposite_fuse="false"
       split_items="false"
       split_open="false" />
  </defs>
  <g
     inkscape:groupmode="layer"
     id="layer2"
     inkscape:label="Body"
     style="display:none"
     sodipodi:insensitive="true">
    <path
       id="rect883"
       style="fill:#ff0000;fill-opacity:1;stroke:#0000ff;stroke-width:30;stroke-linecap:round;stroke-linejoin:round;stroke-miterlimit:4;stroke-dasharray:none"
       d="m 584.91602,445.38281 c -63.18591,0 -96.14521,46.13859 -97.94727,139.54492 l -8.22266,426.19137 c -0.61253,31.7497 19.1831,55.2657 50.66993,55.2657 H 640 750.58398 c 31.48683,0 51.28246,-23.516 50.66993,-55.2657 L 793.03125,584.92773 C 791.22919,491.5214 758.26989,445.38281 695.08398,445.38281 H 640 Z"
       transform="scale(0.26458334)" />
  </g>
  <g
     inkscape:groupmode="layer"
     id="layer1"
     inkscape:label="Shirt">
    <path
       id="rect883-7-6-0"
       style="display:inline;fill:url(#radialGradient3954-1-9-6);fill-opacity:1;stroke:#000000;stroke-width:2.64583;stroke-linecap:round;stroke-linejoin:round;stroke-miterlimit:4;stroke-dasharray:none"
       d="m 169.33332,116.55257 c -15.40571,0 -26.83884,0.21154 -35.11188,8.48458 v -4e-5 c -8.27304,8.27303 -10.0821,14.46111 -10.32767,25.9725 1.21418,40.3931 0.19436,42.73459 -2.11331,82.42332 14.64784,5.29596 45.85494,6.8537 47.55286,7.41967 m 0,-124.30003 c 15.40571,0 26.83884,0.21154 35.11188,8.48458 v -4e-5 c 8.27304,8.27303 10.0821,14.46111 10.32767,25.9725 -1.21418,40.3931 -0.19436,42.73459 2.11331,82.42332 -14.64784,5.29596 -45.85494,6.8537 -47.55286,7.41967"
       sodipodi:nodetypes="cczccc"
       inkscape:path-effect="#path-effect3470"
       inkscape:original-d="m 169.33332,116.55257 c -15.40571,0 -26.83884,0.21154 -35.11188,8.48458 v -4e-5 c -8.27304,8.27303 -10.0821,14.46111 -10.32767,25.9725 1.21418,40.3931 0.19436,42.73459 -2.11331,82.42332 14.64784,5.29596 45.85494,6.8537 47.55286,7.41967" />
    <path
       id="rect883-7-6-0-6"
       style="display:inline;fill:none;fill-opacity:1;stroke:#000000;stroke-width:7.9375;stroke-linecap:round;stroke-linejoin:round;stroke-miterlimit:4;stroke-dasharray:none"
       d="m 169.85644,115.51028 c -15.40571,0 -27.14848,0.21154 -35.42152,8.48458 -8.27303,8.27303 -10.08209,14.46111 -10.32767,25.9725 1.21418,40.3931 0.19437,44.23129 -2.1133,83.92002 16.66029,6.00836 33.3878,6.96522 47.33937,6.96522 M 168.8102,115.51028 c 15.40571,0 27.14848,0.21154 35.42152,8.48458 8.27303,8.27303 10.08209,14.46111 10.32767,25.9725 -1.21418,40.3931 -0.19437,44.23129 2.1133,83.92002 -16.66029,6.00836 -33.3878,6.96522 -47.33937,6.96522"
       sodipodi:nodetypes="czccc"
       inkscape:export-filename="C:\Program Files (x86)\Steam\steamapps\common\RimWorld\Mods\Madness Pawns\Textures\Things\Pawn\Humanlike\Apparel\Jacket\rect883-7-6-0-6.png"
       inkscape:export-xdpi="19.200001"
       inkscape:export-ydpi="19.200001"
       inkscape:original-d="m 169.85644,115.51028 c -15.40571,0 -27.14848,0.21154 -35.42152,8.48458 -8.27303,8.27303 -10.08209,14.46111 -10.32767,25.9725 1.21418,40.3931 0.19437,44.23129 -2.1133,83.92002 16.66029,6.00836 33.3878,6.96522 47.33937,6.96522"
       inkscape:path-effect="#path-effect3854" />
    <path
       id="path11426"
       style="display:inline;fill:#cccccc;stroke:#000000;stroke-width:6.99999;stroke-linecap:butt;stroke-linejoin:round;stroke-miterlimit:4;stroke-dasharray:none;stroke-opacity:1"
       d="m 539.98047,458.88281 c -17.20018,0.0669 -109.76507,6.75547 -127.45703,141.86524 -13.23619,101.08199 66.31575,116.82641 97.63867,119.13672 l 22.33672,1.61878 15.69727,-84.33204 c 0,0 -13.11901,-28.05217 -16.12188,-54.92151 -3.18679,-32.78967 20.82422,-68.57959 10.6582,-123.31055 0,0 -0.97262,-0.0636 -2.75195,-0.0566 z m 200.03892,0 c 17.20018,0.0669 109.76507,6.75547 127.45703,141.86524 13.23619,101.08199 -66.31575,116.82641 -97.63867,119.13672 l -22.33672,1.61878 -15.69727,-84.33204 c 0,0 13.11901,-28.05217 16.12188,-54.92151 3.18679,-32.78967 -20.82422,-68.57959 -10.6582,-123.31055 0,0 0.97262,-0.0636 2.75195,-0.0566 z"
       transform="scale(0.26458334)"
       inkscape:path-effect="#path-effect5807"
       inkscape:original-d="m 539.98047,458.88281 c -17.20018,0.0669 -109.76507,6.75547 -127.45703,141.86524 -13.23619,101.08199 66.31575,116.82641 97.63867,119.13672 l 22.33672,1.61878 15.69727,-84.33204 c 0,0 -13.11901,-28.05217 -16.12188,-54.92151 -3.18679,-32.78967 20.82422,-68.57959 10.6582,-123.31055 0,0 -0.97262,-0.0636 -2.75195,-0.0566 z"
       sodipodi:nodetypes="sscccccss" />
    <path
       style="display:inline;fill:url(#linearGradient5028);fill-opacity:1;stroke:#000000;stroke-width:0;stroke-linecap:butt;stroke-linejoin:miter;stroke-miterlimit:4;stroke-dasharray:none;stroke-opacity:1"
       d="m 119.13976,165.36462 -26.891365,14.03391 28.784065,0.15276 c 2.88393,-6.1418 2.15403,-9.95163 -1.8927,-14.18667 z"
       id="path3958-0"
       sodipodi:nodetypes="cccc" />
    <path
       style="display:inline;fill:url(#linearGradient4959);fill-opacity:1;stroke:#000000;stroke-width:0;stroke-linecap:butt;stroke-linejoin:miter;stroke-miterlimit:4;stroke-dasharray:none;stroke-opacity:1"
       d="m 123.93828,141.84896 -14.96105,-26.38681 24.25382,15.50156 c -0.9133,6.72345 -3.59497,9.52634 -9.29277,10.88525 z"
       id="path3958-2"
       sodipodi:nodetypes="cccc" />
    <path
       style="display:inline;fill:url(#linearGradient3966-5);fill-opacity:1;stroke:#000000;stroke-width:0;stroke-linecap:butt;stroke-linejoin:miter;stroke-miterlimit:4;stroke-dasharray:none;stroke-opacity:1"
       d="m 119.50986,161.46351 -23.144495,-19.60687 28.112275,6.18431 c 1.46188,6.62584 -0.0884,10.18171 -4.96778,13.42256 z"
       id="path3958-7"
       sodipodi:nodetypes="cccc" />
    <path
       style="display:inline;fill:url(#linearGradient5196);fill-opacity:1;stroke:#000000;stroke-width:0;stroke-linecap:butt;stroke-linejoin:miter;stroke-miterlimit:4;stroke-dasharray:none;stroke-opacity:1"
       d="m 219.95384,165.36463 26.89136,14.03391 -28.78406,0.15276 c -2.88393,-6.1418 -2.15403,-9.95163 1.8927,-14.18667 z"
       id="path3958-0-1"
       sodipodi:nodetypes="cccc" />
    <path
       style="display:inline;fill:url(#linearGradient5198);fill-opacity:1;stroke:#000000;stroke-width:0;stroke-linecap:butt;stroke-linejoin:miter;stroke-miterlimit:4;stroke-dasharray:none;stroke-opacity:1"
       d="m 215.15532,141.84897 14.96105,-26.38681 -24.25382,15.50156 c 0.9133,6.72345 3.59497,9.52634 9.29277,10.88525 z"
       id="path3958-2-2"
       sodipodi:nodetypes="cccc" />
    <path
       style="display:inline;fill:url(#linearGradient5200);fill-opacity:1;stroke:#000000;stroke-width:0;stroke-linecap:butt;stroke-linejoin:miter;stroke-miterlimit:4;stroke-dasharray:none;stroke-opacity:1"
       d="m 219.58374,161.46352 23.14449,-19.60687 -28.11227,6.18431 c -1.46188,6.62584 0.0884,10.18171 4.96778,13.42256 z"
       id="path3958-7-2"
       sodipodi:nodetypes="cccc" />
    <path
       style="fill:#000000;stroke:#000000;stroke-width:0;stroke-linecap:butt;stroke-linejoin:miter;stroke-miterlimit:4;stroke-dasharray:none;stroke-opacity:1"
       d="m 143.38427,122.46996 c -6.09366,0.49178 -11.8439,1.99151 -16.97331,5.31346 l -17.64721,-11.27901 9.81827,17.31649 -6.66018,12.54717 -15.769952,-3.46917 13.162652,11.15075 -0.37349,17.56826 -16.906135,8.82288 20.170985,0.10704 8.84047,7.47628 -0.60804,7.95127 c -4.30188,-2.09962 -8.09254,-4.99448 -11.27209,-8.83994 l -37.791913,-1.40316 28.718103,-18.45694 c -0.646386,-3.36922 -0.420824,-6.64156 0.0468,-9.887 l -22.684499,-24.13444 30.401899,4.67722 c 0.40748,-1.53058 1.16744,-2.99067 2.1983,-4.39658 L 97.099039,105.14383 126.5655,119.1287 c 4.69482,-1.78122 11.43373,-3.56498 19.73786,-4.72398 l -2.9191,8.06524 z m 51.8981,0 c 6.09366,0.49178 11.8439,1.99151 16.97331,5.31346 l 17.64721,-11.27901 -9.81827,17.31649 6.66018,12.54717 15.76995,-3.46917 -13.16265,11.15075 0.37349,17.56826 16.90613,8.82288 -20.17098,0.10704 -8.84047,7.47628 0.60804,7.95127 c 4.30188,-2.09962 8.09254,-4.99448 11.27209,-8.83994 l 37.79191,-1.40316 -28.7181,-18.45694 c 0.64639,-3.36922 0.42082,-6.64156 -0.0468,-9.887 l 22.6845,-24.13444 -30.4019,4.67722 c -0.40748,-1.53058 -1.16744,-2.99067 -2.1983,-4.39658 l 12.95589,-28.39071 -29.46646,13.98487 c -4.69482,-1.78122 -11.43373,-3.56498 -19.73786,-4.72398 l 2.9191,8.06524 z"
       id="path3974"
       inkscape:path-effect="#path-effect4163"
       inkscape:original-d="m 143.38427,122.46996 c -6.09366,0.49178 -11.8439,1.99151 -16.97331,5.31346 l -17.64721,-11.27901 9.81827,17.31649 -6.66018,12.54717 -15.769952,-3.46917 13.162652,11.15075 -0.37349,17.56826 -16.906135,8.82288 20.170985,0.10704 8.84047,7.47628 -0.60804,7.95127 c -4.30188,-2.09962 -8.09254,-4.99448 -11.27209,-8.83994 l -37.791913,-1.40316 28.718103,-18.45694 c -0.646386,-3.36922 -0.420824,-6.64156 0.0468,-9.887 l -22.684499,-24.13444 30.401899,4.67722 c 0.40748,-1.53058 1.16744,-2.99067 2.1983,-4.39658 L 97.099039,105.14383 126.5655,119.1287 c 4.69482,-1.78122 11.43373,-3.56498 19.73786,-4.72398 l -2.9191,8.06524 z"
       sodipodi:nodetypes="cccccccccccccccccccccccc"
       transform="translate(0.21348,-1.04225)" />
  </g>
</svg>
