<?xml version="1.0" encoding="UTF-8" standalone="no"?>
<!-- Created with Inkscape (http://www.inkscape.org/) -->

<svg
   width="1280"
   height="1280"
   viewBox="0 0 338.66666 338.66668"
   version="1.1"
   id="svg5"
   inkscape:version="1.1 (c68e22c387, 2021-05-23)"
   sodipodi:docname="KidParka_Child_north.svg"
   inkscape:export-filename="C:\Users\Maxim\OneDrive\Desktop\Modding\RimWorld\Madness Pawns\Madness Pawns\Textures\Things\Pawn\Humanlike\Apparel\KidParka\KidParka_Child_north.png"
   inkscape:export-xdpi="19.200001"
   inkscape:export-ydpi="19.200001"
   xmlns:inkscape="http://www.inkscape.org/namespaces/inkscape"
   xmlns:sodipodi="http://sodipodi.sourceforge.net/DTD/sodipodi-0.dtd"
   xmlns:xlink="http://www.w3.org/1999/xlink"
   xmlns="http://www.w3.org/2000/svg"
   xmlns:svg="http://www.w3.org/2000/svg">
  <sodipodi:namedview
     id="namedview7"
     pagecolor="#ffffff"
     bordercolor="#111111"
     borderopacity="1"
     inkscape:pageshadow="0"
     inkscape:pageopacity="0"
     inkscape:pagecheckerboard="1"
     inkscape:document-units="px"
     showgrid="false"
     showguides="true"
     units="px"
     inkscape:snap-bbox="true"
     inkscape:snap-object-midpoints="true"
     inkscape:bbox-paths="false"
     inkscape:bbox-nodes="true"
     inkscape:snap-bbox-midpoints="true"
     inkscape:snap-page="true"
     inkscape:zoom="0.97295028"
     inkscape:cx="658.30702"
     inkscape:cy="571.97167"
     inkscape:window-width="1920"
     inkscape:window-height="1017"
     inkscape:window-x="-8"
     inkscape:window-y="-8"
     inkscape:window-maximized="1"
     inkscape:current-layer="layer1"
     inkscape:guide-bbox="true"
     inkscape:snap-global="true"
     inkscape:snap-smooth-nodes="true">
    <sodipodi:guide
       position="169.33332,169.33335"
       orientation="0,-1"
       id="guide989" />
    <sodipodi:guide
       position="169.33332,169.33336"
       orientation="1,0"
       id="guide991" />
    <sodipodi:guide
       position="137.12878,190.51722"
       orientation="0.99979121,-0.020433824"
       id="guide963" />
    <sodipodi:guide
       position="201.53785,190.51722"
       orientation="0.99979121,0.020433942"
       id="guide1166" />
    <sodipodi:guide
       position="169.33332,94.871813"
       orientation="0,-1"
       id="guide1273" />
    <sodipodi:guide
       position="159.18795,123.52346"
       orientation="1,0"
       id="guide3617" />
  </sodipodi:namedview>
  <defs
     id="defs2">
    <inkscape:path-effect
       effect="mirror_symmetry"
       start_point="169.33332,133.44931"
       end_point="169.33332,146.14045"
       center_point="169.33332,139.79488"
       id="path-effect3833"
       is_visible="true"
       lpeversion="1.1"
       mode="free"
       discard_orig_path="false"
       fuse_paths="false"
       oposite_fuse="false"
       split_items="false"
       split_open="false" />
    <inkscape:path-effect
       effect="mirror_symmetry"
       start_point="639.99993,719.93596"
       end_point="639.99993,839.47112"
       center_point="639.99993,779.70354"
       id="path-effect2737"
       is_visible="true"
       lpeversion="1.1"
       mode="free"
       discard_orig_path="false"
       fuse_paths="false"
       oposite_fuse="false"
       split_items="false"
       split_open="false" />
    <inkscape:path-effect
       effect="mirror_symmetry"
       start_point="640.00001,475.3086"
       end_point="640.00001,1047.4492"
       center_point="640.00001,761.37891"
       id="path-effect1473"
       is_visible="true"
       lpeversion="1.1"
       mode="free"
       discard_orig_path="false"
       fuse_paths="false"
       oposite_fuse="false"
       split_items="false"
       split_open="false" />
    <radialGradient
       inkscape:collect="always"
       xlink:href="#linearGradient3836"
       id="radialGradient3954"
       cx="771.68018"
       cy="778.31689"
       fx="771.68018"
       fy="778.31689"
       r="176.26749"
       gradientTransform="matrix(-0.13223088,0,0,-1.0352212,271.37324,996.07103)"
       gradientUnits="userSpaceOnUse" />
    <linearGradient
       inkscape:collect="always"
       id="linearGradient3836">
      <stop
         style="stop-color:#b3b3b3;stop-opacity:1"
         offset="0"
         id="stop3832" />
      <stop
         style="stop-color:#b3b3b3;stop-opacity:1"
         offset="0.57771683"
         id="stop4186" />
      <stop
         style="stop-color:#f9f9f9;stop-opacity:1"
         offset="1"
         id="stop3834" />
    </linearGradient>
    <inkscape:path-effect
       effect="mirror_symmetry"
       start_point="169.33339,121.72329"
       end_point="169.33339,245.15531"
       center_point="169.33339,183.4393"
       id="path-effect4795"
       is_visible="true"
       lpeversion="1.1"
       mode="free"
       discard_orig_path="false"
       fuse_paths="false"
       oposite_fuse="false"
       split_items="false"
       split_open="false" />
    <inkscape:path-effect
       effect="mirror_symmetry"
       start_point="169.33332,126.9416"
       end_point="169.33332,158.92774"
       center_point="169.33332,142.93467"
       id="path-effect8474"
       is_visible="true"
       lpeversion="1.1"
       mode="free"
       discard_orig_path="false"
       fuse_paths="false"
       oposite_fuse="false"
       split_items="false"
       split_open="false" />
  </defs>
  <g
     inkscape:groupmode="layer"
     id="layer2"
     inkscape:label="Body"
     style="display:inline"
     sodipodi:insensitive="true">
    <path
       id="rect883"
       style="fill:#ff0000;fill-opacity:1;stroke:#0000ff;stroke-width:6.13399;stroke-linecap:round;stroke-linejoin:round;stroke-miterlimit:4;stroke-dasharray:none"
       d="m 157.74121,120.4277 c -13.29711,0 -20.2332,9.16582 -20.61243,27.72176 l -1.73042,84.66641 c -0.1289,6.30734 4.03696,10.97899 10.66319,10.97899 h 23.27177 23.27177 c 6.62623,0 10.79209,-4.67165 10.66319,-10.97899 l -1.73042,-84.66641 c -0.37923,-18.55594 -7.31532,-27.72176 -20.61243,-27.72176 h -11.59211 z"
       inkscape:export-filename="C:\Program Files (x86)\Steam\steamapps\common\RimWorld\Mods\Madness Pawns\Textures\Things\Pawn\Humanlike\Bodies\Naked_Male_north.png"
       inkscape:export-xdpi="19.200001"
       inkscape:export-ydpi="19.200001" />
  </g>
  <g
     inkscape:groupmode="layer"
     id="layer1"
     inkscape:label="Parka">
    <path
       id="rect883-2"
       style="display:inline;fill:url(#radialGradient3954);fill-opacity:1;stroke:none;stroke-width:6.13399;stroke-linecap:round;stroke-linejoin:round;stroke-miterlimit:4;stroke-dasharray:none"
       d="m 157.74121,120.4277 c -13.29711,0 -20.2332,9.16582 -20.61243,27.72176 -0.65162,31.8818 -1.30319,63.7636 -1.95481,95.6454 11.38645,0 22.7729,0 34.15935,0 11.38645,0 22.7729,0 34.15935,0 -0.65161,-31.8818 -1.30321,-63.7636 -1.95481,-95.6454 -0.37923,-18.55594 -7.31532,-27.72176 -20.61243,-27.72176 h -11.59211 z"
       inkscape:export-filename="C:\Users\Maxim\OneDrive\Desktop\Modding\RimWorld\Madness Pawns\Madness Pawns\Textures\Things\Pawn\Humanlike\Apparel\KidShirt\KidShirt_Child_north.png"
       inkscape:export-xdpi="19.200001"
       inkscape:export-ydpi="19.200001"
       sodipodi:nodetypes="scccccscs" />
    <path
       style="fill:#808080;stroke:#000000;stroke-width:3.96875;stroke-linecap:butt;stroke-linejoin:round;stroke-miterlimit:4;stroke-dasharray:none;stroke-opacity:1"
       d="m 169.33332,133.44931 c -17.17838,0 -21.33595,12.82711 -21.33595,12.82711 l -10.77641,-2.63725 c 0.36648,-17.93139 12.07956,-23.80232 32.11236,-23.21147 m 0,13.02161 c 17.17838,0 21.33595,12.82711 21.33595,12.82711 l 10.77641,-2.63725 C 201.0792,125.70778 189.36612,119.83685 169.33332,120.4277"
       id="path3798"
       inkscape:path-effect="#path-effect3833"
       inkscape:original-d="m 169.33332,133.44931 c -17.17838,0 -21.33595,12.82711 -21.33595,12.82711 l -10.77641,-2.63725 c 0.36648,-17.93139 12.07956,-23.80232 32.11236,-23.21147"
       sodipodi:nodetypes="cccc" />
    <path
       d="m 157.72778,117.34869 c -7.3452,0 -13.58017,2.76215 -17.58789,8.13868 -4.00772,5.37652 -5.86558,12.94603 -6.0625,22.5996 -0.65061,31.89852 -1.3006,63.79871 -1.95117,95.69728 -0.0341,1.71644 1.34767,3.1264 3.06445,3.12694 h 34.11328 34.11133 c 1.71755,5.3e-4 3.10054,-1.40973 3.06641,-3.12694 l -1.95313,-95.69728 c -0.19691,-9.65357 -2.05282,-17.22308 -6.06054,-22.5996 -4.00773,-5.37653 -10.2427,-8.13868 -17.58789,-8.13868 h -11.57618 z m 0,6.13086 h 11.57617 11.57618 c 5.93371,0 9.80189,1.82168 12.67187,5.67188 2.86998,3.8502 4.66587,10.14843 4.84766,19.06054 l 1.88672,92.56836 h -30.98243 -30.98437 c 0.62932,-30.85556 1.25933,-61.71275 1.88867,-92.56836 0.18179,-8.91211 1.97768,-15.21034 4.84766,-19.06054 2.86998,-3.8502 6.73815,-5.67188 12.67187,-5.67188 z"
       style="color:#000000;fill:#000000;stroke-width:0.264583;stroke-linecap:round;stroke-linejoin:round;-inkscape-stroke:none"
       id="path4685" />
    <path
       id="path9722"
       style="fill:#000000;stroke:#000000;stroke-width:9.99999;stroke-linecap:round;stroke-linejoin:round;stroke-miterlimit:4;stroke-dasharray:none;stroke-opacity:1"
       d="m 601.65523,727.81703 c -2.81009,-2.9e-4 -5.08818,2.2778 -5.08789,5.08789 -2.9e-4,2.81009 2.2778,5.08818 5.08789,5.08789 2.81009,2.9e-4 5.08818,-2.2778 5.08789,-5.08789 2.9e-4,-2.81009 -2.2778,-5.08818 -5.08789,-5.08789 z m 1e-5,83.14234 c -2.81009,-3e-4 -5.08818,2.2778 -5.08789,5.08789 7.8e-4,2.80932 2.27857,5.08623 5.08789,5.08594 2.80932,2.9e-4 5.08711,-2.27662 5.08789,-5.08594 2.9e-4,-2.81009 -2.2778,-5.08819 -5.08789,-5.08789 z m 76.68939,-83.14234 c 2.81009,-2.9e-4 5.08818,2.2778 5.08789,5.08789 2.9e-4,2.81009 -2.2778,5.08818 -5.08789,5.08789 -2.81009,2.9e-4 -5.08818,-2.2778 -5.08789,-5.08789 -2.9e-4,-2.81009 2.2778,-5.08818 5.08789,-5.08789 z m -1e-5,83.14234 c 2.81009,-3e-4 5.08818,2.2778 5.08789,5.08789 -7.8e-4,2.80932 -2.27857,5.08623 -5.08789,5.08594 -2.80932,2.9e-4 -5.08711,-2.27662 -5.08789,-5.08594 -2.9e-4,-2.81009 2.2778,-5.08819 5.08789,-5.08789 z"
       transform="matrix(0.26458334,0,0,0.26458334,9.2083484e-7,0.57687019)"
       inkscape:path-effect="#path-effect2737"
       inkscape:original-d="m 601.65523,727.81703 c -2.81009,-2.9e-4 -5.08818,2.2778 -5.08789,5.08789 -2.9e-4,2.81009 2.2778,5.08818 5.08789,5.08789 2.81009,2.9e-4 5.08818,-2.2778 5.08789,-5.08789 2.9e-4,-2.81009 -2.2778,-5.08818 -5.08789,-5.08789 z m 1e-5,83.14234 c -2.81009,-3e-4 -5.08818,2.2778 -5.08789,5.08789 7.8e-4,2.80932 2.27857,5.08623 5.08789,5.08594 2.80932,2.9e-4 5.08711,-2.27662 5.08789,-5.08594 2.9e-4,-2.81009 -2.2778,-5.08819 -5.08789,-5.08789 z"
       sodipodi:nodetypes="cccccccccc" />
  </g>
</svg>
