<?xml version="1.0" encoding="UTF-8" standalone="no"?>
<!-- Created with Inkscape (http://www.inkscape.org/) -->

<svg
   width="1280"
   height="1280"
   viewBox="0 0 338.66666 338.66668"
   version="1.1"
   id="svg5"
   inkscape:version="1.1 (c68e22c387, 2021-05-23)"
   sodipodi:docname="KidParka_Child_south.svg"
   inkscape:export-filename="C:\Users\Maxim\OneDrive\Desktop\Modding\RimWorld\Madness Pawns\Madness Pawns\Textures\Things\Pawn\Humanlike\Apparel\KidParka\KidParka_Child_south.png"
   inkscape:export-xdpi="19.200001"
   inkscape:export-ydpi="19.200001"
   xmlns:inkscape="http://www.inkscape.org/namespaces/inkscape"
   xmlns:sodipodi="http://sodipodi.sourceforge.net/DTD/sodipodi-0.dtd"
   xmlns:xlink="http://www.w3.org/1999/xlink"
   xmlns="http://www.w3.org/2000/svg"
   xmlns:svg="http://www.w3.org/2000/svg">
  <sodipodi:namedview
     id="namedview7"
     pagecolor="#ffffff"
     bordercolor="#111111"
     borderopacity="1"
     inkscape:pageshadow="0"
     inkscape:pageopacity="0"
     inkscape:pagecheckerboard="1"
     inkscape:document-units="px"
     showgrid="false"
     showguides="true"
     units="px"
     inkscape:snap-bbox="true"
     inkscape:snap-object-midpoints="true"
     inkscape:bbox-paths="true"
     inkscape:bbox-nodes="true"
     inkscape:snap-bbox-midpoints="true"
     inkscape:snap-page="true"
     inkscape:zoom="1.9459006"
     inkscape:cx="664.21688"
     inkscape:cy="630.81332"
     inkscape:window-width="1920"
     inkscape:window-height="1017"
     inkscape:window-x="-8"
     inkscape:window-y="-8"
     inkscape:window-maximized="1"
     inkscape:current-layer="layer3"
     inkscape:guide-bbox="true"
     inkscape:snap-smooth-nodes="true">
    <sodipodi:guide
       position="169.33332,169.33335"
       orientation="0,-1"
       id="guide989" />
    <sodipodi:guide
       position="169.33332,169.33336"
       orientation="1,0"
       id="guide991" />
    <sodipodi:guide
       position="146.09347,93.51136"
       orientation="0,-1"
       id="guide1501" />
    <sodipodi:guide
       position="135.44481,104.49612"
       orientation="-0.999792,0.020395129"
       id="guide1959" />
    <sodipodi:guide
       position="203.22187,104.49612"
       orientation="-0.99979201,-0.020394657"
       id="guide2674" />
    <sodipodi:guide
       position="162.82936,155.081"
       orientation="1,0"
       id="guide9989" />
  </sodipodi:namedview>
  <defs
     id="defs2">
    <inkscape:path-effect
       effect="mirror_symmetry"
       start_point="169.33332,126.9416"
       end_point="169.33332,158.92774"
       center_point="169.33332,142.93467"
       id="path-effect8474"
       is_visible="true"
       lpeversion="1.1"
       mode="free"
       discard_orig_path="false"
       fuse_paths="false"
       oposite_fuse="false"
       split_items="false"
       split_open="false" />
    <inkscape:path-effect
       effect="mirror_symmetry"
       start_point="169.33339,121.72329"
       end_point="169.33339,245.15531"
       center_point="169.33339,183.4393"
       id="path-effect4795"
       is_visible="true"
       lpeversion="1.1"
       mode="free"
       discard_orig_path="false"
       fuse_paths="false"
       oposite_fuse="false"
       split_items="false"
       split_open="false" />
    <inkscape:path-effect
       effect="mirror_symmetry"
       start_point="640.00001,475.3086"
       end_point="640.00001,1047.4492"
       center_point="640.00001,761.37891"
       id="path-effect1473"
       is_visible="true"
       lpeversion="1.1"
       mode="free"
       discard_orig_path="false"
       fuse_paths="false"
       oposite_fuse="false"
       split_items="false"
       split_open="false" />
    <radialGradient
       inkscape:collect="always"
       xlink:href="#linearGradient3836"
       id="radialGradient3954"
       cx="704.68213"
       cy="778.31689"
       fx="704.68213"
       fy="778.31689"
       r="176.26749"
       gradientTransform="matrix(-0.21675597,0,0,-1.0357655,335.67078,997.827)"
       gradientUnits="userSpaceOnUse" />
    <linearGradient
       inkscape:collect="always"
       id="linearGradient3836">
      <stop
         style="stop-color:#f2f2f2;stop-opacity:1"
         offset="0"
         id="stop3832" />
      <stop
         style="stop-color:#f9f9f9;stop-opacity:1"
         offset="0.78469104"
         id="stop4186" />
      <stop
         style="stop-color:#b3b3b3;stop-opacity:1"
         offset="1"
         id="stop3834" />
    </linearGradient>
  </defs>
  <g
     inkscape:groupmode="layer"
     id="layer2"
     inkscape:label="Body"
     style="display:none"
     sodipodi:insensitive="true">
    <path
       id="rect883"
       style="display:inline;fill:#ff0000;fill-opacity:1;stroke:#0000ff;stroke-width:6.13141;stroke-linecap:round;stroke-linejoin:round;stroke-miterlimit:4;stroke-dasharray:none"
       d="m 157.7571,121.72329 c -13.27893,0 -20.20553,9.17062 -20.58424,27.73632 l -1.72805,84.71094 c -0.12872,6.31066 4.03145,10.98476 10.64861,10.98476 h 23.23992 23.23992 c 6.61715,0 10.77733,-4.6741 10.64861,-10.98476 l -1.72806,-84.71094 c -0.3787,-18.5657 -7.30531,-27.73632 -20.58423,-27.73632 h -11.57624 z" />
  </g>
  <g
     inkscape:groupmode="layer"
     id="layer3"
     inkscape:label="Parka">
    <g
       id="rect883-0"
       transform="translate(-79.54812)">
      <path
         style="color:#000000;fill:url(#radialGradient3954);stroke:#000000;stroke-width:3.96875;stroke-linecap:round;stroke-linejoin:round;stroke-miterlimit:4;stroke-dasharray:none;stroke-opacity:1"
         d="m 157.7571,121.72329 c -13.27893,0 -20.20553,9.17062 -20.58424,27.73632 -0.65061,31.89857 -1.30156,63.79713 -1.95213,95.6957 h 34.11266 v -83.96513 c -3.6737,0 -9.43827,-0.38142 -11.2716,-1.69035 -4.16836,-2.97608 -7.4307,-22.62097 -4.8439,-27.60573 1.61395,-3.1101 4.51073,-5.28821 16.1155,-5.63971 v -4.5311 z m 23.15258,0 c 13.27893,0 20.20553,9.17062 20.58424,27.73632 0.65061,31.89857 1.30156,63.79713 1.95213,95.6957 h -34.11266 v -83.96513 c 3.6737,0 9.43827,-0.38142 11.2716,-1.69035 4.16836,-2.97608 7.4307,-22.62097 4.8439,-27.60573 -1.61395,-3.1101 -4.51073,-5.28821 -16.1155,-5.63971 v -4.5311 z"
         id="path4448"
         sodipodi:nodetypes="sccccssccs"
         inkscape:path-effect="#path-effect4795"
         inkscape:original-d="m 157.7571,121.72329 c -13.27893,0 -20.20553,9.17062 -20.58424,27.73632 -0.65061,31.89857 -1.30156,63.79713 -1.95213,95.6957 h 34.11266 v -83.96513 c -3.6737,0 -9.43827,-0.38142 -11.2716,-1.69035 -4.16836,-2.97608 -7.4307,-22.62097 -4.8439,-27.60573 1.61395,-3.1101 4.51073,-5.28821 16.1155,-5.63971 v -4.5311 z"
         transform="translate(79.548055,0.01039007)" />
    </g>
    <path
       d="m 157.75715,118.66844 c -7.3452,0 -13.58017,2.76215 -17.58789,8.13868 -4.00772,5.37652 -5.86558,12.94603 -6.0625,22.5996 -0.65061,31.89852 -1.3006,63.79871 -1.95117,95.69728 -0.0341,1.71644 1.34767,3.1264 3.06445,3.12694 h 34.11328 34.11133 c 1.71755,5.3e-4 3.10054,-1.40973 3.06641,-3.12694 l -1.95313,-95.69728 c -0.19691,-9.65357 -2.05282,-17.22308 -6.06054,-22.5996 -4.00773,-5.37653 -10.2427,-8.13868 -17.58789,-8.13868 h -11.57618 z m 0,6.13086 h 11.57617 11.57618 c 5.93371,0 9.80189,1.82168 12.67187,5.67188 2.86998,3.8502 4.66587,10.14843 4.84766,19.06054 l 1.88672,92.56836 h -30.98243 -30.98437 c 0.62932,-30.85556 1.25933,-61.71275 1.88867,-92.56836 0.18179,-8.91211 1.97768,-15.21034 4.84766,-19.06054 2.86998,-3.8502 6.73815,-5.67188 12.67187,-5.67188 z"
       style="color:#000000;fill:#000000;stroke-width:0.264583;stroke-linecap:round;stroke-linejoin:round;-inkscape-stroke:none"
       id="path4685" />
    <path
       style="fill:none;stroke:#000000;stroke-width:2.64583;stroke-linecap:round;stroke-linejoin:round;stroke-miterlimit:4;stroke-dasharray:none;stroke-opacity:1"
       d="m 152.02343,124.11841 c -9.50304,3.67883 -12.61314,35.73613 -0.59502,42.56243 0.31678,-4.55137 3.12122,-7.70944 6.63331,-7.17062 m 28.58149,-35.39181 c 9.50304,3.67883 12.61314,35.73613 0.59502,42.56243 -0.31678,-4.55137 -3.12122,-7.70944 -6.63331,-7.17062"
       id="path7879"
       sodipodi:nodetypes="ccc"
       inkscape:path-effect="#path-effect8474"
       inkscape:original-d="m 152.02343,124.11841 c -9.50304,3.67883 -12.61314,35.73613 -0.59502,42.56243 0.31678,-4.55137 3.12122,-7.70944 6.63331,-7.17062" />
    <circle
       style="opacity:1;fill:#000000;stroke:#000000;stroke-width:2.64583;stroke-linecap:round;stroke-linejoin:round;stroke-miterlimit:4;stroke-dasharray:none;stroke-opacity:1"
       id="path9722"
       cx="162.82936"
       cy="183.58568"
       r="1.3460305" />
    <circle
       style="fill:#000000;stroke:#000000;stroke-width:2.64583;stroke-linecap:round;stroke-linejoin:round;stroke-miterlimit:4;stroke-dasharray:none;stroke-opacity:1"
       id="path9722-2"
       cx="162.82936"
       cy="212.52051"
       r="1.3460305" />
  </g>
</svg>
